G04*
G04 #@! TF.GenerationSoftware,Altium Limited,Altium Designer,23.3.1 (30)*
G04*
G04 Layer_Color=16711935*
%FSLAX25Y25*%
%MOIN*%
G70*
G04*
G04 #@! TF.SameCoordinates,0926E253-2B7E-4DA0-91A0-339D2320E812*
G04*
G04*
G04 #@! TF.FilePolarity,Negative*
G04*
G01*
G75*
%ADD45R,0.05500X0.04000*%
G04:AMPARAMS|DCode=46|XSize=60mil|YSize=55mil|CornerRadius=0mil|HoleSize=0mil|Usage=FLASHONLY|Rotation=90.000|XOffset=0mil|YOffset=0mil|HoleType=Round|Shape=Octagon|*
%AMOCTAGOND46*
4,1,8,0.01375,0.03000,-0.01375,0.03000,-0.02750,0.01625,-0.02750,-0.01625,-0.01375,-0.03000,0.01375,-0.03000,0.02750,-0.01625,0.02750,0.01625,0.01375,0.03000,0.0*
%
%ADD46OCTAGOND46*%

%ADD47R,0.05500X0.06000*%
%ADD48R,0.02468X0.05224*%
%ADD55C,0.06500*%
%ADD56C,0.07193*%
%ADD57R,0.07193X0.07193*%
%ADD58C,0.05618*%
%ADD59C,0.06406*%
%ADD60C,0.06306*%
%ADD61R,0.06406X0.06406*%
%ADD62R,0.07587X0.07587*%
%ADD63C,0.07587*%
%ADD64R,0.05224X0.05224*%
%ADD65C,0.05224*%
%ADD66C,0.06400*%
%ADD67O,0.05224X0.09555*%
%ADD68O,0.05224X0.08374*%
%ADD69C,0.03453*%
%ADD70C,0.13098*%
%ADD95R,0.04000X0.05500*%
%ADD96O,0.09161X0.02862*%
%ADD97R,0.05224X0.02468*%
%ADD98O,0.07587X0.02665*%
%ADD99R,0.07587X0.02665*%
D45*
X290051Y330080D02*
D03*
X290051Y322600D02*
D03*
X412705Y284649D02*
D03*
Y292130D02*
D03*
X442007Y292130D02*
D03*
Y284650D02*
D03*
X442007Y308464D02*
D03*
X442007Y300984D02*
D03*
X420120Y338185D02*
D03*
X420120Y330705D02*
D03*
X364738Y391548D02*
D03*
X364738Y399029D02*
D03*
X355285Y308687D02*
D03*
Y316168D02*
D03*
Y292460D02*
D03*
Y299940D02*
D03*
X351014Y263736D02*
D03*
X351014Y256255D02*
D03*
X342656Y256278D02*
D03*
X342656Y263759D02*
D03*
X333798Y388318D02*
D03*
Y380838D02*
D03*
X333903Y366467D02*
D03*
Y373947D02*
D03*
X327969Y300752D02*
D03*
X327969Y293272D02*
D03*
X315391Y300752D02*
D03*
X315391Y293272D02*
D03*
X298885Y277959D02*
D03*
Y285440D02*
D03*
X314012Y346553D02*
D03*
X314012Y354033D02*
D03*
X298000Y366500D02*
D03*
X298000Y373980D02*
D03*
X297789Y388974D02*
D03*
Y381494D02*
D03*
X232074Y362780D02*
D03*
Y370260D02*
D03*
X174928Y374363D02*
D03*
Y381843D02*
D03*
X241933Y272532D02*
D03*
X241933Y265052D02*
D03*
X412705Y308464D02*
D03*
X412705Y300984D02*
D03*
D46*
X290051Y352435D02*
D03*
D47*
Y338935D02*
D03*
D48*
X302473Y336302D02*
D03*
X306213Y345302D02*
D03*
X298733D02*
D03*
X316235Y330552D02*
D03*
X319976Y339552D02*
D03*
X312495Y339552D02*
D03*
D55*
X379823Y252062D02*
D03*
X389823D02*
D03*
X369823D02*
D03*
X301617Y242719D02*
D03*
Y262404D02*
D03*
X195760Y318951D02*
D03*
X195820Y308930D02*
D03*
Y288930D02*
D03*
Y298952D02*
D03*
X289000Y279500D02*
D03*
Y289500D02*
D03*
Y299500D02*
D03*
Y309500D02*
D03*
X430068Y412425D02*
D03*
X420068D02*
D03*
X440068D02*
D03*
X472111Y312126D02*
D03*
X472172Y302106D02*
D03*
Y282106D02*
D03*
Y292127D02*
D03*
X379633Y261713D02*
D03*
X389633D02*
D03*
X369633D02*
D03*
X399637Y240561D02*
D03*
X379637Y240561D02*
D03*
X389616D02*
D03*
X359617Y240500D02*
D03*
X369617Y240500D02*
D03*
X222174Y369003D02*
D03*
Y379003D02*
D03*
D56*
X230437Y272558D02*
D03*
X460717Y309154D02*
D03*
X460717Y284874D02*
D03*
D57*
X220437Y272558D02*
D03*
X450717Y309154D02*
D03*
X450717Y284874D02*
D03*
D58*
X344353Y308563D02*
D03*
Y289666D02*
D03*
D59*
X423500Y253500D02*
D03*
X413500D02*
D03*
X403500D02*
D03*
X463500D02*
D03*
X453500D02*
D03*
X433500D02*
D03*
D60*
X443500D02*
D03*
D61*
X473500D02*
D03*
D62*
X269810Y252562D02*
D03*
X262294Y374743D02*
D03*
X211344Y344833D02*
D03*
D63*
X256030Y252562D02*
D03*
X248515Y374743D02*
D03*
X197564Y344833D02*
D03*
D64*
X234499Y302437D02*
D03*
X255577Y330629D02*
D03*
D65*
X228593Y302437D02*
D03*
X261482Y330629D02*
D03*
D66*
X207786Y373177D02*
D03*
X197786D02*
D03*
X187786D02*
D03*
D67*
X217774Y398805D02*
D03*
X182341Y398805D02*
D03*
D68*
X182342Y415144D02*
D03*
X217775Y415144D02*
D03*
D69*
X188336Y400774D02*
D03*
X211092D02*
D03*
D70*
X492500Y240500D02*
D03*
X169000Y239000D02*
D03*
X491000Y412500D02*
D03*
X167500Y411000D02*
D03*
D95*
X400259Y272000D02*
D03*
X407740Y272000D02*
D03*
X305231Y250029D02*
D03*
X297750Y250029D02*
D03*
X471257Y268903D02*
D03*
X463777Y268903D02*
D03*
X420414Y295802D02*
D03*
X427895Y295802D02*
D03*
X426949Y322796D02*
D03*
X419468Y322796D02*
D03*
X420894Y345948D02*
D03*
X413413D02*
D03*
X394860Y349000D02*
D03*
X402340D02*
D03*
X379260Y349000D02*
D03*
X386740Y349000D02*
D03*
X419473Y403167D02*
D03*
X426954Y403167D02*
D03*
X434456Y403200D02*
D03*
X441937D02*
D03*
X390013Y408660D02*
D03*
X397493D02*
D03*
X411908Y382772D02*
D03*
X404428Y382772D02*
D03*
X404445Y374095D02*
D03*
X396965D02*
D03*
X373027Y374095D02*
D03*
X365547Y374095D02*
D03*
X373303Y384089D02*
D03*
X365823D02*
D03*
X373259Y325500D02*
D03*
X380740Y325500D02*
D03*
X339738Y318588D02*
D03*
X347218D02*
D03*
X347118Y299520D02*
D03*
X339638D02*
D03*
X339738Y281322D02*
D03*
X347218Y281322D02*
D03*
X343397Y247924D02*
D03*
X350877Y247924D02*
D03*
X335000Y241000D02*
D03*
X327520D02*
D03*
X311966Y240904D02*
D03*
X319446D02*
D03*
X327147Y271885D02*
D03*
X319666D02*
D03*
X320544Y322843D02*
D03*
X313064D02*
D03*
X298572Y328634D02*
D03*
X306052Y328634D02*
D03*
X298600Y353456D02*
D03*
X306080D02*
D03*
X234173Y288820D02*
D03*
X226693D02*
D03*
X211829Y288935D02*
D03*
X219310D02*
D03*
X204454Y385234D02*
D03*
X211934D02*
D03*
X185644Y385234D02*
D03*
X193124Y385234D02*
D03*
X261300Y344098D02*
D03*
X253820Y344098D02*
D03*
X380854Y269517D02*
D03*
X388334Y269517D02*
D03*
X366499Y269815D02*
D03*
X373979D02*
D03*
D96*
X391256Y322747D02*
D03*
Y327747D02*
D03*
Y332747D02*
D03*
Y337747D02*
D03*
X410154Y322747D02*
D03*
Y327747D02*
D03*
Y332747D02*
D03*
Y337747D02*
D03*
D97*
X389350Y371452D02*
D03*
X380349Y375192D02*
D03*
X380349Y367712D02*
D03*
X380381Y385268D02*
D03*
X389381Y381527D02*
D03*
Y389008D02*
D03*
D98*
X312956Y248791D02*
D03*
Y253791D02*
D03*
Y258791D02*
D03*
Y263791D02*
D03*
X333626Y248791D02*
D03*
Y253791D02*
D03*
Y258791D02*
D03*
D99*
Y263791D02*
D03*
M02*
