G04*
G04 #@! TF.GenerationSoftware,Altium Limited,Altium Designer,23.3.1 (30)*
G04*
G04 Layer_Color=8421504*
%FSLAX25Y25*%
%MOIN*%
G70*
G04*
G04 #@! TF.SameCoordinates,0926E253-2B7E-4DA0-91A0-339D2320E812*
G04*
G04*
G04 #@! TF.FilePolarity,Positive*
G04*
G01*
G75*
%ADD19R,0.01181X0.04528*%
%ADD20O,0.01181X0.07087*%
%ADD21O,0.07087X0.01181*%
%ADD22O,0.06870X0.02205*%
%ADD23R,0.05512X0.09843*%
%ADD24R,0.06693X0.05512*%
G04:AMPARAMS|DCode=25|XSize=59.06mil|YSize=25.59mil|CornerRadius=6.4mil|HoleSize=0mil|Usage=FLASHONLY|Rotation=180.000|XOffset=0mil|YOffset=0mil|HoleType=Round|Shape=RoundedRectangle|*
%AMROUNDEDRECTD25*
21,1,0.05906,0.01280,0,0,180.0*
21,1,0.04626,0.02559,0,0,180.0*
1,1,0.01280,-0.02313,0.00640*
1,1,0.01280,0.02313,0.00640*
1,1,0.01280,0.02313,-0.00640*
1,1,0.01280,-0.02313,-0.00640*
%
%ADD25ROUNDEDRECTD25*%
G04:AMPARAMS|DCode=26|XSize=59.06mil|YSize=25.59mil|CornerRadius=6.4mil|HoleSize=0mil|Usage=FLASHONLY|Rotation=270.000|XOffset=0mil|YOffset=0mil|HoleType=Round|Shape=RoundedRectangle|*
%AMROUNDEDRECTD26*
21,1,0.05906,0.01280,0,0,270.0*
21,1,0.04626,0.02559,0,0,270.0*
1,1,0.01280,-0.00640,-0.02313*
1,1,0.01280,-0.00640,0.02313*
1,1,0.01280,0.00640,0.02313*
1,1,0.01280,0.00640,-0.02313*
%
%ADD26ROUNDEDRECTD26*%
%ADD27R,0.05000X0.03500*%
G04:AMPARAMS|DCode=28|XSize=55mil|YSize=50mil|CornerRadius=0mil|HoleSize=0mil|Usage=FLASHONLY|Rotation=90.000|XOffset=0mil|YOffset=0mil|HoleType=Round|Shape=Octagon|*
%AMOCTAGOND28*
4,1,8,0.01250,0.02750,-0.01250,0.02750,-0.02500,0.01500,-0.02500,-0.01500,-0.01250,-0.02750,0.01250,-0.02750,0.02500,-0.01500,0.02500,0.01500,0.01250,0.02750,0.0*
%
%ADD28OCTAGOND28*%

%ADD29R,0.05000X0.05500*%
%ADD30R,0.01968X0.04724*%
%ADD31R,0.04331X0.09843*%
%ADD32R,0.14173X0.09213*%
%ADD33R,0.01180X0.04520*%
%ADD34R,0.01181X0.04528*%
%ADD35R,0.01180X0.04520*%
%ADD36R,0.07480X0.05118*%
D19*
X189674Y395655D02*
D03*
X186525Y395656D02*
D03*
X198730Y395662D02*
D03*
X202667D02*
D03*
X212903Y395662D02*
D03*
X209753Y395672D02*
D03*
D20*
X373219Y313479D02*
D03*
X375188D02*
D03*
X377156D02*
D03*
X379125D02*
D03*
X381093D02*
D03*
X383062D02*
D03*
X385030D02*
D03*
X386999D02*
D03*
X388967D02*
D03*
X390936D02*
D03*
X392904D02*
D03*
X394873D02*
D03*
Y281589D02*
D03*
X392904D02*
D03*
X390936D02*
D03*
X388967D02*
D03*
X386999D02*
D03*
X385030D02*
D03*
X383062D02*
D03*
X381093D02*
D03*
X379125D02*
D03*
X377156D02*
D03*
X375188D02*
D03*
X373219D02*
D03*
D21*
X399991Y308361D02*
D03*
Y306392D02*
D03*
Y304423D02*
D03*
Y302455D02*
D03*
Y300486D02*
D03*
Y298518D02*
D03*
Y296550D02*
D03*
Y294581D02*
D03*
Y292613D02*
D03*
Y290644D02*
D03*
Y288675D02*
D03*
Y286707D02*
D03*
X368101D02*
D03*
Y288675D02*
D03*
Y290644D02*
D03*
Y292613D02*
D03*
Y294581D02*
D03*
Y296550D02*
D03*
Y298518D02*
D03*
Y300486D02*
D03*
Y302455D02*
D03*
Y304423D02*
D03*
Y306392D02*
D03*
Y308361D02*
D03*
D22*
X309339Y353957D02*
D03*
X309339Y358957D02*
D03*
X309339Y363957D02*
D03*
Y368957D02*
D03*
Y373957D02*
D03*
Y378957D02*
D03*
X286721Y353957D02*
D03*
X286721Y358957D02*
D03*
X286721Y363957D02*
D03*
Y368957D02*
D03*
Y373957D02*
D03*
Y378957D02*
D03*
X286721Y383957D02*
D03*
X286721Y388957D02*
D03*
X309339D02*
D03*
X309339Y383957D02*
D03*
X345106Y353957D02*
D03*
X345106Y358957D02*
D03*
X345106Y363957D02*
D03*
Y368957D02*
D03*
Y373957D02*
D03*
Y378957D02*
D03*
X322488Y353957D02*
D03*
X322488Y358957D02*
D03*
X322488Y363957D02*
D03*
Y368957D02*
D03*
Y373957D02*
D03*
Y378957D02*
D03*
X322488Y383957D02*
D03*
X322488Y388957D02*
D03*
X345106D02*
D03*
X345106Y383957D02*
D03*
D23*
X427313Y393530D02*
D03*
X419439Y393530D02*
D03*
X411564D02*
D03*
X403690D02*
D03*
X395816D02*
D03*
X387943D02*
D03*
X380068D02*
D03*
X372195Y393527D02*
D03*
Y334081D02*
D03*
X380068Y334075D02*
D03*
X387943Y334070D02*
D03*
X395816Y334073D02*
D03*
X403690Y334076D02*
D03*
X411564Y334073D02*
D03*
X419439Y334074D02*
D03*
X427313Y334073D02*
D03*
D24*
X367072Y383485D02*
D03*
X367077Y375619D02*
D03*
X367075Y367750D02*
D03*
Y359873D02*
D03*
X367075Y352002D02*
D03*
X367073Y344128D02*
D03*
D25*
X378770Y408362D02*
D03*
X408709D02*
D03*
D26*
X429500Y311864D02*
D03*
Y281925D02*
D03*
D27*
X353051Y263713D02*
D03*
X353051Y271193D02*
D03*
X344399Y271290D02*
D03*
Y263810D02*
D03*
D28*
X348500Y254750D02*
D03*
D29*
Y241250D02*
D03*
D30*
X336624Y239876D02*
D03*
X332884Y248876D02*
D03*
X340364D02*
D03*
D31*
X227112Y330519D02*
D03*
X236167D02*
D03*
X245222D02*
D03*
X263360Y302799D02*
D03*
X254305D02*
D03*
X245250D02*
D03*
D32*
X236167Y353905D02*
D03*
X254305Y279413D02*
D03*
D33*
X194794Y395656D02*
D03*
D34*
X187706D02*
D03*
X190856Y395656D02*
D03*
X192824Y395656D02*
D03*
X196761D02*
D03*
X200698Y395656D02*
D03*
X204635D02*
D03*
X208572Y395672D02*
D03*
X211722Y395662D02*
D03*
D35*
X206604Y395656D02*
D03*
D36*
X327979Y307839D02*
D03*
X327979Y286185D02*
D03*
X315381D02*
D03*
X315381Y307839D02*
D03*
M02*
