G04*
G04 #@! TF.GenerationSoftware,Altium Limited,Altium Designer,23.3.1 (30)*
G04*
G04 Layer_Color=2752767*
%FSLAX25Y25*%
%MOIN*%
G70*
G04*
G04 #@! TF.SameCoordinates,0926E253-2B7E-4DA0-91A0-339D2320E812*
G04*
G04*
G04 #@! TF.FilePolarity,Positive*
G04*
G01*
G75*
%ADD71C,0.00500*%
%ADD103C,0.00667*%
D71*
X379823Y250062D02*
X377823Y254062D01*
X381823D01*
X379823Y250062D01*
X389823D02*
X387823Y254062D01*
X391823D01*
X389823Y250062D01*
X369823D02*
X367823Y254062D01*
X371823D01*
X369823Y250062D01*
X301617Y240719D02*
X299617Y244719D01*
X303616D01*
X301617Y240719D01*
Y260404D02*
X299617Y264404D01*
X303616D01*
X301617Y260404D01*
X195760Y316951D02*
X193760Y320951D01*
X197760D01*
X195760Y316951D01*
X195820Y306930D02*
X193820Y310930D01*
X197820D01*
X195820Y306930D01*
Y286930D02*
X193820Y290930D01*
X197820D01*
X195820Y286930D01*
Y296952D02*
X193820Y300952D01*
X197820D01*
X195820Y296952D01*
X342353Y306563D02*
Y310563D01*
X346353D01*
Y306563D01*
X342353D01*
Y287666D02*
Y291666D01*
X346353D01*
Y287666D01*
X342353D01*
X287000Y279500D02*
X289000Y281500D01*
X291000Y279500D01*
X289000Y277500D01*
X287000Y279500D01*
Y289500D02*
X289000Y291500D01*
X291000Y289500D01*
X289000Y287500D01*
X287000Y289500D01*
Y299500D02*
X289000Y301500D01*
X291000Y299500D01*
X289000Y297500D01*
X287000Y299500D01*
Y307500D02*
X288000D01*
X289000Y308500D01*
X290000Y307500D01*
X291000D01*
Y308500D01*
X290000Y309500D01*
X291000Y310500D01*
Y311500D01*
X290000D01*
X289000Y310500D01*
X288000Y311500D01*
X287000D01*
Y310500D01*
X288000Y309500D01*
X287000Y308500D01*
Y307500D01*
X430068Y410425D02*
X428068Y414425D01*
X432068D01*
X430068Y410425D01*
X420068D02*
X418068Y414425D01*
X422068D01*
X420068Y410425D01*
X440068D02*
X438068Y414425D01*
X442068D01*
X440068Y410425D01*
X472111Y310126D02*
X470111Y314126D01*
X474111D01*
X472111Y310126D01*
X472172Y300106D02*
X470172Y304106D01*
X474172D01*
X472172Y300106D01*
Y280106D02*
X470172Y284106D01*
X474172D01*
X472172Y280106D01*
Y290127D02*
X470172Y294127D01*
X474172D01*
X472172Y290127D01*
X421500Y253500D02*
X423500Y255500D01*
X425500Y253500D01*
X423500Y251500D01*
X421500Y253500D01*
X411500D02*
X413500Y255500D01*
X415500Y253500D01*
X413500Y251500D01*
X411500Y253500D01*
X401500D02*
X403500Y255500D01*
X405500Y253500D01*
X403500Y251500D01*
X401500Y253500D01*
X461500D02*
X463500Y255500D01*
X465500Y253500D01*
X463500Y251500D01*
X461500Y253500D01*
X451500D02*
X453500Y255500D01*
X455500Y253500D01*
X453500Y251500D01*
X451500Y253500D01*
X441500D02*
X443500Y255500D01*
X445500Y253500D01*
X443500Y251500D01*
X441500Y253500D01*
X431500D02*
X433500Y255500D01*
X435500Y253500D01*
X433500Y251500D01*
X431500Y253500D01*
X471500D02*
X473500Y255500D01*
X475500Y253500D01*
X473500Y251500D01*
X471500Y253500D01*
X379633Y259713D02*
X377633Y263713D01*
X381633D01*
X379633Y259713D01*
X389633D02*
X387633Y263713D01*
X391633D01*
X389633Y259713D01*
X369633D02*
X367633Y263713D01*
X371633D01*
X369633Y259713D01*
X399637Y238561D02*
X397637Y242561D01*
X401637D01*
X399637Y238561D01*
X379637Y238561D02*
X377637Y242561D01*
X381637D01*
X379637Y238561D01*
X389616D02*
X387616Y242561D01*
X391616D01*
X389616Y238561D01*
X359617Y238500D02*
X357617Y242500D01*
X361617D01*
X359617Y238500D01*
X369617Y238500D02*
X367617Y242500D01*
X371617D01*
X369617Y238500D01*
X232499Y300437D02*
Y304437D01*
X236499D01*
Y300437D01*
X232499D01*
X226593D02*
Y304437D01*
X230593D01*
Y300437D01*
X226593D01*
X253577Y328629D02*
Y332629D01*
X257577D01*
Y328629D01*
X253577D01*
X259482D02*
Y332629D01*
X263482D01*
Y328629D01*
X259482D01*
X222174Y367003D02*
X220174Y371003D01*
X224174D01*
X222174Y367003D01*
Y377003D02*
X220174Y381003D01*
X224174D01*
X222174Y377003D01*
X205786Y371177D02*
X206786D01*
X207786Y372177D01*
X208786Y371177D01*
X209786D01*
Y372177D01*
X208786Y373177D01*
X209786Y374177D01*
Y375177D01*
X208786D01*
X207786Y374177D01*
X206786Y375177D01*
X205786D01*
Y374177D01*
X206786Y373177D01*
X205786Y372177D01*
Y371177D01*
X195786D02*
X196786D01*
X197786Y372177D01*
X198786Y371177D01*
X199786D01*
Y372177D01*
X198786Y373177D01*
X199786Y374177D01*
Y375177D01*
X198786D01*
X197786Y374177D01*
X196786Y375177D01*
X195786D01*
Y374177D01*
X196786Y373177D01*
X195786Y372177D01*
Y371177D01*
X185786D02*
X186786D01*
X187786Y372177D01*
X188786Y371177D01*
X189786D01*
Y372177D01*
X188786Y373177D01*
X189786Y374177D01*
Y375177D01*
X188786D01*
X187786Y374177D01*
X186786Y375177D01*
X185786D01*
Y374177D01*
X186786Y373177D01*
X185786Y372177D01*
Y371177D01*
X216775Y397805D02*
Y396805D01*
X218775D01*
Y397805D01*
X219775D01*
Y399805D01*
X218775D01*
Y400805D01*
X216775D01*
Y399805D01*
X215775D01*
Y397805D01*
X216775D01*
X181342D02*
Y396805D01*
X183342D01*
Y397805D01*
X184342D01*
Y399805D01*
X183342D01*
Y400805D01*
X181342D01*
Y399805D01*
X180342D01*
Y397805D01*
X181342D01*
X180342Y413144D02*
X181342Y415144D01*
X180342Y417144D01*
X182342Y416144D01*
X184342Y417144D01*
X183342Y415144D01*
X184342Y413144D01*
X182342Y414144D01*
X180342Y413144D01*
X215775Y413144D02*
X216775Y415144D01*
X215775Y417144D01*
X217775Y416144D01*
X219775Y417144D01*
X218775Y415144D01*
X219775Y413144D01*
X217775Y414144D01*
X215775Y413144D01*
X188336Y398774D02*
X189336Y399774D01*
X190336D01*
X189336Y400774D01*
X190336Y401774D01*
X189336D01*
X188336Y402774D01*
X187336Y401774D01*
X186336D01*
X187336Y400774D01*
X186336Y399774D01*
X187336D01*
X188336Y398774D01*
X211092D02*
X212092Y399774D01*
X213092D01*
X212092Y400774D01*
X213092Y401774D01*
X212092D01*
X211092Y402774D01*
X210092Y401774D01*
X209092D01*
X210092Y400774D01*
X209092Y399774D01*
X210092D01*
X211092Y398774D01*
X492500Y238500D02*
X490500Y242500D01*
X494500D01*
X492500Y238500D01*
Y239300D02*
X491300Y241700D01*
X493700D01*
X492500Y239300D01*
X169000Y237000D02*
X167000Y241000D01*
X171000D01*
X169000Y237000D01*
Y237800D02*
X167800Y240200D01*
X170200D01*
X169000Y237800D01*
X491000Y410500D02*
X489000Y414500D01*
X493000D01*
X491000Y410500D01*
Y411300D02*
X489800Y413700D01*
X492200D01*
X491000Y411300D01*
X167500Y409000D02*
X165500Y413000D01*
X169500D01*
X167500Y409000D01*
Y409800D02*
X166300Y412200D01*
X168700D01*
X167500Y409800D01*
X430717Y277966D02*
Y281966D01*
X434717D01*
Y277966D01*
X430717D01*
X431517Y278766D02*
Y281166D01*
X433917D01*
Y278766D01*
X431517D01*
X432500Y293785D02*
Y297785D01*
X436500D01*
Y293785D01*
X432500D01*
X433300Y294585D02*
Y296985D01*
X435700D01*
Y294585D01*
X433300D01*
X185358Y388733D02*
Y392733D01*
X189358D01*
Y388733D01*
X185358D01*
X186158Y389533D02*
Y391933D01*
X188558D01*
Y389533D01*
X186158D01*
X182504Y388653D02*
Y392653D01*
X186504D01*
Y388653D01*
X182504D01*
X183305Y389453D02*
Y391853D01*
X185705D01*
Y389453D01*
X183305D01*
X179700Y388642D02*
Y392642D01*
X183700D01*
Y388642D01*
X179700D01*
X180500Y389442D02*
Y391842D01*
X182900D01*
Y389442D01*
X180500D01*
X380938Y318052D02*
Y322052D01*
X384938D01*
Y318052D01*
X380938D01*
X381738Y318852D02*
Y321252D01*
X384138D01*
Y318852D01*
X381738D01*
X386628Y317740D02*
Y321740D01*
X390628D01*
Y317740D01*
X386628D01*
X387428Y318540D02*
Y320940D01*
X389828D01*
Y318540D01*
X387428D01*
X241500Y285500D02*
Y289500D01*
X245500D01*
Y285500D01*
X241500D01*
X242300Y286300D02*
Y288700D01*
X244700D01*
Y286300D01*
X242300D01*
X246500Y288000D02*
Y292000D01*
X250500D01*
Y288000D01*
X246500D01*
X247300Y288800D02*
Y291200D01*
X249700D01*
Y288800D01*
X247300D01*
X251500Y285500D02*
Y289500D01*
X255500D01*
Y285500D01*
X251500D01*
X252300Y286300D02*
Y288700D01*
X254700D01*
Y286300D01*
X252300D01*
X236500Y360500D02*
Y364500D01*
X240500D01*
Y360500D01*
X236500D01*
X237300Y361300D02*
Y363700D01*
X239700D01*
Y361300D01*
X237300D01*
X233500Y340500D02*
Y344500D01*
X237500D01*
Y340500D01*
X233500D01*
X234300Y341300D02*
Y343700D01*
X236700D01*
Y341300D01*
X234300D01*
X401000Y406500D02*
Y410500D01*
X405000D01*
Y406500D01*
X401000D01*
X401800Y407300D02*
Y409700D01*
X404200D01*
Y407300D01*
X401800D01*
X382500Y406500D02*
Y410500D01*
X386500D01*
Y406500D01*
X382500D01*
X383300Y407300D02*
Y409700D01*
X385700D01*
Y407300D01*
X383300D01*
X246551Y292953D02*
Y296953D01*
X250551D01*
Y292953D01*
X246551D01*
X247351Y293753D02*
Y296153D01*
X249751D01*
Y293753D01*
X247351D01*
X243500Y340500D02*
Y344500D01*
X247500D01*
Y340500D01*
X243500D01*
X244300Y341300D02*
Y343700D01*
X246700D01*
Y341300D01*
X244300D01*
X238500Y340500D02*
Y344500D01*
X242500D01*
Y340500D01*
X238500D01*
X239300Y341300D02*
Y343700D01*
X241700D01*
Y341300D01*
X239300D01*
X228622Y340470D02*
Y344470D01*
X232622D01*
Y340470D01*
X228622D01*
X229422Y341270D02*
Y343670D01*
X231822D01*
Y341270D01*
X229422D01*
X224483Y340482D02*
Y344482D01*
X228483D01*
Y340482D01*
X224483D01*
X225283Y341282D02*
Y343682D01*
X227683D01*
Y341282D01*
X225283D01*
X271462Y300545D02*
Y304545D01*
X275462D01*
Y300545D01*
X271462D01*
X272262Y301345D02*
Y303745D01*
X274662D01*
Y301345D01*
X272262D01*
X265500Y300500D02*
Y304500D01*
X269500D01*
Y300500D01*
X265500D01*
X266300Y301300D02*
Y303700D01*
X268700D01*
Y301300D01*
X266300D01*
X268500Y300500D02*
Y304500D01*
X272500D01*
Y300500D01*
X268500D01*
X269300Y301300D02*
Y303700D01*
X271700D01*
Y301300D01*
X269300D01*
X221000Y328500D02*
Y332500D01*
X225000D01*
Y328500D01*
X221000D01*
X221800Y329300D02*
Y331700D01*
X224200D01*
Y329300D01*
X221800D01*
X218416Y328516D02*
Y332516D01*
X222416D01*
Y328516D01*
X218416D01*
X219216Y329316D02*
Y331716D01*
X221616D01*
Y329316D01*
X219216D01*
X215208Y328534D02*
Y332534D01*
X219208D01*
Y328534D01*
X215208D01*
X216008Y329334D02*
Y331734D01*
X218408D01*
Y329334D01*
X216008D01*
X212297Y328606D02*
Y332606D01*
X216297D01*
Y328606D01*
X212297D01*
X213097Y329406D02*
Y331806D01*
X215497D01*
Y329406D01*
X213097D01*
X226803Y295594D02*
Y299594D01*
X230803D01*
Y295594D01*
X226803D01*
X227603Y296394D02*
Y298794D01*
X230003D01*
Y296394D01*
X227603D01*
X324296Y246343D02*
Y250343D01*
X328296D01*
Y246343D01*
X324296D01*
X325096Y247143D02*
Y249543D01*
X327496D01*
Y247143D01*
X325096D01*
X337000Y269500D02*
Y273500D01*
X341000D01*
Y269500D01*
X337000D01*
X337800Y270300D02*
Y272700D01*
X340200D01*
Y270300D01*
X337800D01*
X461740Y260500D02*
Y264500D01*
X465740D01*
Y260500D01*
X461740D01*
X462540Y261300D02*
Y263700D01*
X464941D01*
Y261300D01*
X462540D01*
X434000Y262500D02*
Y266500D01*
X438000D01*
Y262500D01*
X434000D01*
X434800Y263300D02*
Y265700D01*
X437200D01*
Y263300D01*
X434800D01*
X191778Y388605D02*
Y392605D01*
X195778D01*
Y388605D01*
X191778D01*
X192578Y389405D02*
Y391805D01*
X194978D01*
Y389405D01*
X192578D01*
X194883Y388622D02*
Y392622D01*
X198883D01*
Y388622D01*
X194883D01*
X195683Y389422D02*
Y391822D01*
X198083D01*
Y389422D01*
X195683D01*
X210053Y388669D02*
Y392669D01*
X214053D01*
Y388669D01*
X210053D01*
X210853Y389469D02*
Y391869D01*
X213253D01*
Y389469D01*
X210853D01*
X202613Y388681D02*
Y392681D01*
X206613D01*
Y388681D01*
X202613D01*
X203413Y389481D02*
Y391881D01*
X205813D01*
Y389481D01*
X203413D01*
X198844Y388590D02*
Y392590D01*
X202844D01*
Y388590D01*
X198844D01*
X199644Y389390D02*
Y391790D01*
X202044D01*
Y389390D01*
X199644D01*
X215875Y388669D02*
Y392669D01*
X219875D01*
Y388669D01*
X215875D01*
X216675Y389469D02*
Y391869D01*
X219075D01*
Y389469D01*
X216675D01*
X213012Y388692D02*
Y392692D01*
X217012D01*
Y388692D01*
X213012D01*
X213812Y389493D02*
Y391893D01*
X216212D01*
Y389493D01*
X213812D01*
X336803Y386910D02*
Y390910D01*
X340803D01*
Y386910D01*
X336803D01*
X337603Y387710D02*
Y390110D01*
X340003D01*
Y387710D01*
X337603D01*
X315574Y384894D02*
Y388895D01*
X319574D01*
Y384894D01*
X315574D01*
X316374Y385695D02*
Y388094D01*
X318774D01*
Y385695D01*
X316374D01*
X326680Y369099D02*
Y373099D01*
X330680D01*
Y369099D01*
X326680D01*
X327480Y369899D02*
Y372299D01*
X329880D01*
Y369899D01*
X327480D01*
X278536Y362081D02*
Y366081D01*
X282536D01*
Y362081D01*
X278536D01*
X279335Y362881D02*
Y365281D01*
X281735D01*
Y362881D01*
X279335D01*
X200500Y399199D02*
Y403199D01*
X204500D01*
Y399199D01*
X200500D01*
X201300Y399999D02*
Y402399D01*
X203700D01*
Y399999D01*
X201300D01*
X278275Y367000D02*
Y371000D01*
X282276D01*
Y367000D01*
X278275D01*
X279076Y367800D02*
Y370200D01*
X281475D01*
Y367800D01*
X279076D01*
X196686Y399113D02*
Y403113D01*
X200687D01*
Y399113D01*
X196686D01*
X197486Y399913D02*
Y402313D01*
X199887D01*
Y399913D01*
X197486D01*
X326514Y364026D02*
Y368026D01*
X330514D01*
Y364026D01*
X326514D01*
X327314Y364826D02*
Y367226D01*
X329714D01*
Y364826D01*
X327314D01*
X326493Y359956D02*
Y363956D01*
X330493D01*
Y359956D01*
X326493D01*
X327293Y360756D02*
Y363156D01*
X329693D01*
Y360756D01*
X327293D01*
X313000Y377000D02*
Y381000D01*
X317000D01*
Y377000D01*
X313000D01*
X313800Y377800D02*
Y380200D01*
X316200D01*
Y377800D01*
X313800D01*
X313112Y371846D02*
Y375846D01*
X317112D01*
Y371846D01*
X313112D01*
X313912Y372646D02*
Y375046D01*
X316312D01*
Y372646D01*
X313912D01*
X280000Y385000D02*
Y389000D01*
X284000D01*
Y385000D01*
X280000D01*
X280800Y385800D02*
Y388200D01*
X283200D01*
Y385800D01*
X280800D01*
X239962Y275866D02*
Y279866D01*
X243962D01*
Y275866D01*
X239962D01*
X240761Y276665D02*
Y279065D01*
X243162D01*
Y276665D01*
X240761D01*
X353400Y285665D02*
Y289665D01*
X357400D01*
Y285665D01*
X353400D01*
X354200Y286465D02*
Y288865D01*
X356600D01*
Y286465D01*
X354200D01*
X362104Y331606D02*
Y335606D01*
X366104D01*
Y331606D01*
X362104D01*
X362904Y332406D02*
Y334806D01*
X365304D01*
Y332406D01*
X362904D01*
X362060Y336772D02*
Y340772D01*
X366060D01*
Y336772D01*
X362060D01*
X362860Y337572D02*
Y339972D01*
X365260D01*
Y337572D01*
X362860D01*
X362060Y334303D02*
Y338303D01*
X366060D01*
Y334303D01*
X362060D01*
X362860Y335103D02*
Y337503D01*
X365260D01*
Y335103D01*
X362860D01*
X400500Y354000D02*
Y358000D01*
X404500D01*
Y354000D01*
X400500D01*
X401300Y354800D02*
Y357200D01*
X403700D01*
Y354800D01*
X401300D01*
X301340Y386757D02*
Y390757D01*
X305340D01*
Y386757D01*
X301340D01*
X302139Y387557D02*
Y389957D01*
X304539D01*
Y387557D01*
X302139D01*
X302500Y318000D02*
Y322000D01*
X306500D01*
Y318000D01*
X302500D01*
X303300Y318800D02*
Y321200D01*
X305700D01*
Y318800D01*
X303300D01*
X299870Y317979D02*
Y321979D01*
X303870D01*
Y317979D01*
X299870D01*
X300670Y318779D02*
Y321179D01*
X303070D01*
Y318779D01*
X300670D01*
X324863Y320363D02*
Y324363D01*
X328863D01*
Y320363D01*
X324863D01*
X325663Y321163D02*
Y323563D01*
X328063D01*
Y321163D01*
X325663D01*
X389738Y273345D02*
Y277345D01*
X393738D01*
Y273345D01*
X389738D01*
X390538Y274145D02*
Y276545D01*
X392938D01*
Y274145D01*
X390538D01*
X384675Y273401D02*
Y277401D01*
X388675D01*
Y273401D01*
X384675D01*
X385475Y274201D02*
Y276602D01*
X387875D01*
Y274201D01*
X385475D01*
X360077Y284423D02*
Y288423D01*
X364077D01*
Y284423D01*
X360077D01*
X360877Y285223D02*
Y287623D01*
X363277D01*
Y285223D01*
X360877D01*
X359500Y292249D02*
Y296250D01*
X363500D01*
Y292249D01*
X359500D01*
X360300Y293050D02*
Y295449D01*
X362700D01*
Y293050D01*
X360300D01*
X390664Y294516D02*
Y298516D01*
X394664D01*
Y294516D01*
X390664D01*
X391464Y295316D02*
Y297716D01*
X393864D01*
Y295316D01*
X391464D01*
X388406Y297751D02*
Y301751D01*
X392407D01*
Y297751D01*
X388406D01*
X389207Y298551D02*
Y300951D01*
X391606D01*
Y298551D01*
X389207D01*
X388257Y300747D02*
Y304747D01*
X392257D01*
Y300747D01*
X388257D01*
X389057Y301547D02*
Y303947D01*
X391457D01*
Y301547D01*
X389057D01*
X381500Y295000D02*
Y299000D01*
X385500D01*
Y295000D01*
X381500D01*
X382300Y295800D02*
Y298200D01*
X384700D01*
Y295800D01*
X382300D01*
X382340Y298907D02*
Y302907D01*
X386340D01*
Y298907D01*
X382340D01*
X383140Y299707D02*
Y302107D01*
X385540D01*
Y299707D01*
X383140D01*
X378500Y293000D02*
Y297000D01*
X382500D01*
Y293000D01*
X378500D01*
X379300Y293800D02*
Y296200D01*
X381700D01*
Y293800D01*
X379300D01*
X375852Y298318D02*
Y302318D01*
X379853D01*
Y298318D01*
X375852D01*
X376653Y299118D02*
Y301518D01*
X379052D01*
Y299118D01*
X376653D01*
X374500Y318000D02*
Y322000D01*
X378500D01*
Y318000D01*
X374500D01*
X375300Y318800D02*
Y321200D01*
X377700D01*
Y318800D01*
X375300D01*
X371300Y318063D02*
Y322063D01*
X375300D01*
Y318063D01*
X371300D01*
X372100Y318863D02*
Y321263D01*
X374500D01*
Y318863D01*
X372100D01*
X359400Y315782D02*
Y319782D01*
X363400D01*
Y315782D01*
X359400D01*
X360199Y316582D02*
Y318982D01*
X362599D01*
Y316582D01*
X360199D01*
X351348Y323610D02*
Y327610D01*
X355348D01*
Y323610D01*
X351348D01*
X352148Y324410D02*
Y326810D01*
X354548D01*
Y324410D01*
X352148D01*
X290601Y372075D02*
Y376075D01*
X294601D01*
Y372075D01*
X290601D01*
X291401Y372875D02*
Y375275D01*
X293801D01*
Y372875D01*
X291401D01*
X393027Y273224D02*
Y277224D01*
X397027D01*
Y273224D01*
X393027D01*
X393827Y274024D02*
Y276424D01*
X396227D01*
Y274024D01*
X393827D01*
X359317Y289255D02*
Y293255D01*
X363317D01*
Y289255D01*
X359317D01*
X360117Y290055D02*
Y292455D01*
X362517D01*
Y290055D01*
X360117D01*
X404500Y303016D02*
Y307016D01*
X408500D01*
Y303016D01*
X404500D01*
X405300Y303816D02*
Y306216D01*
X407700D01*
Y303816D01*
X405300D01*
X427500Y304500D02*
Y308500D01*
X431500D01*
Y304500D01*
X427500D01*
X428300Y305300D02*
Y307700D01*
X430700D01*
Y305300D01*
X428300D01*
X404643Y306532D02*
Y310532D01*
X408643D01*
Y306532D01*
X404643D01*
X405443Y307332D02*
Y309732D01*
X407843D01*
Y307332D01*
X405443D01*
X349742Y372424D02*
Y376424D01*
X353742D01*
Y372424D01*
X349742D01*
X350542Y373224D02*
Y375624D01*
X352942D01*
Y373224D01*
X350542D01*
X349581Y377257D02*
Y381257D01*
X353581D01*
Y377257D01*
X349581D01*
X350381Y378057D02*
Y380457D01*
X352781D01*
Y378057D01*
X350381D01*
X382537Y379986D02*
Y383986D01*
X386537D01*
Y379986D01*
X382537D01*
X383337Y380786D02*
Y383186D01*
X385737D01*
Y380786D01*
X383337D01*
X435000Y395500D02*
Y399500D01*
X439000D01*
Y395500D01*
X435000D01*
X435800Y396300D02*
Y398700D01*
X438200D01*
Y396300D01*
X435800D01*
X415500Y383215D02*
Y387215D01*
X419500D01*
Y383215D01*
X415500D01*
X416300Y384015D02*
Y386415D01*
X418700D01*
Y384015D01*
X416300D01*
X386178Y340817D02*
Y344817D01*
X390178D01*
Y340817D01*
X386178D01*
X386978Y341617D02*
Y344017D01*
X389378D01*
Y341617D01*
X386978D01*
X377365Y340720D02*
Y344720D01*
X381365D01*
Y340720D01*
X377365D01*
X378165Y341520D02*
Y343920D01*
X380565D01*
Y341520D01*
X378165D01*
X432290Y305553D02*
Y309553D01*
X436290D01*
Y305553D01*
X432290D01*
X433090Y306353D02*
Y308753D01*
X435490D01*
Y306353D01*
X433090D01*
X320417Y304876D02*
Y308876D01*
X324417D01*
Y304876D01*
X320417D01*
X321217Y305677D02*
Y308077D01*
X323617D01*
Y305677D01*
X321217D01*
X307831Y304858D02*
Y308858D01*
X311830D01*
Y304858D01*
X307831D01*
X308630Y305658D02*
Y308058D01*
X311031D01*
Y305658D01*
X308630D01*
X370055Y398876D02*
Y402876D01*
X374055D01*
Y398876D01*
X370055D01*
X370855Y399676D02*
Y402076D01*
X373255D01*
Y399676D01*
X370855D01*
X359070Y306430D02*
Y310430D01*
X363070D01*
Y306430D01*
X359070D01*
X359870Y307230D02*
Y309630D01*
X362270D01*
Y307230D01*
X359870D01*
D103*
X232437Y272558D02*
G03*
X232437Y272558I-2000J0D01*
G01*
X222437D02*
G03*
X222437Y272558I-2000J0D01*
G01*
X462717Y309154D02*
G03*
X462717Y309154I-2000J0D01*
G01*
X452717D02*
G03*
X452717Y309154I-2000J0D01*
G01*
X462717Y284874D02*
G03*
X462717Y284874I-2000J0D01*
G01*
X452717D02*
G03*
X452717Y284874I-2000J0D01*
G01*
X271810Y252562D02*
G03*
X271810Y252562I-2000J0D01*
G01*
X258030D02*
G03*
X258030Y252562I-2000J0D01*
G01*
X264294Y374743D02*
G03*
X264294Y374743I-2000J0D01*
G01*
X250515D02*
G03*
X250515Y374743I-2000J0D01*
G01*
X213344Y344833D02*
G03*
X213344Y344833I-2000J0D01*
G01*
X199564D02*
G03*
X199564Y344833I-2000J0D01*
G01*
M02*
