G04*
G04 #@! TF.GenerationSoftware,Altium Limited,Altium Designer,23.3.1 (30)*
G04*
G04 Layer_Physical_Order=1*
G04 Layer_Color=255*
%FSLAX25Y25*%
%MOIN*%
G70*
G04*
G04 #@! TF.SameCoordinates,0926E253-2B7E-4DA0-91A0-339D2320E812*
G04*
G04*
G04 #@! TF.FilePolarity,Positive*
G04*
G01*
G75*
%ADD10C,0.01000*%
%ADD19R,0.01181X0.04528*%
%ADD20O,0.01181X0.07087*%
%ADD21O,0.07087X0.01181*%
%ADD22O,0.06870X0.02205*%
%ADD23R,0.05512X0.09843*%
%ADD24R,0.06693X0.05512*%
G04:AMPARAMS|DCode=25|XSize=59.06mil|YSize=25.59mil|CornerRadius=6.4mil|HoleSize=0mil|Usage=FLASHONLY|Rotation=180.000|XOffset=0mil|YOffset=0mil|HoleType=Round|Shape=RoundedRectangle|*
%AMROUNDEDRECTD25*
21,1,0.05906,0.01280,0,0,180.0*
21,1,0.04626,0.02559,0,0,180.0*
1,1,0.01280,-0.02313,0.00640*
1,1,0.01280,0.02313,0.00640*
1,1,0.01280,0.02313,-0.00640*
1,1,0.01280,-0.02313,-0.00640*
%
%ADD25ROUNDEDRECTD25*%
G04:AMPARAMS|DCode=26|XSize=59.06mil|YSize=25.59mil|CornerRadius=6.4mil|HoleSize=0mil|Usage=FLASHONLY|Rotation=270.000|XOffset=0mil|YOffset=0mil|HoleType=Round|Shape=RoundedRectangle|*
%AMROUNDEDRECTD26*
21,1,0.05906,0.01280,0,0,270.0*
21,1,0.04626,0.02559,0,0,270.0*
1,1,0.01280,-0.00640,-0.02313*
1,1,0.01280,-0.00640,0.02313*
1,1,0.01280,0.00640,0.02313*
1,1,0.01280,0.00640,-0.02313*
%
%ADD26ROUNDEDRECTD26*%
%ADD27R,0.05000X0.03500*%
G04:AMPARAMS|DCode=28|XSize=55mil|YSize=50mil|CornerRadius=0mil|HoleSize=0mil|Usage=FLASHONLY|Rotation=90.000|XOffset=0mil|YOffset=0mil|HoleType=Round|Shape=Octagon|*
%AMOCTAGOND28*
4,1,8,0.01250,0.02750,-0.01250,0.02750,-0.02500,0.01500,-0.02500,-0.01500,-0.01250,-0.02750,0.01250,-0.02750,0.02500,-0.01500,0.02500,0.01500,0.01250,0.02750,0.0*
%
%ADD28OCTAGOND28*%

%ADD29R,0.05000X0.05500*%
%ADD30R,0.01968X0.04724*%
%ADD31R,0.04331X0.09843*%
%ADD32R,0.14173X0.09213*%
%ADD33R,0.01180X0.04520*%
%ADD34R,0.01181X0.04528*%
%ADD35R,0.01180X0.04520*%
%ADD36R,0.07480X0.05118*%
%ADD71C,0.00500*%
%ADD72C,0.02000*%
%ADD73C,0.08000*%
%ADD74C,0.04000*%
%ADD75C,0.06000*%
%ADD76C,0.06693*%
%ADD77R,0.06693X0.06693*%
%ADD78C,0.05118*%
%ADD79C,0.05906*%
%ADD80R,0.05906X0.05906*%
%ADD81R,0.07087X0.07087*%
%ADD82C,0.07087*%
%ADD83R,0.04724X0.04724*%
%ADD84C,0.04724*%
%ADD85O,0.04724X0.09055*%
%ADD86O,0.04724X0.07874*%
%ADD87C,0.02953*%
%ADD88C,0.12598*%
%ADD89C,0.02400*%
G36*
X405812Y407502D02*
X405807Y407597D01*
X405780Y407682D01*
X405730Y407756D01*
X405659Y407821D01*
X405564Y407876D01*
X405447Y407920D01*
X405308Y407955D01*
X405146Y407980D01*
X404962Y407995D01*
X404785Y407999D01*
X404690Y407997D01*
X404574Y407986D01*
X404464Y407969D01*
X404360Y407946D01*
X404262Y407915D01*
X404170Y407878D01*
X404083Y407833D01*
X404002Y407782D01*
X403927Y407725D01*
X403857Y407660D01*
Y409340D01*
X403927Y409275D01*
X404002Y409218D01*
X404083Y409167D01*
X404170Y409122D01*
X404262Y409085D01*
X404360Y409054D01*
X404464Y409031D01*
X404574Y409014D01*
X404690Y409003D01*
X404784Y409001D01*
X404926Y409004D01*
X405086Y409018D01*
X405234Y409041D01*
X405370Y409073D01*
X405494Y409114D01*
X405607Y409164D01*
X405709Y409223D01*
X405798Y409291D01*
X405876Y409368D01*
X405943Y409454D01*
X405812Y407502D01*
D02*
G37*
G36*
X381602Y409368D02*
X381680Y409291D01*
X381770Y409223D01*
X381871Y409164D01*
X381984Y409114D01*
X382109Y409073D01*
X382245Y409041D01*
X382393Y409018D01*
X382552Y409004D01*
X382706Y409000D01*
X382810Y409003D01*
X382926Y409014D01*
X383036Y409031D01*
X383140Y409054D01*
X383238Y409085D01*
X383330Y409122D01*
X383417Y409167D01*
X383498Y409218D01*
X383574Y409275D01*
X383643Y409340D01*
Y407660D01*
X383574Y407725D01*
X383498Y407782D01*
X383417Y407833D01*
X383330Y407878D01*
X383238Y407915D01*
X383140Y407946D01*
X383036Y407969D01*
X382926Y407986D01*
X382810Y407997D01*
X382705Y408000D01*
X382516Y407995D01*
X382332Y407980D01*
X382170Y407955D01*
X382031Y407920D01*
X381914Y407876D01*
X381820Y407821D01*
X381748Y407756D01*
X381699Y407682D01*
X381672Y407597D01*
X381667Y407502D01*
X381536Y409454D01*
X381602Y409368D01*
D02*
G37*
G36*
X411537Y409261D02*
X411571Y409178D01*
X411628Y409104D01*
X411708Y409039D01*
X411810Y408985D01*
X411935Y408941D01*
X412082Y408906D01*
X412253Y408882D01*
X412446Y408867D01*
X412662Y408862D01*
Y407862D01*
X412446Y407857D01*
X412253Y407842D01*
X412082Y407817D01*
X411935Y407783D01*
X411810Y407738D01*
X411708Y407684D01*
X411628Y407620D01*
X411571Y407546D01*
X411537Y407462D01*
X411526Y407369D01*
Y409355D01*
X411537Y409261D01*
D02*
G37*
G36*
X203290Y400278D02*
X203110Y400039D01*
X203036Y399926D01*
X202974Y399816D01*
X202923Y399710D01*
X202884Y399608D01*
X202856Y399511D01*
X202839Y399417D01*
X202833Y399327D01*
X202333Y399291D01*
X202327Y399386D01*
X202309Y399482D01*
X202278Y399580D01*
X202235Y399677D01*
X202180Y399777D01*
X202113Y399876D01*
X202033Y399977D01*
X201942Y400079D01*
X201838Y400182D01*
X201721Y400286D01*
X203397Y400403D01*
X203290Y400278D01*
D02*
G37*
G36*
X199416Y400143D02*
X199228Y399921D01*
X199151Y399813D01*
X199086Y399708D01*
X199033Y399606D01*
X198992Y399506D01*
X198962Y399408D01*
X198955Y399368D01*
X198959Y399346D01*
X198984Y399271D01*
X199019Y399206D01*
X199064Y399151D01*
X199119Y399106D01*
X199184Y399071D01*
X199259Y399046D01*
X199344Y399031D01*
X199439Y399026D01*
X198689Y398526D01*
X197939Y399026D01*
X198034Y399031D01*
X198119Y399046D01*
X198194Y399071D01*
X198259Y399106D01*
X198314Y399151D01*
X198359Y399206D01*
X198394Y399271D01*
X198419Y399346D01*
X198423Y399367D01*
X198415Y399407D01*
X198386Y399505D01*
X198344Y399605D01*
X198291Y399707D01*
X198226Y399812D01*
X198150Y399919D01*
X198061Y400029D01*
X197848Y400254D01*
X199528Y400258D01*
X199416Y400143D01*
D02*
G37*
G36*
X374198Y400353D02*
X374287Y399020D01*
X374327Y398805D01*
X374375Y398639D01*
X374431Y398519D01*
X374494Y398448D01*
X374564Y398424D01*
X369825D01*
X369896Y398448D01*
X369958Y398519D01*
X370014Y398639D01*
X370062Y398805D01*
X370102Y399020D01*
X370135Y399282D01*
X370180Y399948D01*
X370195Y400806D01*
X374195D01*
X374198Y400353D01*
D02*
G37*
G36*
X202836Y398317D02*
X202843Y398231D01*
X202856Y398154D01*
X202873Y398088D01*
X202896Y398031D01*
X202923Y397985D01*
X202956Y397949D01*
X202993Y397923D01*
X203036Y397908D01*
X203083Y397902D01*
X202088Y397914D01*
X202135Y397919D01*
X202176Y397934D01*
X202213Y397959D01*
X202245Y397994D01*
X202272Y398039D01*
X202294Y398094D01*
X202311Y398159D01*
X202323Y398234D01*
X202331Y398319D01*
X202333Y398414D01*
X202833D01*
X202836Y398317D01*
D02*
G37*
G36*
X424774Y398948D02*
X425141Y398637D01*
X425304Y398524D01*
X425453Y398439D01*
X425587Y398383D01*
X425707Y398354D01*
X425813D01*
X425905Y398383D01*
X425983Y398439D01*
X424569Y397025D01*
X424625Y397103D01*
X424653Y397195D01*
Y397301D01*
X424625Y397421D01*
X424569Y397555D01*
X424484Y397704D01*
X424371Y397867D01*
X424229Y398043D01*
X423862Y398439D01*
X424569Y399146D01*
X424774Y398948D01*
D02*
G37*
G36*
X436143Y396660D02*
X436073Y396725D01*
X435998Y396782D01*
X435917Y396833D01*
X435830Y396878D01*
X435738Y396915D01*
X435640Y396946D01*
X435536Y396969D01*
X435426Y396986D01*
X435310Y396997D01*
X435189Y397000D01*
Y398000D01*
X435310Y398003D01*
X435426Y398014D01*
X435536Y398031D01*
X435640Y398054D01*
X435738Y398085D01*
X435830Y398122D01*
X435917Y398167D01*
X435998Y398218D01*
X436073Y398275D01*
X436143Y398340D01*
Y396660D01*
D02*
G37*
G36*
X430066Y398356D02*
X430096Y398281D01*
X430146Y398215D01*
X430216Y398158D01*
X430306Y398110D01*
X430416Y398070D01*
X430546Y398040D01*
X430696Y398018D01*
X430866Y398004D01*
X431056Y398000D01*
Y397000D01*
X430865Y396995D01*
X430693Y396980D01*
X430542Y396955D01*
X430410Y396920D01*
X430299Y396875D01*
X430208Y396820D01*
X430137Y396755D01*
X430086Y396680D01*
X430055Y396595D01*
X430044Y396500D01*
X430056Y398439D01*
X430066Y398356D01*
D02*
G37*
G36*
X190289Y396215D02*
X190307Y396206D01*
X190349Y396193D01*
X190403Y396182D01*
X190470Y396172D01*
X190638Y396160D01*
X190856Y396156D01*
Y395156D01*
X190741Y395155D01*
X190403Y395130D01*
X190349Y395118D01*
X190307Y395105D01*
X190289Y395096D01*
Y395052D01*
X190283Y395072D01*
X190271Y395084D01*
X190258Y395072D01*
X190252Y395052D01*
Y395096D01*
X190234Y395105D01*
X190191Y395118D01*
X190136Y395130D01*
X190068Y395139D01*
X189895Y395152D01*
X189674Y395156D01*
Y396156D01*
X189791Y396157D01*
X190136Y396182D01*
X190191Y396193D01*
X190234Y396207D01*
X190252Y396216D01*
Y396259D01*
X190258Y396239D01*
X190271Y396228D01*
X190283Y396240D01*
X190289Y396259D01*
Y396215D01*
D02*
G37*
G36*
X197274Y393399D02*
X197232Y393384D01*
X197194Y393359D01*
X197162Y393324D01*
X197134Y393279D01*
X197112Y393224D01*
X197094Y393159D01*
X197082Y393084D01*
X197074Y392999D01*
X197072Y392904D01*
X196572D01*
X196569Y392999D01*
X196562Y393084D01*
X196549Y393159D01*
X196532Y393224D01*
X196509Y393279D01*
X196482Y393324D01*
X196449Y393359D01*
X196412Y393384D01*
X196369Y393399D01*
X196322Y393404D01*
X197322D01*
X197274Y393399D01*
D02*
G37*
G36*
X188252Y393394D02*
X188223Y393364D01*
X188198Y393314D01*
X188176Y393244D01*
X188157Y393154D01*
X188142Y393044D01*
X188122Y392764D01*
X188115Y392404D01*
X188032D01*
X188115Y392384D01*
X188118Y392263D01*
X188137Y392035D01*
X188155Y391929D01*
X188177Y391827D01*
X188204Y391730D01*
X188236Y391638D01*
X188273Y391550D01*
X188315Y391467D01*
X188362Y391390D01*
X186721Y391750D01*
X186796Y391803D01*
X186863Y391864D01*
X186922Y391933D01*
X186973Y392009D01*
X187017Y392093D01*
X187052Y392184D01*
X187080Y392284D01*
X187099Y392391D01*
X187111Y392506D01*
X187115Y392628D01*
X187118Y392627D01*
X187127Y393404D01*
X188284D01*
X188252Y393394D01*
D02*
G37*
G36*
X209135Y393410D02*
X209122Y393380D01*
X209110Y393330D01*
X209100Y393260D01*
X209084Y393060D01*
X209072Y392420D01*
X208072D01*
X208071Y392610D01*
X208021Y393380D01*
X208008Y393410D01*
X207993Y393420D01*
X209150D01*
X209135Y393410D01*
D02*
G37*
G36*
X210316Y393410D02*
X210303Y393380D01*
X210291Y393330D01*
X210281Y393260D01*
X210265Y393060D01*
X210253Y392420D01*
X209253D01*
X209252Y392610D01*
X209202Y393380D01*
X209189Y393410D01*
X209174Y393420D01*
X210331D01*
X210316Y393410D01*
D02*
G37*
G36*
X193385Y393394D02*
X193369Y393364D01*
X193355Y393314D01*
X193343Y393244D01*
X193333Y393154D01*
X193314Y392764D01*
X193310Y392404D01*
X192310D01*
X192309Y392594D01*
X192257Y393394D01*
X192245Y393404D01*
X193402D01*
X193385Y393394D01*
D02*
G37*
G36*
X191420Y393394D02*
X191406Y393364D01*
X191394Y393314D01*
X191384Y393244D01*
X191368Y393044D01*
X191357Y392594D01*
X191356Y392404D01*
X190356D01*
X190355Y392594D01*
X190306Y393364D01*
X190292Y393394D01*
X190278Y393404D01*
X191435D01*
X191420Y393394D01*
D02*
G37*
G36*
X187088Y393394D02*
X187075Y393364D01*
X187063Y393314D01*
X187053Y393244D01*
X187037Y393044D01*
X187025Y392404D01*
X186025D01*
X186024Y392594D01*
X185974Y393364D01*
X185961Y393394D01*
X185946Y393404D01*
X187103D01*
X187088Y393394D01*
D02*
G37*
G36*
X190237Y393393D02*
X190224Y393363D01*
X190212Y393314D01*
X190202Y393244D01*
X190186Y393043D01*
X190174Y392404D01*
X189174D01*
X189173Y392594D01*
X189123Y393363D01*
X189110Y393393D01*
X189095Y393404D01*
X190252D01*
X190237Y393393D01*
D02*
G37*
G36*
X205196Y393394D02*
X205181Y393364D01*
X205168Y393314D01*
X205156Y393244D01*
X205146Y393154D01*
X205127Y392764D01*
X205124Y392465D01*
X205127Y392366D01*
X205137Y392250D01*
X205154Y392140D01*
X205178Y392036D01*
X205208Y391937D01*
X205245Y391845D01*
X205289Y391758D01*
X205339Y391676D01*
X205397Y391600D01*
X205461Y391530D01*
X203781Y391545D01*
X203846Y391614D01*
X203904Y391689D01*
X203956Y391770D01*
X204000Y391856D01*
X204038Y391948D01*
X204069Y392046D01*
X204093Y392150D01*
X204110Y392260D01*
X204120Y392375D01*
X204123Y392486D01*
X204123Y392594D01*
X204069Y393394D01*
X204056Y393404D01*
X205213D01*
X205196Y393394D01*
D02*
G37*
G36*
X197078Y392432D02*
X197096Y392336D01*
X197126Y392239D01*
X197169Y392140D01*
X197223Y392040D01*
X197290Y391939D01*
X197369Y391836D01*
X197460Y391732D01*
X197563Y391627D01*
X197678Y391520D01*
X196000Y391435D01*
X196109Y391557D01*
X196292Y391791D01*
X196366Y391903D01*
X196429Y392011D01*
X196480Y392116D01*
X196520Y392218D01*
X196549Y392316D01*
X196566Y392410D01*
X196572Y392501D01*
X197072Y392527D01*
X197078Y392432D01*
D02*
G37*
G36*
X373606Y392100D02*
X373377Y391797D01*
X373322Y391709D01*
X373276Y391627D01*
X373240Y391551D01*
X373215Y391482D01*
X373200Y391419D01*
X373195Y391362D01*
X371195D01*
X371189Y391419D01*
X371174Y391482D01*
X371149Y391551D01*
X371113Y391627D01*
X371068Y391709D01*
X371011Y391797D01*
X370869Y391993D01*
X370686Y392214D01*
X373703D01*
X373606Y392100D01*
D02*
G37*
G36*
X201448Y392292D02*
X201353Y392287D01*
X201268Y392272D01*
X201193Y392247D01*
X201128Y392212D01*
X201073Y392167D01*
X201043Y392130D01*
X201048Y392120D01*
X201104Y392023D01*
X201173Y391927D01*
X201254Y391831D01*
X201348Y391735D01*
X201454Y391639D01*
X201573Y391543D01*
X199906Y391338D01*
X200009Y391471D01*
X200182Y391723D01*
X200253Y391841D01*
X200312Y391954D01*
X200361Y392062D01*
X200375Y392099D01*
X200368Y392112D01*
X200323Y392167D01*
X200268Y392212D01*
X200203Y392247D01*
X200128Y392272D01*
X200043Y392287D01*
X199948Y392292D01*
X200698Y392792D01*
X201448Y392292D01*
D02*
G37*
G36*
X414241Y389958D02*
X414214Y389867D01*
X414215Y389762D01*
X414245Y389642D01*
X414302Y389508D01*
X414389Y389359D01*
X414503Y389196D01*
X414645Y389019D01*
X415016Y388621D01*
X414308Y387914D01*
X414102Y388113D01*
X413733Y388426D01*
X413570Y388541D01*
X413422Y388627D01*
X413287Y388685D01*
X413167Y388714D01*
X413062Y388715D01*
X412971Y388688D01*
X412894Y388633D01*
X414296Y390035D01*
X414241Y389958D01*
D02*
G37*
G36*
X306722Y387894D02*
X306674Y387906D01*
X306588Y387917D01*
X306306Y387934D01*
X304572Y387957D01*
Y389957D01*
X306722Y390019D01*
Y387894D01*
D02*
G37*
G36*
X321479Y387869D02*
X321344Y387934D01*
X321184Y387953D01*
X320999Y387926D01*
X320789Y387852D01*
X320553Y387733D01*
X320293Y387567D01*
X320008Y387355D01*
X319697Y387097D01*
X319001Y386443D01*
X317766Y388037D01*
X319203Y389507D01*
X321479Y387869D01*
D02*
G37*
G36*
X285501D02*
X285386Y387913D01*
X285246Y387916D01*
X285081Y387877D01*
X284891Y387797D01*
X284677Y387675D01*
X284437Y387512D01*
X284173Y387307D01*
X283572Y386772D01*
X283234Y386443D01*
X281999Y388037D01*
X283327Y389241D01*
X285501Y387869D01*
D02*
G37*
G36*
X374815Y391292D02*
X374759Y391109D01*
X374760Y390897D01*
X374818Y390657D01*
X374932Y390389D01*
X375103Y390091D01*
X375331Y389766D01*
X375615Y389412D01*
X376353Y388618D01*
X374938Y387204D01*
X374527Y387601D01*
X373790Y388225D01*
X373465Y388453D01*
X373168Y388624D01*
X372899Y388738D01*
X372659Y388796D01*
X372447Y388797D01*
X372265Y388742D01*
X372110Y388630D01*
X374926Y391446D01*
X374815Y391292D01*
D02*
G37*
G36*
X416827Y386814D02*
X417003Y386670D01*
X417093Y386609D01*
X417182Y386556D01*
X417273Y386511D01*
X417364Y386473D01*
X417455Y386443D01*
X417547Y386421D01*
X417640Y386406D01*
X416311Y385378D01*
X416319Y385472D01*
X416317Y385564D01*
X416304Y385657D01*
X416282Y385749D01*
X416249Y385840D01*
X416206Y385931D01*
X416153Y386021D01*
X416089Y386111D01*
X416016Y386201D01*
X415933Y386290D01*
X416739Y386897D01*
X416827Y386814D01*
D02*
G37*
G36*
X289724Y384823D02*
X289850Y384746D01*
X289980Y384678D01*
X290115Y384620D01*
X290255Y384570D01*
X290400Y384529D01*
X290549Y384497D01*
X290704Y384475D01*
X290863Y384461D01*
X291027Y384457D01*
Y383457D01*
X290863Y383452D01*
X290704Y383439D01*
X290549Y383416D01*
X290400Y383384D01*
X290255Y383344D01*
X290115Y383294D01*
X289980Y383235D01*
X289850Y383167D01*
X289724Y383090D01*
X289604Y383004D01*
Y384909D01*
X289724Y384823D01*
D02*
G37*
G36*
X325908Y384096D02*
X325942Y383952D01*
X325986Y383812D01*
X326040Y383676D01*
X326103Y383541D01*
X326177Y383410D01*
X326260Y383282D01*
X326354Y383157D01*
X326457Y383034D01*
X326570Y382915D01*
X325863Y382208D01*
X325668Y382396D01*
X325317Y382691D01*
X325162Y382798D01*
X325020Y382877D01*
X324891Y382930D01*
X324775Y382955D01*
X324672Y382954D01*
X324583Y382925D01*
X324507Y382869D01*
X325883Y384241D01*
X325908Y384096D01*
D02*
G37*
G36*
X385740Y381879D02*
X385753Y381785D01*
X385774Y381692D01*
X385804Y381599D01*
X385843Y381508D01*
X385891Y381417D01*
X385948Y381326D01*
X386013Y381237D01*
X386088Y381148D01*
X386171Y381059D01*
X385464Y380352D01*
X385376Y380436D01*
X385287Y380510D01*
X385197Y380576D01*
X385107Y380632D01*
X385016Y380680D01*
X384924Y380719D01*
X384831Y380749D01*
X384738Y380771D01*
X384644Y380783D01*
X384549Y380786D01*
X385737Y381974D01*
X385740Y381879D01*
D02*
G37*
G36*
X325722Y379544D02*
X325747Y379526D01*
X325788Y379510D01*
X325845Y379496D01*
X325919Y379484D01*
X326117Y379466D01*
X326380Y379458D01*
X326536Y379457D01*
Y378457D01*
X326380Y378456D01*
X325845Y378418D01*
X325788Y378404D01*
X325747Y378388D01*
X325722Y378369D01*
X325714Y378349D01*
Y379565D01*
X325722Y379544D01*
D02*
G37*
G36*
X350836Y378317D02*
X350760Y378372D01*
X350679Y378421D01*
X350593Y378465D01*
X350503Y378502D01*
X350407Y378534D01*
X350306Y378561D01*
X350200Y378581D01*
X350089Y378595D01*
X349973Y378604D01*
X349852Y378607D01*
X349713Y379607D01*
X349835Y379611D01*
X349950Y379622D01*
X350058Y379641D01*
X350160Y379667D01*
X350254Y379701D01*
X350342Y379743D01*
X350423Y379791D01*
X350498Y379848D01*
X350565Y379912D01*
X350626Y379983D01*
X350836Y378317D01*
D02*
G37*
G36*
X268654Y378274D02*
X267861Y377452D01*
X266614Y375980D01*
X266160Y375329D01*
X265820Y374735D01*
X265592Y374198D01*
X265478Y373717D01*
X265477Y373294D01*
X265589Y372927D01*
X265814Y372617D01*
X262294Y376136D01*
X258775Y372617D01*
X259000Y372927D01*
X259112Y373294D01*
X259111Y373717D01*
X258997Y374198D01*
X258769Y374735D01*
X258429Y375329D01*
X257975Y375980D01*
X257408Y376688D01*
X255935Y378274D01*
X258763Y381102D01*
X259584Y380309D01*
X261057Y379062D01*
X261707Y378608D01*
X262294Y378272D01*
X262881Y378608D01*
X263532Y379062D01*
X264240Y379629D01*
X265826Y381102D01*
X268654Y378274D01*
D02*
G37*
G36*
X312337Y379827D02*
X312458Y379754D01*
X312585Y379689D01*
X312718Y379633D01*
X312856Y379586D01*
X313001Y379547D01*
X313151Y379517D01*
X313307Y379496D01*
X313385Y379489D01*
X313416Y379492D01*
X313526Y379509D01*
X313630Y379534D01*
X313727Y379565D01*
X313819Y379603D01*
X313905Y379648D01*
X313985Y379700D01*
X314060Y379759D01*
X314128Y379824D01*
X314158Y378145D01*
X314088Y378208D01*
X314012Y378265D01*
X313930Y378315D01*
X313842Y378358D01*
X313749Y378395D01*
X313650Y378425D01*
X313546Y378448D01*
X313436Y378465D01*
X313417Y378467D01*
X313336Y378459D01*
X313183Y378436D01*
X313034Y378402D01*
X312889Y378360D01*
X312748Y378308D01*
X312611Y378246D01*
X312477Y378175D01*
X312348Y378094D01*
X312222Y378004D01*
Y379909D01*
X312337Y379827D01*
D02*
G37*
G36*
X348073Y379852D02*
X348168Y379800D01*
X348274Y379755D01*
X348390Y379716D01*
X348517Y379682D01*
X348655Y379655D01*
X348804Y379634D01*
X349133Y379610D01*
X349314Y379607D01*
X349474Y378607D01*
X349210Y378602D01*
X348767Y378563D01*
X348588Y378528D01*
X348438Y378484D01*
X348316Y378431D01*
X348223Y378367D01*
X348159Y378293D01*
X348123Y378210D01*
X348115Y378116D01*
X347989Y379909D01*
X348073Y379852D01*
D02*
G37*
G36*
X289724Y379823D02*
X289850Y379746D01*
X289980Y379678D01*
X290115Y379620D01*
X290255Y379570D01*
X290400Y379529D01*
X290549Y379497D01*
X290704Y379475D01*
X290863Y379461D01*
X291027Y379457D01*
Y378457D01*
X290863Y378452D01*
X290704Y378439D01*
X290549Y378416D01*
X290400Y378384D01*
X290255Y378344D01*
X290115Y378294D01*
X289980Y378235D01*
X289850Y378167D01*
X289724Y378090D01*
X289604Y378004D01*
Y379909D01*
X289724Y379823D01*
D02*
G37*
G36*
X209072Y377688D02*
X209085Y377519D01*
X209124Y377321D01*
X209189Y377094D01*
X209280Y376838D01*
X209311Y376766D01*
X209399Y376850D01*
X210106Y376143D01*
X210013Y376042D01*
X209937Y375943D01*
X209880Y375847D01*
X209840Y375752D01*
X209823Y375686D01*
X209905Y375525D01*
X210374Y374695D01*
X206320Y375795D01*
X206653Y375993D01*
X206951Y376195D01*
X207214Y376402D01*
X207441Y376613D01*
X207634Y376827D01*
X207791Y377046D01*
X207914Y377270D01*
X208002Y377497D01*
X208054Y377728D01*
X208072Y377964D01*
X209072Y377688D01*
D02*
G37*
G36*
X351068Y373431D02*
X350990Y373480D01*
X350908Y373523D01*
X350820Y373562D01*
X350728Y373595D01*
X350631Y373623D01*
X350530Y373646D01*
X350423Y373664D01*
X350196Y373685D01*
X350075Y373687D01*
X349851Y374687D01*
X349974Y374691D01*
X350089Y374703D01*
X350196Y374722D01*
X350296Y374750D01*
X350388Y374785D01*
X350472Y374828D01*
X350550Y374879D01*
X350619Y374938D01*
X350682Y375004D01*
X350736Y375078D01*
X351068Y373431D01*
D02*
G37*
G36*
X190895Y380809D02*
X192577Y379399D01*
X193389Y378823D01*
X194184Y378333D01*
X194960Y377929D01*
X195717Y377612D01*
X196456Y377381D01*
X197177Y377235D01*
X197879Y377176D01*
X196910Y376208D01*
X197323Y376180D01*
X197756Y376177D01*
X194787Y373207D01*
X194783Y373640D01*
X194756Y374053D01*
X193787Y373085D01*
X193728Y373787D01*
X193583Y374508D01*
X193352Y375247D01*
X193034Y376004D01*
X192631Y376780D01*
X192141Y377574D01*
X191565Y378387D01*
X190903Y379218D01*
X189320Y380936D01*
X190027Y381644D01*
X190895Y380809D01*
D02*
G37*
G36*
X348054Y374867D02*
X348132Y374829D01*
X348224Y374796D01*
X348330Y374767D01*
X348449Y374743D01*
X348583Y374723D01*
X348890Y374696D01*
X349253Y374687D01*
X349503Y373687D01*
X349247Y373682D01*
X348818Y373643D01*
X348647Y373608D01*
X348504Y373564D01*
X348389Y373510D01*
X348302Y373446D01*
X348244Y373372D01*
X348215Y373288D01*
X348213Y373195D01*
X347989Y374909D01*
X348054Y374867D01*
D02*
G37*
G36*
X312239Y374798D02*
X312283Y374715D01*
X312355Y374642D01*
X312456Y374578D01*
X312585Y374524D01*
X312744Y374480D01*
X312932Y374445D01*
X313148Y374421D01*
X313394Y374406D01*
X313456Y374405D01*
X313565Y374414D01*
X313675Y374430D01*
X313780Y374453D01*
X313879Y374482D01*
X313973Y374518D01*
X314062Y374560D01*
X314145Y374608D01*
X314223Y374663D01*
X314295Y374725D01*
X314217Y373046D01*
X314151Y373114D01*
X314078Y373174D01*
X313999Y373227D01*
X313914Y373273D01*
X313824Y373312D01*
X313727Y373344D01*
X313623Y373369D01*
X313514Y373387D01*
X313426Y373395D01*
X313124Y373365D01*
X312974Y373338D01*
X312830Y373302D01*
X312694Y373258D01*
X312565Y373207D01*
X312444Y373147D01*
X312329Y373080D01*
X312222Y373004D01*
X312225Y374892D01*
X312239Y374798D01*
D02*
G37*
G36*
X291347Y375016D02*
X291619Y373016D01*
X289339Y372894D01*
Y375019D01*
X291347Y375016D01*
D02*
G37*
G36*
X283418Y368483D02*
X283413Y368530D01*
X283395Y368571D01*
X283366Y368608D01*
X283324Y368640D01*
X283270Y368667D01*
X283205Y368689D01*
X283126Y368706D01*
X283036Y368719D01*
X282934Y368726D01*
X282819Y368728D01*
X282825Y369228D01*
X282940Y369231D01*
X283135Y369250D01*
X283214Y369268D01*
X283281Y369290D01*
X283336Y369317D01*
X283379Y369349D01*
X283410Y369385D01*
X283429Y369427D01*
X283436Y369474D01*
X283418Y368483D01*
D02*
G37*
G36*
X325789Y369406D02*
X325807Y369364D01*
X325837Y369327D01*
X325880Y369295D01*
X325934Y369268D01*
X326001Y369246D01*
X326079Y369229D01*
X326170Y369216D01*
X326273Y369209D01*
X326388Y369207D01*
Y368707D01*
X326273Y368704D01*
X326079Y368685D01*
X326001Y368668D01*
X325934Y368645D01*
X325880Y368618D01*
X325837Y368586D01*
X325807Y368550D01*
X325789Y368508D01*
X325783Y368461D01*
Y369452D01*
X325789Y369406D01*
D02*
G37*
G36*
X281259Y369711D02*
X281476Y369520D01*
X281582Y369443D01*
X281686Y369377D01*
X281787Y369324D01*
X281887Y369282D01*
X281984Y369252D01*
X282080Y369234D01*
X282173Y369228D01*
X282164Y368728D01*
X282072Y368723D01*
X281977Y368705D01*
X281879Y368676D01*
X281779Y368635D01*
X281676Y368582D01*
X281569Y368518D01*
X281460Y368442D01*
X281349Y368355D01*
X281117Y368145D01*
X281147Y369824D01*
X281259Y369711D01*
D02*
G37*
G36*
X265535Y371171D02*
X265274Y371051D01*
X265045Y370851D01*
X264846Y370571D01*
X264677Y370211D01*
X264539Y369771D01*
X264432Y369251D01*
X264356Y368651D01*
X264310Y367971D01*
X264294Y367211D01*
X260294D01*
X260279Y367971D01*
X260157Y369251D01*
X260049Y369771D01*
X259912Y370211D01*
X259743Y370571D01*
X259544Y370851D01*
X259314Y371051D01*
X259054Y371171D01*
X258763Y371211D01*
X265826D01*
X265535Y371171D01*
D02*
G37*
G36*
X283401Y363524D02*
X283398Y363570D01*
X283382Y363612D01*
X283354Y363649D01*
X283314Y363681D01*
X283261Y363707D01*
X283196Y363730D01*
X283119Y363747D01*
X283030Y363759D01*
X282928Y363766D01*
X282814Y363769D01*
X282838Y364269D01*
X282953Y364271D01*
X283147Y364291D01*
X283227Y364308D01*
X283294Y364330D01*
X283350Y364356D01*
X283394Y364388D01*
X283426Y364424D01*
X283447Y364465D01*
X283455Y364511D01*
X283401Y363524D01*
D02*
G37*
G36*
X325789Y364405D02*
X325807Y364364D01*
X325837Y364327D01*
X325880Y364295D01*
X325934Y364268D01*
X326001Y364246D01*
X326079Y364229D01*
X326170Y364216D01*
X326273Y364209D01*
X326388Y364207D01*
Y363707D01*
X326273Y363704D01*
X326079Y363685D01*
X326001Y363667D01*
X325934Y363645D01*
X325880Y363618D01*
X325837Y363586D01*
X325807Y363550D01*
X325789Y363508D01*
X325783Y363461D01*
Y364452D01*
X325789Y364405D01*
D02*
G37*
G36*
X281541Y364760D02*
X281750Y364566D01*
X281853Y364487D01*
X281954Y364421D01*
X282054Y364366D01*
X282153Y364323D01*
X282250Y364293D01*
X282346Y364275D01*
X282441Y364269D01*
X282414Y363769D01*
X282323Y363763D01*
X282229Y363746D01*
X282131Y363718D01*
X282030Y363678D01*
X281925Y363626D01*
X281817Y363563D01*
X281705Y363489D01*
X281589Y363403D01*
X281348Y363198D01*
X281435Y364876D01*
X281541Y364760D01*
D02*
G37*
G36*
X327400Y363410D02*
X327480Y363355D01*
X327570Y363307D01*
X327670Y363265D01*
X327780Y363231D01*
X327900Y363202D01*
X328030Y363181D01*
X328170Y363166D01*
X328481Y363156D01*
X327293Y361968D01*
X327291Y362128D01*
X327268Y362418D01*
X327246Y362548D01*
X327218Y362668D01*
X327183Y362778D01*
X327141Y362878D01*
X327093Y362968D01*
X327038Y363048D01*
X326977Y363118D01*
X327330Y363472D01*
X327400Y363410D01*
D02*
G37*
G36*
X388953Y341891D02*
X388895Y341815D01*
X388844Y341735D01*
X388800Y341648D01*
X388763Y341555D01*
X388732Y341457D01*
X388708Y341353D01*
X388691Y341243D01*
X388681Y341128D01*
X388678Y341006D01*
X387678D01*
X387674Y341128D01*
X387664Y341243D01*
X387647Y341353D01*
X387623Y341457D01*
X387593Y341555D01*
X387555Y341648D01*
X387511Y341735D01*
X387460Y341815D01*
X387402Y341891D01*
X387338Y341960D01*
X389018D01*
X388953Y341891D01*
D02*
G37*
G36*
X380240Y341888D02*
X380189Y341807D01*
X380145Y341722D01*
X380106Y341631D01*
X380074Y341536D01*
X380047Y341435D01*
X380027Y341329D01*
X380012Y341219D01*
X380003Y341103D01*
X380000Y340982D01*
X379000Y340857D01*
X378996Y340979D01*
X378985Y341094D01*
X378966Y341202D01*
X378940Y341304D01*
X378907Y341399D01*
X378866Y341487D01*
X378817Y341569D01*
X378761Y341644D01*
X378698Y341712D01*
X378627Y341774D01*
X380296Y341963D01*
X380240Y341888D01*
D02*
G37*
G36*
X380005Y339792D02*
X380020Y339620D01*
X380045Y339468D01*
X380080Y339337D01*
X380125Y339225D01*
X380180Y339134D01*
X380245Y339063D01*
X380320Y339013D01*
X380405Y338982D01*
X380500Y338972D01*
X378500D01*
X378595Y338982D01*
X378680Y339013D01*
X378755Y339063D01*
X378820Y339134D01*
X378875Y339225D01*
X378920Y339337D01*
X378955Y339468D01*
X378980Y339620D01*
X378995Y339792D01*
X379000Y339984D01*
X380000D01*
X380005Y339792D01*
D02*
G37*
G36*
X396322Y339790D02*
X396337Y339618D01*
X396361Y339466D01*
X396396Y339335D01*
X396442Y339223D01*
X396497Y339132D01*
X396562Y339061D01*
X396637Y339011D01*
X396722Y338980D01*
X396816Y338970D01*
X394816D01*
X394912Y338980D01*
X394997Y339011D01*
X395072Y339061D01*
X395136Y339132D01*
X395192Y339223D01*
X395236Y339335D01*
X395271Y339466D01*
X395297Y339618D01*
X395311Y339790D01*
X395317Y339982D01*
X396317D01*
X396322Y339790D01*
D02*
G37*
G36*
X388683Y339787D02*
X388698Y339615D01*
X388723Y339463D01*
X388758Y339332D01*
X388803Y339220D01*
X388858Y339129D01*
X388923Y339058D01*
X388998Y339008D01*
X389083Y338977D01*
X389178Y338967D01*
X387178D01*
X387273Y338977D01*
X387358Y339008D01*
X387433Y339058D01*
X387498Y339129D01*
X387553Y339220D01*
X387598Y339332D01*
X387633Y339463D01*
X387658Y339615D01*
X387673Y339787D01*
X387678Y339979D01*
X388678D01*
X388683Y339787D01*
D02*
G37*
G36*
X422890Y338983D02*
X422692Y338778D01*
X422380Y338410D01*
X422267Y338248D01*
X422182Y338099D01*
X422126Y337965D01*
X422098Y337845D01*
Y337739D01*
X422126Y337647D01*
X422182Y337569D01*
X420768Y338983D01*
X420846Y338927D01*
X420938Y338898D01*
X421044D01*
X421164Y338927D01*
X421299Y338983D01*
X421447Y339068D01*
X421610Y339181D01*
X421786Y339323D01*
X422182Y339690D01*
X422890Y338983D01*
D02*
G37*
G36*
X418109Y329177D02*
X418032Y329232D01*
X417941Y329259D01*
X417836Y329258D01*
X417716Y329228D01*
X417582Y329171D01*
X417433Y329085D01*
X417270Y328970D01*
X417093Y328828D01*
X416695Y328458D01*
X415987Y329165D01*
X416187Y329371D01*
X416500Y329740D01*
X416615Y329903D01*
X416701Y330052D01*
X416758Y330186D01*
X416788Y330306D01*
X416789Y330411D01*
X416762Y330502D01*
X416707Y330579D01*
X418109Y329177D01*
D02*
G37*
G36*
X425983Y329176D02*
X425906Y329231D01*
X425815Y329258D01*
X425710Y329257D01*
X425590Y329228D01*
X425456Y329170D01*
X425307Y329084D01*
X425144Y328969D01*
X424966Y328827D01*
X424569Y328457D01*
X423862Y329164D01*
X424061Y329370D01*
X424374Y329739D01*
X424489Y329902D01*
X424575Y330051D01*
X424632Y330185D01*
X424662Y330305D01*
X424663Y330410D01*
X424636Y330501D01*
X424581Y330578D01*
X425983Y329176D01*
D02*
G37*
G36*
X369451Y329172D02*
X369415Y329286D01*
X369310Y329388D01*
X369134Y329478D01*
X368888Y329556D01*
X368572Y329622D01*
X368186Y329677D01*
X367202Y329749D01*
X365937Y329773D01*
Y333773D01*
X366606Y333788D01*
X367205Y333833D01*
X367734Y333909D01*
X368192Y334015D01*
X368580Y334151D01*
X368897Y334318D01*
X369144Y334514D01*
X369321Y334741D01*
X369427Y334999D01*
X369463Y335286D01*
X369451Y329172D01*
D02*
G37*
G36*
X430066Y330557D02*
X430096Y330472D01*
X430146Y330397D01*
X430216Y330332D01*
X430306Y330277D01*
X430416Y330232D01*
X430546Y330197D01*
X430696Y330172D01*
X430866Y330157D01*
X431056Y330152D01*
Y329152D01*
X430056Y329164D01*
Y330652D01*
X430066Y330557D01*
D02*
G37*
G36*
X253226Y328279D02*
X253186Y328335D01*
X253066Y328385D01*
X252867Y328429D01*
X252587Y328468D01*
X251786Y328527D01*
X249226Y328574D01*
Y332574D01*
X249987Y332578D01*
X252867Y332772D01*
X253066Y332833D01*
X253186Y332902D01*
X253226Y332979D01*
Y328279D01*
D02*
G37*
G36*
X352491Y324770D02*
X352421Y324834D01*
X352346Y324892D01*
X352265Y324943D01*
X352178Y324988D01*
X352086Y325025D01*
X351987Y325056D01*
X351883Y325079D01*
X351774Y325096D01*
X351658Y325107D01*
X351537Y325110D01*
Y326110D01*
X351658Y326113D01*
X351774Y326123D01*
X351883Y326140D01*
X351987Y326164D01*
X352086Y326195D01*
X352178Y326232D01*
X352265Y326276D01*
X352346Y326327D01*
X352421Y326385D01*
X352491Y326450D01*
Y324770D01*
D02*
G37*
G36*
X327789Y323138D02*
X327864Y323080D01*
X327945Y323029D01*
X328032Y322985D01*
X328125Y322948D01*
X328223Y322917D01*
X328327Y322893D01*
X328437Y322876D01*
X328552Y322866D01*
X328674Y322863D01*
Y321863D01*
X328552Y321859D01*
X328437Y321849D01*
X328327Y321832D01*
X328223Y321808D01*
X328125Y321778D01*
X328032Y321740D01*
X327945Y321696D01*
X327864Y321645D01*
X327789Y321587D01*
X327720Y321523D01*
Y323203D01*
X327789Y323138D01*
D02*
G37*
G36*
X387980Y318729D02*
X387902Y318776D01*
X387819Y318817D01*
X387732Y318853D01*
X387640Y318885D01*
X387543Y318911D01*
X387441Y318933D01*
X387334Y318950D01*
X387107Y318969D01*
X386986Y318972D01*
X386731Y319972D01*
X386853Y319976D01*
X386968Y319988D01*
X387075Y320007D01*
X387174Y320035D01*
X387265Y320071D01*
X387349Y320114D01*
X387424Y320165D01*
X387492Y320225D01*
X387553Y320292D01*
X387605Y320367D01*
X387980Y318729D01*
D02*
G37*
G36*
X376605Y318805D02*
X376512Y318792D01*
X376419Y318772D01*
X376327Y318744D01*
X376235Y318708D01*
X376144Y318665D01*
X376054Y318613D01*
X375964Y318553D01*
X375875Y318486D01*
X375787Y318410D01*
X375700Y318327D01*
X374916Y318957D01*
X374999Y319046D01*
X375073Y319135D01*
X375137Y319225D01*
X375191Y319316D01*
X375235Y319407D01*
X375269Y319498D01*
X375293Y319591D01*
X375308Y319684D01*
X375312Y319777D01*
X375307Y319871D01*
X376605Y318805D01*
D02*
G37*
G36*
X374106Y319174D02*
X374039Y319107D01*
X373979Y319034D01*
X373927Y318955D01*
X373881Y318870D01*
X373842Y318778D01*
X373810Y318681D01*
X373785Y318578D01*
X373768Y318469D01*
X373757Y318353D01*
X373754Y318232D01*
X372754Y318274D01*
X372750Y318395D01*
X372741Y318511D01*
X372724Y318621D01*
X372702Y318726D01*
X372672Y318825D01*
X372636Y318919D01*
X372594Y319007D01*
X372545Y319090D01*
X372490Y319167D01*
X372428Y319239D01*
X374106Y319174D01*
D02*
G37*
G36*
X383780Y319186D02*
X383727Y319107D01*
X383680Y319023D01*
X383639Y318933D01*
X383605Y318839D01*
X383577Y318739D01*
X383555Y318634D01*
X383540Y318523D01*
X383530Y318407D01*
X383527Y318286D01*
X382527Y318204D01*
X382523Y318326D01*
X382512Y318441D01*
X382494Y318550D01*
X382469Y318653D01*
X382436Y318749D01*
X382396Y318839D01*
X382349Y318922D01*
X382295Y318999D01*
X382233Y319070D01*
X382164Y319134D01*
X383839Y319260D01*
X383780Y319186D01*
D02*
G37*
G36*
X360404Y317112D02*
X360348Y317185D01*
X360285Y317251D01*
X360214Y317310D01*
X360136Y317360D01*
X360051Y317403D01*
X359958Y317438D01*
X359858Y317465D01*
X359750Y317484D01*
X359635Y317496D01*
X359513Y317500D01*
X359718Y318500D01*
X359839Y318503D01*
X360066Y318524D01*
X360173Y318542D01*
X360274Y318566D01*
X360371Y318595D01*
X360463Y318629D01*
X360550Y318669D01*
X360632Y318713D01*
X360710Y318764D01*
X360404Y317112D01*
D02*
G37*
G36*
X197939Y321032D02*
X198009Y321015D01*
X198114Y321000D01*
X198424Y320976D01*
X199453Y320952D01*
X199796Y320951D01*
Y316951D01*
X197902Y316851D01*
Y321051D01*
X197939Y321032D01*
D02*
G37*
G36*
X385575Y316657D02*
X384485D01*
X384494Y316680D01*
X384501Y316721D01*
X384508Y316781D01*
X384523Y317074D01*
X384530Y317724D01*
X385530D01*
X385575Y316657D01*
D02*
G37*
G36*
X383528Y317585D02*
X383578Y316740D01*
X383592Y316690D01*
X383607Y316657D01*
X382517D01*
X382519Y316670D01*
X382520Y316703D01*
X382527Y317673D01*
X383527Y317776D01*
X383528Y317585D01*
D02*
G37*
G36*
X381638Y316657D02*
X380548D01*
X380569Y316698D01*
X380588Y316756D01*
X380604Y316831D01*
X380618Y316922D01*
X380640Y317155D01*
X380657Y317630D01*
X380658Y317821D01*
X381658Y318008D01*
X381638Y316657D01*
D02*
G37*
G36*
X375733D02*
X374643D01*
X374651Y316680D01*
X374659Y316721D01*
X374666Y316781D01*
X374680Y317074D01*
X374688Y317724D01*
X375688D01*
X375733Y316657D01*
D02*
G37*
G36*
X373754Y317673D02*
X373764Y316657D01*
X372674D01*
X372689Y316690D01*
X372703Y316740D01*
X372715Y316808D01*
X372725Y316893D01*
X372747Y317255D01*
X372754Y317776D01*
X373754Y317673D01*
D02*
G37*
G36*
X372641Y312479D02*
X372631Y312574D01*
X372601Y312659D01*
X372550Y312734D01*
X372479Y312799D01*
X372388Y312854D01*
X372277Y312899D01*
X372145Y312934D01*
X371994Y312959D01*
X371821Y312974D01*
X371629Y312979D01*
Y313979D01*
X371821Y313984D01*
X371994Y313999D01*
X372145Y314024D01*
X372277Y314059D01*
X372388Y314104D01*
X372479Y314159D01*
X372550Y314224D01*
X372601Y314299D01*
X372631Y314384D01*
X372641Y314479D01*
Y312479D01*
D02*
G37*
G36*
X469969Y310026D02*
X469661Y310330D01*
X469075Y310842D01*
X468798Y311050D01*
X468531Y311226D01*
X468274Y311370D01*
X468029Y311482D01*
X467793Y311562D01*
X467568Y311610D01*
X467353Y311626D01*
Y312626D01*
X467568Y312642D01*
X467793Y312690D01*
X468029Y312770D01*
X468274Y312882D01*
X468531Y313026D01*
X468798Y313202D01*
X469075Y313410D01*
X469661Y313922D01*
X469969Y314226D01*
Y310026D01*
D02*
G37*
G36*
X361573Y310120D02*
X361583Y310004D01*
X361600Y309895D01*
X361624Y309791D01*
X361655Y309692D01*
X361692Y309600D01*
X361736Y309513D01*
X361787Y309432D01*
X361845Y309357D01*
X361910Y309287D01*
X360230D01*
X360294Y309357D01*
X360352Y309432D01*
X360403Y309513D01*
X360447Y309600D01*
X360485Y309692D01*
X360515Y309791D01*
X360539Y309895D01*
X360556Y310004D01*
X360566Y310120D01*
X360570Y310241D01*
X361570D01*
X361573Y310120D01*
D02*
G37*
G36*
X387535Y310277D02*
X387527Y310236D01*
X387521Y310176D01*
X387506Y309884D01*
X387499Y309233D01*
X386499D01*
X386454Y310300D01*
X387544D01*
X387535Y310277D01*
D02*
G37*
G36*
X381630D02*
X381622Y310236D01*
X381615Y310176D01*
X381600Y309884D01*
X381593Y309233D01*
X380593D01*
X380548Y310300D01*
X381638D01*
X381630Y310277D01*
D02*
G37*
G36*
X379661D02*
X379654Y310236D01*
X379647Y310176D01*
X379632Y309884D01*
X379625Y309233D01*
X378625D01*
X378580Y310300D01*
X379670D01*
X379661Y310277D01*
D02*
G37*
G36*
X377693D02*
X377685Y310236D01*
X377678Y310176D01*
X377663Y309884D01*
X377656Y309233D01*
X376656D01*
X376611Y310300D01*
X377701D01*
X377693Y310277D01*
D02*
G37*
G36*
X403182Y308904D02*
X403215Y308902D01*
X404185Y308895D01*
X404288Y307895D01*
X404097Y307894D01*
X403252Y307844D01*
X403202Y307831D01*
X403169Y307816D01*
Y308906D01*
X403182Y308904D01*
D02*
G37*
G36*
X364923Y307816D02*
X364900Y307824D01*
X364858Y307832D01*
X364798Y307839D01*
X364506Y307853D01*
X363855Y307860D01*
Y308860D01*
X364923Y308906D01*
Y307816D01*
D02*
G37*
G36*
X405887Y307600D02*
X405811Y307656D01*
X405731Y307706D01*
X405645Y307750D01*
X405555Y307789D01*
X405459Y307821D01*
X405359Y307848D01*
X405253Y307869D01*
X405142Y307883D01*
X405026Y307892D01*
X404905Y307895D01*
X404779Y308895D01*
X404901Y308899D01*
X405016Y308910D01*
X405124Y308929D01*
X405226Y308955D01*
X405321Y308988D01*
X405409Y309030D01*
X405491Y309078D01*
X405566Y309134D01*
X405634Y309198D01*
X405696Y309269D01*
X405887Y307600D01*
D02*
G37*
G36*
X362040Y309151D02*
X362112Y309090D01*
X362190Y309036D01*
X362274Y308990D01*
X362364Y308950D01*
X362461Y308918D01*
X362564Y308893D01*
X362673Y308875D01*
X362788Y308864D01*
X362910Y308860D01*
X362846Y307860D01*
X362725Y307857D01*
X362609Y307848D01*
X362499Y307832D01*
X362394Y307809D01*
X362294Y307781D01*
X362200Y307746D01*
X362111Y307704D01*
X362028Y307657D01*
X361949Y307602D01*
X361877Y307542D01*
X361974Y309219D01*
X362040Y309151D01*
D02*
G37*
G36*
X324251Y305876D02*
X324241Y305972D01*
X324211Y306056D01*
X324161Y306132D01*
X324091Y306196D01*
X324001Y306252D01*
X323891Y306296D01*
X323787Y306324D01*
X323777Y306322D01*
X323679Y306292D01*
X323587Y306254D01*
X323500Y306210D01*
X323419Y306159D01*
X323344Y306101D01*
X323274Y306036D01*
Y306376D01*
X323251Y306377D01*
Y307377D01*
X323274Y307377D01*
Y307716D01*
X323344Y307652D01*
X323419Y307594D01*
X323500Y307543D01*
X323587Y307499D01*
X323679Y307462D01*
X323777Y307431D01*
X323787Y307429D01*
X323891Y307456D01*
X324001Y307502D01*
X324091Y307557D01*
X324161Y307622D01*
X324211Y307697D01*
X324241Y307782D01*
X324251Y307876D01*
Y305876D01*
D02*
G37*
G36*
X311653Y305858D02*
X311643Y305953D01*
X311613Y306038D01*
X311563Y306113D01*
X311493Y306178D01*
X311403Y306233D01*
X311293Y306278D01*
X311194Y306304D01*
X311191Y306303D01*
X311092Y306273D01*
X311000Y306235D01*
X310913Y306191D01*
X310832Y306140D01*
X310757Y306082D01*
X310687Y306018D01*
Y306357D01*
X310653Y306358D01*
Y307358D01*
X310687Y307359D01*
Y307698D01*
X310757Y307633D01*
X310832Y307575D01*
X310913Y307524D01*
X311000Y307480D01*
X311092Y307443D01*
X311191Y307412D01*
X311194Y307411D01*
X311293Y307438D01*
X311403Y307483D01*
X311493Y307538D01*
X311563Y307603D01*
X311613Y307678D01*
X311643Y307763D01*
X311653Y307858D01*
Y305858D01*
D02*
G37*
G36*
X430400Y309035D02*
X430316Y309001D01*
X430242Y308944D01*
X430178Y308865D01*
X430123Y308763D01*
X430079Y308638D01*
X430044Y308490D01*
X430020Y308320D01*
X430007Y308151D01*
X430014Y308074D01*
X430031Y307964D01*
X430054Y307860D01*
X430085Y307762D01*
X430122Y307670D01*
X430167Y307583D01*
X430218Y307502D01*
X430275Y307427D01*
X430340Y307357D01*
X428660D01*
X428725Y307427D01*
X428782Y307502D01*
X428833Y307583D01*
X428878Y307670D01*
X428915Y307762D01*
X428946Y307860D01*
X428969Y307964D01*
X428986Y308074D01*
X428993Y308151D01*
X428980Y308320D01*
X428956Y308490D01*
X428921Y308638D01*
X428877Y308763D01*
X428822Y308865D01*
X428758Y308944D01*
X428684Y309001D01*
X428600Y309035D01*
X428507Y309047D01*
X430493D01*
X430400Y309035D01*
D02*
G37*
G36*
X319107Y308744D02*
X319137Y308659D01*
X319188Y308584D01*
X319259Y308519D01*
X319350Y308464D01*
X319461Y308419D01*
X319593Y308384D01*
X319745Y308359D01*
X319917Y308344D01*
X320109Y308339D01*
Y307339D01*
X319917Y307334D01*
X319745Y307319D01*
X319593Y307294D01*
X319461Y307259D01*
X319350Y307214D01*
X319259Y307159D01*
X319188Y307094D01*
X319137Y307019D01*
X319107Y306934D01*
X319097Y306839D01*
Y308839D01*
X319107Y308744D01*
D02*
G37*
G36*
X331705Y308744D02*
X331736Y308659D01*
X331786Y308584D01*
X331857Y308519D01*
X331948Y308464D01*
X332060Y308419D01*
X332191Y308384D01*
X332343Y308359D01*
X332515Y308344D01*
X332707Y308339D01*
Y307339D01*
X332515Y307334D01*
X332343Y307319D01*
X332191Y307294D01*
X332060Y307259D01*
X331948Y307214D01*
X331857Y307159D01*
X331786Y307094D01*
X331736Y307019D01*
X331705Y306934D01*
X331695Y306839D01*
Y308839D01*
X331705Y308744D01*
D02*
G37*
G36*
X434464Y306366D02*
X434373Y306348D01*
X434281Y306324D01*
X434191Y306292D01*
X434101Y306253D01*
X434011Y306206D01*
X433922Y306152D01*
X433833Y306091D01*
X433745Y306022D01*
X433657Y305946D01*
X433570Y305862D01*
X432740Y306447D01*
X432823Y306536D01*
X432896Y306625D01*
X432959Y306715D01*
X433011Y306805D01*
X433053Y306896D01*
X433085Y306987D01*
X433106Y307078D01*
X433116Y307170D01*
X433116Y307262D01*
X433106Y307355D01*
X434464Y306366D01*
D02*
G37*
G36*
X403192Y306928D02*
X403233Y306921D01*
X403294Y306914D01*
X403586Y306899D01*
X404237Y306892D01*
Y305892D01*
X403169Y305847D01*
Y306937D01*
X403192Y306928D01*
D02*
G37*
G36*
X346915Y308188D02*
X346963Y307555D01*
X347008Y307273D01*
X347067Y307013D01*
X347139Y306777D01*
X347225Y306562D01*
X347325Y306371D01*
X347439Y306203D01*
X347567Y306056D01*
X346860Y305349D01*
X346714Y305477D01*
X346545Y305591D01*
X346354Y305691D01*
X346140Y305777D01*
X345903Y305850D01*
X345643Y305908D01*
X345361Y305953D01*
X345056Y305984D01*
X344379Y306004D01*
X346912Y308538D01*
X346915Y308188D01*
D02*
G37*
G36*
X405597Y306541D02*
X405687Y306467D01*
X405776Y306402D01*
X405867Y306347D01*
X405958Y306301D01*
X406050Y306265D01*
X406143Y306238D01*
X406236Y306221D01*
X406330Y306212D01*
X406424Y306214D01*
X405301Y304964D01*
X405293Y305059D01*
X405276Y305153D01*
X405251Y305245D01*
X405218Y305338D01*
X405176Y305429D01*
X405126Y305520D01*
X405068Y305610D01*
X405001Y305699D01*
X404927Y305788D01*
X404843Y305876D01*
X405509Y306624D01*
X405597Y306541D01*
D02*
G37*
G36*
X364923Y303878D02*
X364900Y303887D01*
X364858Y303895D01*
X364798Y303902D01*
X364506Y303916D01*
X363855Y303924D01*
Y304924D01*
X364923Y304969D01*
Y303878D01*
D02*
G37*
G36*
X259286Y308061D02*
X258520Y307266D01*
X257309Y305830D01*
X256864Y305188D01*
X256526Y304597D01*
X256296Y304056D01*
X256172Y303567D01*
X256156Y303129D01*
X256248Y302741D01*
X256446Y302404D01*
X252151Y307709D01*
X252394Y307737D01*
X252670Y307822D01*
X252980Y307963D01*
X253325Y308161D01*
X253703Y308416D01*
X254115Y308727D01*
X255042Y309519D01*
X256106Y310537D01*
X259286Y308061D01*
D02*
G37*
G36*
X391318Y303322D02*
X391363Y303281D01*
X391417Y303244D01*
X391481Y303212D01*
X391554Y303185D01*
X391638Y303163D01*
X391732Y303146D01*
X391835Y303134D01*
X391948Y303127D01*
X392071Y303124D01*
X392003Y302124D01*
X391871Y302122D01*
X391535Y302093D01*
X391443Y302076D01*
X391361Y302054D01*
X391290Y302029D01*
X391228Y302000D01*
X391177Y301967D01*
X391136Y301930D01*
X391284Y303368D01*
X391318Y303322D01*
D02*
G37*
G36*
X403192Y302991D02*
X403233Y302984D01*
X403294Y302977D01*
X403586Y302962D01*
X404237Y302955D01*
Y301955D01*
X403169Y301910D01*
Y303000D01*
X403192Y302991D01*
D02*
G37*
G36*
X364923Y301910D02*
X364900Y301919D01*
X364858Y301926D01*
X364798Y301933D01*
X364506Y301948D01*
X363855Y301955D01*
Y302955D01*
X364923Y303000D01*
Y301910D01*
D02*
G37*
G36*
X243096Y307709D02*
X243108Y301721D01*
X243068Y302101D01*
X242947Y302441D01*
X242746Y302741D01*
X242465Y303001D01*
X242103Y303221D01*
X241662Y303401D01*
X241141Y303541D01*
X240539Y303641D01*
X239858Y303701D01*
X239096Y303721D01*
Y307721D01*
X243096Y307709D01*
D02*
G37*
G36*
X385057Y302590D02*
X385059Y302469D01*
X385081Y302242D01*
X385099Y302135D01*
X385123Y302034D01*
X385152Y301937D01*
X385186Y301845D01*
X385226Y301758D01*
X385271Y301676D01*
X385321Y301598D01*
X383669Y301902D01*
X383742Y301958D01*
X383808Y302021D01*
X383867Y302092D01*
X383917Y302170D01*
X383960Y302256D01*
X383995Y302348D01*
X384022Y302449D01*
X384041Y302556D01*
X384053Y302671D01*
X384057Y302793D01*
X385057Y302590D01*
D02*
G37*
G36*
X379486Y301244D02*
X379403Y301156D01*
X379329Y301067D01*
X379263Y300978D01*
X379206Y300887D01*
X379159Y300796D01*
X379120Y300705D01*
X379089Y300612D01*
X379068Y300519D01*
X379056Y300425D01*
X379052Y300330D01*
X377865Y301518D01*
X377959Y301521D01*
X378053Y301533D01*
X378147Y301555D01*
X378239Y301585D01*
X378331Y301624D01*
X378422Y301672D01*
X378513Y301728D01*
X378602Y301794D01*
X378691Y301868D01*
X378779Y301952D01*
X379486Y301244D01*
D02*
G37*
G36*
X470029Y300006D02*
X469721Y300310D01*
X469135Y300822D01*
X468858Y301030D01*
X468591Y301206D01*
X468335Y301350D01*
X468089Y301462D01*
X467854Y301542D01*
X467628Y301590D01*
X467414Y301606D01*
Y302606D01*
X467628Y302622D01*
X467854Y302670D01*
X468089Y302750D01*
X468335Y302862D01*
X468591Y303006D01*
X468858Y303182D01*
X469135Y303390D01*
X469721Y303902D01*
X470029Y304206D01*
Y300006D01*
D02*
G37*
G36*
X403192Y301023D02*
X403233Y301015D01*
X403294Y301009D01*
X403586Y300994D01*
X404237Y300987D01*
Y299987D01*
X403169Y299941D01*
Y301031D01*
X403192Y301023D01*
D02*
G37*
G36*
X364923Y299941D02*
X364900Y299950D01*
X364858Y299958D01*
X364798Y299964D01*
X364506Y299979D01*
X363855Y299987D01*
Y300987D01*
X364923Y301031D01*
Y299941D01*
D02*
G37*
G36*
X391482Y300304D02*
X391542Y300236D01*
X391610Y300177D01*
X391686Y300126D01*
X391769Y300082D01*
X391861Y300046D01*
X391960Y300019D01*
X392067Y299999D01*
X392181Y299987D01*
X392304Y299983D01*
X392049Y298983D01*
X391928Y298981D01*
X391700Y298961D01*
X391594Y298944D01*
X391492Y298923D01*
X391395Y298896D01*
X391302Y298865D01*
X391215Y298828D01*
X391132Y298787D01*
X391054Y298741D01*
X391429Y300379D01*
X391482Y300304D01*
D02*
G37*
G36*
X230107Y300588D02*
X229748Y300132D01*
X229602Y299914D01*
X229479Y299702D01*
X229378Y299496D01*
X229299Y299296D01*
X229243Y299103D01*
X229238Y299075D01*
X229257Y299000D01*
X229290Y298904D01*
X229330Y298814D01*
X229378Y298731D01*
X229433Y298655D01*
X229496Y298585D01*
X229565Y298521D01*
X227892Y298375D01*
X227950Y298449D01*
X228002Y298528D01*
X228048Y298613D01*
X228088Y298703D01*
X228122Y298798D01*
X228149Y298898D01*
X228167Y298984D01*
X228151Y299067D01*
X228092Y299259D01*
X228009Y299454D01*
X227903Y299651D01*
X227773Y299851D01*
X227619Y300054D01*
X227442Y300259D01*
X227241Y300467D01*
X227016Y300678D01*
X230320Y300825D01*
X230107Y300588D01*
D02*
G37*
G36*
X403192Y299054D02*
X403233Y299047D01*
X403294Y299040D01*
X403586Y299025D01*
X404237Y299018D01*
Y298018D01*
X403169Y297973D01*
Y299063D01*
X403192Y299054D01*
D02*
G37*
G36*
X364923Y297973D02*
X364918Y297967D01*
X364884Y297961D01*
X364822Y297956D01*
X364282Y297943D01*
X363574Y297940D01*
X363738Y298940D01*
X363930Y298941D01*
X364645Y298984D01*
X364739Y299000D01*
X364816Y299019D01*
X364878Y299040D01*
X364923Y299063D01*
Y297973D01*
D02*
G37*
G36*
X403192Y297086D02*
X403233Y297078D01*
X403294Y297072D01*
X403586Y297057D01*
X404237Y297049D01*
Y296049D01*
X403169Y296005D01*
Y297094D01*
X403192Y297086D01*
D02*
G37*
G36*
X396812Y296005D02*
X396781Y296020D01*
X396736Y296033D01*
X396675Y296045D01*
X396601Y296056D01*
X396408Y296071D01*
X396010Y296083D01*
X395848Y296084D01*
Y297084D01*
X396812Y297094D01*
Y296005D01*
D02*
G37*
G36*
X371304Y297084D02*
X371348Y297076D01*
X371410Y297068D01*
X371588Y297055D01*
X372358Y297042D01*
X372336Y296042D01*
X371280Y296005D01*
Y297094D01*
X371304Y297084D01*
D02*
G37*
G36*
X364923Y296005D02*
X364900Y296013D01*
X364858Y296021D01*
X364798Y296027D01*
X364506Y296042D01*
X363855Y296049D01*
Y297049D01*
X364923Y297094D01*
Y296005D01*
D02*
G37*
G36*
X433570Y297297D02*
X433659Y297223D01*
X433749Y297159D01*
X433840Y297105D01*
X433931Y297060D01*
X434023Y297024D01*
X434115Y296999D01*
X434208Y296983D01*
X434302Y296977D01*
X434396Y296980D01*
X433303Y295705D01*
X433292Y295799D01*
X433274Y295892D01*
X433247Y295985D01*
X433213Y296076D01*
X433170Y296168D01*
X433119Y296258D01*
X433060Y296348D01*
X432993Y296437D01*
X432917Y296526D01*
X432834Y296613D01*
X433481Y297380D01*
X433570Y297297D01*
D02*
G37*
G36*
X247403Y297890D02*
X247094Y297862D01*
X246758Y297777D01*
X246395Y297636D01*
X246005Y297438D01*
X245587Y297183D01*
X245143Y296872D01*
X244174Y296080D01*
X243649Y295599D01*
X243096Y295062D01*
X240268Y297890D01*
X241026Y298677D01*
X242227Y300103D01*
X242669Y300742D01*
X243006Y301332D01*
X243237Y301873D01*
X243363Y302365D01*
X243384Y302808D01*
X243299Y303202D01*
X243108Y303547D01*
X247403Y297890D01*
D02*
G37*
G36*
X392652Y295316D02*
X392557Y295313D01*
X392463Y295300D01*
X392369Y295279D01*
X392277Y295249D01*
X392185Y295210D01*
X392094Y295162D01*
X392003Y295105D01*
X391914Y295040D01*
X391825Y294965D01*
X391737Y294882D01*
X391030Y295589D01*
X391113Y295677D01*
X391187Y295766D01*
X391253Y295856D01*
X391310Y295946D01*
X391358Y296037D01*
X391396Y296129D01*
X391427Y296222D01*
X391448Y296315D01*
X391460Y296409D01*
X391464Y296504D01*
X392652Y295316D01*
D02*
G37*
G36*
X379643Y294160D02*
X379573Y294225D01*
X379498Y294282D01*
X379417Y294333D01*
X379330Y294378D01*
X379238Y294415D01*
X379140Y294446D01*
X379036Y294469D01*
X378926Y294486D01*
X378810Y294497D01*
X378689Y294500D01*
Y295500D01*
X378810Y295503D01*
X378926Y295514D01*
X379036Y295531D01*
X379140Y295554D01*
X379238Y295585D01*
X379330Y295622D01*
X379417Y295667D01*
X379498Y295718D01*
X379573Y295775D01*
X379643Y295840D01*
Y294160D01*
D02*
G37*
G36*
X364923Y294036D02*
X364900Y294044D01*
X364858Y294052D01*
X364798Y294059D01*
X364506Y294074D01*
X363855Y294081D01*
Y295081D01*
X364923Y295126D01*
Y294036D01*
D02*
G37*
G36*
X362169Y295253D02*
X362251Y295217D01*
X362339Y295185D01*
X362431Y295158D01*
X362528Y295134D01*
X362736Y295100D01*
X362848Y295090D01*
X363085Y295081D01*
X363408Y294081D01*
X363285Y294077D01*
X363171Y294065D01*
X363065Y294045D01*
X362967Y294017D01*
X362877Y293981D01*
X362796Y293936D01*
X362724Y293884D01*
X362659Y293824D01*
X362603Y293755D01*
X362556Y293679D01*
X362092Y295293D01*
X362169Y295253D01*
D02*
G37*
G36*
X363025Y291815D02*
X362941Y291728D01*
X362793Y291554D01*
X362728Y291468D01*
X362619Y291296D01*
X362574Y291210D01*
X362536Y291125D01*
X362504Y291040D01*
X362479Y290955D01*
X361641Y292411D01*
X361729Y292392D01*
X361818Y292384D01*
X361907Y292388D01*
X361996Y292403D01*
X362085Y292430D01*
X362174Y292468D01*
X362263Y292518D01*
X362352Y292579D01*
X362442Y292651D01*
X362531Y292735D01*
X363025Y291815D01*
D02*
G37*
G36*
X475890Y295138D02*
X475749Y294975D01*
X475624Y294782D01*
X475514Y294559D01*
X475420Y294306D01*
X475340Y294022D01*
X475276Y293709D01*
X475227Y293366D01*
X475175Y292590D01*
X475172Y292157D01*
X472202Y295127D01*
X472635Y295130D01*
X473411Y295182D01*
X473754Y295231D01*
X474067Y295295D01*
X474350Y295375D01*
X474604Y295469D01*
X474827Y295579D01*
X475020Y295705D01*
X475183Y295845D01*
X475890Y295138D01*
D02*
G37*
G36*
X403192Y293149D02*
X403233Y293141D01*
X403294Y293134D01*
X403586Y293120D01*
X404237Y293112D01*
Y292112D01*
X403169Y292068D01*
Y293158D01*
X403192Y293149D01*
D02*
G37*
G36*
X364923Y292068D02*
X364900Y292076D01*
X364858Y292084D01*
X364798Y292090D01*
X364506Y292105D01*
X363855Y292112D01*
Y293112D01*
X364923Y293158D01*
Y292068D01*
D02*
G37*
G36*
X347567Y292173D02*
X347439Y292027D01*
X347325Y291858D01*
X347225Y291667D01*
X347139Y291453D01*
X347067Y291216D01*
X347008Y290956D01*
X346963Y290674D01*
X346932Y290369D01*
X346912Y289691D01*
X344379Y292225D01*
X344729Y292228D01*
X345361Y292276D01*
X345643Y292321D01*
X345903Y292379D01*
X346140Y292452D01*
X346354Y292538D01*
X346545Y292638D01*
X346714Y292752D01*
X346860Y292880D01*
X347567Y292173D01*
D02*
G37*
G36*
X403192Y289212D02*
X403233Y289204D01*
X403294Y289197D01*
X403586Y289183D01*
X404237Y289176D01*
Y288176D01*
X403169Y288130D01*
Y289220D01*
X403192Y289212D01*
D02*
G37*
G36*
X364923Y288130D02*
X364900Y288139D01*
X364858Y288147D01*
X364798Y288153D01*
X364506Y288168D01*
X363855Y288176D01*
Y289176D01*
X364923Y289220D01*
Y288130D01*
D02*
G37*
G36*
X197999Y291011D02*
X198070Y290994D01*
X198174Y290979D01*
X198485Y290955D01*
X199514Y290931D01*
X199856Y290930D01*
Y286930D01*
X197962Y286830D01*
Y291030D01*
X197999Y291011D01*
D02*
G37*
G36*
X400896Y286119D02*
X400811Y286089D01*
X400736Y286038D01*
X400671Y285967D01*
X400616Y285876D01*
X400571Y285765D01*
X400536Y285633D01*
X400511Y285481D01*
X400496Y285309D01*
X400491Y285117D01*
X399491D01*
X399486Y285309D01*
X399471Y285481D01*
X399446Y285633D01*
X399411Y285765D01*
X399366Y285876D01*
X399311Y285967D01*
X399246Y286038D01*
X399171Y286089D01*
X399086Y286119D01*
X398991Y286129D01*
X400991D01*
X400896Y286119D01*
D02*
G37*
G36*
X368983D02*
X368898Y286089D01*
X368823Y286038D01*
X368758Y285967D01*
X368703Y285876D01*
X368657Y285765D01*
X368622Y285633D01*
X368598Y285481D01*
X368583Y285309D01*
X368578Y285117D01*
X367578D01*
X367572Y285309D01*
X367558Y285481D01*
X367532Y285633D01*
X367497Y285765D01*
X367453Y285876D01*
X367397Y285967D01*
X367333Y286038D01*
X367257Y286089D01*
X367173Y286119D01*
X367077Y286129D01*
X369077D01*
X368983Y286119D01*
D02*
G37*
G36*
X255515Y286834D02*
X255560Y286238D01*
X255634Y285713D01*
X255739Y285257D01*
X255873Y284872D01*
X256037Y284556D01*
X256231Y284311D01*
X256455Y284136D01*
X256709Y284031D01*
X256992Y283996D01*
X250008D01*
X250291Y284031D01*
X250545Y284136D01*
X250769Y284311D01*
X250963Y284556D01*
X251127Y284872D01*
X251261Y285257D01*
X251366Y285713D01*
X251440Y286238D01*
X251485Y286834D01*
X251500Y287500D01*
X255500D01*
X255515Y286834D01*
D02*
G37*
G36*
X469763Y280318D02*
X469517Y280097D01*
X468810Y280804D01*
X469291Y281267D01*
X469763Y280318D01*
D02*
G37*
G36*
X355852Y282743D02*
X355327Y282212D01*
X353340Y279943D01*
X353202Y279717D01*
X353119Y279534D01*
X353092Y279395D01*
X351090Y281396D01*
X351229Y281424D01*
X351412Y281507D01*
X351638Y281645D01*
X351908Y281838D01*
X352577Y282390D01*
X353907Y283632D01*
X354437Y284157D01*
X355852Y282743D01*
D02*
G37*
G36*
X393441Y278388D02*
X393433Y278346D01*
X393426Y278286D01*
X393411Y277994D01*
X393404Y277343D01*
X392404D01*
X392359Y278410D01*
X393449D01*
X393441Y278388D01*
D02*
G37*
G36*
X389504D02*
X389496Y278346D01*
X389489Y278286D01*
X389474Y277994D01*
X389467Y277343D01*
X388467D01*
X388422Y278410D01*
X389512D01*
X389504Y278388D01*
D02*
G37*
G36*
X387535D02*
X387527Y278346D01*
X387521Y278286D01*
X387506Y277994D01*
X387499Y277343D01*
X386499D01*
X386454Y278410D01*
X387544D01*
X387535Y278388D01*
D02*
G37*
G36*
X395416Y278397D02*
X395414Y278365D01*
X395407Y277395D01*
X394407Y277291D01*
X394407Y277482D01*
X394356Y278327D01*
X394343Y278378D01*
X394328Y278410D01*
X395418D01*
X395416Y278397D01*
D02*
G37*
G36*
X385560Y278378D02*
X385546Y278327D01*
X385535Y278260D01*
X385524Y278174D01*
X385503Y277812D01*
X385495Y277291D01*
X384495Y277395D01*
X384485Y278410D01*
X385575D01*
X385560Y278378D01*
D02*
G37*
G36*
X387499Y276994D02*
X387501Y276873D01*
X387518Y276645D01*
X387533Y276538D01*
X387577Y276339D01*
X387605Y276247D01*
X387637Y276160D01*
X387674Y276078D01*
X387715Y276000D01*
X386097Y276453D01*
X386174Y276502D01*
X386242Y276558D01*
X386302Y276623D01*
X386354Y276696D01*
X386398Y276777D01*
X386435Y276867D01*
X386463Y276965D01*
X386483Y277071D01*
X386495Y277186D01*
X386499Y277309D01*
X387499Y276994D01*
D02*
G37*
G36*
X395411Y276961D02*
X395422Y276846D01*
X395441Y276737D01*
X395466Y276635D01*
X395500Y276539D01*
X395540Y276450D01*
X395589Y276368D01*
X395644Y276292D01*
X395707Y276223D01*
X395777Y276161D01*
X394106Y275994D01*
X394163Y276068D01*
X394214Y276148D01*
X394260Y276234D01*
X394299Y276324D01*
X394332Y276419D01*
X394359Y276519D01*
X394380Y276625D01*
X394395Y276736D01*
X394404Y276851D01*
X394407Y276972D01*
X395407Y277082D01*
X395411Y276961D01*
D02*
G37*
G36*
X393258Y276223D02*
X393180Y276145D01*
X392957Y275893D01*
X392923Y275846D01*
X392899Y275805D01*
X392883Y275771D01*
X392875Y275743D01*
X392877Y275722D01*
X392025Y276510D01*
X392046Y276510D01*
X392073Y276520D01*
X392108Y276539D01*
X392149Y276567D01*
X392198Y276605D01*
X392318Y276707D01*
X392551Y276931D01*
X393258Y276223D01*
D02*
G37*
G36*
X261419Y282485D02*
X261539Y282145D01*
X261739Y281845D01*
X262019Y281585D01*
X262379Y281365D01*
X262819Y281185D01*
X263339Y281045D01*
X263939Y280945D01*
X264619Y280885D01*
X265379Y280865D01*
Y276865D01*
X264619Y276845D01*
X263939Y276785D01*
X263339Y276685D01*
X262819Y276545D01*
X262379Y276365D01*
X262019Y276145D01*
X261739Y275885D01*
X261539Y275585D01*
X261419Y275245D01*
X261379Y274865D01*
Y282865D01*
X261419Y282485D01*
D02*
G37*
G36*
X340047Y272104D02*
X340111Y272038D01*
X340182Y271980D01*
X340261Y271929D01*
X340346Y271887D01*
X340439Y271852D01*
X340540Y271825D01*
X340647Y271806D01*
X340762Y271794D01*
X340884Y271790D01*
X340687Y270790D01*
X340567Y270787D01*
X340339Y270766D01*
X340233Y270747D01*
X340132Y270723D01*
X340035Y270694D01*
X339943Y270659D01*
X339856Y270619D01*
X339774Y270574D01*
X339697Y270523D01*
X339991Y272177D01*
X340047Y272104D01*
D02*
G37*
G36*
X341923Y270290D02*
X341913Y270385D01*
X341882Y270470D01*
X341832Y270545D01*
X341761Y270610D01*
X341670Y270665D01*
X341558Y270710D01*
X341427Y270745D01*
X341275Y270770D01*
X341103Y270785D01*
X340911Y270790D01*
Y271790D01*
X341103Y271795D01*
X341275Y271810D01*
X341427Y271835D01*
X341558Y271870D01*
X341670Y271915D01*
X341761Y271970D01*
X341832Y272035D01*
X341882Y272110D01*
X341913Y272195D01*
X341923Y272290D01*
Y270290D01*
D02*
G37*
G36*
X355538Y272098D02*
X355568Y272013D01*
X355619Y271938D01*
X355689Y271873D01*
X355780Y271818D01*
X355892Y271773D01*
X356023Y271738D01*
X356175Y271713D01*
X356347Y271698D01*
X356539Y271693D01*
Y270693D01*
X356347Y270688D01*
X356175Y270673D01*
X356023Y270648D01*
X355892Y270613D01*
X355780Y270568D01*
X355689Y270513D01*
X355619Y270448D01*
X355568Y270373D01*
X355538Y270288D01*
X355527Y270193D01*
Y272193D01*
X355538Y272098D01*
D02*
G37*
G36*
X435143Y263660D02*
X435074Y263725D01*
X434998Y263782D01*
X434917Y263833D01*
X434830Y263878D01*
X434738Y263915D01*
X434640Y263946D01*
X434536Y263969D01*
X434426Y263986D01*
X434310Y263997D01*
X434189Y264000D01*
Y265000D01*
X434310Y265003D01*
X434426Y265014D01*
X434536Y265031D01*
X434640Y265054D01*
X434738Y265085D01*
X434830Y265122D01*
X434917Y265167D01*
X434998Y265218D01*
X435074Y265275D01*
X435143Y265340D01*
Y263660D01*
D02*
G37*
G36*
X346885Y264618D02*
X346915Y264533D01*
X346966Y264458D01*
X347037Y264393D01*
X347128Y264338D01*
X347239Y264293D01*
X347371Y264258D01*
X347522Y264233D01*
X347694Y264218D01*
X347887Y264213D01*
Y263213D01*
X347694Y263208D01*
X347522Y263193D01*
X347371Y263168D01*
X347239Y263133D01*
X347128Y263088D01*
X347037Y263033D01*
X346989Y262989D01*
X347111Y262805D01*
X347269Y262598D01*
X347687Y262124D01*
X347947Y261857D01*
X347026Y261365D01*
X346814Y261570D01*
X346436Y261892D01*
X346271Y262008D01*
X346122Y262095D01*
X345988Y262152D01*
X345870Y262179D01*
X345768Y262177D01*
X345682Y262145D01*
X345612Y262084D01*
X346875Y263625D01*
X346829Y263539D01*
X346817Y263432D01*
X346840Y263306D01*
X346875Y263215D01*
Y264713D01*
X346885Y264618D01*
D02*
G37*
G36*
X350575Y262713D02*
X350565Y262808D01*
X350535Y262893D01*
X350484Y262968D01*
X350413Y263033D01*
X350322Y263088D01*
X350211Y263133D01*
X350080Y263168D01*
X349928Y263193D01*
X349756Y263208D01*
X349563Y263213D01*
Y264213D01*
X349756Y264218D01*
X349928Y264233D01*
X350080Y264258D01*
X350211Y264293D01*
X350322Y264338D01*
X350413Y264393D01*
X350484Y264458D01*
X350535Y264533D01*
X350565Y264618D01*
X350575Y264713D01*
Y262713D01*
D02*
G37*
G36*
X299474Y260304D02*
X299255Y260513D01*
X299030Y260700D01*
X298797Y260865D01*
X298559Y261008D01*
X298313Y261129D01*
X298062Y261228D01*
X297803Y261305D01*
X297538Y261360D01*
X297266Y261393D01*
X296988Y261404D01*
Y263404D01*
X297266Y263415D01*
X297538Y263448D01*
X297803Y263503D01*
X298062Y263580D01*
X298313Y263679D01*
X298559Y263800D01*
X298797Y263943D01*
X299030Y264108D01*
X299255Y264295D01*
X299474Y264504D01*
Y260304D01*
D02*
G37*
G36*
X304623Y262072D02*
X304651Y261780D01*
X304698Y261499D01*
X304766Y261229D01*
X304854Y260970D01*
X304962Y260722D01*
X305090Y260485D01*
X305239Y260259D01*
X305408Y260043D01*
X305596Y259839D01*
X304182Y258424D01*
X303978Y258613D01*
X303762Y258782D01*
X303536Y258931D01*
X303299Y259059D01*
X303051Y259167D01*
X302792Y259255D01*
X302522Y259323D01*
X302241Y259370D01*
X301949Y259398D01*
X301646Y259405D01*
X304616Y262374D01*
X304623Y262072D01*
D02*
G37*
G36*
X371596Y259412D02*
X371414Y259180D01*
X371253Y258942D01*
X371114Y258699D01*
X370996Y258449D01*
X370900Y258195D01*
X370825Y257935D01*
X370771Y257669D01*
X370739Y257397D01*
X370728Y257120D01*
X368728Y257053D01*
X368717Y257333D01*
X368683Y257605D01*
X368627Y257869D01*
X368548Y258125D01*
X368446Y258375D01*
X368323Y258616D01*
X368176Y258850D01*
X368007Y259076D01*
X367816Y259295D01*
X367602Y259506D01*
X371800Y259639D01*
X371596Y259412D01*
D02*
G37*
G36*
X444016Y257969D02*
X444063Y257747D01*
X444141Y257515D01*
X444251Y257272D01*
X444392Y257020D01*
X444564Y256758D01*
X444768Y256485D01*
X445269Y255911D01*
X445567Y255609D01*
X441433D01*
X441731Y255911D01*
X442232Y256485D01*
X442436Y256758D01*
X442608Y257020D01*
X442749Y257272D01*
X442859Y257515D01*
X442937Y257747D01*
X442984Y257969D01*
X443000Y258182D01*
X444000D01*
X444016Y257969D01*
D02*
G37*
G36*
X414016D02*
X414063Y257747D01*
X414141Y257515D01*
X414251Y257272D01*
X414392Y257020D01*
X414564Y256758D01*
X414768Y256485D01*
X415269Y255911D01*
X415567Y255609D01*
X411433D01*
X411731Y255911D01*
X412232Y256485D01*
X412436Y256758D01*
X412608Y257020D01*
X412749Y257272D01*
X412859Y257515D01*
X412937Y257747D01*
X412984Y257969D01*
X413000Y258182D01*
X414000D01*
X414016Y257969D01*
D02*
G37*
G36*
X273349Y255032D02*
X273410Y254862D01*
X273510Y254712D01*
X273651Y254582D01*
X273832Y254472D01*
X274053Y254382D01*
X274315Y254312D01*
X274617Y254262D01*
X274750Y254250D01*
X275456Y254226D01*
X276202Y254222D01*
Y252222D01*
X275456Y252218D01*
X274419Y252149D01*
X274315Y252132D01*
X274053Y252062D01*
X273832Y251972D01*
X273651Y251862D01*
X273510Y251732D01*
X273410Y251582D01*
X273349Y251412D01*
X273329Y251222D01*
Y252077D01*
X272446Y252018D01*
X272189Y251956D01*
X272001Y251886D01*
X271883Y251807D01*
Y254637D01*
X272001Y254558D01*
X272189Y254487D01*
X272446Y254425D01*
X272774Y254371D01*
X273329Y254318D01*
Y255222D01*
X273349Y255032D01*
D02*
G37*
G36*
X370739Y256443D02*
X370773Y256171D01*
X370829Y255907D01*
X370908Y255650D01*
X371010Y255401D01*
X371133Y255159D01*
X371280Y254926D01*
X371449Y254699D01*
X371640Y254481D01*
X371854Y254270D01*
X367656Y254137D01*
X367860Y254363D01*
X368042Y254596D01*
X368203Y254833D01*
X368342Y255077D01*
X368460Y255326D01*
X368557Y255580D01*
X368632Y255841D01*
X368685Y256106D01*
X368717Y256378D01*
X368728Y256655D01*
X370728Y256722D01*
X370739Y256443D01*
D02*
G37*
G36*
X346527Y252759D02*
X346501Y252947D01*
X346426Y253115D01*
X346300Y253264D01*
X346124Y253393D01*
X345898Y253502D01*
X345621Y253591D01*
X345294Y253661D01*
X344917Y253710D01*
X344490Y253740D01*
X344012Y253750D01*
Y255750D01*
X344490Y255760D01*
X345294Y255839D01*
X345621Y255909D01*
X345898Y255998D01*
X346124Y256107D01*
X346300Y256236D01*
X346426Y256385D01*
X346501Y256553D01*
X346527Y256741D01*
Y252759D01*
D02*
G37*
G36*
X267100Y258128D02*
X268572Y256882D01*
X269223Y256428D01*
X269817Y256087D01*
X270354Y255860D01*
X270835Y255745D01*
X271258Y255744D01*
X271625Y255856D01*
X271935Y256081D01*
X266290Y250436D01*
X266516Y250746D01*
X266628Y251113D01*
X266626Y251537D01*
X266512Y252017D01*
X266284Y252555D01*
X265944Y253149D01*
X265490Y253800D01*
X264923Y254507D01*
X263450Y256093D01*
X266279Y258922D01*
X267100Y258128D01*
D02*
G37*
G36*
X342336Y250238D02*
X342145Y250234D01*
X341973Y250219D01*
X341822Y250194D01*
X341691Y250159D01*
X341579Y250114D01*
X341488Y250059D01*
X341417Y249993D01*
X341366Y249919D01*
X341335Y249833D01*
X341324Y249739D01*
X341336Y251226D01*
X341346Y251229D01*
X341376Y251231D01*
X341826Y251237D01*
X342336Y251238D01*
Y250238D01*
D02*
G37*
G36*
X465554Y251361D02*
X465543Y251297D01*
X465533Y251199D01*
X465511Y250699D01*
X465500Y249556D01*
X461500D01*
X461433Y251391D01*
X465567D01*
X465554Y251361D01*
D02*
G37*
G36*
X369793Y249062D02*
X369491Y249055D01*
X369199Y249028D01*
X368918Y248980D01*
X368648Y248913D01*
X368389Y248825D01*
X368141Y248717D01*
X367904Y248588D01*
X367677Y248440D01*
X367462Y248271D01*
X367257Y248082D01*
X365843Y249496D01*
X366032Y249701D01*
X366201Y249916D01*
X366350Y250143D01*
X366478Y250380D01*
X366586Y250628D01*
X366674Y250887D01*
X366742Y251157D01*
X366789Y251438D01*
X366816Y251729D01*
X366823Y252032D01*
X369793Y249062D01*
D02*
G37*
G36*
X327222Y249119D02*
X327297Y249061D01*
X327378Y249010D01*
X327465Y248966D01*
X327558Y248928D01*
X327656Y248898D01*
X327760Y248874D01*
X327870Y248857D01*
X327985Y248847D01*
X328106Y248843D01*
Y247843D01*
X327985Y247840D01*
X327870Y247830D01*
X327760Y247813D01*
X327656Y247789D01*
X327558Y247758D01*
X327465Y247721D01*
X327378Y247677D01*
X327297Y247626D01*
X327222Y247568D01*
X327153Y247503D01*
Y249183D01*
X327222Y249119D01*
D02*
G37*
G36*
X331924Y247343D02*
X331913Y247438D01*
X331883Y247523D01*
X331833Y247598D01*
X331762Y247663D01*
X331671Y247718D01*
X331559Y247763D01*
X331428Y247798D01*
X331276Y247823D01*
X331104Y247838D01*
X330911Y247843D01*
Y248843D01*
X331104Y248848D01*
X331276Y248863D01*
X331428Y248888D01*
X331559Y248923D01*
X331671Y248968D01*
X331762Y249023D01*
X331833Y249088D01*
X331883Y249163D01*
X331913Y249248D01*
X331924Y249343D01*
Y247343D01*
D02*
G37*
G36*
X273050Y248992D02*
X272790Y248877D01*
X272560Y248685D01*
X272361Y248416D01*
X272193Y248071D01*
X272055Y247648D01*
X271948Y247149D01*
X271871Y246573D01*
X271825Y245920D01*
X271810Y245190D01*
X267810D01*
X267794Y245920D01*
X267672Y247149D01*
X267565Y247648D01*
X267427Y248071D01*
X267259Y248416D01*
X267059Y248685D01*
X266830Y248877D01*
X266569Y248992D01*
X266279Y249031D01*
X273341D01*
X273050Y248992D01*
D02*
G37*
G36*
X383677Y242992D02*
X383559Y242855D01*
X383442Y242680D01*
X383327Y242468D01*
X383214Y242220D01*
X383103Y241934D01*
X382887Y241252D01*
X382677Y240423D01*
X382575Y239953D01*
X380303Y243486D01*
X380691Y243407D01*
X381055Y243355D01*
X381396Y243328D01*
X381714Y243326D01*
X382008Y243351D01*
X382278Y243401D01*
X382525Y243476D01*
X382749Y243577D01*
X382949Y243704D01*
X383126Y243856D01*
X383677Y242992D01*
D02*
G37*
G36*
X360133Y245043D02*
X360181Y244818D01*
X360261Y244583D01*
X360373Y244337D01*
X360517Y244080D01*
X360693Y243814D01*
X360901Y243536D01*
X361413Y242951D01*
X361717Y242642D01*
X357517D01*
X357821Y242951D01*
X358333Y243536D01*
X358541Y243814D01*
X358717Y244080D01*
X358861Y244337D01*
X358973Y244583D01*
X359053Y244818D01*
X359101Y245043D01*
X359117Y245258D01*
X360117D01*
X360133Y245043D01*
D02*
G37*
G36*
X373335Y243511D02*
X373194Y243348D01*
X373069Y243155D01*
X372959Y242932D01*
X372864Y242678D01*
X372785Y242395D01*
X372721Y242082D01*
X372672Y241739D01*
X372620Y240963D01*
X372617Y240530D01*
X369647Y243500D01*
X370080Y243503D01*
X370856Y243555D01*
X371199Y243604D01*
X371512Y243668D01*
X371795Y243748D01*
X372048Y243842D01*
X372271Y243952D01*
X372465Y244077D01*
X372628Y244218D01*
X373335Y243511D01*
D02*
G37*
G36*
X346024Y240250D02*
X346014Y240345D01*
X345984Y240430D01*
X345933Y240505D01*
X345862Y240570D01*
X345771Y240625D01*
X345660Y240670D01*
X345528Y240705D01*
X345376Y240730D01*
X345204Y240745D01*
X345012Y240750D01*
Y241750D01*
X345204Y241755D01*
X345376Y241770D01*
X345528Y241795D01*
X345660Y241830D01*
X345771Y241875D01*
X345862Y241930D01*
X345933Y241995D01*
X345984Y242070D01*
X346014Y242155D01*
X346024Y242250D01*
Y240250D01*
D02*
G37*
G36*
X337606Y242136D02*
X337636Y242055D01*
X337686Y241984D01*
X337756Y241921D01*
X337846Y241869D01*
X337956Y241826D01*
X338086Y241793D01*
X338236Y241769D01*
X338406Y241755D01*
X338596Y241750D01*
Y240750D01*
X338404Y240745D01*
X338233Y240730D01*
X338081Y240705D01*
X337950Y240670D01*
X337839Y240625D01*
X337748Y240570D01*
X337677Y240505D01*
X337626Y240430D01*
X337595Y240345D01*
X337584Y240250D01*
X337596Y242227D01*
X337606Y242136D01*
D02*
G37*
G36*
X335664Y240250D02*
X335653Y240345D01*
X335622Y240430D01*
X335571Y240505D01*
X335500Y240570D01*
X335409Y240625D01*
X335298Y240670D01*
X335167Y240705D01*
X335015Y240730D01*
X334843Y240745D01*
X334652Y240750D01*
Y241750D01*
X334842Y241755D01*
X335012Y241769D01*
X335162Y241793D01*
X335292Y241826D01*
X335402Y241869D01*
X335492Y241921D01*
X335562Y241984D01*
X335612Y242055D01*
X335642Y242136D01*
X335652Y242227D01*
X335664Y240250D01*
D02*
G37*
G36*
X304615Y243168D02*
X304734Y242871D01*
X304868Y242608D01*
X305019Y242380D01*
X305185Y242188D01*
X305367Y242030D01*
X305565Y241908D01*
X305779Y241820D01*
X306010Y241768D01*
X306256Y241750D01*
X305680Y240750D01*
X305557Y240741D01*
X305394Y240715D01*
X304940Y240610D01*
X303945Y240322D01*
X302572Y239876D01*
X304513Y243501D01*
X304615Y243168D01*
D02*
G37*
G36*
X365793Y239886D02*
X365992Y236877D01*
X366054Y236619D01*
X366125Y236431D01*
X366203Y236313D01*
X363373D01*
X363452Y236431D01*
X363523Y236619D01*
X363585Y236877D01*
X363639Y237204D01*
X363722Y238068D01*
X363784Y239886D01*
X363788Y240632D01*
X365788D01*
X365793Y239886D01*
D02*
G37*
G36*
X401540Y239754D02*
X401660Y239155D01*
X401860Y238626D01*
X402140Y238168D01*
X402500Y237781D01*
X402940Y237464D01*
X403460Y237217D01*
X404060Y237041D01*
X404740Y236935D01*
X405500Y236900D01*
X399500Y232900D01*
X395000Y236900D01*
X395475Y236935D01*
X395900Y237041D01*
X396275Y237217D01*
X396600Y237464D01*
X396875Y237781D01*
X397100Y238168D01*
X397275Y238626D01*
X397400Y239155D01*
X397475Y239754D01*
X397500Y240423D01*
X401500D01*
X401540Y239754D01*
D02*
G37*
D10*
X432643Y280039D02*
X432717Y279966D01*
X429500Y280808D02*
X430269Y280039D01*
X429500Y280808D02*
Y281925D01*
X430269Y280039D02*
X432643D01*
X429668Y300486D02*
X434370Y295785D01*
X434500D01*
X409115Y291885D02*
X433927D01*
X405982Y298518D02*
X411015Y293485D01*
X448015D01*
X433927Y291885D02*
X445385Y280427D01*
X404451Y296550D02*
X409115Y291885D01*
X448015Y293485D02*
X456636Y302106D01*
X314400Y306858D02*
X315381Y307839D01*
X309830Y306858D02*
X314400D01*
X187615Y395565D02*
X187706Y395656D01*
X186525Y391945D02*
Y395656D01*
Y391945D02*
X187358Y391112D01*
X187615Y390990D02*
Y395565D01*
X187358Y390733D02*
Y391112D01*
X189674Y395656D02*
X190856D01*
Y386656D02*
Y395656D01*
X190801Y386656D02*
X190856D01*
X383027Y313513D02*
Y319962D01*
X382938Y320052D02*
X383027Y319962D01*
Y313513D02*
X383062Y313479D01*
X388360Y319472D02*
X388628Y319740D01*
X386467Y319472D02*
X388360D01*
X385030Y318035D02*
X386467Y319472D01*
X381128Y316594D02*
X381158Y316624D01*
Y318595D01*
X381128Y313573D02*
X381158Y313543D01*
X381128Y313573D02*
Y316594D01*
X377390Y322363D02*
X381158Y318595D01*
X381093Y303558D02*
Y313479D01*
X326863Y322363D02*
X377390D01*
X385030Y313479D02*
Y318035D01*
X335000Y353529D02*
X364005Y324524D01*
X419929D01*
X427313Y331908D01*
X336843Y354449D02*
X364797Y326495D01*
X414025D01*
X419439Y331909D01*
X208481Y395762D02*
X208572Y395672D01*
X189500Y387000D02*
X189674Y387174D01*
Y395656D01*
Y381290D02*
X197786Y373177D01*
X208743Y374257D02*
X209874Y373126D01*
X208743Y374257D02*
Y375487D01*
X209753Y376497D02*
Y395672D01*
X208743Y375487D02*
X209753Y376497D01*
X208572Y375045D02*
Y395672D01*
X403000Y408500D02*
X408570D01*
X378770Y408362D02*
X378908Y408500D01*
X384500D01*
X408570D02*
X408709Y408362D01*
X406125Y292613D02*
X408647Y290090D01*
X414162D02*
X443500Y260753D01*
X408647Y290090D02*
X414162D01*
X407236Y288675D02*
X431412Y264500D01*
X399991Y288675D02*
X407236D01*
X431412Y264500D02*
X436000D01*
X263360Y302799D02*
X263586Y302573D01*
X227003Y330628D02*
X227112Y330519D01*
X228698Y297699D02*
X228803Y297594D01*
X228593Y302437D02*
X228698Y302332D01*
Y297699D02*
Y302332D01*
X326296Y248343D02*
X332400D01*
X296543Y346457D02*
X325000Y318000D01*
X296543Y346457D02*
Y376957D01*
X294543Y378957D02*
X296543Y376957D01*
X477264Y297219D02*
Y314417D01*
X451586Y340094D02*
X477264Y314417D01*
X423293Y340094D02*
X451586D01*
X472172Y292127D02*
X477264Y297219D01*
X363479Y313479D02*
X373219D01*
X361070Y308430D02*
Y311070D01*
X363479Y313479D01*
X339210Y271290D02*
X344399D01*
X339000Y271500D02*
X339210Y271290D01*
X443500Y252199D02*
Y260753D01*
X399991Y275730D02*
X413500Y262221D01*
Y253079D02*
Y262221D01*
X400025Y308395D02*
X406895D01*
X399991Y292613D02*
X406125D01*
X399991Y296550D02*
X404451D01*
X192810Y391892D02*
X193778Y390924D01*
X192810Y391892D02*
Y395642D01*
X193778Y390605D02*
Y390924D01*
X192810Y395642D02*
X192824Y395656D01*
X204613Y390681D02*
X204624Y390692D01*
Y395645D01*
X204635Y395656D01*
X324821Y383957D02*
X336843Y371935D01*
Y354449D02*
Y371935D01*
X322488Y378957D02*
X326536D01*
X335000Y353529D02*
Y370493D01*
X326536Y378957D02*
X335000Y370493D01*
X314978Y378978D02*
X315000Y379000D01*
X309361Y378978D02*
X314978D01*
X309339Y378957D02*
X309361Y378978D01*
X315056Y373901D02*
X315112Y373846D01*
X309395Y373901D02*
X315056D01*
X300100Y357749D02*
X332239Y325610D01*
X294043Y383957D02*
X300100Y377900D01*
Y357749D02*
Y377900D01*
X346399Y262560D02*
X346538D01*
X352427Y252061D02*
Y256670D01*
X346538Y262560D02*
X352427Y256670D01*
X345726Y263810D02*
X346747D01*
X345149D02*
X345726D01*
Y263232D02*
Y263810D01*
Y263232D02*
X346399Y262560D01*
X344399Y263810D02*
X345149D01*
X346747Y263713D02*
X353051D01*
X351105Y250739D02*
X352427Y252061D01*
X340848Y250739D02*
X351105D01*
X340364Y250254D02*
X340848Y250739D01*
X340364Y248876D02*
Y250254D01*
X303086Y241250D02*
X336624D01*
X348244Y240994D02*
X348500Y241250D01*
X301617Y242719D02*
X303086Y241250D01*
X355400Y287665D02*
X355668Y287933D01*
Y289097D02*
X358500Y291930D01*
X355668Y287933D02*
Y289097D01*
X359617Y240500D02*
Y265520D01*
X373939Y244822D02*
Y265918D01*
X384996Y276975D01*
X359617Y265520D02*
X367625Y273529D01*
X378886D01*
X369617Y240500D02*
X373939Y244822D01*
X360500Y272500D02*
X368077Y280078D01*
X353051Y271193D02*
X359193D01*
X360500Y272500D01*
Y272500D01*
X368077Y280078D02*
Y286707D01*
X378886Y273529D02*
X383049Y277692D01*
Y281576D01*
X383062Y281589D01*
X336624Y239876D02*
Y240766D01*
X337108Y241250D01*
X348500D01*
X371870Y334405D02*
X372195Y334081D01*
X395816Y334073D02*
Y370707D01*
X384537Y381986D02*
X395816Y370707D01*
X309339Y373957D02*
X309395Y373901D01*
X325000Y318000D02*
X361181D01*
X399991Y275730D02*
Y286707D01*
X395000Y234900D02*
X395027Y234927D01*
X391738Y275345D02*
Y275411D01*
X392904Y276577D01*
X388975Y268475D02*
Y276789D01*
X384996Y276975D02*
Y281554D01*
X388967Y276797D02*
X388975Y276789D01*
X386999Y276104D02*
Y281589D01*
X386675Y275780D02*
X386999Y276104D01*
X388967Y276797D02*
Y281589D01*
X392904Y276577D02*
Y281589D01*
X384507Y264006D02*
X388975Y268475D01*
X386675Y275401D02*
Y275780D01*
X384507Y244529D02*
Y264006D01*
X362345Y286690D02*
Y287680D01*
X363340Y288675D02*
X368101D01*
X362345Y287680D02*
X363340Y288675D01*
X362077Y286423D02*
X362345Y286690D01*
X358500Y291930D02*
Y295964D01*
X362210Y294581D02*
X368101D01*
X364942Y298440D02*
X364986Y298483D01*
X359086Y296550D02*
X368108D01*
X353127Y298440D02*
X364942D01*
X358500Y295964D02*
X359086Y296550D01*
X361500Y294250D02*
X361879D01*
X352430Y300486D02*
X368101D01*
X361879Y294250D02*
X362210Y294581D01*
X344353Y308563D02*
X352430Y300486D01*
X368066Y298483D02*
X368101Y298518D01*
X344353Y289666D02*
X353127Y298440D01*
X364986Y298483D02*
X368066D01*
X384996Y281554D02*
X385030Y281589D01*
X380538Y240561D02*
X384507Y244529D01*
X379637Y240561D02*
X380538D01*
X390380Y302624D02*
X392071D01*
X387148Y291000D02*
X392664Y296516D01*
X390674Y299483D02*
X392949D01*
X390257Y302747D02*
X390380Y302624D01*
X392949Y299483D02*
X395848Y296584D01*
X399956D01*
X396143Y298553D02*
X399956D01*
X392071Y302624D02*
X396143Y298553D01*
X390406Y299751D02*
X390674Y299483D01*
X382482Y298018D02*
X383500Y297000D01*
X384340Y300907D02*
X384557Y301124D01*
Y303896D01*
X375553Y299365D02*
X376900Y298018D01*
X375553Y299365D02*
Y301270D01*
X379125Y304842D01*
Y313479D01*
X373953Y298702D02*
X377655Y295000D01*
X376900Y298018D02*
X382482D01*
X377156Y305137D02*
Y313479D01*
X373953Y301933D02*
X377156Y305137D01*
X377655Y295000D02*
X380500D01*
X373953Y298702D02*
Y301933D01*
X377853Y300318D02*
X381093Y303558D01*
X373062Y296542D02*
X378604Y291000D01*
X368108Y296542D02*
X373062D01*
X378604Y291000D02*
X387148D01*
X373219Y313479D02*
X373254Y313513D01*
X375188Y318522D02*
X376500Y319834D01*
Y320000D01*
X373254Y313513D02*
Y320017D01*
X373300Y320063D01*
X361181Y318000D02*
X361400Y317782D01*
X286721Y378957D02*
X294543D01*
X286721Y383957D02*
X294043D01*
X332239Y325610D02*
X353348D01*
X375188Y313479D02*
Y318522D01*
X399956Y296584D02*
X399991Y296550D01*
X470819Y282106D02*
X472172D01*
X462559Y280427D02*
X462582Y280450D01*
X469163D02*
X470819Y282106D01*
X462582Y280450D02*
X469163D01*
X445385Y280427D02*
X462559D01*
X394873Y281589D02*
X394907Y281554D01*
Y275344D02*
Y281554D01*
Y275344D02*
X395027Y275224D01*
X361585Y291523D02*
X362026D01*
X361317Y291255D02*
X361585Y291523D01*
X363116Y292613D02*
X368101D01*
X362026Y291523D02*
X363116Y292613D01*
X427313Y331908D02*
Y334073D01*
X322488Y383957D02*
X324821D01*
X419439Y331909D02*
Y334074D01*
X399991Y300486D02*
X429668D01*
X429455Y302455D02*
X434290Y307290D01*
X399991Y302455D02*
X429455D01*
X399991Y298518D02*
X405982D01*
X406410Y305016D02*
X406500D01*
X405034Y306392D02*
X406410Y305016D01*
X399956Y298553D02*
X399991Y298518D01*
X429568Y329652D02*
X446508D01*
X419439Y334074D02*
Y336239D01*
X423293Y340094D01*
X446508Y329652D02*
X464034Y312126D01*
X456636Y302106D02*
X472172D01*
X427313Y331908D02*
X429568Y329652D01*
X464034Y312126D02*
X472111D01*
X429500Y306500D02*
Y311864D01*
X384557Y303896D02*
X386999Y306339D01*
Y313478D01*
X386999Y313479D02*
X386999Y313478D01*
X346974Y374187D02*
X351505D01*
X346721Y373934D02*
X346974Y374187D01*
X351505D02*
X351742Y374424D01*
X343182Y378943D02*
X343346Y379107D01*
X351431D02*
X351581Y379257D01*
X343346Y379107D02*
X351431D01*
X427313Y395244D02*
Y395695D01*
Y393530D02*
Y395244D01*
X414646Y408362D02*
X427313Y395695D01*
Y395244D02*
X429568Y397500D01*
X437000D01*
X408709Y408362D02*
X414646D01*
X417500Y385215D02*
Y385429D01*
Y385000D02*
Y385215D01*
X411564Y391365D02*
Y393530D01*
Y391365D02*
X417500Y385429D01*
X387943Y334070D02*
X388178Y334305D01*
Y342817D01*
X379500Y334644D02*
Y343000D01*
Y334644D02*
X380068Y334075D01*
X434290Y307290D02*
Y307553D01*
X322417Y306876D02*
X327017D01*
X327979Y307839D01*
X315381Y307839D02*
X320124D01*
X326108Y313822D02*
X349747D01*
X320124Y307839D02*
X326108Y313822D01*
X349747D02*
X359146Y304423D01*
X368101D01*
X337960Y307839D02*
X342344Y312222D01*
X349085D01*
X358852Y302455D01*
X327979Y307839D02*
X337960D01*
X358852Y302455D02*
X368101D01*
X361139Y308361D02*
X368101D01*
X399991D02*
X400025Y308395D01*
X399991Y306392D02*
X405034D01*
X292542Y374016D02*
X292601Y374075D01*
X286721Y373957D02*
X286781Y374016D01*
D19*
X189674Y395655D02*
D03*
X186525Y395656D02*
D03*
X198730Y395662D02*
D03*
X202667D02*
D03*
X212903Y395662D02*
D03*
X209753Y395672D02*
D03*
D20*
X373219Y313479D02*
D03*
X375188D02*
D03*
X377156D02*
D03*
X379125D02*
D03*
X381093D02*
D03*
X383062D02*
D03*
X385030D02*
D03*
X386999D02*
D03*
X388967D02*
D03*
X390936D02*
D03*
X392904D02*
D03*
X394873D02*
D03*
Y281589D02*
D03*
X392904D02*
D03*
X390936D02*
D03*
X388967D02*
D03*
X386999D02*
D03*
X385030D02*
D03*
X383062D02*
D03*
X381093D02*
D03*
X379125D02*
D03*
X377156D02*
D03*
X375188D02*
D03*
X373219D02*
D03*
D21*
X399991Y308361D02*
D03*
Y306392D02*
D03*
Y304423D02*
D03*
Y302455D02*
D03*
Y300486D02*
D03*
Y298518D02*
D03*
Y296550D02*
D03*
Y294581D02*
D03*
Y292613D02*
D03*
Y290644D02*
D03*
Y288675D02*
D03*
Y286707D02*
D03*
X368101D02*
D03*
Y288675D02*
D03*
Y290644D02*
D03*
Y292613D02*
D03*
Y294581D02*
D03*
Y296550D02*
D03*
Y298518D02*
D03*
Y300486D02*
D03*
Y302455D02*
D03*
Y304423D02*
D03*
Y306392D02*
D03*
Y308361D02*
D03*
D22*
X309339Y353957D02*
D03*
X309339Y358957D02*
D03*
X309339Y363957D02*
D03*
Y368957D02*
D03*
Y373957D02*
D03*
Y378957D02*
D03*
X286721Y353957D02*
D03*
X286721Y358957D02*
D03*
X286721Y363957D02*
D03*
Y368957D02*
D03*
Y373957D02*
D03*
Y378957D02*
D03*
X286721Y383957D02*
D03*
X286721Y388957D02*
D03*
X309339D02*
D03*
X309339Y383957D02*
D03*
X345106Y353957D02*
D03*
X345106Y358957D02*
D03*
X345106Y363957D02*
D03*
Y368957D02*
D03*
Y373957D02*
D03*
Y378957D02*
D03*
X322488Y353957D02*
D03*
X322488Y358957D02*
D03*
X322488Y363957D02*
D03*
Y368957D02*
D03*
Y373957D02*
D03*
Y378957D02*
D03*
X322488Y383957D02*
D03*
X322488Y388957D02*
D03*
X345106D02*
D03*
X345106Y383957D02*
D03*
D23*
X427313Y393530D02*
D03*
X419439Y393530D02*
D03*
X411564D02*
D03*
X403690D02*
D03*
X395816D02*
D03*
X387943D02*
D03*
X380068D02*
D03*
X372195Y393527D02*
D03*
Y334081D02*
D03*
X380068Y334075D02*
D03*
X387943Y334070D02*
D03*
X395816Y334073D02*
D03*
X403690Y334076D02*
D03*
X411564Y334073D02*
D03*
X419439Y334074D02*
D03*
X427313Y334073D02*
D03*
D24*
X367072Y383485D02*
D03*
X367077Y375619D02*
D03*
X367075Y367750D02*
D03*
Y359873D02*
D03*
X367075Y352002D02*
D03*
X367073Y344128D02*
D03*
D25*
X378770Y408362D02*
D03*
X408709D02*
D03*
D26*
X429500Y311864D02*
D03*
Y281925D02*
D03*
D27*
X353051Y263713D02*
D03*
X353051Y271193D02*
D03*
X344399Y271290D02*
D03*
Y263810D02*
D03*
D28*
X348500Y254750D02*
D03*
D29*
Y241250D02*
D03*
D30*
X336624Y239876D02*
D03*
X332884Y248876D02*
D03*
X340364D02*
D03*
D31*
X227112Y330519D02*
D03*
X236167D02*
D03*
X245222D02*
D03*
X263360Y302799D02*
D03*
X254305D02*
D03*
X245250D02*
D03*
D32*
X236167Y353905D02*
D03*
X254305Y279413D02*
D03*
D33*
X194794Y395656D02*
D03*
D34*
X187706D02*
D03*
X190856Y395656D02*
D03*
X192824Y395656D02*
D03*
X196761D02*
D03*
X200698Y395656D02*
D03*
X204635D02*
D03*
X208572Y395672D02*
D03*
X211722Y395662D02*
D03*
D35*
X206604Y395656D02*
D03*
D36*
X327979Y307839D02*
D03*
X327979Y286185D02*
D03*
X315381D02*
D03*
X315381Y307839D02*
D03*
D71*
X275449Y304589D02*
G03*
X273434Y305423I-2015J-2015D01*
G01*
X275449Y304589D02*
G03*
X273434Y305423I-2015J-2015D01*
G01*
X276312Y302545D02*
G03*
X275478Y304560I-2850J0D01*
G01*
X273059Y299724D02*
G03*
X276312Y302545I403J2821D01*
G01*
X260423Y252562D02*
G03*
X260423Y252562I-4393J0D01*
G01*
X234137Y286080D02*
G03*
X236156Y286919I0J2850D01*
G01*
X234137Y286080D02*
G03*
X236152Y286915I0J2850D01*
G01*
X234633Y272558D02*
G03*
X232391Y276272I-4197J0D01*
G01*
X232216Y268758D02*
G03*
X234633Y272558I-1779J3801D01*
G01*
X252908Y374743D02*
G03*
X252908Y374743I-4393J0D01*
G01*
X228778Y362722D02*
G03*
X229100Y363500I-778J778D01*
G01*
X228778Y362722D02*
G03*
X229100Y363500I-778J778D01*
G01*
X228778Y362722D02*
G03*
X229100Y363500I-778J778D01*
G01*
X228778Y362722D02*
G03*
X229100Y363500I-778J778D01*
G01*
X264694Y330629D02*
G03*
X258789Y332380I-3212J0D01*
G01*
Y328878D02*
G03*
X264694Y330629I2693J1750D01*
G01*
X247618Y322500D02*
G03*
X247906Y323748I-2562J1249D01*
G01*
X247618Y322500D02*
G03*
X247906Y323748I-2562J1249D01*
G01*
X223500Y357900D02*
G03*
X224278Y358222I0J1100D01*
G01*
X223500Y357900D02*
G03*
X224278Y358222I0J1100D01*
G01*
X220716Y333366D02*
G03*
X220398Y333384I-318J-2832D01*
G01*
X220716Y333366D02*
G03*
X220398Y333384I-318J-2832D01*
G01*
X214933D02*
G03*
X212282Y328590I-636J-2778D01*
G01*
X212353Y328519D02*
G03*
X214369Y327684I2015J2015D01*
G01*
X212349Y328523D02*
G03*
X214369Y327684I2019J2011D01*
G01*
X220098D02*
G03*
X220416Y327666I318J2832D01*
G01*
X220098Y327684D02*
G03*
X220416Y327666I318J2832D01*
G01*
X226024Y379003D02*
G03*
X226024Y379003I-3850J0D01*
G01*
X192636Y373177D02*
G03*
X182936Y373177I-4850J0D01*
G01*
X274540Y305200D02*
X279500D01*
X275213Y304800D02*
X279500D01*
X266375Y305423D02*
X273434D01*
X275913Y304000D02*
X279500D01*
X276110Y303600D02*
X279500D01*
X275626Y304400D02*
X279500D01*
X266375Y307200D02*
X279500D01*
X266375Y307600D02*
X279500D01*
X266375Y306800D02*
X279500D01*
X266375Y308400D02*
X279500D01*
X266375Y308000D02*
X279500D01*
X266375Y306000D02*
X279500D01*
X266375Y305600D02*
X279500D01*
X266375Y305423D02*
Y308571D01*
Y306400D02*
X279500D01*
X276308Y302400D02*
X279500D01*
X276260Y302000D02*
X279500D01*
X276151Y301600D02*
X279500D01*
X276236Y303200D02*
X279500D01*
X276301Y302800D02*
X279500D01*
X275339Y300400D02*
X279500D01*
X274745Y300000D02*
X279500D01*
X275975Y301200D02*
X279500D01*
X275716Y300800D02*
X279500D01*
X266375Y299200D02*
X279500D01*
X266375Y299600D02*
X279500D01*
X266375Y298800D02*
X279500D01*
X266375Y299724D02*
X273059D01*
X266375Y297600D02*
X279500D01*
X266375Y297200D02*
X279500D01*
X266375Y298400D02*
X279500D01*
X266375Y298000D02*
X279500D01*
X260344Y308571D02*
X266375D01*
X248265Y306400D02*
X260344D01*
X248265Y306000D02*
X260344D01*
X248265Y307200D02*
X260344D01*
X248265Y306800D02*
X260344D01*
X248265Y304800D02*
X260344D01*
X248265Y304400D02*
X260344D01*
X248265Y305600D02*
X260344D01*
X248265Y305200D02*
X260344D01*
X243122Y308571D02*
X245084D01*
X243122D02*
X245084D01*
X248265D01*
X242234D02*
X243122D01*
X242234D02*
X243122D01*
X248265Y308000D02*
X260344D01*
X248265Y307600D02*
X260344D01*
X248265Y297973D02*
Y308571D01*
Y308400D02*
X260344D01*
X248265Y299200D02*
X260344D01*
X248265Y299600D02*
X260344D01*
X248265Y298800D02*
X260344D01*
X248265Y300400D02*
X260344D01*
X248265Y300000D02*
X260344D01*
X248265Y297600D02*
X260344D01*
X248265Y297200D02*
X260344D01*
X248265Y298400D02*
X260344D01*
X248265Y298000D02*
X260344D01*
X248265Y302800D02*
X260344D01*
X248265Y303200D02*
X260344D01*
X248265Y302400D02*
X260344D01*
X248265Y304000D02*
X260344D01*
X248265Y303600D02*
X260344D01*
X248265Y301200D02*
X260344D01*
X248265Y300800D02*
X260344D01*
X248265Y302000D02*
X260344D01*
X248265Y301600D02*
X260344D01*
X259204Y255600D02*
X279500D01*
X258765Y256000D02*
X279500D01*
X259543Y255200D02*
X279500D01*
X257188Y256800D02*
X279500D01*
X258168Y256400D02*
X279500D01*
X279500Y314500D02*
X279500Y245000D01*
X260181Y254000D02*
X279500D01*
X259811Y254800D02*
X279500D01*
X260021Y254400D02*
X279500D01*
X243638Y294400D02*
X279500D01*
X243237Y294000D02*
X279500D01*
X242837Y293600D02*
X279500D01*
X244496Y295200D02*
X279500D01*
X244070Y294800D02*
X279500D01*
X241637Y292400D02*
X279500D01*
X241237Y292000D02*
X279500D01*
X242437Y293200D02*
X279500D01*
X242037Y292800D02*
X279500D01*
X260421Y252400D02*
X279500D01*
X260417Y252800D02*
X279500D01*
X260387Y252000D02*
X279500D01*
X260299Y253600D02*
X279500D01*
X260377Y253200D02*
X279500D01*
X260055Y250800D02*
X279500D01*
X272000Y237500D02*
X279500Y245000D01*
X260317Y251600D02*
X279500D01*
X260207Y251200D02*
X279500D01*
X259275Y249600D02*
X279500D01*
X258858Y249200D02*
X279500D01*
X258299Y248800D02*
X279500D01*
X259855Y250400D02*
X279500D01*
X259599Y250000D02*
X279500D01*
X241793Y245600D02*
X279500D01*
X242075Y245200D02*
X279500D01*
X257437Y248400D02*
X279500D01*
X241511Y246000D02*
X279500D01*
X266375Y297028D02*
Y299724D01*
X260344Y297028D02*
Y308571D01*
Y297028D02*
X266375D01*
X248265D02*
Y297959D01*
X247486Y297028D02*
X248265D01*
X246663Y296800D02*
X279500D01*
X246427Y296680D02*
X246749Y296843D01*
X246062Y296458D02*
X246427Y296680D01*
X245980Y296400D02*
X279500D01*
X245446Y296000D02*
X279500D01*
X244956Y295600D02*
X279500D01*
X245667Y296181D02*
X246062Y296458D01*
X244741Y295424D02*
X245667Y296181D01*
X242357Y244800D02*
X279300D01*
X242639Y244400D02*
X278900D01*
X244244Y294969D02*
X244741Y295424D01*
X243701Y294441D02*
X244244Y294969D01*
X245739Y240000D02*
X274500D01*
X245457Y240400D02*
X274900D01*
X246020Y239600D02*
X274100D01*
X246302Y239200D02*
X273700D01*
X246584Y238800D02*
X273300D01*
X246866Y238400D02*
X272900D01*
X247148Y238000D02*
X272500D01*
X247430Y237600D02*
X272100D01*
X247500Y237500D02*
X272000D01*
X243202Y243600D02*
X278100D01*
X242920Y244000D02*
X278500D01*
X243484Y243200D02*
X277700D01*
X243766Y242800D02*
X277300D01*
X244048Y242400D02*
X276900D01*
X244330Y242000D02*
X276500D01*
X244611Y241600D02*
X276100D01*
X244893Y241200D02*
X275700D01*
X245175Y240800D02*
X275300D01*
X238037Y288800D02*
X279500D01*
X232618Y286000D02*
X279500D01*
X232609Y285600D02*
X279500D01*
X233280Y314400D02*
X279500D01*
X233271Y314000D02*
X279500D01*
X232581Y284400D02*
X279500D01*
X232571Y284000D02*
X279500D01*
X232599Y285200D02*
X279500D01*
X232590Y284800D02*
X279500D01*
X232543Y282800D02*
X279500D01*
X232534Y282400D02*
X279500D01*
X232525Y282000D02*
X279500D01*
X232562Y283600D02*
X279500D01*
X232553Y283200D02*
X279500D01*
X232497Y280800D02*
X279500D01*
X232487Y280400D02*
X279500D01*
X232515Y281600D02*
X279500D01*
X232506Y281200D02*
X279500D01*
X233698Y275200D02*
X279500D01*
X233328Y275600D02*
X279500D01*
X233985Y274800D02*
X279500D01*
X232478Y280000D02*
X279500D01*
X232838Y276000D02*
X279500D01*
X234502Y273600D02*
X279500D01*
X234584Y273200D02*
X279500D01*
X234208Y274400D02*
X279500D01*
X234378Y274000D02*
X279500D01*
X232450Y278800D02*
X279500D01*
X232441Y278400D02*
X279500D01*
X232431Y278000D02*
X279500D01*
X232469Y279600D02*
X279500D01*
X232459Y279200D02*
X279500D01*
X232403Y276800D02*
X279500D01*
X232394Y276400D02*
X279500D01*
X232422Y277600D02*
X279500D01*
X232413Y277200D02*
X279500D01*
X233252Y313200D02*
X279500D01*
X233243Y312800D02*
X279500D01*
X233233Y312400D02*
X279500D01*
X233282Y314500D02*
X279500Y314500D01*
X233261Y313600D02*
X279500D01*
X233224Y312000D02*
X279500D01*
X233215Y311600D02*
X279500D01*
X239099Y308587D02*
X243099Y308575D01*
X239013Y308571D02*
X242234D01*
X233187Y310400D02*
X279500D01*
X233177Y310000D02*
X279500D01*
X233168Y309600D02*
X279500D01*
X233205Y311200D02*
X279500D01*
X233196Y310800D02*
X279500D01*
X233159Y309200D02*
X279500D01*
X233150Y308800D02*
X279500D01*
X233145Y308592D02*
X233282Y314500D01*
X233145Y308592D02*
X238739D01*
X240037Y290800D02*
X279500D01*
X239637Y290400D02*
X279500D01*
X239237Y290000D02*
X279500D01*
X240837Y291600D02*
X279500D01*
X240437Y291200D02*
X279500D01*
X237637Y288400D02*
X279500D01*
X237237Y288000D02*
X279500D01*
X238837Y289600D02*
X279500D01*
X238437Y289200D02*
X279500D01*
X236437Y287200D02*
X279500D01*
X236030Y286800D02*
X279500D01*
X235448Y286400D02*
X279500D01*
X236156Y286919D02*
X243634Y294397D01*
X236837Y287600D02*
X279500D01*
X232391Y276272D02*
X232620Y286080D01*
X234137D01*
X234596Y272000D02*
X279500D01*
X234522Y271600D02*
X279500D01*
X234407Y271200D02*
X279500D01*
X234626Y272800D02*
X279500D01*
X234630Y272400D02*
X279500D01*
X233763Y270000D02*
X279500D01*
X233413Y269600D02*
X279500D01*
X234247Y270800D02*
X279500D01*
X234036Y270400D02*
X279500D01*
X232207Y268400D02*
X279500D01*
X232198Y268000D02*
X279500D01*
X232189Y267600D02*
X279500D01*
X232953Y269200D02*
X279500D01*
X232303Y268800D02*
X279500D01*
X232161Y266400D02*
X279500D01*
X232152Y266000D02*
X279500D01*
X232179Y267200D02*
X279500D01*
X232170Y266800D02*
X279500D01*
X233620Y257200D02*
X279500D01*
X233339Y257600D02*
X279500D01*
X240102Y248000D02*
X279500D01*
X232775Y258400D02*
X279500D01*
X233057Y258000D02*
X279500D01*
X240948Y246800D02*
X279500D01*
X241230Y246400D02*
X279500D01*
X240384Y247600D02*
X279500D01*
X240666Y247200D02*
X279500D01*
X232124Y264800D02*
X279500D01*
X232114Y264400D02*
X279500D01*
X232105Y264000D02*
X279500D01*
X232142Y265600D02*
X279500D01*
X232133Y265200D02*
X279500D01*
X232211Y259200D02*
X279500D01*
X232493Y258800D02*
X279500D01*
X232077Y262800D02*
X279500D01*
X232002Y259600D02*
X279500D01*
X232096Y263600D02*
X279500D01*
X232086Y263200D02*
X279500D01*
X233902Y256800D02*
X254873D01*
X234184Y256400D02*
X253892D01*
X234466Y256000D02*
X253295D01*
X234748Y255600D02*
X252857D01*
X235030Y255200D02*
X252517D01*
X232049Y261600D02*
X279500D01*
X232040Y261200D02*
X279500D01*
X232030Y260800D02*
X279500D01*
X232068Y262400D02*
X279500D01*
X232058Y262000D02*
X279500D01*
X232021Y260400D02*
X279500D01*
X232012Y260000D02*
X279500D01*
X232000Y259500D02*
X232216Y268758D01*
X232000Y259500D02*
X247500Y237500D01*
X238411Y250400D02*
X252206D01*
X238130Y250800D02*
X252006D01*
X238693Y250000D02*
X252461D01*
X237566Y251600D02*
X251744D01*
X237848Y251200D02*
X251853D01*
X239539Y248800D02*
X253761D01*
X239820Y248400D02*
X254623D01*
X238975Y249600D02*
X252785D01*
X239257Y249200D02*
X253202D01*
X235311Y254800D02*
X252250D01*
X235593Y254400D02*
X252040D01*
X235875Y254000D02*
X251879D01*
X236157Y253600D02*
X251761D01*
X236439Y253200D02*
X251683D01*
X237284Y252000D02*
X251673D01*
X236720Y252800D02*
X251643D01*
X237002Y252400D02*
X251640D01*
X264500Y393500D02*
X277500Y380500D01*
X229100Y382400D02*
X275600D01*
X229100Y382800D02*
X275200D01*
X250949Y378400D02*
X277500D01*
X250199Y378800D02*
X277500D01*
X229100Y385600D02*
X272400D01*
X229100Y386000D02*
X272000D01*
X229100Y383200D02*
X274800D01*
X229100Y384000D02*
X274000D01*
X252724Y376000D02*
X277500D01*
X252584Y376400D02*
X277500D01*
X252884Y375200D02*
X277500D01*
X252824Y375600D02*
X277500D01*
X251852Y377600D02*
X277500D01*
X251463Y378000D02*
X277500D01*
X252397Y376800D02*
X277500D01*
X252156Y377200D02*
X277500D01*
X229129Y392000D02*
X266000D01*
X229129Y391600D02*
X266400D01*
X229129Y392400D02*
X265600D01*
X229129Y390800D02*
X267200D01*
X229129Y391200D02*
X266800D01*
X229129Y393200D02*
X264800D01*
X229129Y393500D02*
X264500D01*
X229129Y392800D02*
X265200D01*
X229129Y388156D02*
Y393500D01*
Y389200D02*
X268800D01*
X229129Y389600D02*
X268400D01*
X229129Y388400D02*
X269600D01*
X229129Y388800D02*
X269200D01*
X229129Y390000D02*
X268000D01*
X229129Y390400D02*
X267600D01*
X229100Y386400D02*
X271600D01*
X229100Y386800D02*
X271200D01*
X252895Y374400D02*
X277500D01*
X252845Y374000D02*
X277500D01*
X252908Y374800D02*
X277500D01*
Y361500D02*
Y380500D01*
X252757Y373600D02*
X277500D01*
X252455Y372800D02*
X277500D01*
X252628Y373200D02*
X277500D01*
X251947Y372000D02*
X277500D01*
X252232Y372400D02*
X277500D01*
X251113Y371200D02*
X277500D01*
X251585Y371600D02*
X277500D01*
X268500Y352500D02*
X277500Y361500D01*
X250453Y370800D02*
X277500D01*
X249181Y370400D02*
X277500D01*
X229300Y359200D02*
X275200D01*
X229700Y358800D02*
X274800D01*
X230100Y358400D02*
X274400D01*
X231700Y356800D02*
X272800D01*
X232100Y356400D02*
X272400D01*
X232500Y356000D02*
X272000D01*
X232900Y355600D02*
X271600D01*
X230500Y358000D02*
X274000D01*
X229100Y373200D02*
X244401D01*
X230900Y357600D02*
X273600D01*
X231300Y357200D02*
X273200D01*
X234900Y353600D02*
X269600D01*
X235300Y353200D02*
X269200D01*
X235700Y352800D02*
X268800D01*
X236000Y352500D02*
X268500D01*
X233300Y355200D02*
X271200D01*
X233700Y354800D02*
X270800D01*
X234100Y354400D02*
X270400D01*
X234500Y354000D02*
X270000D01*
X229100Y384400D02*
X273600D01*
X229100Y383600D02*
X274400D01*
X229100Y384800D02*
X273200D01*
X229100Y381600D02*
X276400D01*
X229100Y382000D02*
X276000D01*
X229100Y387600D02*
X270400D01*
X229100Y388000D02*
X270000D01*
X229100Y385200D02*
X272800D01*
X229100Y387200D02*
X270800D01*
X229100Y379200D02*
X277500D01*
X229100Y379600D02*
X277500D01*
X229100Y378800D02*
X246830D01*
X229100Y378400D02*
X246081D01*
X229100Y380800D02*
X277200D01*
X229100Y381200D02*
X276800D01*
X229100Y380000D02*
X277500D01*
X229100Y380400D02*
X277500D01*
X229100Y376400D02*
X244446D01*
X229100Y376000D02*
X244305D01*
X229100Y375600D02*
X244206D01*
X229100Y375200D02*
X244145D01*
X229100Y374800D02*
X244122D01*
X229100Y378000D02*
X245567D01*
X229100Y377600D02*
X245178D01*
X229100Y377200D02*
X244873D01*
X229100Y376800D02*
X244633D01*
X229100Y372000D02*
X245083D01*
X229100Y372400D02*
X244798D01*
X229100Y371200D02*
X245916D01*
X229100Y371600D02*
X245445D01*
X229100Y374000D02*
X244185D01*
X229100Y374400D02*
X244135D01*
X229100Y372800D02*
X244574D01*
X229100Y373600D02*
X244273D01*
X229100Y366000D02*
X277500D01*
X229100Y365600D02*
X277500D01*
X229100Y366400D02*
X277500D01*
X229100Y364800D02*
X277500D01*
X229100Y365200D02*
X277500D01*
X229100Y367600D02*
X277500D01*
X229100Y368000D02*
X277500D01*
X229100Y366800D02*
X277500D01*
X229100Y367200D02*
X277500D01*
X229100Y364000D02*
X277500D01*
X229100Y364400D02*
X277500D01*
X229058Y363200D02*
X277500D01*
X229100Y363600D02*
X277500D01*
X228456Y362400D02*
X277500D01*
X228849Y362800D02*
X277500D01*
X227656Y361600D02*
X277500D01*
X228056Y362000D02*
X277500D01*
X229100Y369600D02*
X277500D01*
X229100Y369200D02*
X277500D01*
X229100Y370000D02*
X277500D01*
X229100Y368400D02*
X277500D01*
X229100Y368800D02*
X277500D01*
X229100Y370400D02*
X247849D01*
X229100Y370800D02*
X246576D01*
X229100Y363500D02*
Y387979D01*
X228100Y360400D02*
X276400D01*
X228500Y360000D02*
X276000D01*
X228900Y359600D02*
X275600D01*
X227300Y361200D02*
X277200D01*
X227278Y361222D02*
X228778Y362722D01*
X227700Y360800D02*
X276800D01*
X227278Y361222D02*
X236000Y352500D01*
X256500Y365500D02*
X269000Y353000D01*
X228456Y362400D02*
X259600D01*
X229058Y363200D02*
X258800D01*
X228849Y362800D02*
X259200D01*
X248237Y335200D02*
X269000D01*
X248237Y334800D02*
X269000D01*
X248237Y336000D02*
X269000D01*
X248237Y335600D02*
X269000D01*
X227256Y361200D02*
X260800D01*
X226856Y360800D02*
X261200D01*
X228056Y362000D02*
X260000D01*
X227656Y361600D02*
X260400D01*
X226056Y360000D02*
X262000D01*
X225656Y359600D02*
X262400D01*
X226456Y360400D02*
X261600D01*
X263850Y332800D02*
X269000D01*
X264162Y332400D02*
X269000D01*
X262703Y333600D02*
X269000D01*
X263408Y333200D02*
X269000D01*
X264643Y331200D02*
X269000D01*
X264690Y330800D02*
X269000D01*
X264387Y332000D02*
X269000D01*
X264544Y331600D02*
X269000D01*
X248237Y334400D02*
X269000D01*
X248237Y334000D02*
X269000D01*
X253306Y333841D02*
X258789D01*
Y333600D02*
X260261D01*
X258789Y333200D02*
X259557D01*
X258789Y332800D02*
X259115D01*
X258789Y332380D02*
Y333841D01*
X229100Y364000D02*
X258000D01*
X229100Y363600D02*
X258400D01*
X242206Y336290D02*
X248237D01*
X230127Y336000D02*
X242206D01*
X248237Y333424D02*
Y336290D01*
X230127Y334800D02*
X242206D01*
X230127Y335600D02*
X242206D01*
X230127Y335200D02*
X242206D01*
X229100Y364800D02*
X257200D01*
X229100Y364400D02*
X257600D01*
X229100Y365500D02*
X256500D01*
X229100Y365200D02*
X256800D01*
X229100Y363500D02*
Y365500D01*
X252364Y333841D02*
X253203D01*
X249955Y333444D02*
X252364Y333607D01*
X248237Y333600D02*
X252258D01*
X249222Y333441D02*
X249955Y333444D01*
X248237Y333424D02*
X249141D01*
X230127Y330800D02*
X242206D01*
X230127Y331600D02*
X242206D01*
X230127Y331200D02*
X242206D01*
X230127Y333600D02*
X242206D01*
X230127Y333200D02*
X242206D01*
X230127Y334400D02*
X242206D01*
X230127Y334000D02*
X242206D01*
X230127Y332400D02*
X242206D01*
X230127Y332000D02*
X242206D01*
X230127Y332800D02*
X242206D01*
X264525Y329600D02*
X269000D01*
X264359Y329200D02*
X269000D01*
X264686Y330400D02*
X269000D01*
X264632Y330000D02*
X269000D01*
Y324500D02*
Y353000D01*
X263328Y328000D02*
X269000D01*
X264123Y328800D02*
X269000D01*
X263795Y328400D02*
X269000D01*
X258789Y327600D02*
X260413D01*
X258789Y328400D02*
X259169D01*
X258789Y328000D02*
X259636D01*
X262552Y327600D02*
X269000D01*
X258789Y327417D02*
Y328878D01*
X248237Y326400D02*
X269000D01*
X248237Y326000D02*
X269000D01*
X253250Y327417D02*
X258789D01*
X248237Y326800D02*
X269000D01*
X248237Y324800D02*
X269000D01*
X267000Y322500D02*
X269000Y324500D01*
X248237Y325600D02*
X269000D01*
X248237Y325200D02*
X269000D01*
X248237Y327200D02*
X269000D01*
X247906Y324400D02*
X268900D01*
X247906Y324000D02*
X268500D01*
X247902Y323600D02*
X268100D01*
X247853Y323200D02*
X267700D01*
X247744Y322800D02*
X267300D01*
X247618Y322500D02*
X267000D01*
X248237Y327724D02*
X249135D01*
X249211Y327708D02*
X251747Y327661D01*
X242206Y330354D02*
Y336290D01*
X230127Y328000D02*
X242206D01*
X248237Y324748D02*
Y327724D01*
X251747Y327661D02*
X252364Y327615D01*
X242206Y324929D02*
Y330354D01*
Y324929D02*
Y330354D01*
X230127Y329600D02*
X242206D01*
X230127Y329200D02*
X242206D01*
X230127Y330400D02*
X242206D01*
X230127Y330000D02*
X242206D01*
X230127Y328800D02*
X242206D01*
X230127Y328400D02*
X242206D01*
X230127Y324748D02*
Y336290D01*
X248237Y327600D02*
X252364D01*
Y327417D02*
X253203D01*
X230127Y324800D02*
X242077D01*
X247906Y324748D02*
X248237D01*
X239777Y322500D02*
X242206Y324929D01*
X247906Y323748D02*
Y324748D01*
X230127Y326800D02*
X242206D01*
X230127Y326400D02*
X242206D01*
X230127Y327600D02*
X242206D01*
X230127Y327200D02*
X242206D01*
X230127Y325600D02*
X242206D01*
X230127Y325200D02*
X242206D01*
X230127Y326000D02*
X242206D01*
X215737Y347200D02*
X269000D01*
X215737Y346800D02*
X269000D01*
X215737Y348000D02*
X269000D01*
X215737Y347600D02*
X269000D01*
X215737Y345600D02*
X269000D01*
X215737Y345200D02*
X269000D01*
X215737Y346400D02*
X269000D01*
X215737Y346000D02*
X269000D01*
X208000Y352000D02*
X269000D01*
X208000Y351600D02*
X269000D01*
X208000Y352800D02*
X269000D01*
X208000Y352400D02*
X269000D01*
X215737Y348800D02*
X269000D01*
X215737Y348400D02*
X269000D01*
X215737Y349200D02*
X269000D01*
X215737Y342800D02*
X269000D01*
X215737Y342400D02*
X269000D01*
X215737Y343600D02*
X269000D01*
X215737Y343200D02*
X269000D01*
X215737Y341200D02*
X269000D01*
X215737Y340800D02*
X269000D01*
X215737Y342000D02*
X269000D01*
X215737Y341600D02*
X269000D01*
X215737Y344000D02*
X269000D01*
X208000Y340400D02*
X269000D01*
X215737Y344800D02*
X269000D01*
X215737Y344400D02*
X269000D01*
X208000Y339600D02*
X269000D01*
X208000Y339200D02*
X269000D01*
X208000Y340000D02*
X269000D01*
X224856Y358800D02*
X263200D01*
X224456Y358400D02*
X263600D01*
X224278Y358222D02*
X228778Y362722D01*
X225256Y359200D02*
X262800D01*
X223958Y358000D02*
X264000D01*
X209105Y357900D02*
X223500D01*
X208686Y356800D02*
X265200D01*
X208533Y356400D02*
X265600D01*
X208991Y357600D02*
X264400D01*
X208838Y357200D02*
X264800D01*
X208381Y356000D02*
X266000D01*
X208229Y355600D02*
X266400D01*
X208000Y355000D02*
X209105Y357900D01*
X208000Y350400D02*
X269000D01*
X208000Y350000D02*
X269000D01*
X208076Y355200D02*
X266800D01*
X208000Y350800D02*
X269000D01*
X208000Y349600D02*
X269000D01*
X215737Y340440D02*
Y349227D01*
X208000D02*
X215737D01*
X208000Y340440D02*
X215737D01*
X208000Y354000D02*
X268000D01*
X208000Y353600D02*
X268400D01*
X208000Y354800D02*
X267200D01*
X208000Y354400D02*
X267600D01*
X208000Y353200D02*
X268800D01*
X208000Y351200D02*
X269000D01*
X208000Y349227D02*
Y355000D01*
X224096Y336290D02*
X230127D01*
X208000Y335200D02*
X224096D01*
X208000Y336000D02*
X224096D01*
X208000Y335600D02*
X224096D01*
X220416Y327666D02*
X224096D01*
Y324748D02*
Y327666D01*
X208000Y334800D02*
X224096D01*
X208000Y333600D02*
X224096D01*
X208000Y338000D02*
X269000D01*
X208000Y337600D02*
X269000D01*
X208000Y338800D02*
X269000D01*
X208000Y338400D02*
X269000D01*
X208000Y336800D02*
X269000D01*
X208000Y336400D02*
X269000D01*
X208000Y337200D02*
X269000D01*
X211600Y324400D02*
X241677D01*
X212000Y324000D02*
X241277D01*
X211200Y324800D02*
X224096D01*
Y324748D02*
X230127D01*
X212400Y323600D02*
X240877D01*
X212800Y323200D02*
X240477D01*
X213200Y322800D02*
X240077D01*
X213500Y322500D02*
X239777D01*
X209200Y326800D02*
X224096D01*
X209600Y326400D02*
X224096D01*
X208400Y327600D02*
X224096D01*
X208800Y327200D02*
X224096D01*
X210400Y325600D02*
X224096D01*
X210800Y325200D02*
X224096D01*
X210000Y326000D02*
X224096D01*
X220716Y333366D02*
X224096D01*
X214933Y333384D02*
X220398D01*
X224096Y333366D02*
Y336290D01*
X208000Y331600D02*
X211626D01*
X208000Y331200D02*
X211509D01*
X208000Y334400D02*
X224096D01*
X208000Y334000D02*
X224096D01*
X208000Y333200D02*
X213117D01*
X208000Y332800D02*
X212478D01*
X208000Y332400D02*
X212083D01*
X208000Y332000D02*
X211811D01*
X208000Y328000D02*
Y340440D01*
X214369Y327684D02*
X220098D01*
X208000Y328000D02*
X213064D01*
X208000D02*
X213500Y322500D01*
X208000Y330000D02*
X211512D01*
X208000Y329600D02*
X211630D01*
X208000Y330800D02*
X211454D01*
X208000Y330400D02*
X211454D01*
X208000Y328800D02*
X212092D01*
X208000Y328400D02*
X212480D01*
X208000Y329200D02*
X211818D01*
X225331Y376800D02*
X228000D01*
X225576Y377200D02*
X228000D01*
X224583Y376000D02*
X228000D01*
X225011Y376400D02*
X228000D01*
X222773Y375200D02*
X228000D01*
X223974Y375600D02*
X228000D01*
X192636Y372400D02*
X228000D01*
X192636Y372800D02*
X228000D01*
X192636Y370400D02*
X228000D01*
X192636Y370800D02*
X228000D01*
X192636Y369600D02*
X228000D01*
X192636Y370000D02*
X228000D01*
X192636Y371600D02*
X228000D01*
X192636Y372000D02*
X228000D01*
X192636Y371200D02*
X228000D01*
X225336Y381200D02*
X228000D01*
X225016Y381600D02*
X228000D01*
X225762Y380400D02*
X228000D01*
X225579Y380800D02*
X228000D01*
X223986Y382400D02*
X228000D01*
X222812Y382800D02*
X228000D01*
X224591Y382000D02*
X228000D01*
X226019Y379200D02*
X228000D01*
X225978Y379600D02*
X228000D01*
X225977Y378400D02*
X228000D01*
X226019Y378800D02*
X228000D01*
X225891Y378000D02*
X228000D01*
X225893Y380000D02*
X228000D01*
X225759Y377600D02*
X228000D01*
X192636Y366400D02*
X228000D01*
X192636Y367200D02*
X228000D01*
Y363500D02*
Y387979D01*
X192636Y366000D02*
X228000D01*
X192636Y368400D02*
X228000D01*
X192636Y368800D02*
X228000D01*
X192636Y367600D02*
X228000D01*
X192636Y368000D02*
X228000D01*
X192636Y364000D02*
X228000D01*
X192636Y364400D02*
X228000D01*
X223500Y359000D02*
X228000Y363500D01*
X192636Y363600D02*
X228000D01*
X192636Y365200D02*
X228000D01*
X192636Y365600D02*
X228000D01*
X192636Y364800D02*
X228000D01*
X192636Y362400D02*
X226900D01*
X192636Y362000D02*
X226500D01*
X192636Y361600D02*
X226100D01*
X192636Y361364D02*
X195000Y359000D01*
X192636Y369200D02*
X228000D01*
X192636Y363200D02*
X227700D01*
X192636Y362800D02*
X227300D01*
X192636Y361364D02*
Y373177D01*
X194000Y360000D02*
X224500D01*
X194400Y359600D02*
X224100D01*
X194800Y359200D02*
X223700D01*
X195000Y359000D02*
X223500D01*
X192800Y361200D02*
X225700D01*
X193200Y360800D02*
X225300D01*
X193600Y360400D02*
X224900D01*
X180000Y386000D02*
X228000D01*
X180000Y386400D02*
X228000D01*
X180000Y385200D02*
X228000D01*
X180000Y385600D02*
X228000D01*
X180000Y387600D02*
X228000D01*
X180000Y387979D02*
X228000D01*
X180000Y386800D02*
X228000D01*
X180000Y387200D02*
X228000D01*
X180000Y383200D02*
X228000D01*
X180000Y383600D02*
X228000D01*
X180000Y382800D02*
X221536D01*
X180000Y382400D02*
X220362D01*
X180000Y384400D02*
X228000D01*
X180000Y384800D02*
X228000D01*
X180000Y384000D02*
X228000D01*
X180000Y380400D02*
X218586D01*
X180000Y380000D02*
X218455D01*
X180000Y379600D02*
X218371D01*
X180000Y379200D02*
X218329D01*
X180000Y382000D02*
X219757D01*
X180000Y381600D02*
X219332D01*
X180000Y381200D02*
X219012D01*
X180000Y380800D02*
X218769D01*
X188301Y378000D02*
X218457D01*
X180000Y377600D02*
X185796D01*
X189777D02*
X218589D01*
X180000Y377200D02*
X185077D01*
X180000Y378400D02*
X218372D01*
X180000Y378800D02*
X218330D01*
X180000Y378000D02*
X187272D01*
X191411Y376400D02*
X219338D01*
X191011Y376800D02*
X219017D01*
X191988Y375600D02*
X220374D01*
X191730Y376000D02*
X219765D01*
X190496Y377200D02*
X218773D01*
X180000Y376800D02*
X184562D01*
X180000Y376400D02*
X184162D01*
X192618Y373600D02*
X228000D01*
X192566Y374000D02*
X228000D01*
X192636Y366800D02*
X228000D01*
X192636Y373200D02*
X228000D01*
X192357Y374800D02*
X228000D01*
X192194Y375200D02*
X221575D01*
X192480Y374400D02*
X228000D01*
X180000Y374800D02*
X183216D01*
X180000Y374400D02*
X183093D01*
X180000Y374000D02*
X183007D01*
X180000D02*
X182936Y371064D01*
X180000Y376000D02*
X183842D01*
X180000Y375600D02*
X183585D01*
X180000Y375200D02*
X183378D01*
X180000Y374000D02*
Y387979D01*
X182000Y372000D02*
X182936D01*
X181600Y372400D02*
X182936D01*
Y371064D02*
Y373177D01*
X182400Y371600D02*
X182936D01*
X180400Y373600D02*
X182955D01*
X180800Y373200D02*
X182936D01*
X181200Y372800D02*
X182936D01*
X196772Y395176D02*
X196822Y395127D01*
Y390683D02*
X196883Y390622D01*
X196772Y395176D02*
X196880Y395285D01*
X196822Y390683D02*
Y395127D01*
X196635Y395530D02*
X196880Y395285D01*
X200698Y390737D02*
X200844Y390590D01*
X200698Y390737D02*
Y392542D01*
X326492Y363957D02*
X328493Y361956D01*
X322488Y363957D02*
X326492D01*
X202583Y395745D02*
X202667Y395662D01*
X280536Y364081D02*
X280598Y364019D01*
X286659D02*
X286721Y363957D01*
X280598Y364019D02*
X286659D01*
X202500Y401199D02*
X202583Y401116D01*
Y395745D02*
Y401116D01*
X202326Y395321D02*
X202667Y395662D01*
X198730D02*
X199070Y395321D01*
X202326Y393228D02*
Y395321D01*
X201640Y392542D02*
X202326Y393228D01*
X200698Y392542D02*
X201640D01*
X199070Y393227D02*
X199755Y392542D01*
X200698D01*
X199070Y393227D02*
Y395321D01*
X328151Y366390D02*
X328514Y366026D01*
X326543Y368957D02*
X328151Y367350D01*
Y366390D02*
Y367350D01*
X322488Y368957D02*
X326543D01*
X280297Y368978D02*
X286700D01*
X280276Y369000D02*
X280297Y368978D01*
X286700D02*
X286721Y368957D01*
X199672Y398776D02*
X200357Y398091D01*
Y395996D02*
Y398091D01*
X198689Y398776D02*
X199672D01*
X198689D02*
Y401111D01*
X198687Y401113D02*
X198689Y401111D01*
X197101Y398090D02*
X197787Y398776D01*
X198689D01*
X197101Y395996D02*
Y398090D01*
X196761Y395656D02*
X197101Y395996D01*
X200357Y395996D02*
X200698Y395656D01*
X196635Y395530D02*
X196761Y395656D01*
D72*
X184545Y390693D02*
X187318D01*
X187358Y390733D01*
X184494Y390642D02*
X184545Y390693D01*
X181700Y390642D02*
X184494D01*
X212238Y390681D02*
X215000D01*
X212238Y390645D02*
Y390681D01*
X212053Y390669D02*
Y390777D01*
X212493Y391217D01*
Y395252D01*
X215000Y390681D02*
X215012Y390692D01*
X215024Y390681D01*
X217863D01*
X217875Y390669D01*
X317650Y386971D02*
X318114D01*
X317574Y386894D02*
X317650Y386971D01*
X318114D02*
X320100Y388957D01*
X322488D01*
X282077Y387076D02*
X282453D01*
X282000Y387000D02*
X282077Y387076D01*
X282453D02*
X284294Y388918D01*
X286682D01*
X286721Y388957D01*
X298884Y262404D02*
X299980Y263500D01*
X285904Y262404D02*
X298884D01*
X276722Y253222D02*
X285904Y262404D01*
X270470Y253222D02*
X276722D01*
X254305Y279413D02*
X254853Y278865D01*
X301617Y262404D02*
X309271Y254750D01*
X348500D01*
X369728Y252157D02*
Y261618D01*
Y252157D02*
X369823Y252062D01*
X369633Y261713D02*
X369728Y261618D01*
X364788Y247027D02*
X369823Y252062D01*
X364788Y234900D02*
Y247027D01*
X402500Y356000D02*
Y367983D01*
X384107Y386376D02*
X402500Y367983D01*
X377180Y386376D02*
X384107D01*
X372195Y391362D02*
X377180Y386376D01*
X372195Y391362D02*
Y393527D01*
X303448Y388757D02*
X303648Y388957D01*
X303340Y388757D02*
X303448D01*
X303648Y388957D02*
X309339D01*
X395027Y234927D02*
Y275224D01*
X351092Y279396D02*
X361241Y289546D01*
Y291178D01*
X361317Y291255D01*
X286781Y374016D02*
X292542D01*
D73*
X209874Y373126D02*
X213997Y369003D01*
X197786Y373177D02*
X207786D01*
X187786Y354611D02*
X197564Y344833D01*
X187786Y354611D02*
Y373177D01*
X197564Y337449D02*
Y344833D01*
X184500Y317000D02*
Y324384D01*
Y317000D02*
X192570Y308930D01*
X184500Y324384D02*
X197564Y337449D01*
X195820Y298952D02*
Y308930D01*
X192570D02*
X195820D01*
D74*
X253500Y287500D02*
Y291073D01*
X248500Y290000D02*
X251000D01*
X253500Y280218D02*
X254305Y279413D01*
X253500Y280218D02*
Y287500D01*
Y291073D02*
X254305Y291878D01*
X251000Y290000D02*
X253500Y287500D01*
X254305Y291878D02*
Y302799D01*
X263586Y302573D02*
X273434D01*
X372195Y393527D02*
Y400806D01*
X250000Y391500D02*
X264000Y405500D01*
X367500D02*
X372195Y400806D01*
X264000Y405500D02*
X367500D01*
X273434Y302573D02*
X273462Y302545D01*
X220416Y330516D02*
X226946D01*
X214369Y330534D02*
X220398D01*
X226946Y330516D02*
X227003Y330572D01*
Y330628D01*
X220398Y330534D02*
X220416Y330516D01*
X214297Y330606D02*
X214369Y330534D01*
X463500Y237500D02*
Y253500D01*
X399500Y234900D02*
X460900D01*
X463500Y237500D01*
X338803Y388910D02*
Y388951D01*
X335095Y392659D02*
X338803Y388951D01*
X280211Y392659D02*
X335095D01*
X339044Y388957D02*
X347457D01*
X325822Y373957D02*
X328680Y371099D01*
X322488Y373957D02*
X325822D01*
X269810Y252562D02*
X270470Y253222D01*
X273135Y278865D02*
X278763Y273237D01*
X306944D01*
X313104Y279396D01*
X254853Y278865D02*
X273135D01*
X254305Y268067D02*
X269810Y252562D01*
X313104Y279396D02*
X351092D01*
X319000Y374000D02*
X322445D01*
X268346Y319949D02*
X301840D01*
X254470Y302965D02*
Y306073D01*
X268346Y319949D01*
X254305Y302799D02*
X254470Y302965D01*
X245056Y323748D02*
Y330354D01*
X245277Y330574D01*
X240259Y318951D02*
X245056Y323748D01*
X195760Y318951D02*
X240259D01*
X250000Y387037D02*
Y391500D01*
Y387037D02*
X262294Y374743D01*
X258204Y353905D02*
X262294Y357996D01*
X255522Y330574D02*
X255577Y330629D01*
X245277Y330574D02*
X255522D01*
X237204Y305721D02*
X245084D01*
X234861Y302799D02*
Y303378D01*
X237204Y305721D01*
X245084D02*
X245250Y305555D01*
Y302799D02*
Y305555D01*
X234499Y302437D02*
X234861Y302799D01*
X234137Y288930D02*
X245250Y300044D01*
Y302602D01*
X255577Y330629D02*
X255753Y330805D01*
X269810Y245190D02*
Y252562D01*
Y245190D02*
X280000Y235000D01*
X334477D01*
X195820Y288930D02*
X234137D01*
X262294Y357996D02*
Y374743D01*
X364788Y234900D02*
X395000D01*
X334577D02*
X364788D01*
X334477Y235000D02*
X334577Y234900D01*
X371439Y331773D02*
X371870Y332204D01*
X364060Y336303D02*
Y338772D01*
Y333649D02*
X365937Y331773D01*
X364060Y333649D02*
Y336303D01*
X371870Y332204D02*
Y334405D01*
X365937Y331773D02*
X371439D01*
X262294Y374743D02*
X280211Y392659D01*
X301870Y319979D02*
X301891Y320000D01*
X304500D01*
X395000Y234900D02*
X399500D01*
Y240423D01*
X399637Y240561D01*
D75*
X379823Y252062D02*
D03*
X389823D02*
D03*
X369823D02*
D03*
X301617Y242719D02*
D03*
Y262404D02*
D03*
X195760Y318951D02*
D03*
X195820Y308930D02*
D03*
Y288930D02*
D03*
Y298952D02*
D03*
X289000Y279500D02*
D03*
Y289500D02*
D03*
Y299500D02*
D03*
Y309500D02*
D03*
X430068Y412425D02*
D03*
X420068D02*
D03*
X440068D02*
D03*
X472111Y312126D02*
D03*
X472172Y302106D02*
D03*
Y282106D02*
D03*
Y292127D02*
D03*
X379633Y261713D02*
D03*
X389633D02*
D03*
X369633D02*
D03*
X399637Y240561D02*
D03*
X379637Y240561D02*
D03*
X389616D02*
D03*
X359617Y240500D02*
D03*
X369617Y240500D02*
D03*
X222174Y369003D02*
D03*
Y379003D02*
D03*
X207786Y373177D02*
D03*
X197786D02*
D03*
X187786D02*
D03*
D76*
X230437Y272558D02*
D03*
X460717Y309154D02*
D03*
X460717Y284874D02*
D03*
D77*
X220437Y272558D02*
D03*
X450717Y309154D02*
D03*
X450717Y284874D02*
D03*
D78*
X344353Y308563D02*
D03*
Y289666D02*
D03*
D79*
X423500Y253500D02*
D03*
X413500D02*
D03*
X403500D02*
D03*
X463500D02*
D03*
X453500D02*
D03*
X443500D02*
D03*
X433500D02*
D03*
D80*
X473500D02*
D03*
D81*
X269810Y252562D02*
D03*
X262294Y374743D02*
D03*
X211344Y344833D02*
D03*
D82*
X256030Y252562D02*
D03*
X248515Y374743D02*
D03*
X197564Y344833D02*
D03*
D83*
X234499Y302437D02*
D03*
X255577Y330629D02*
D03*
D84*
X228593Y302437D02*
D03*
X261482Y330629D02*
D03*
D85*
X217774Y398805D02*
D03*
X182341Y398805D02*
D03*
D86*
X182342Y415144D02*
D03*
X217775Y415144D02*
D03*
D87*
X188336Y400774D02*
D03*
X211092D02*
D03*
D88*
X492500Y240500D02*
D03*
X169000Y239000D02*
D03*
X491000Y412500D02*
D03*
X167500Y411000D02*
D03*
D89*
X432717Y279966D02*
D03*
X434500Y295785D02*
D03*
X187358Y390733D02*
D03*
X184504Y390653D02*
D03*
X181700Y390642D02*
D03*
X382938Y320052D02*
D03*
X388628Y319740D02*
D03*
X243500Y287500D02*
D03*
X248500Y290000D02*
D03*
X253500Y287500D02*
D03*
X238500Y362500D02*
D03*
X235500Y342500D02*
D03*
X403000Y408500D02*
D03*
X384500D02*
D03*
X248551Y294953D02*
D03*
X245500Y342500D02*
D03*
X240500D02*
D03*
X230622Y342470D02*
D03*
X226483Y342482D02*
D03*
X273462Y302545D02*
D03*
X267500Y302500D02*
D03*
X270500D02*
D03*
X223000Y330500D02*
D03*
X220416Y330516D02*
D03*
X217208Y330534D02*
D03*
X214297Y330606D02*
D03*
X228803Y297594D02*
D03*
X326296Y248343D02*
D03*
X339000Y271500D02*
D03*
X463740Y262500D02*
D03*
X436000Y264500D02*
D03*
X193778Y390605D02*
D03*
X196883Y390622D02*
D03*
X212053Y390669D02*
D03*
X204613Y390681D02*
D03*
X200844Y390590D02*
D03*
X217875Y390669D02*
D03*
X215012Y390692D02*
D03*
X338803Y388910D02*
D03*
X317574Y386894D02*
D03*
X328680Y371099D02*
D03*
X280536Y364081D02*
D03*
X202500Y401199D02*
D03*
X280276Y369000D02*
D03*
X198687Y401113D02*
D03*
X328514Y366026D02*
D03*
X328493Y361956D02*
D03*
X315000Y379000D02*
D03*
X315112Y373846D02*
D03*
X282000Y387000D02*
D03*
X241962Y277866D02*
D03*
X355400Y287665D02*
D03*
X364104Y333606D02*
D03*
X364060Y338772D02*
D03*
Y336303D02*
D03*
X402500Y356000D02*
D03*
X303340Y388757D02*
D03*
X304500Y320000D02*
D03*
X301870Y319979D02*
D03*
X326863Y322363D02*
D03*
X391738Y275345D02*
D03*
X386675Y275401D02*
D03*
X362077Y286423D02*
D03*
X361500Y294250D02*
D03*
X392664Y296516D02*
D03*
X390406Y299751D02*
D03*
X390257Y302747D02*
D03*
X383500Y297000D02*
D03*
X384340Y300907D02*
D03*
X380500Y295000D02*
D03*
X377853Y300318D02*
D03*
X376500Y320000D02*
D03*
X373300Y320063D02*
D03*
X361400Y317782D02*
D03*
X353348Y325610D02*
D03*
X292601Y374075D02*
D03*
X395027Y275224D02*
D03*
X361317Y291255D02*
D03*
X406500Y305016D02*
D03*
X429500Y306500D02*
D03*
X406643Y308532D02*
D03*
X351742Y374424D02*
D03*
X351581Y379257D02*
D03*
X384537Y381986D02*
D03*
X437000Y397500D02*
D03*
X417500Y385215D02*
D03*
X388178Y342817D02*
D03*
X379365Y342720D02*
D03*
X434290Y307553D02*
D03*
X322417Y306876D02*
D03*
X309830Y306858D02*
D03*
X372055Y400876D02*
D03*
X361070Y308430D02*
D03*
M02*
