G04*
G04 #@! TF.GenerationSoftware,Altium Limited,Altium Designer,23.3.1 (30)*
G04*
G04 Layer_Color=65535*
%FSLAX25Y25*%
%MOIN*%
G70*
G04*
G04 #@! TF.SameCoordinates,0926E253-2B7E-4DA0-91A0-339D2320E812*
G04*
G04*
G04 #@! TF.FilePolarity,Positive*
G04*
G01*
G75*
%ADD10C,0.01000*%
%ADD11C,0.02362*%
%ADD12C,0.00984*%
%ADD13C,0.00800*%
%ADD14C,0.01181*%
%ADD15C,0.01984*%
%ADD16C,0.00787*%
%ADD17C,0.00394*%
%ADD18C,0.00600*%
G36*
X302381Y417654D02*
X302440Y417632D01*
X302499Y417595D01*
X302514Y417580D01*
X302536Y417550D01*
X302559Y417491D01*
X302573Y417417D01*
Y417410D01*
Y417402D01*
X302566Y417358D01*
X302544Y417299D01*
X302499Y417240D01*
X302485Y417232D01*
X302448Y417210D01*
X302396Y417180D01*
X302322Y417173D01*
X302307D01*
X302263Y417180D01*
X302211Y417203D01*
X302152Y417240D01*
X302137Y417254D01*
X302115Y417284D01*
X302092Y417343D01*
X302078Y417417D01*
Y417424D01*
Y417432D01*
X302085Y417476D01*
X302107Y417535D01*
X302152Y417587D01*
X302166Y417602D01*
X302203Y417624D01*
X302255Y417647D01*
X302322Y417661D01*
X302337D01*
X302381Y417654D01*
D02*
G37*
G36*
X288832Y416396D02*
X288891Y416374D01*
X288950Y416329D01*
X288957D01*
X288965Y416315D01*
X288994Y416278D01*
X289017Y416218D01*
X289031Y416181D01*
Y416144D01*
Y416137D01*
Y416129D01*
X289024Y416078D01*
X288994Y416018D01*
X288980Y415989D01*
X288950Y415959D01*
X288935Y415944D01*
X288898Y415922D01*
X288839Y415900D01*
X288765Y415885D01*
X288750D01*
X288698Y415893D01*
X288639Y415915D01*
X288580Y415959D01*
X288573Y415974D01*
X288550Y416011D01*
X288521Y416070D01*
X288513Y416144D01*
Y416152D01*
Y416166D01*
X288521Y416211D01*
X288543Y416270D01*
X288580Y416329D01*
X288595Y416344D01*
X288632Y416366D01*
X288691Y416389D01*
X288765Y416403D01*
X288787D01*
X288832Y416396D01*
D02*
G37*
G36*
X296831Y416403D02*
X296942Y416389D01*
X297053Y416352D01*
Y416033D01*
X297046Y416041D01*
X297023Y416048D01*
X296994Y416070D01*
X296949Y416092D01*
X296898Y416107D01*
X296838Y416129D01*
X296772Y416137D01*
X296698Y416144D01*
X296661D01*
X296631Y416137D01*
X296565Y416122D01*
X296476Y416092D01*
X296372Y416048D01*
X296261Y415974D01*
X296209Y415930D01*
X296150Y415871D01*
X296098Y415811D01*
X296047Y415737D01*
Y415730D01*
X296039Y415723D01*
X296024Y415693D01*
X296010Y415663D01*
X295987Y415619D01*
X295965Y415575D01*
X295943Y415515D01*
X295921Y415449D01*
X295891Y415367D01*
X295869Y415286D01*
X295847Y415190D01*
X295832Y415086D01*
X295810Y414975D01*
X295802Y414857D01*
X295788Y414731D01*
Y414598D01*
Y413059D01*
X295499D01*
Y416344D01*
X295788D01*
Y415612D01*
X295802D01*
Y415619D01*
X295810Y415626D01*
X295825Y415671D01*
X295847Y415745D01*
X295884Y415826D01*
X295936Y415922D01*
X295995Y416018D01*
X296069Y416115D01*
X296150Y416196D01*
X296165Y416203D01*
X296195Y416233D01*
X296246Y416263D01*
X296313Y416307D01*
X296402Y416344D01*
X296498Y416381D01*
X296602Y416403D01*
X296720Y416411D01*
X296787D01*
X296831Y416403D01*
D02*
G37*
G36*
X294382Y413059D02*
X294078D01*
Y416322D01*
Y416329D01*
Y416352D01*
Y416389D01*
X294086Y416448D01*
Y416492D01*
Y416537D01*
Y416596D01*
X294093Y416655D01*
Y416729D01*
X294100Y416810D01*
Y416899D01*
X294108Y416995D01*
X294100D01*
X294093Y416981D01*
X294086Y416951D01*
X294063Y416906D01*
X294041Y416847D01*
X293982Y416714D01*
X293960Y416655D01*
X293930Y416596D01*
X292295Y413059D01*
X292191D01*
X290548Y416581D01*
Y416588D01*
X290534Y416610D01*
X290519Y416647D01*
X290497Y416699D01*
X290474Y416758D01*
X290452Y416832D01*
X290423Y416914D01*
X290393Y417010D01*
X290378D01*
Y416995D01*
X290386Y416958D01*
Y416899D01*
X290393Y416818D01*
X290400Y416729D01*
Y416625D01*
X290408Y416514D01*
Y416396D01*
Y413059D01*
X290090D01*
Y417661D01*
X290378D01*
X292095Y413946D01*
Y413939D01*
X292102Y413924D01*
X292117Y413902D01*
X292132Y413865D01*
X292139Y413858D01*
X292147Y413835D01*
X292162Y413799D01*
X292176Y413754D01*
X292184Y413739D01*
X292199Y413702D01*
X292221Y413643D01*
X292243Y413569D01*
X292265D01*
X292295Y413673D01*
Y413680D01*
X292302Y413695D01*
X292310Y413717D01*
X292324Y413754D01*
X292347Y413806D01*
X292369Y413880D01*
X292406Y413976D01*
X294100Y417661D01*
X294382D01*
Y413059D01*
D02*
G37*
G36*
X304608Y413059D02*
X304335Y413059D01*
X303069Y416344D01*
X303395D01*
X304372Y413725D01*
Y413717D01*
X304386Y413695D01*
X304394Y413658D01*
X304416Y413614D01*
X304446Y413503D01*
X304475Y413384D01*
X304490D01*
Y413391D01*
X304497Y413421D01*
X304505Y413451D01*
X304512Y413503D01*
X304542Y413606D01*
X304579Y413710D01*
X305593Y416344D01*
X305918D01*
X304608Y413059D01*
D02*
G37*
G36*
X302477Y413059D02*
X302181D01*
Y416344D01*
X302477D01*
Y413059D01*
D02*
G37*
G36*
X301338Y417365D02*
X299510D01*
Y415493D01*
X301204D01*
Y415204D01*
X299510D01*
Y413059D01*
X299192D01*
Y417661D01*
X301338D01*
Y417365D01*
D02*
G37*
G36*
X297934Y413510D02*
X297993Y413488D01*
X298052Y413443D01*
X298059D01*
X298067Y413428D01*
X298096Y413391D01*
X298119Y413332D01*
X298133Y413295D01*
Y413258D01*
Y413251D01*
Y413243D01*
X298126Y413192D01*
X298096Y413132D01*
X298082Y413103D01*
X298052Y413073D01*
X298037Y413059D01*
X298000Y413036D01*
X297941Y413014D01*
X297867Y412999D01*
X297852D01*
X297800Y413007D01*
X297741Y413029D01*
X297682Y413073D01*
X297675Y413088D01*
X297652Y413125D01*
X297623Y413184D01*
X297615Y413258D01*
Y413266D01*
Y413280D01*
X297623Y413325D01*
X297645Y413384D01*
X297682Y413443D01*
X297697Y413458D01*
X297734Y413480D01*
X297793Y413503D01*
X297867Y413517D01*
X297889D01*
X297934Y413510D01*
D02*
G37*
G36*
X288832D02*
X288891Y413488D01*
X288950Y413443D01*
X288957D01*
X288965Y413428D01*
X288994Y413391D01*
X289017Y413332D01*
X289031Y413295D01*
Y413258D01*
Y413251D01*
Y413243D01*
X289024Y413192D01*
X288994Y413132D01*
X288980Y413103D01*
X288950Y413073D01*
X288935Y413059D01*
X288898Y413036D01*
X288839Y413014D01*
X288765Y412999D01*
X288750D01*
X288698Y413007D01*
X288639Y413029D01*
X288580Y413073D01*
X288573Y413088D01*
X288550Y413125D01*
X288521Y413184D01*
X288513Y413258D01*
Y413266D01*
Y413280D01*
X288521Y413325D01*
X288543Y413384D01*
X288580Y413443D01*
X288595Y413458D01*
X288632Y413480D01*
X288691Y413503D01*
X288765Y413517D01*
X288787D01*
X288832Y413510D01*
D02*
G37*
G36*
X307850Y416418D02*
X307901Y416411D01*
X307961Y416403D01*
X308094Y416374D01*
X308249Y416322D01*
X308323Y416285D01*
X308405Y416241D01*
X308479Y416189D01*
X308553Y416137D01*
X308619Y416063D01*
X308686Y415989D01*
X308693Y415981D01*
X308701Y415967D01*
X308715Y415944D01*
X308738Y415907D01*
X308760Y415871D01*
X308789Y415811D01*
X308819Y415752D01*
X308856Y415686D01*
X308886Y415604D01*
X308915Y415515D01*
X308945Y415419D01*
X308967Y415315D01*
X308989Y415204D01*
X309004Y415086D01*
X309019Y414953D01*
Y414820D01*
Y414694D01*
X306584D01*
Y414686D01*
Y414664D01*
Y414627D01*
X306592Y414583D01*
Y414524D01*
X306599Y414457D01*
X306621Y414309D01*
X306658Y414131D01*
X306717Y413954D01*
X306791Y413784D01*
X306895Y413628D01*
X306902Y413621D01*
X306910Y413614D01*
X306954Y413569D01*
X307021Y413510D01*
X307117Y413443D01*
X307243Y413369D01*
X307391Y413310D01*
X307561Y413266D01*
X307657Y413258D01*
X307753Y413251D01*
X307805D01*
X307850Y413258D01*
X307894Y413266D01*
X307953Y413273D01*
X308020Y413288D01*
X308094Y413303D01*
X308257Y413347D01*
X308442Y413421D01*
X308538Y413473D01*
X308634Y413525D01*
X308738Y413584D01*
X308834Y413658D01*
Y413340D01*
X308826Y413332D01*
X308812Y413325D01*
X308782Y413310D01*
X308745Y413280D01*
X308693Y413258D01*
X308634Y413229D01*
X308575Y413192D01*
X308501Y413162D01*
X308331Y413096D01*
X308138Y413036D01*
X307924Y412992D01*
X307813Y412985D01*
X307694Y412977D01*
X307635D01*
X307591Y412985D01*
X307531Y412992D01*
X307472Y412999D01*
X307324Y413036D01*
X307161Y413088D01*
X307080Y413125D01*
X306991Y413169D01*
X306910Y413221D01*
X306821Y413280D01*
X306740Y413347D01*
X306666Y413428D01*
X306658Y413436D01*
X306651Y413451D01*
X306629Y413473D01*
X306606Y413510D01*
X306577Y413562D01*
X306540Y413621D01*
X306503Y413688D01*
X306473Y413762D01*
X306436Y413850D01*
X306399Y413946D01*
X306362Y414050D01*
X306333Y414169D01*
X306310Y414287D01*
X306288Y414420D01*
X306281Y414568D01*
X306273Y414716D01*
Y414723D01*
Y414746D01*
Y414783D01*
X306281Y414834D01*
X306288Y414901D01*
X306296Y414968D01*
X306310Y415049D01*
X306325Y415138D01*
X306370Y415330D01*
X306444Y415530D01*
X306495Y415634D01*
X306547Y415737D01*
X306606Y415834D01*
X306680Y415930D01*
X306688Y415937D01*
X306703Y415952D01*
X306725Y415974D01*
X306754Y416011D01*
X306799Y416048D01*
X306843Y416085D01*
X306902Y416129D01*
X306969Y416181D01*
X307043Y416226D01*
X307117Y416270D01*
X307302Y416352D01*
X307406Y416381D01*
X307509Y416403D01*
X307628Y416418D01*
X307746Y416426D01*
X307805D01*
X307850Y416418D01*
D02*
G37*
G36*
X284791Y417276D02*
X286256D01*
Y416995D01*
X284791D01*
Y416129D01*
X285546D01*
X285553Y416137D01*
X285583Y416159D01*
X285627Y416196D01*
X285694Y416241D01*
X285768Y416300D01*
X285857Y416374D01*
X285953Y416455D01*
X286064Y416551D01*
X286182Y416655D01*
X286308Y416766D01*
X286434Y416884D01*
X286567Y417018D01*
X286841Y417291D01*
X287107Y417595D01*
X287374Y417402D01*
X287366Y417395D01*
X287344Y417373D01*
X287315Y417336D01*
X287263Y417284D01*
X287211Y417217D01*
X287137Y417143D01*
X287063Y417062D01*
X286974Y416973D01*
X286878Y416877D01*
X286782Y416773D01*
X286560Y416566D01*
X286316Y416344D01*
X286057Y416129D01*
X287833D01*
Y415841D01*
X285672D01*
X285664Y415834D01*
X285650Y415826D01*
X285613Y415804D01*
X285568Y415767D01*
X285516Y415730D01*
X285457Y415693D01*
X285383Y415641D01*
X285294Y415589D01*
X285206Y415530D01*
X285109Y415463D01*
X284887Y415330D01*
X284643Y415190D01*
X284384Y415049D01*
X286878D01*
Y412319D01*
X286552D01*
Y412681D01*
X283659D01*
Y412319D01*
X283333D01*
Y414553D01*
X283326D01*
X283311Y414546D01*
X283282Y414531D01*
X283245Y414516D01*
X283200Y414494D01*
X283141Y414472D01*
X283082Y414442D01*
X283008Y414420D01*
X282845Y414354D01*
X282660Y414280D01*
X282460Y414206D01*
X282253Y414124D01*
Y414131D01*
X282238Y414146D01*
X282223Y414176D01*
X282209Y414220D01*
X282157Y414317D01*
X282090Y414428D01*
X282098D01*
X282112Y414435D01*
X282135Y414442D01*
X282172Y414457D01*
X282209Y414472D01*
X282260Y414487D01*
X282320Y414509D01*
X282386Y414531D01*
X282542Y414590D01*
X282719Y414657D01*
X282919Y414738D01*
X283141Y414827D01*
X283370Y414923D01*
X283615Y415027D01*
X283866Y415145D01*
X284125Y415271D01*
X284377Y415404D01*
X284636Y415545D01*
X284887Y415686D01*
X285124Y415841D01*
X282186D01*
Y416129D01*
X284466D01*
Y416995D01*
X282786D01*
Y417276D01*
X284466D01*
Y418039D01*
X284791D01*
Y417276D01*
D02*
G37*
G36*
X279249Y417972D02*
Y417965D01*
X279241Y417950D01*
X279234Y417928D01*
X279219Y417898D01*
X279204Y417861D01*
X279189Y417817D01*
X279145Y417706D01*
X279086Y417572D01*
X279027Y417424D01*
X278960Y417262D01*
X278886Y417099D01*
X281779D01*
Y416788D01*
X279611D01*
Y415634D01*
X281461D01*
Y415338D01*
X279611D01*
Y414139D01*
X281617D01*
Y413835D01*
X279611D01*
Y412319D01*
X279293D01*
Y416788D01*
X278738D01*
X278731Y416781D01*
X278723Y416758D01*
X278701Y416721D01*
X278679Y416670D01*
X278642Y416610D01*
X278605Y416537D01*
X278560Y416455D01*
X278509Y416359D01*
X278449Y416263D01*
X278383Y416159D01*
X278242Y415930D01*
X278087Y415693D01*
X277909Y415456D01*
X277902Y415463D01*
X277887Y415478D01*
X277865Y415493D01*
X277828Y415523D01*
X277739Y415589D01*
X277635Y415663D01*
X277643Y415678D01*
X277672Y415708D01*
X277717Y415767D01*
X277776Y415848D01*
X277843Y415944D01*
X277924Y416063D01*
X278013Y416196D01*
X278116Y416344D01*
X278213Y416514D01*
X278324Y416699D01*
X278427Y416892D01*
X278538Y417106D01*
X278642Y417328D01*
X278738Y417565D01*
X278834Y417809D01*
X278923Y418061D01*
X279249Y417972D01*
D02*
G37*
G36*
X277717Y417965D02*
Y417957D01*
X277702Y417935D01*
X277695Y417891D01*
X277672Y417839D01*
X277650Y417772D01*
X277621Y417698D01*
X277591Y417617D01*
X277554Y417521D01*
X277510Y417417D01*
X277473Y417306D01*
X277376Y417077D01*
X277273Y416840D01*
X277169Y416596D01*
Y412319D01*
X276851D01*
Y415922D01*
X276836Y415900D01*
X276821Y415871D01*
X276799Y415826D01*
X276770Y415774D01*
X276733Y415715D01*
X276696Y415649D01*
X276651Y415567D01*
X276555Y415397D01*
X276444Y415212D01*
X276318Y415020D01*
X276192Y414820D01*
X276185Y414827D01*
X276178Y414857D01*
X276155Y414886D01*
X276126Y414938D01*
X276059Y415042D01*
X276030Y415094D01*
X275993Y415138D01*
X276000Y415153D01*
X276030Y415197D01*
X276074Y415264D01*
X276133Y415352D01*
X276207Y415471D01*
X276289Y415612D01*
X276385Y415774D01*
X276488Y415959D01*
X276592Y416166D01*
X276710Y416389D01*
X276821Y416625D01*
X276940Y416884D01*
X277058Y417158D01*
X277177Y417439D01*
X277288Y417743D01*
X277391Y418053D01*
X277717Y417965D01*
D02*
G37*
G36*
X334630Y411043D02*
X335489D01*
Y410821D01*
X334630D01*
Y410584D01*
X334334D01*
Y410821D01*
X333572D01*
Y410628D01*
X333283D01*
Y410821D01*
X332418D01*
Y411043D01*
X333283D01*
Y411391D01*
X333572D01*
Y411043D01*
X334334D01*
Y411398D01*
X334630D01*
Y411043D01*
D02*
G37*
G36*
X294981Y411257D02*
X294996Y411243D01*
X295025Y411220D01*
X295062Y411183D01*
X295107Y411139D01*
X295166Y411095D01*
X295292Y410969D01*
X295440Y410828D01*
X295610Y410673D01*
X295780Y410503D01*
X295950Y410332D01*
X295677Y410088D01*
X295669Y410096D01*
X295654Y410118D01*
X295625Y410147D01*
X295588Y410184D01*
X295536Y410236D01*
X295484Y410295D01*
X295358Y410429D01*
X295210Y410584D01*
X295048Y410747D01*
X294885Y410902D01*
X294729Y411050D01*
X294974Y411265D01*
X294981Y411257D01*
D02*
G37*
G36*
X288839Y411191D02*
X288861Y411169D01*
X288883Y411146D01*
X288957Y411072D01*
X289061Y410969D01*
X289187Y410836D01*
X289342Y410673D01*
X289520Y410488D01*
X289720Y410281D01*
X289461Y410051D01*
X289453Y410059D01*
X289438Y410073D01*
X289416Y410103D01*
X289379Y410140D01*
X289335Y410192D01*
X289283Y410244D01*
X289165Y410377D01*
X289031Y410525D01*
X288883Y410680D01*
X288728Y410836D01*
X288573Y410991D01*
X288824Y411206D01*
X288832D01*
X288839Y411191D01*
D02*
G37*
G36*
X331530Y411035D02*
Y411021D01*
Y410991D01*
Y410954D01*
X331522Y410910D01*
Y410858D01*
X331515Y410739D01*
X331507Y410599D01*
X331500Y410458D01*
X331493Y410310D01*
X331478Y410177D01*
Y410170D01*
Y410147D01*
X331470Y410118D01*
X331463Y410073D01*
X331448Y410022D01*
X331426Y409970D01*
X331404Y409911D01*
X331367Y409844D01*
X331322Y409785D01*
X331263Y409726D01*
X331197Y409666D01*
X331115Y409622D01*
X331019Y409578D01*
X330901Y409548D01*
X330775Y409526D01*
X330627Y409518D01*
X329739D01*
Y409526D01*
Y409533D01*
X329731Y409555D01*
X329724Y409585D01*
X329717Y409622D01*
X329709Y409666D01*
X329694Y409726D01*
X329680Y409800D01*
Y409807D01*
Y409814D01*
X329672Y409844D01*
X329754D01*
X329798Y409837D01*
X329976D01*
X330109Y409829D01*
X330264D01*
X330420Y409822D01*
X330619D01*
X330679Y409829D01*
X330753Y409837D01*
X330901Y409859D01*
X330967Y409881D01*
X331019Y409911D01*
X331026Y409918D01*
X331041Y409925D01*
X331063Y409948D01*
X331086Y409985D01*
X331115Y410029D01*
X331137Y410088D01*
X331160Y410155D01*
X331174Y410244D01*
Y410258D01*
X331182Y410288D01*
Y410340D01*
X331189Y410406D01*
Y410488D01*
X331197Y410577D01*
Y410762D01*
X328703D01*
Y408934D01*
X331567D01*
Y408616D01*
X331559Y408601D01*
X331552Y408564D01*
X331530Y408505D01*
X331500Y408431D01*
X331463Y408334D01*
X331419Y408223D01*
X331359Y408098D01*
X331300Y407964D01*
X331234Y407824D01*
X331160Y407676D01*
X330989Y407380D01*
X330797Y407091D01*
X330686Y406951D01*
X330575Y406825D01*
X330582Y406817D01*
X330597Y406810D01*
X330619Y406788D01*
X330656Y406758D01*
X330701Y406721D01*
X330753Y406684D01*
X330819Y406632D01*
X330893Y406581D01*
X330982Y406521D01*
X331071Y406462D01*
X331174Y406396D01*
X331293Y406322D01*
X331411Y406248D01*
X331544Y406174D01*
X331685Y406100D01*
X331840Y406018D01*
X331833Y406011D01*
X331818Y405989D01*
X331796Y405959D01*
X331766Y405922D01*
X331700Y405826D01*
X331633Y405722D01*
X331626Y405730D01*
X331596Y405744D01*
X331552Y405767D01*
X331493Y405804D01*
X331426Y405841D01*
X331337Y405892D01*
X331248Y405944D01*
X331152Y406011D01*
X330945Y406137D01*
X330730Y406285D01*
X330523Y406433D01*
X330427Y406507D01*
X330338Y406581D01*
X330331Y406573D01*
X330316Y406558D01*
X330286Y406536D01*
X330249Y406507D01*
X330205Y406470D01*
X330146Y406425D01*
X330079Y406366D01*
X330005Y406307D01*
X329916Y406248D01*
X329820Y406174D01*
X329717Y406100D01*
X329598Y406026D01*
X329480Y405937D01*
X329347Y405855D01*
X329206Y405767D01*
X329058Y405678D01*
Y405685D01*
X329043Y405693D01*
X329028Y405715D01*
X329014Y405752D01*
X328984Y405789D01*
X328947Y405833D01*
X328903Y405892D01*
X328851Y405952D01*
X328858Y405959D01*
X328888Y405974D01*
X328932Y405996D01*
X328984Y406033D01*
X329051Y406070D01*
X329132Y406114D01*
X329221Y406174D01*
X329317Y406233D01*
X329517Y406366D01*
X329724Y406507D01*
X329931Y406662D01*
X330020Y406736D01*
X330109Y406810D01*
X330101Y406817D01*
X330079Y406840D01*
X330050Y406877D01*
X330005Y406928D01*
X329961Y406995D01*
X329902Y407076D01*
X329835Y407173D01*
X329761Y407284D01*
X329687Y407409D01*
X329613Y407543D01*
X329539Y407698D01*
X329465Y407861D01*
X329391Y408038D01*
X329317Y408231D01*
X329250Y408438D01*
X329191Y408653D01*
X328703D01*
Y405611D01*
X328377D01*
Y411043D01*
X331530D01*
Y411035D01*
D02*
G37*
G36*
X304608Y411383D02*
X304631Y411346D01*
X304668Y411287D01*
X304712Y411206D01*
X304771Y411102D01*
X304838Y410984D01*
X304904Y410843D01*
X304986Y410695D01*
X304764Y410591D01*
X307309D01*
Y409644D01*
X306984D01*
Y410310D01*
X302329Y410310D01*
Y409644D01*
X302004D01*
Y410591D01*
X304660Y410591D01*
Y410599D01*
X304653Y410606D01*
X304631Y410651D01*
X304601Y410717D01*
X304564Y410806D01*
X304512Y410902D01*
X304453Y411013D01*
X304312Y411257D01*
X304601Y411398D01*
X304608Y411383D01*
D02*
G37*
G36*
X324833Y409629D02*
X323471D01*
Y409851D01*
X324833D01*
Y409629D01*
D02*
G37*
G36*
X322339D02*
X320985D01*
Y409851D01*
X322339D01*
Y409629D01*
D02*
G37*
G36*
X343503Y409585D02*
X341549D01*
Y411035D01*
X343503D01*
Y409585D01*
D02*
G37*
G36*
X340765D02*
X338811D01*
Y411035D01*
X340765D01*
Y409585D01*
D02*
G37*
G36*
X325099Y410858D02*
X323064D01*
Y410443D01*
X325565D01*
Y409422D01*
X325269D01*
Y410199D01*
X323064D01*
Y408993D01*
X322768D01*
Y410199D01*
X320563D01*
Y409422D01*
X320267D01*
Y410443D01*
X322768D01*
Y410858D01*
X320711D01*
Y411102D01*
X325099D01*
Y410858D01*
D02*
G37*
G36*
X292968Y409940D02*
Y409933D01*
Y409925D01*
Y409888D01*
X292983Y409829D01*
X293005Y409763D01*
X293042Y409703D01*
X293109Y409652D01*
X293153Y409629D01*
X293198Y409615D01*
X293257Y409607D01*
X293893D01*
X293841Y409296D01*
X293190D01*
X293153Y409304D01*
X293057Y409319D01*
X292946Y409356D01*
X292887Y409385D01*
X292835Y409422D01*
X292783Y409467D01*
X292731Y409518D01*
X292694Y409578D01*
X292665Y409652D01*
X292650Y409740D01*
X292643Y409837D01*
Y410769D01*
X290941D01*
Y410525D01*
Y410510D01*
X290948Y410480D01*
Y410429D01*
Y410355D01*
Y410347D01*
Y410318D01*
X290941Y410266D01*
X290933Y410199D01*
X290918Y410125D01*
X290896Y410036D01*
X290867Y409940D01*
X290830Y409837D01*
X290785Y409726D01*
X290719Y409615D01*
X290645Y409504D01*
X290556Y409393D01*
X290445Y409289D01*
X290326Y409185D01*
X290178Y409089D01*
X290016Y409008D01*
X290008Y409015D01*
X289993Y409037D01*
X289971Y409060D01*
X289942Y409097D01*
X289860Y409185D01*
X289771Y409274D01*
X289779D01*
X289794Y409282D01*
X289823Y409296D01*
X289853Y409311D01*
X289942Y409363D01*
X290053Y409422D01*
X290164Y409489D01*
X290275Y409570D01*
X290371Y409659D01*
X290415Y409703D01*
X290445Y409748D01*
X290452Y409763D01*
X290474Y409792D01*
X290504Y409851D01*
X290534Y409940D01*
X290563Y410044D01*
X290593Y410177D01*
X290608Y410340D01*
X290615Y410525D01*
Y411065D01*
X292968D01*
Y409940D01*
D02*
G37*
G36*
X300938Y409718D02*
X300997Y409696D01*
X301056Y409652D01*
X301064D01*
X301071Y409637D01*
X301101Y409600D01*
X301123Y409541D01*
X301138Y409504D01*
Y409467D01*
Y409459D01*
Y409452D01*
X301130Y409400D01*
X301101Y409341D01*
X301086Y409311D01*
X301056Y409282D01*
X301042Y409267D01*
X301005Y409245D01*
X300945Y409222D01*
X300871Y409208D01*
X300857D01*
X300805Y409215D01*
X300746Y409237D01*
X300686Y409282D01*
X300679Y409296D01*
X300657Y409333D01*
X300627Y409393D01*
X300620Y409467D01*
Y409474D01*
Y409489D01*
X300627Y409533D01*
X300649Y409592D01*
X300686Y409652D01*
X300701Y409666D01*
X300738Y409689D01*
X300797Y409711D01*
X300871Y409726D01*
X300894D01*
X300938Y409718D01*
D02*
G37*
G36*
X333306Y410584D02*
X333298Y410577D01*
X333283Y410547D01*
X333254Y410503D01*
X333217Y410451D01*
X333209Y410443D01*
X333195Y410421D01*
X333180Y410392D01*
X333158Y410369D01*
X335185D01*
Y410362D01*
Y410340D01*
Y410310D01*
Y410273D01*
X335178Y410221D01*
Y410162D01*
Y410022D01*
X335170Y409866D01*
X335163Y409696D01*
X335148Y409526D01*
X335141Y409363D01*
Y409356D01*
Y409341D01*
X335133Y409319D01*
Y409289D01*
X335111Y409208D01*
X335067Y409119D01*
X335037Y409067D01*
X335000Y409023D01*
X334956Y408986D01*
X334904Y408949D01*
X334845Y408912D01*
X334771Y408889D01*
X334689Y408875D01*
X334593Y408867D01*
X334549D01*
X334504Y408860D01*
X334445D01*
X334319Y408852D01*
X334201D01*
X334194Y408867D01*
Y408889D01*
X334186Y408926D01*
Y408941D01*
X334179Y408963D01*
X334171Y409000D01*
X334164Y409037D01*
X332758D01*
Y409829D01*
X334319D01*
Y409104D01*
X334564D01*
X334593Y409111D01*
X334630D01*
X334704Y409134D01*
X334741Y409156D01*
X334771Y409178D01*
X334778Y409193D01*
X334793Y409208D01*
X334808Y409237D01*
X334823Y409274D01*
X334830Y409319D01*
X334845Y409378D01*
X334852Y409444D01*
Y409452D01*
Y409459D01*
X334860Y409504D01*
Y409578D01*
X334867Y409666D01*
X334874Y409777D01*
Y409896D01*
X334882Y410022D01*
Y410155D01*
X332987D01*
X332980Y410140D01*
X332950Y410103D01*
X332906Y410051D01*
X332839Y409985D01*
X332765Y409903D01*
X332677Y409814D01*
X332573Y409726D01*
X332462Y409637D01*
X332455Y409644D01*
X332447Y409652D01*
X332403Y409703D01*
X332336Y409763D01*
X332255Y409837D01*
X332262Y409844D01*
X332277Y409851D01*
X332299Y409874D01*
X332336Y409896D01*
X332425Y409970D01*
X332536Y410066D01*
X332654Y410184D01*
X332788Y410325D01*
X332913Y410488D01*
X333032Y410665D01*
X333306Y410584D01*
D02*
G37*
G36*
X324833Y409067D02*
X323471D01*
Y409296D01*
X324833D01*
Y409067D01*
D02*
G37*
G36*
X322339D02*
X320985D01*
Y409296D01*
X322339D01*
Y409067D01*
D02*
G37*
G36*
X342474Y409481D02*
X342482Y409474D01*
X342489Y409452D01*
X342496Y409437D01*
X342519Y409400D01*
X342548Y409348D01*
X342585Y409282D01*
X342630Y409200D01*
X342674Y409119D01*
X342711Y409045D01*
X342748Y408971D01*
X343932D01*
Y408712D01*
X341586D01*
X341594Y408704D01*
X341616Y408682D01*
X341653Y408645D01*
X341705Y408593D01*
X341771Y408542D01*
X341860Y408475D01*
X341971Y408408D01*
X342097Y408342D01*
X342252Y408268D01*
X342430Y408201D01*
X342630Y408135D01*
X342859Y408075D01*
X343111Y408024D01*
X343251Y408001D01*
X343392Y407979D01*
X343547Y407964D01*
X343710Y407950D01*
X343873Y407942D01*
X344050Y407935D01*
X344043Y407927D01*
X344036Y407913D01*
X344013Y407883D01*
X343991Y407846D01*
X343962Y407802D01*
X343932Y407750D01*
X343880Y407631D01*
X343858D01*
X343828Y407639D01*
X343791D01*
X343740Y407646D01*
X343680D01*
X343614Y407654D01*
X343540Y407661D01*
X343377Y407691D01*
X343185Y407720D01*
X342977Y407757D01*
X342763Y407809D01*
X342533Y407868D01*
X342311Y407942D01*
X342089Y408031D01*
X341882Y408135D01*
X341690Y408253D01*
X341520Y408386D01*
X341438Y408460D01*
X341372Y408542D01*
X341312Y408623D01*
X341261Y408712D01*
X341127D01*
Y408704D01*
X341113Y408675D01*
X341090Y408630D01*
X341046Y408579D01*
X340994Y408512D01*
X340920Y408431D01*
X340824Y408349D01*
X340698Y408260D01*
X340624Y408216D01*
X340543Y408164D01*
X340461Y408120D01*
X340365Y408075D01*
X340262Y408024D01*
X340151Y407979D01*
X340025Y407935D01*
X339892Y407890D01*
X339751Y407846D01*
X339603Y407802D01*
X339440Y407757D01*
X339270Y407720D01*
X339085Y407683D01*
X338893Y407646D01*
X338685Y407617D01*
X338463Y407587D01*
Y407594D01*
X338449Y407617D01*
X338434Y407646D01*
X338412Y407691D01*
Y407698D01*
X338404Y407713D01*
X338389Y407735D01*
X338375Y407765D01*
X338338Y407831D01*
X338323Y407861D01*
X338308Y407883D01*
X338330D01*
X338360Y407890D01*
X338404Y407898D01*
X338456D01*
X338515Y407913D01*
X338582Y407920D01*
X338656Y407927D01*
X338826Y407957D01*
X339018Y407994D01*
X339226Y408031D01*
X339440Y408075D01*
X339662Y408135D01*
X339877Y408194D01*
X340084Y408260D01*
X340276Y408334D01*
X340447Y408416D01*
X340528Y408460D01*
X340595Y408512D01*
X340654Y408556D01*
X340706Y408608D01*
X340750Y408660D01*
X340780Y408712D01*
X338493D01*
Y408971D01*
X340905D01*
Y408978D01*
X340913Y409000D01*
X340928Y409037D01*
X340935Y409089D01*
X340950Y409156D01*
X340965Y409245D01*
X340987Y409348D01*
X341002Y409467D01*
X341305D01*
Y409452D01*
X341298Y409415D01*
X341290Y409356D01*
X341283Y409282D01*
X341268Y409200D01*
X341253Y409119D01*
X341238Y409037D01*
X341216Y408971D01*
X342430D01*
Y408978D01*
X342415Y408993D01*
X342400Y409030D01*
X342371Y409074D01*
X342341Y409126D01*
X342297Y409200D01*
X342252Y409282D01*
X342193Y409378D01*
X342467Y409489D01*
X342474Y409481D01*
D02*
G37*
G36*
X315901Y410088D02*
Y410081D01*
X315893Y410059D01*
X315879Y410022D01*
X315864Y409970D01*
X315842Y409903D01*
X315819Y409837D01*
X315790Y409755D01*
X315760Y409666D01*
X315694Y409467D01*
X315612Y409252D01*
X315531Y409030D01*
X315449Y408815D01*
X315190Y408919D01*
Y408926D01*
X315198Y408941D01*
X315213Y408971D01*
X315227Y409008D01*
X315242Y409060D01*
X315264Y409111D01*
X315294Y409185D01*
X315324Y409259D01*
X315353Y409348D01*
X315390Y409444D01*
X315420Y409548D01*
X315464Y409659D01*
X315501Y409777D01*
X315546Y409903D01*
X315634Y410177D01*
X315901Y410088D01*
D02*
G37*
G36*
X314184Y410170D02*
X314191Y410162D01*
X314199Y410140D01*
X314206Y410110D01*
X314221Y410073D01*
X314236Y410022D01*
X314251Y409970D01*
X314273Y409903D01*
X314295Y409829D01*
X314317Y409748D01*
X314347Y409652D01*
X314384Y409548D01*
X314413Y409430D01*
X314450Y409311D01*
X314495Y409178D01*
X314539Y409030D01*
X314547Y409015D01*
X314554Y408986D01*
X314569Y408941D01*
X314576Y408904D01*
X314295Y408815D01*
Y408823D01*
X314288Y408838D01*
X314280Y408867D01*
X314273Y408912D01*
X314258Y408956D01*
X314236Y409023D01*
X314221Y409089D01*
X314191Y409171D01*
X314169Y409259D01*
X314140Y409356D01*
X314110Y409467D01*
X314073Y409578D01*
X314036Y409696D01*
X313999Y409829D01*
X313910Y410103D01*
X314184Y410177D01*
Y410170D01*
D02*
G37*
G36*
X336591Y411287D02*
X336584Y411280D01*
X336569Y411243D01*
X336539Y411198D01*
X336510Y411132D01*
X336465Y411058D01*
X336421Y410984D01*
X336325Y410813D01*
X337916D01*
Y410577D01*
X337516D01*
Y410569D01*
X337509Y410547D01*
X337494Y410510D01*
X337479Y410458D01*
X337457Y410399D01*
X337435Y410332D01*
X337398Y410251D01*
X337368Y410170D01*
X337279Y409992D01*
X337176Y409807D01*
X337050Y409629D01*
X336902Y409467D01*
X336909D01*
X336917Y409459D01*
X336939Y409444D01*
X336969Y409430D01*
X336998Y409415D01*
X337043Y409393D01*
X337094Y409363D01*
X337154Y409333D01*
X337220Y409304D01*
X337294Y409274D01*
X337376Y409245D01*
X337472Y409208D01*
X337568Y409171D01*
X337679Y409141D01*
X337790Y409104D01*
X337916Y409067D01*
X337908Y409060D01*
X337901Y409045D01*
X337879Y409023D01*
X337857Y408986D01*
X337797Y408904D01*
X337731Y408801D01*
X337723D01*
X337701Y408808D01*
X337672Y408823D01*
X337627Y408838D01*
X337568Y408860D01*
X337509Y408882D01*
X337361Y408941D01*
X337198Y409015D01*
X337028Y409097D01*
X336858Y409193D01*
X336695Y409289D01*
X336687D01*
X336680Y409274D01*
X336658Y409267D01*
X336628Y409245D01*
X336591Y409222D01*
X336547Y409193D01*
X336495Y409163D01*
X336436Y409134D01*
X336369Y409097D01*
X336288Y409060D01*
X336206Y409015D01*
X336118Y408971D01*
X336021Y408934D01*
X335910Y408889D01*
X335681Y408801D01*
X335674Y408808D01*
X335659Y408838D01*
X335629Y408875D01*
X335607Y408919D01*
X335570Y408963D01*
X335540Y409000D01*
X335518Y409030D01*
X335503Y409045D01*
X335511D01*
X335533Y409052D01*
X335563Y409067D01*
X335600Y409082D01*
X335651Y409097D01*
X335711Y409119D01*
X335851Y409171D01*
X335999Y409237D01*
X336162Y409304D01*
X336317Y409385D01*
X336458Y409474D01*
Y409481D01*
X336443Y409489D01*
X336406Y409526D01*
X336340Y409592D01*
X336266Y409689D01*
X336184Y409800D01*
X336103Y409933D01*
X336014Y410081D01*
X335940Y410251D01*
X335933Y410244D01*
X335903Y410207D01*
X335866Y410162D01*
X335814Y410103D01*
X335755Y410029D01*
X335681Y409955D01*
X335518Y409785D01*
X335511Y409792D01*
X335496Y409807D01*
X335474Y409829D01*
X335452Y409859D01*
X335378Y409925D01*
X335311Y409985D01*
X335318Y409992D01*
X335341Y410014D01*
X335370Y410044D01*
X335422Y410096D01*
X335474Y410155D01*
X335533Y410221D01*
X335607Y410303D01*
X335681Y410392D01*
X335755Y410495D01*
X335836Y410599D01*
X335925Y410717D01*
X336007Y410843D01*
X336162Y411102D01*
X336303Y411391D01*
X336591Y411287D01*
D02*
G37*
G36*
X279471Y409955D02*
X279485Y409962D01*
X279515Y409977D01*
X279574Y409999D01*
X279641Y410029D01*
X279730Y410066D01*
X279833Y410118D01*
X279952Y410170D01*
X280077Y410229D01*
X280211Y410288D01*
X280351Y410355D01*
X280647Y410495D01*
X280943Y410651D01*
X281084Y410732D01*
X281224Y410806D01*
X281424Y410532D01*
X281409Y410525D01*
X281380Y410510D01*
X281321Y410480D01*
X281247Y410443D01*
X281150Y410399D01*
X281047Y410340D01*
X280921Y410281D01*
X280788Y410221D01*
X280640Y410147D01*
X280484Y410073D01*
X280159Y409925D01*
X279811Y409777D01*
X279471Y409637D01*
Y409171D01*
Y409156D01*
Y409119D01*
X279478Y409067D01*
X279485Y409008D01*
X279493Y408941D01*
X279515Y408875D01*
X279537Y408815D01*
X279567Y408771D01*
X279574Y408764D01*
X279582Y408756D01*
X279604Y408741D01*
X279641Y408719D01*
X279693Y408697D01*
X279752Y408682D01*
X279826Y408675D01*
X279922Y408667D01*
X280825D01*
X280854Y408675D01*
X280921Y408682D01*
X281010Y408712D01*
X281099Y408764D01*
X281136Y408793D01*
X281180Y408830D01*
X281210Y408882D01*
X281239Y408934D01*
X281261Y409000D01*
X281276Y409074D01*
Y409089D01*
X281284Y409119D01*
X281291Y409171D01*
X281306Y409245D01*
X281313Y409333D01*
X281328Y409444D01*
X281335Y409563D01*
X281350Y409703D01*
X281358D01*
X281380Y409689D01*
X281409Y409681D01*
X281446Y409659D01*
X281550Y409622D01*
X281661Y409592D01*
Y409578D01*
X281654Y409533D01*
Y409474D01*
X281646Y409385D01*
X281631Y409296D01*
X281624Y409193D01*
X281587Y408978D01*
Y408971D01*
X281580Y408949D01*
X281572Y408919D01*
X281565Y408882D01*
X281520Y408778D01*
X281491Y408719D01*
X281454Y408660D01*
X281409Y408601D01*
X281350Y408549D01*
X281291Y408497D01*
X281217Y408445D01*
X281128Y408408D01*
X281032Y408379D01*
X280928Y408364D01*
X279759D01*
X279715Y408371D01*
X279663Y408379D01*
X279604Y408394D01*
X279537Y408416D01*
X279478Y408438D01*
X279411Y408475D01*
X279345Y408527D01*
X279293Y408586D01*
X279241Y408653D01*
X279197Y408741D01*
X279167Y408838D01*
X279145Y408956D01*
Y409089D01*
Y411354D01*
X279471D01*
Y409955D01*
D02*
G37*
G36*
X335341Y408978D02*
X335348Y408949D01*
X335355Y408897D01*
X335370Y408830D01*
X335392Y408682D01*
X335407Y408616D01*
X335415Y408549D01*
X337931D01*
Y408312D01*
X332307D01*
Y408549D01*
X335119D01*
Y408556D01*
X335111Y408586D01*
X335104Y408630D01*
X335096Y408682D01*
X335082Y408741D01*
X335074Y408808D01*
X335045Y408941D01*
X335341Y408993D01*
Y408978D01*
D02*
G37*
G36*
X277036Y410347D02*
X278664D01*
Y410044D01*
X277036D01*
Y408682D01*
X277043D01*
X277058Y408690D01*
X277088Y408697D01*
X277125Y408704D01*
X277177Y408719D01*
X277243Y408741D01*
X277317Y408756D01*
X277406Y408786D01*
X277510Y408815D01*
X277628Y408845D01*
X277761Y408889D01*
X277917Y408926D01*
X278079Y408978D01*
X278257Y409030D01*
X278457Y409089D01*
X278671Y409148D01*
Y409141D01*
Y409119D01*
Y409089D01*
Y409045D01*
Y408941D01*
X278679Y408823D01*
X278671D01*
X278657Y408815D01*
X278620Y408808D01*
X278575Y408801D01*
X278523Y408786D01*
X278449Y408764D01*
X278368Y408741D01*
X278279Y408719D01*
X278168Y408690D01*
X278050Y408653D01*
X277924Y408623D01*
X277783Y408579D01*
X277628Y408534D01*
X277458Y408490D01*
X277280Y408438D01*
X277088Y408379D01*
X277080D01*
X277058Y408371D01*
X277029Y408357D01*
X276984Y408342D01*
X276940Y408320D01*
X276881Y408297D01*
X276762Y408231D01*
X276540Y408519D01*
X276548Y408527D01*
X276570Y408542D01*
X276599Y408571D01*
X276629Y408608D01*
X276659Y408660D01*
X276681Y408727D01*
X276703Y408808D01*
Y408897D01*
Y411317D01*
X277036D01*
Y410347D01*
D02*
G37*
G36*
X337154Y407742D02*
X333032D01*
Y407964D01*
X337154D01*
Y407742D01*
D02*
G37*
G36*
X306703Y409289D02*
X304335Y409289D01*
X304327Y409282D01*
X304305Y409267D01*
X304275Y409237D01*
X304231Y409200D01*
X304172Y409148D01*
X304105Y409097D01*
X304031Y409037D01*
X303942Y408963D01*
X303757Y408815D01*
X303543Y408653D01*
X303321Y408475D01*
X303084Y408305D01*
X303202D01*
X303291Y408312D01*
X303402D01*
X303535Y408320D01*
X303698D01*
X303876Y408327D01*
X304076Y408334D01*
X304290Y408342D01*
X304527Y408349D01*
X304786Y408357D01*
X305052Y408364D01*
X305341Y408379D01*
X305644Y408386D01*
X305963Y408401D01*
X305955Y408408D01*
X305926Y408438D01*
X305874Y408482D01*
X305815Y408542D01*
X305733Y408608D01*
X305637Y408697D01*
X305526Y408793D01*
X305400Y408904D01*
X305630Y409119D01*
X305637Y409111D01*
X305659Y409097D01*
X305696Y409067D01*
X305741Y409030D01*
X305800Y408978D01*
X305874Y408919D01*
X305955Y408852D01*
X306044Y408778D01*
X306133Y408697D01*
X306236Y408608D01*
X306458Y408416D01*
X306695Y408201D01*
X306939Y407979D01*
X306688Y407728D01*
X306680Y407735D01*
X306651Y407765D01*
X306606Y407802D01*
X306547Y407861D01*
X306540Y407868D01*
X306518Y407890D01*
X306488Y407920D01*
X306444Y407957D01*
X306355Y408046D01*
X306310Y408083D01*
X306273Y408120D01*
X306118D01*
X306037Y408112D01*
X305837D01*
X305726Y408105D01*
X305489Y408098D01*
X305245D01*
X305008Y408090D01*
X304904Y408083D01*
X304801D01*
Y407261D01*
X306962D01*
Y406980D01*
X304801D01*
Y406174D01*
X307517D01*
Y405878D01*
X301789Y405878D01*
Y406174D01*
X304475D01*
Y406980D01*
X302329D01*
Y407261D01*
X304475D01*
Y408075D01*
X304394D01*
X304327Y408068D01*
X304246D01*
X304150Y408061D01*
X304031D01*
X303891Y408053D01*
X303817D01*
X303735Y408046D01*
X303632D01*
X303521Y408038D01*
X303402D01*
X303291Y408031D01*
X303143D01*
X303091Y408024D01*
X303017D01*
X302936Y408016D01*
X302840Y408009D01*
X302640Y407987D01*
X302492Y408312D01*
X302499Y408320D01*
X302529Y408327D01*
X302566Y408349D01*
X302618Y408371D01*
X302684Y408401D01*
X302751Y408438D01*
X302892Y408527D01*
X302899D01*
X302914Y408542D01*
X302936Y408556D01*
X302966Y408579D01*
X303010Y408608D01*
X303054Y408645D01*
X303173Y408734D01*
X303313Y408838D01*
X303476Y408971D01*
X303646Y409119D01*
X303839Y409289D01*
X302633D01*
Y409570D01*
X306703Y409570D01*
Y409289D01*
D02*
G37*
G36*
X282638Y410066D02*
X282653Y410036D01*
X282675Y409977D01*
X282704Y409896D01*
X282749Y409800D01*
X282793Y409681D01*
X282852Y409548D01*
X282912Y409400D01*
X282978Y409230D01*
X283045Y409052D01*
X283119Y408860D01*
X283200Y408660D01*
X283282Y408445D01*
X283363Y408231D01*
X283444Y408001D01*
X283533Y407765D01*
X283200Y407654D01*
X283193Y407668D01*
X283185Y407698D01*
X283163Y407757D01*
X283141Y407831D01*
X283104Y407935D01*
X283060Y408046D01*
X283015Y408179D01*
X282963Y408327D01*
X282904Y408497D01*
X282838Y408675D01*
X282764Y408867D01*
X282682Y409067D01*
X282601Y409282D01*
X282512Y409504D01*
X282423Y409740D01*
X282327Y409977D01*
X282630Y410081D01*
X282638Y410066D01*
D02*
G37*
G36*
X287544Y409970D02*
X287537Y409955D01*
X287522Y409911D01*
X287492Y409844D01*
X287455Y409748D01*
X287411Y409637D01*
X287352Y409504D01*
X287292Y409348D01*
X287226Y409185D01*
X287152Y409008D01*
X287070Y408823D01*
X286900Y408431D01*
X286723Y408031D01*
X286538Y407631D01*
X286234Y407772D01*
X286242Y407787D01*
X286256Y407816D01*
X286286Y407868D01*
X286316Y407942D01*
X286360Y408038D01*
X286412Y408149D01*
X286471Y408283D01*
X286538Y408431D01*
X286612Y408586D01*
X286693Y408764D01*
X286767Y408956D01*
X286856Y409156D01*
X286945Y409370D01*
X287033Y409600D01*
X287122Y409837D01*
X287218Y410081D01*
X287544Y409970D01*
D02*
G37*
G36*
X322132Y408889D02*
X322124Y408882D01*
X322102Y408867D01*
X322072Y408845D01*
X322035Y408808D01*
X321939Y408734D01*
X321828Y408653D01*
X325025D01*
Y408386D01*
X325018Y408379D01*
X324995Y408371D01*
X324951Y408349D01*
X324899Y408320D01*
X324833Y408290D01*
X324751Y408253D01*
X324655Y408209D01*
X324559Y408164D01*
X324448Y408112D01*
X324322Y408061D01*
X324196Y408009D01*
X324063Y407957D01*
X323774Y407853D01*
X323471Y407757D01*
X323478D01*
X323515Y407750D01*
X323567Y407742D01*
X323634Y407728D01*
X323723Y407720D01*
X323834Y407705D01*
X323959Y407683D01*
X324100Y407668D01*
X324255Y407654D01*
X324433Y407631D01*
X324618Y407617D01*
X324825Y407602D01*
X325047Y407587D01*
X325277Y407572D01*
X325521Y407565D01*
X325780Y407557D01*
Y407550D01*
X325765Y407535D01*
X325750Y407513D01*
X325735Y407476D01*
X325713Y407432D01*
X325684Y407380D01*
X325632Y407261D01*
X325587D01*
X325550Y407269D01*
X325513D01*
X325462Y407276D01*
X325402D01*
X325336Y407284D01*
X325188Y407291D01*
X325010Y407306D01*
X324818Y407328D01*
X324618Y407350D01*
X324396Y407372D01*
X324174Y407395D01*
X323723Y407454D01*
X323501Y407491D01*
X323286Y407528D01*
X323094Y407565D01*
X322909Y407609D01*
X322894D01*
X322864Y407602D01*
X322805Y407587D01*
X322724Y407565D01*
X322620Y407543D01*
X322494Y407520D01*
X322354Y407491D01*
X322191Y407461D01*
X322006Y407424D01*
X321806Y407395D01*
X321584Y407358D01*
X321347Y407321D01*
X321088Y407284D01*
X320822Y407247D01*
X320533Y407210D01*
X320230Y407173D01*
Y407180D01*
X320215Y407195D01*
X320208Y407224D01*
X320185Y407261D01*
X320141Y407358D01*
X320082Y407454D01*
X320119D01*
X320141Y407461D01*
X320215Y407469D01*
X320311Y407476D01*
X320430Y407491D01*
X320570Y407498D01*
X320726Y407520D01*
X320896Y407535D01*
X321073Y407557D01*
X321258Y407580D01*
X321651Y407631D01*
X322035Y407691D01*
X322228Y407720D01*
X322405Y407757D01*
X322398D01*
X322376Y407765D01*
X322346Y407779D01*
X322302Y407794D01*
X322250Y407816D01*
X322183Y407839D01*
X322117Y407868D01*
X322035Y407905D01*
X321865Y407979D01*
X321673Y408068D01*
X321480Y408172D01*
X321281Y408283D01*
X321273D01*
X321266Y408275D01*
X321244Y408260D01*
X321214Y408246D01*
X321140Y408201D01*
X321044Y408149D01*
X320925Y408083D01*
X320792Y408024D01*
X320644Y407957D01*
X320489Y407890D01*
Y407898D01*
X320481Y407905D01*
X320467Y407927D01*
X320452Y407957D01*
X320422Y407987D01*
X320393Y408031D01*
X320356Y408083D01*
X320304Y408135D01*
X320311Y408142D01*
X320348Y408149D01*
X320393Y408164D01*
X320459Y408194D01*
X320533Y408223D01*
X320622Y408260D01*
X320726Y408305D01*
X320837Y408357D01*
X321073Y408475D01*
X321325Y408616D01*
X321569Y408778D01*
X321688Y408867D01*
X321799Y408963D01*
X322132Y408889D01*
D02*
G37*
G36*
X337161Y407165D02*
X333024D01*
Y407395D01*
X337161D01*
Y407165D01*
D02*
G37*
G36*
X315109Y411354D02*
Y411317D01*
Y411272D01*
Y411198D01*
Y411117D01*
X315102Y411013D01*
Y410887D01*
Y410754D01*
X315094Y410599D01*
Y410436D01*
X315087Y410258D01*
Y410066D01*
X315079Y409859D01*
X315072Y409644D01*
X315065Y409422D01*
X315057Y409185D01*
Y409178D01*
Y409156D01*
Y409111D01*
X315050Y409060D01*
Y409000D01*
Y408926D01*
X315042Y408845D01*
X315035Y408756D01*
X315028Y408556D01*
X315013Y408349D01*
X314991Y408135D01*
X314968Y407935D01*
X314976Y407927D01*
X314983Y407913D01*
X315005Y407883D01*
X315035Y407846D01*
X315072Y407802D01*
X315109Y407742D01*
X315161Y407676D01*
X315220Y407602D01*
X315279Y407520D01*
X315346Y407432D01*
X315420Y407328D01*
X315494Y407224D01*
X315664Y406988D01*
X315849Y406729D01*
X315583Y406521D01*
X315575Y406529D01*
X315568Y406551D01*
X315546Y406581D01*
X315523Y406618D01*
X315486Y406669D01*
X315449Y406729D01*
X315361Y406869D01*
X315257Y407032D01*
X315146Y407202D01*
X315028Y407380D01*
X314909Y407550D01*
Y407543D01*
X314902Y407513D01*
X314894Y407461D01*
X314880Y407395D01*
X314857Y407313D01*
X314835Y407217D01*
X314798Y407113D01*
X314761Y406988D01*
X314717Y406862D01*
X314658Y406721D01*
X314598Y406566D01*
X314524Y406410D01*
X314443Y406255D01*
X314354Y406092D01*
X314251Y405922D01*
X314140Y405752D01*
X314132Y405759D01*
X314117Y405774D01*
X314088Y405796D01*
X314058Y405826D01*
X313977Y405900D01*
X313895Y405966D01*
X313903Y405981D01*
X313932Y406018D01*
X313977Y406077D01*
X314029Y406166D01*
X314095Y406277D01*
X314169Y406410D01*
X314243Y406573D01*
X314325Y406758D01*
X314406Y406973D01*
X314487Y407210D01*
X314561Y407476D01*
X314628Y407765D01*
X314680Y408083D01*
X314724Y408423D01*
X314754Y408793D01*
X314769Y409185D01*
Y409200D01*
Y409230D01*
Y409282D01*
X314776Y409356D01*
Y409452D01*
Y409563D01*
X314783Y409689D01*
Y409829D01*
Y409985D01*
X314791Y410155D01*
Y410332D01*
Y410525D01*
X314798Y410717D01*
Y410924D01*
Y411361D01*
X315109D01*
Y411354D01*
D02*
G37*
G36*
X285827Y406359D02*
X287796D01*
Y406040D01*
X282046D01*
Y406359D01*
X283977D01*
Y411272D01*
X284310D01*
Y406359D01*
X285502D01*
Y411272D01*
X285827D01*
Y406359D01*
D02*
G37*
G36*
X300938Y406832D02*
X300997Y406810D01*
X301056Y406766D01*
X301064D01*
X301071Y406751D01*
X301101Y406714D01*
X301123Y406655D01*
X301138Y406618D01*
Y406581D01*
Y406573D01*
Y406566D01*
X301130Y406514D01*
X301101Y406455D01*
X301086Y406425D01*
X301056Y406396D01*
X301042Y406381D01*
X301005Y406359D01*
X300945Y406336D01*
X300871Y406322D01*
X300857D01*
X300805Y406329D01*
X300746Y406351D01*
X300686Y406396D01*
X300679Y406410D01*
X300657Y406447D01*
X300627Y406507D01*
X300620Y406581D01*
Y406588D01*
Y406603D01*
X300627Y406647D01*
X300649Y406706D01*
X300686Y406766D01*
X300701Y406780D01*
X300738Y406803D01*
X300797Y406825D01*
X300871Y406840D01*
X300894D01*
X300938Y406832D01*
D02*
G37*
G36*
X289142D02*
X289150Y406840D01*
X289157Y406847D01*
X289179Y406869D01*
X289209Y406899D01*
X289276Y406980D01*
X289372Y407076D01*
X289475Y407195D01*
X289594Y407328D01*
X289712Y407469D01*
X289838Y407609D01*
X289845Y407602D01*
X289853Y407572D01*
X289875Y407543D01*
X289897Y407498D01*
X289956Y407395D01*
X289979Y407350D01*
X290008Y407313D01*
X289993Y407298D01*
X289971Y407276D01*
X289949Y407254D01*
X289875Y407180D01*
X289779Y407076D01*
X289660Y406951D01*
X289520Y406795D01*
X289364Y406625D01*
X289187Y406425D01*
X289179Y406418D01*
X289165Y406403D01*
X289135Y406373D01*
X289105Y406336D01*
X289031Y406248D01*
X288957Y406144D01*
X288721Y406351D01*
X288728Y406359D01*
X288735Y406381D01*
X288758Y406410D01*
X288772Y406462D01*
X288795Y406514D01*
X288809Y406573D01*
X288824Y406647D01*
Y406721D01*
Y409089D01*
X288129D01*
Y409378D01*
X289142D01*
Y406832D01*
D02*
G37*
G36*
X310935Y411346D02*
Y411331D01*
Y411309D01*
Y411280D01*
Y411206D01*
Y411109D01*
Y411006D01*
Y410902D01*
X310928Y410799D01*
Y410717D01*
Y410710D01*
Y410680D01*
Y410636D01*
Y410584D01*
Y410517D01*
Y410451D01*
X310921Y410310D01*
X313096D01*
Y406484D01*
Y406477D01*
Y406455D01*
X313089Y406418D01*
Y406373D01*
X313074Y406322D01*
X313059Y406262D01*
X313037Y406203D01*
X313007Y406137D01*
X312970Y406070D01*
X312926Y406011D01*
X312867Y405952D01*
X312793Y405892D01*
X312711Y405848D01*
X312615Y405811D01*
X312497Y405789D01*
X312371Y405774D01*
X312149D01*
X312008Y405767D01*
X311720D01*
X311683Y405759D01*
X311513D01*
Y405767D01*
Y405789D01*
X311505Y405826D01*
X311498Y405870D01*
X311490Y405929D01*
X311476Y405989D01*
X311446Y406137D01*
X311520D01*
X311557Y406129D01*
X311712D01*
X311846Y406122D01*
X311986D01*
X312142Y406114D01*
X312341D01*
X312371Y406122D01*
X312445Y406129D01*
X312534Y406159D01*
X312623Y406211D01*
X312660Y406248D01*
X312697Y406285D01*
X312726Y406336D01*
X312748Y406396D01*
X312763Y406462D01*
Y406544D01*
Y409999D01*
X310913D01*
Y409992D01*
Y409970D01*
Y409933D01*
X310906Y409881D01*
Y409874D01*
Y409844D01*
Y409814D01*
Y409785D01*
Y409777D01*
Y409755D01*
X310898Y409718D01*
Y409666D01*
X310891Y409607D01*
X310884Y409533D01*
X310876Y409459D01*
X310869Y409378D01*
X310839Y409193D01*
X310810Y409008D01*
X310765Y408823D01*
X310706Y408660D01*
X310891Y408830D01*
X310898Y408823D01*
X310928Y408801D01*
X310965Y408764D01*
X311024Y408719D01*
X311091Y408660D01*
X311172Y408586D01*
X311261Y408512D01*
X311365Y408416D01*
X311483Y408320D01*
X311601Y408216D01*
X311860Y407979D01*
X312142Y407720D01*
X312438Y407446D01*
X312179Y407195D01*
X312171Y407202D01*
X312142Y407232D01*
X312097Y407276D01*
X312038Y407335D01*
X311964Y407409D01*
X311875Y407491D01*
X311779Y407587D01*
X311675Y407691D01*
X311557Y407794D01*
X311439Y407913D01*
X311187Y408142D01*
X310935Y408379D01*
X310684Y408601D01*
Y408593D01*
X310669Y408564D01*
X310647Y408527D01*
X310625Y408468D01*
X310580Y408401D01*
X310528Y408320D01*
X310469Y408231D01*
X310388Y408127D01*
X310299Y408016D01*
X310195Y407898D01*
X310070Y407772D01*
X309929Y407646D01*
X309766Y407513D01*
X309589Y407372D01*
X309396Y407239D01*
X309174Y407099D01*
X309167Y407106D01*
X309152Y407128D01*
X309130Y407158D01*
X309108Y407195D01*
X309034Y407284D01*
X308945Y407380D01*
X308952D01*
X308967Y407387D01*
X308982Y407402D01*
X309011Y407417D01*
X309093Y407461D01*
X309196Y407528D01*
X309322Y407609D01*
X309463Y407713D01*
X309611Y407824D01*
X309759Y407964D01*
X309914Y408112D01*
X310055Y408283D01*
X310195Y408468D01*
X310321Y408667D01*
X310425Y408882D01*
X310506Y409119D01*
X310536Y409237D01*
X310558Y409363D01*
X310565Y409496D01*
X310573Y409629D01*
Y409637D01*
Y409644D01*
Y409689D01*
Y409740D01*
Y409785D01*
Y409792D01*
Y409807D01*
Y409844D01*
Y409888D01*
Y409903D01*
X310580Y409925D01*
Y409962D01*
Y409999D01*
X308693D01*
Y405707D01*
X308368D01*
Y410310D01*
X310588D01*
Y410318D01*
Y410340D01*
Y410384D01*
Y410429D01*
Y410495D01*
Y410562D01*
Y410643D01*
Y410725D01*
Y410732D01*
Y410747D01*
Y410769D01*
Y410799D01*
Y410880D01*
Y410976D01*
Y410984D01*
Y410998D01*
Y411028D01*
Y411065D01*
Y411124D01*
Y411183D01*
Y411265D01*
Y411354D01*
X310935D01*
Y411346D01*
D02*
G37*
G36*
X327312Y409999D02*
X328015D01*
Y409718D01*
X327312D01*
Y408482D01*
X327319D01*
X327326Y408490D01*
X327371Y408497D01*
X327437Y408519D01*
X327526Y408549D01*
X327630Y408586D01*
X327748Y408623D01*
X327874Y408660D01*
X328000Y408704D01*
Y408697D01*
Y408675D01*
Y408638D01*
Y408593D01*
Y408490D01*
X328007Y408386D01*
X328000D01*
X327970Y408379D01*
X327926Y408364D01*
X327859Y408342D01*
X327778Y408312D01*
X327674Y408283D01*
X327548Y408246D01*
X327408Y408201D01*
X327400D01*
X327371Y408186D01*
X327341Y408179D01*
X327312Y408172D01*
Y406307D01*
Y406299D01*
Y406285D01*
Y406255D01*
X327304Y406218D01*
X327289Y406137D01*
X327252Y406033D01*
X327223Y405981D01*
X327186Y405929D01*
X327134Y405885D01*
X327082Y405841D01*
X327016Y405804D01*
X326934Y405774D01*
X326838Y405752D01*
X326734Y405744D01*
X326705D01*
X326660Y405737D01*
X326535D01*
X326453Y405730D01*
X326261D01*
Y405737D01*
Y405752D01*
X326253Y405781D01*
X326246Y405818D01*
X326239Y405863D01*
X326231Y405922D01*
X326209Y406048D01*
Y406055D01*
Y406063D01*
X326202Y406085D01*
X326231D01*
X326261Y406077D01*
X326313D01*
X326372Y406070D01*
X326453D01*
X326542Y406063D01*
X326705D01*
X326757Y406077D01*
X326823Y406100D01*
X326882Y406137D01*
X326942Y406188D01*
X326979Y406270D01*
X326986Y406322D01*
Y406381D01*
Y408068D01*
X326979D01*
X326942Y408053D01*
X326890Y408038D01*
X326808Y408009D01*
X326712Y407979D01*
X326594Y407935D01*
X326453Y407890D01*
X326290Y407831D01*
X326276Y407824D01*
X326246Y407816D01*
X326209Y407802D01*
X326172Y407794D01*
X326128Y408135D01*
X326135D01*
X326157Y408142D01*
X326202Y408157D01*
X326261Y408172D01*
X326342Y408194D01*
X326438Y408223D01*
X326557Y408253D01*
X326690Y408297D01*
X326697D01*
X326720Y408305D01*
X326757Y408320D01*
X326801Y408334D01*
X326897Y408357D01*
X326942Y408371D01*
X326986Y408386D01*
Y409718D01*
X326187D01*
Y409999D01*
X326986D01*
Y411317D01*
X327312D01*
Y409999D01*
D02*
G37*
G36*
X322664Y407291D02*
Y407276D01*
X322657Y407247D01*
X322650Y407210D01*
X322642Y407158D01*
X322635Y407106D01*
X322613Y406980D01*
X324944D01*
Y406973D01*
Y406965D01*
X324936Y406921D01*
X324929Y406854D01*
X324921Y406766D01*
X324914Y406669D01*
X324899Y406566D01*
X324884Y406455D01*
X324862Y406351D01*
Y406344D01*
X324855Y406329D01*
Y406299D01*
X324840Y406255D01*
X324803Y406159D01*
X324773Y406107D01*
X324744Y406055D01*
X324699Y405996D01*
X324640Y405944D01*
X324581Y405892D01*
X324507Y405848D01*
X324418Y405811D01*
X324322Y405781D01*
X324211Y405767D01*
X324085Y405759D01*
X323959D01*
X323908Y405752D01*
X323589D01*
X323493Y405744D01*
X322864D01*
X322798Y406055D01*
X322879D01*
X322923Y406048D01*
X323116D01*
X323197Y406040D01*
X323478D01*
X323693Y406033D01*
X324033D01*
X324130Y406048D01*
X324233Y406070D01*
X324344Y406107D01*
X324448Y406174D01*
X324485Y406211D01*
X324522Y406262D01*
X324544Y406314D01*
X324551Y406381D01*
Y406388D01*
X324559Y406403D01*
Y406440D01*
X324566Y406477D01*
X324574Y406529D01*
X324588Y406588D01*
X324596Y406662D01*
X324603Y406736D01*
X322539D01*
Y406729D01*
X322524Y406699D01*
X322509Y406655D01*
X322479Y406595D01*
X322435Y406529D01*
X322376Y406447D01*
X322294Y406366D01*
X322198Y406270D01*
X322080Y406181D01*
X321932Y406085D01*
X321762Y405989D01*
X321665Y405944D01*
X321562Y405900D01*
X321451Y405863D01*
X321332Y405818D01*
X321199Y405781D01*
X321066Y405744D01*
X320918Y405707D01*
X320763Y405678D01*
X320600Y405648D01*
X320422Y405626D01*
Y405633D01*
X320415Y405641D01*
X320400Y405685D01*
Y405693D01*
X320385Y405707D01*
X320370Y405737D01*
X320356Y405774D01*
X320311Y405848D01*
X320289Y405885D01*
X320267Y405915D01*
X320289D01*
X320311Y405922D01*
X320341D01*
X320385Y405929D01*
X320430Y405937D01*
X320541Y405959D01*
X320674Y405981D01*
X320829Y406018D01*
X320992Y406055D01*
X321162Y406100D01*
X321332Y406151D01*
X321503Y406211D01*
X321665Y406277D01*
X321821Y406351D01*
X321954Y406433D01*
X322065Y406529D01*
X322109Y406573D01*
X322154Y406625D01*
X322183Y406677D01*
X322206Y406736D01*
X320755D01*
Y406980D01*
X322294D01*
Y406988D01*
X322302Y407002D01*
X322309Y407032D01*
X322317Y407076D01*
X322324Y407121D01*
X322339Y407173D01*
X322354Y407298D01*
X322664D01*
Y407291D01*
D02*
G37*
G36*
X295395Y406396D02*
X295403Y406403D01*
X295425Y406418D01*
X295455Y406440D01*
X295499Y406470D01*
X295558Y406499D01*
X295617Y406544D01*
X295691Y406595D01*
X295773Y406647D01*
X295943Y406766D01*
X296135Y406891D01*
X296328Y407017D01*
X296513Y407150D01*
Y407143D01*
X296520Y407121D01*
X296528Y407084D01*
X296542Y407039D01*
X296579Y406928D01*
X296624Y406810D01*
X296616D01*
X296602Y406795D01*
X296565Y406780D01*
X296528Y406751D01*
X296476Y406721D01*
X296409Y406684D01*
X296343Y406640D01*
X296261Y406588D01*
X296172Y406536D01*
X296084Y406477D01*
X295876Y406344D01*
X295647Y406188D01*
X295410Y406026D01*
X295403Y406018D01*
X295381Y406003D01*
X295351Y405981D01*
X295314Y405952D01*
X295225Y405870D01*
X295129Y405767D01*
X294885Y406026D01*
X294892Y406033D01*
X294900Y406040D01*
X294922Y406063D01*
X294944Y406092D01*
X294988Y406159D01*
X295025Y406240D01*
Y406248D01*
X295033Y406262D01*
X295040Y406285D01*
X295048Y406314D01*
Y406359D01*
X295055Y406403D01*
X295062Y406514D01*
Y409037D01*
X294219D01*
Y409341D01*
X295395D01*
Y406396D01*
D02*
G37*
G36*
X293272Y408386D02*
X293264Y408371D01*
X293249Y408342D01*
X293212Y408283D01*
X293175Y408216D01*
X293116Y408127D01*
X293057Y408024D01*
X292983Y407913D01*
X292902Y407787D01*
X292813Y407661D01*
X292717Y407528D01*
X292502Y407261D01*
X292265Y407002D01*
X292139Y406877D01*
X292014Y406766D01*
X292021Y406758D01*
X292043Y406751D01*
X292080Y406729D01*
X292132Y406692D01*
X292199Y406662D01*
X292280Y406618D01*
X292376Y406566D01*
X292487Y406514D01*
X292613Y406462D01*
X292746Y406403D01*
X292902Y406344D01*
X293064Y406285D01*
X293242Y406218D01*
X293427Y406159D01*
X293634Y406100D01*
X293849Y406040D01*
X293841Y406033D01*
X293827Y406003D01*
X293797Y405959D01*
X293767Y405915D01*
X293701Y405804D01*
X293671Y405752D01*
X293656Y405715D01*
X293642Y405722D01*
X293605Y405730D01*
X293538Y405752D01*
X293449Y405781D01*
X293346Y405818D01*
X293227Y405863D01*
X293094Y405915D01*
X292946Y405966D01*
X292798Y406026D01*
X292643Y406092D01*
X292317Y406233D01*
X292162Y406314D01*
X292014Y406396D01*
X291873Y406477D01*
X291740Y406558D01*
X291732Y406551D01*
X291703Y406536D01*
X291658Y406507D01*
X291599Y406470D01*
X291518Y406425D01*
X291422Y406373D01*
X291311Y406314D01*
X291185Y406248D01*
X291044Y406174D01*
X290881Y406100D01*
X290711Y406026D01*
X290526Y405944D01*
X290319Y405870D01*
X290104Y405789D01*
X289875Y405707D01*
X289631Y405633D01*
X289623Y405641D01*
X289616Y405663D01*
X289594Y405700D01*
X289572Y405737D01*
X289505Y405841D01*
X289431Y405944D01*
X289438D01*
X289446Y405952D01*
X289490Y405959D01*
X289557Y405981D01*
X289653Y406011D01*
X289764Y406048D01*
X289890Y406092D01*
X290038Y406144D01*
X290186Y406196D01*
X290349Y406255D01*
X290519Y406322D01*
X290852Y406462D01*
X291022Y406536D01*
X291177Y406618D01*
X291325Y406699D01*
X291466Y406780D01*
X291459Y406788D01*
X291436Y406810D01*
X291399Y406840D01*
X291355Y406884D01*
X291296Y406951D01*
X291229Y407017D01*
X291155Y407106D01*
X291074Y407202D01*
X290992Y407313D01*
X290904Y407439D01*
X290807Y407572D01*
X290719Y407720D01*
X290622Y407876D01*
X290534Y408046D01*
X290445Y408231D01*
X290363Y408423D01*
X290053D01*
Y408719D01*
X293272D01*
Y408386D01*
D02*
G37*
G36*
X340787Y405663D02*
X340484D01*
Y405959D01*
X339115D01*
Y405663D01*
X338811D01*
Y407439D01*
X340787D01*
Y405663D01*
D02*
G37*
G36*
X343540Y405656D02*
X343236D01*
Y405959D01*
X341853D01*
Y405670D01*
X341549D01*
Y407439D01*
X343540D01*
Y405656D01*
D02*
G37*
G36*
X319371Y405641D02*
X319061D01*
Y406033D01*
X316382D01*
Y405648D01*
X316071D01*
Y411058D01*
X319371D01*
Y405641D01*
D02*
G37*
G36*
X298215Y409311D02*
X299969D01*
Y409000D01*
X298215D01*
Y405641D01*
X297867D01*
Y409000D01*
X296113D01*
Y409311D01*
X297867D01*
Y411361D01*
X298215D01*
Y409311D01*
D02*
G37*
G36*
X278990Y407417D02*
X281661D01*
Y407113D01*
X278990D01*
Y405626D01*
X278664D01*
Y407113D01*
X275993D01*
Y407417D01*
X278664D01*
Y408283D01*
X278990D01*
Y407417D01*
D02*
G37*
G36*
X337324Y405619D02*
X337006D01*
Y405885D01*
X333187D01*
Y405619D01*
X332869D01*
Y406803D01*
X337324D01*
Y405619D01*
D02*
G37*
G36*
X302152Y404350D02*
X302255Y404343D01*
X302381Y404321D01*
X302522Y404298D01*
X302670Y404261D01*
X302825Y404217D01*
Y403884D01*
X302818D01*
X302810Y403891D01*
X302788Y403899D01*
X302751Y403914D01*
X302714Y403928D01*
X302670Y403943D01*
X302566Y403980D01*
X302433Y404010D01*
X302285Y404039D01*
X302129Y404062D01*
X301959Y404069D01*
X301885D01*
X301796Y404054D01*
X301693Y404039D01*
X301574Y404010D01*
X301449Y403965D01*
X301330Y403906D01*
X301219Y403825D01*
X301204Y403817D01*
X301175Y403780D01*
X301130Y403729D01*
X301086Y403662D01*
X301034Y403573D01*
X300990Y403470D01*
X300960Y403351D01*
X300945Y403218D01*
Y403211D01*
Y403203D01*
Y403159D01*
X300953Y403100D01*
X300968Y403018D01*
X300990Y402929D01*
X301027Y402833D01*
X301071Y402744D01*
X301130Y402656D01*
X301138Y402648D01*
X301167Y402619D01*
X301219Y402574D01*
X301301Y402508D01*
X301352Y402471D01*
X301412Y402426D01*
X301478Y402382D01*
X301552Y402330D01*
X301634Y402278D01*
X301722Y402219D01*
X301826Y402160D01*
X301937Y402093D01*
X301944Y402086D01*
X301967Y402078D01*
X301996Y402056D01*
X302041Y402034D01*
X302092Y401997D01*
X302152Y401960D01*
X302292Y401871D01*
X302433Y401768D01*
X302581Y401657D01*
X302707Y401546D01*
X302758Y401486D01*
X302803Y401435D01*
X302810Y401420D01*
X302840Y401383D01*
X302869Y401324D01*
X302914Y401250D01*
X302951Y401153D01*
X302988Y401042D01*
X303010Y400924D01*
X303017Y400791D01*
Y400783D01*
Y400769D01*
Y400739D01*
X303010Y400702D01*
Y400658D01*
X302995Y400606D01*
X302973Y400480D01*
X302929Y400347D01*
X302862Y400199D01*
X302818Y400132D01*
X302773Y400058D01*
X302714Y399992D01*
X302647Y399925D01*
X302640D01*
X302633Y399910D01*
X302610Y399895D01*
X302581Y399873D01*
X302544Y399851D01*
X302492Y399821D01*
X302440Y399792D01*
X302381Y399762D01*
X302307Y399725D01*
X302233Y399696D01*
X302144Y399666D01*
X302048Y399644D01*
X301952Y399622D01*
X301841Y399607D01*
X301730Y399599D01*
X301604Y399592D01*
X301560D01*
X301515Y399599D01*
X301449D01*
X301367Y399607D01*
X301271Y399622D01*
X301167Y399644D01*
X301056Y399666D01*
X301042D01*
X301005Y399681D01*
X300953Y399696D01*
X300879Y399710D01*
X300805Y399733D01*
X300723Y399762D01*
X300649Y399792D01*
X300583Y399829D01*
Y400191D01*
X300590D01*
X300605Y400177D01*
X300635Y400162D01*
X300664Y400140D01*
X300709Y400117D01*
X300768Y400095D01*
X300894Y400036D01*
X301042Y399977D01*
X301212Y399932D01*
X301389Y399895D01*
X301582Y399881D01*
X301634D01*
X301671Y399888D01*
X301715D01*
X301767Y399895D01*
X301885Y399910D01*
X302018Y399932D01*
X302159Y399977D01*
X302285Y400029D01*
X302403Y400103D01*
X302418Y400110D01*
X302448Y400147D01*
X302492Y400191D01*
X302544Y400265D01*
X302596Y400354D01*
X302640Y400458D01*
X302670Y400584D01*
X302684Y400724D01*
Y400732D01*
Y400739D01*
Y400783D01*
X302677Y400850D01*
X302662Y400931D01*
X302640Y401020D01*
X302603Y401109D01*
X302559Y401205D01*
X302492Y401287D01*
X302485Y401294D01*
X302455Y401324D01*
X302403Y401375D01*
X302322Y401442D01*
X302270Y401479D01*
X302211Y401523D01*
X302144Y401568D01*
X302070Y401620D01*
X301989Y401679D01*
X301893Y401738D01*
X301789Y401797D01*
X301678Y401864D01*
X301671Y401871D01*
X301648Y401886D01*
X301611Y401901D01*
X301567Y401930D01*
X301508Y401967D01*
X301449Y402012D01*
X301308Y402108D01*
X301160Y402212D01*
X301012Y402330D01*
X300945Y402389D01*
X300886Y402441D01*
X300834Y402500D01*
X300797Y402552D01*
X300790Y402567D01*
X300768Y402604D01*
X300738Y402656D01*
X300709Y402737D01*
X300672Y402826D01*
X300642Y402937D01*
X300620Y403055D01*
X300612Y403188D01*
Y403196D01*
Y403211D01*
Y403233D01*
X300620Y403270D01*
X300627Y403314D01*
X300635Y403359D01*
X300657Y403470D01*
X300701Y403603D01*
X300775Y403736D01*
X300812Y403810D01*
X300864Y403877D01*
X300923Y403943D01*
X300990Y404010D01*
X300997Y404017D01*
X301005Y404025D01*
X301027Y404039D01*
X301056Y404062D01*
X301093Y404091D01*
X301145Y404121D01*
X301197Y404150D01*
X301256Y404187D01*
X301404Y404247D01*
X301574Y404306D01*
X301774Y404343D01*
X301878Y404358D01*
X302070D01*
X302152Y404350D01*
D02*
G37*
G36*
X280048Y403077D02*
X281483Y403588D01*
Y403573D01*
Y403536D01*
Y403484D01*
X281476Y403403D01*
Y403314D01*
Y403203D01*
X281469Y403085D01*
Y402952D01*
X281461Y402818D01*
Y402670D01*
X281446Y402382D01*
X281439Y402093D01*
X281432Y401953D01*
X281424Y401827D01*
Y401819D01*
Y401790D01*
X281417Y401745D01*
X281409Y401686D01*
X281402Y401620D01*
X281380Y401546D01*
X281358Y401472D01*
X281328Y401390D01*
X281291Y401309D01*
X281247Y401227D01*
X281195Y401161D01*
X281128Y401094D01*
X281054Y401042D01*
X280965Y401005D01*
X280862Y400983D01*
X280336D01*
Y400991D01*
Y401005D01*
X280329Y401035D01*
X280322Y401072D01*
X280314Y401116D01*
X280299Y401176D01*
X280270Y401301D01*
X280285D01*
X280329Y401294D01*
X280388D01*
X280455Y401287D01*
X280758D01*
X280825Y401301D01*
X280899Y401338D01*
X280936Y401361D01*
X280973Y401398D01*
X281002Y401442D01*
X281039Y401486D01*
X281062Y401553D01*
X281084Y401620D01*
X281099Y401708D01*
X281106Y401805D01*
Y401812D01*
Y401842D01*
X281113Y401879D01*
Y401930D01*
Y401997D01*
X281121Y402071D01*
X281128Y402160D01*
Y402256D01*
X281143Y402463D01*
X281150Y402693D01*
X281158Y402929D01*
X281165Y403166D01*
X280048Y402767D01*
Y400206D01*
X279730D01*
Y402663D01*
X278679Y402293D01*
Y400051D01*
Y400043D01*
Y400036D01*
Y399992D01*
X278686Y399932D01*
X278694Y399851D01*
X278708Y399777D01*
X278738Y399696D01*
X278768Y399629D01*
X278812Y399585D01*
X278819Y399577D01*
X278834Y399562D01*
X278871Y399548D01*
X278923Y399525D01*
X278990Y399496D01*
X279078Y399481D01*
X279189Y399466D01*
X279323Y399459D01*
X280721D01*
X280780Y399466D01*
X280840Y399474D01*
X280973Y399511D01*
X281047Y399533D01*
X281113Y399562D01*
X281180Y399599D01*
X281239Y399651D01*
X281291Y399703D01*
X281335Y399770D01*
X281365Y399851D01*
X281387Y399940D01*
Y399947D01*
X281395Y399955D01*
Y399977D01*
X281402Y400006D01*
X281417Y400088D01*
X281439Y400191D01*
X281454Y400317D01*
X281476Y400450D01*
X281498Y400598D01*
X281513Y400754D01*
X281520D01*
X281543Y400739D01*
X281572Y400732D01*
X281617Y400717D01*
X281713Y400680D01*
X281831Y400650D01*
Y400643D01*
Y400628D01*
X281824Y400606D01*
Y400569D01*
X281816Y400532D01*
X281809Y400480D01*
X281794Y400369D01*
X281772Y400236D01*
X281750Y400095D01*
X281728Y399955D01*
X281698Y399821D01*
Y399814D01*
Y399807D01*
X281683Y399762D01*
X281661Y399696D01*
X281631Y399622D01*
X281587Y399533D01*
X281535Y399451D01*
X281469Y399370D01*
X281395Y399311D01*
X281387Y399303D01*
X281350Y399289D01*
X281298Y399259D01*
X281224Y399237D01*
X281128Y399207D01*
X281010Y399178D01*
X280869Y399163D01*
X280699Y399155D01*
X279138D01*
X279078Y399163D01*
X279012Y399170D01*
X278938Y399192D01*
X278856Y399215D01*
X278775Y399244D01*
X278694Y399281D01*
X278612Y399333D01*
X278538Y399400D01*
X278479Y399474D01*
X278427Y399570D01*
X278383Y399681D01*
X278361Y399807D01*
Y399947D01*
Y402182D01*
X277850Y401997D01*
X277806Y402300D01*
X278361Y402485D01*
Y403914D01*
X278679D01*
Y402604D01*
X279730Y402966D01*
Y404654D01*
X280048D01*
Y403077D01*
D02*
G37*
G36*
X288854Y403011D02*
X288913Y402989D01*
X288972Y402944D01*
X288980D01*
X288987Y402929D01*
X289017Y402892D01*
X289039Y402833D01*
X289054Y402796D01*
Y402759D01*
Y402752D01*
Y402744D01*
X289046Y402693D01*
X289017Y402633D01*
X289002Y402604D01*
X288972Y402574D01*
X288957Y402559D01*
X288920Y402537D01*
X288861Y402515D01*
X288787Y402500D01*
X288772D01*
X288721Y402508D01*
X288661Y402530D01*
X288602Y402574D01*
X288595Y402589D01*
X288573Y402626D01*
X288543Y402685D01*
X288536Y402759D01*
Y402767D01*
Y402781D01*
X288543Y402826D01*
X288565Y402885D01*
X288602Y402944D01*
X288617Y402959D01*
X288654Y402981D01*
X288713Y403003D01*
X288787Y403018D01*
X288809D01*
X288854Y403011D01*
D02*
G37*
G36*
X293383Y399673D02*
X293064D01*
Y401879D01*
X290430D01*
Y399673D01*
X290112D01*
Y404276D01*
X290430D01*
Y402167D01*
X293064D01*
Y404276D01*
X293383D01*
Y399673D01*
D02*
G37*
G36*
X285095Y403906D02*
X287788D01*
Y403610D01*
X285095D01*
Y402759D01*
X287226D01*
Y400850D01*
X282889D01*
Y402759D01*
X284762D01*
Y404691D01*
X285095D01*
Y403906D01*
D02*
G37*
G36*
X298045Y399673D02*
X297815D01*
X295077Y403388D01*
Y403396D01*
X295062Y403410D01*
X295048Y403433D01*
X295025Y403455D01*
X294981Y403529D01*
X294929Y403610D01*
X294885Y403677D01*
X294870D01*
Y403662D01*
X294877Y403625D01*
X294885Y403558D01*
Y403477D01*
Y399673D01*
X294567D01*
Y404276D01*
X294803D01*
X297527Y400584D01*
X297534Y400576D01*
X297541Y400561D01*
X297564Y400539D01*
X297586Y400502D01*
X297615Y400458D01*
X297645Y400406D01*
X297726Y400288D01*
X297741D01*
Y400295D01*
Y400325D01*
X297734Y400369D01*
Y400421D01*
X297726Y400547D01*
Y400672D01*
Y404276D01*
X298045D01*
Y399673D01*
D02*
G37*
G36*
X306584Y403980D02*
X305252D01*
Y399673D01*
X304934D01*
Y403980D01*
X303602Y403980D01*
Y404276D01*
X306584Y404276D01*
Y403980D01*
D02*
G37*
G36*
X299547Y399673D02*
X299229D01*
Y404276D01*
X299547D01*
Y399673D01*
D02*
G37*
G36*
X277184Y402974D02*
X277835D01*
Y402685D01*
X277184D01*
Y400302D01*
X277191D01*
X277199Y400310D01*
X277221Y400317D01*
X277251Y400325D01*
X277295Y400339D01*
X277347Y400354D01*
X277406Y400369D01*
X277473Y400391D01*
X277480D01*
X277487Y400399D01*
X277532Y400413D01*
X277591Y400428D01*
X277665Y400458D01*
X277754Y400480D01*
X277835Y400510D01*
X277924Y400539D01*
X277998Y400561D01*
Y400547D01*
Y400532D01*
X278005Y400502D01*
Y400465D01*
X278013Y400413D01*
X278020Y400347D01*
X278035Y400258D01*
X278020Y400251D01*
X277976Y400243D01*
X277917Y400221D01*
X277828Y400191D01*
X277717Y400162D01*
X277598Y400125D01*
X277458Y400080D01*
X277317Y400036D01*
X277162Y399984D01*
X276999Y399940D01*
X276681Y399836D01*
X276518Y399784D01*
X276363Y399740D01*
X276222Y399696D01*
X276089Y399651D01*
X276000Y399955D01*
X276015Y399962D01*
X276059Y399969D01*
X276126Y399992D01*
X276222Y400014D01*
X276340Y400051D01*
X276488Y400095D01*
X276666Y400140D01*
X276858Y400199D01*
Y402685D01*
X276163D01*
Y402974D01*
X276858D01*
Y404639D01*
X277184D01*
Y402974D01*
D02*
G37*
G36*
X288854Y400125D02*
X288913Y400103D01*
X288972Y400058D01*
X288980D01*
X288987Y400043D01*
X289017Y400006D01*
X289039Y399947D01*
X289054Y399910D01*
Y399873D01*
Y399866D01*
Y399858D01*
X289046Y399807D01*
X289017Y399747D01*
X289002Y399718D01*
X288972Y399688D01*
X288957Y399673D01*
X288920Y399651D01*
X288861Y399629D01*
X288787Y399614D01*
X288772D01*
X288721Y399622D01*
X288661Y399644D01*
X288602Y399688D01*
X288595Y399703D01*
X288573Y399740D01*
X288543Y399799D01*
X288536Y399873D01*
Y399881D01*
Y399895D01*
X288543Y399940D01*
X288565Y399999D01*
X288602Y400058D01*
X288617Y400073D01*
X288654Y400095D01*
X288713Y400117D01*
X288787Y400132D01*
X288809D01*
X288854Y400125D01*
D02*
G37*
G36*
X285598Y400376D02*
X285605Y400354D01*
X285620Y400332D01*
X285635Y400295D01*
X285657Y400251D01*
X285679Y400199D01*
X285709Y400132D01*
X285746Y400066D01*
X285783Y399984D01*
X285820Y399888D01*
X285872Y399792D01*
X285916Y399673D01*
X285975Y399555D01*
X286034Y399422D01*
X286101Y399274D01*
X285783Y399148D01*
X285775Y399163D01*
X285768Y399178D01*
X285761Y399200D01*
Y399207D01*
X285746Y399229D01*
X285731Y399274D01*
X285709Y399318D01*
X285687Y399385D01*
X285657Y399451D01*
X285590Y399614D01*
X285516Y399792D01*
X285435Y399969D01*
X285361Y400140D01*
X285324Y400221D01*
X285294Y400288D01*
X285590Y400391D01*
X285598Y400376D01*
D02*
G37*
G36*
X287107Y400384D02*
X287115Y400369D01*
X287130Y400339D01*
X287152Y400302D01*
X287181Y400258D01*
X287218Y400199D01*
X287255Y400132D01*
X287300Y400058D01*
X287403Y399895D01*
X287522Y399703D01*
X287648Y399488D01*
X287788Y399259D01*
X287485Y399096D01*
Y399104D01*
X287477Y399118D01*
X287463Y399141D01*
X287440Y399178D01*
X287418Y399222D01*
X287389Y399274D01*
X287352Y399333D01*
X287315Y399407D01*
X287270Y399481D01*
X287218Y399570D01*
X287167Y399666D01*
X287107Y399770D01*
X287041Y399881D01*
X286974Y399992D01*
X286819Y400251D01*
X287100Y400391D01*
X287107Y400384D01*
D02*
G37*
G36*
X284162Y400325D02*
X284170Y400310D01*
X284177Y400288D01*
X284192Y400251D01*
X284207Y400206D01*
X284229Y400154D01*
X284251Y400095D01*
X284281Y400029D01*
X284310Y399947D01*
X284340Y399866D01*
X284377Y399770D01*
X284414Y399673D01*
X284495Y399451D01*
X284584Y399200D01*
X284251Y399096D01*
Y399104D01*
X284244Y399118D01*
X284236Y399148D01*
X284221Y399185D01*
X284207Y399237D01*
X284192Y399289D01*
X284170Y399355D01*
X284147Y399429D01*
X284118Y399511D01*
X284088Y399599D01*
X284022Y399799D01*
X283948Y400014D01*
X283859Y400243D01*
X284162Y400332D01*
Y400325D01*
D02*
G37*
G36*
X283185Y400258D02*
X283178Y400251D01*
X283171Y400228D01*
X283148Y400191D01*
X283119Y400140D01*
X283082Y400080D01*
X283045Y400014D01*
X283000Y399932D01*
X282949Y399844D01*
X282838Y399651D01*
X282704Y399437D01*
X282571Y399215D01*
X282438Y399000D01*
X282142Y399192D01*
X282149Y399200D01*
X282157Y399215D01*
X282179Y399244D01*
X282209Y399289D01*
X282246Y399340D01*
X282283Y399400D01*
X282334Y399466D01*
X282386Y399548D01*
X282438Y399629D01*
X282497Y399725D01*
X282623Y399932D01*
X282756Y400154D01*
X282889Y400399D01*
X283185Y400258D01*
D02*
G37*
G36*
X283063Y310039D02*
Y309675D01*
X280544Y308645D01*
Y309023D01*
X281308Y309318D01*
Y310374D01*
X280544Y310647D01*
Y311000D01*
X283063Y310039D01*
D02*
G37*
G36*
X281898Y308499D02*
X281941D01*
X281989Y308496D01*
X282043Y308492D01*
X282156Y308481D01*
X282276Y308463D01*
X282396Y308441D01*
X282451Y308426D01*
X282506Y308412D01*
X282509D01*
X282517Y308408D01*
X282531Y308401D01*
X282549Y308394D01*
X282575Y308386D01*
X282600Y308372D01*
X282662Y308343D01*
X282728Y308306D01*
X282797Y308259D01*
X282866Y308205D01*
X282924Y308139D01*
Y308135D01*
X282931Y308132D01*
X282939Y308121D01*
X282946Y308106D01*
X282961Y308088D01*
X282972Y308066D01*
X283001Y308012D01*
X283026Y307946D01*
X283052Y307870D01*
X283066Y307779D01*
X283073Y307680D01*
Y307648D01*
X283070Y307608D01*
X283063Y307560D01*
X283052Y307506D01*
X283037Y307447D01*
X283019Y307385D01*
X282990Y307327D01*
Y307324D01*
X282986Y307320D01*
X282975Y307302D01*
X282957Y307273D01*
X282931Y307236D01*
X282895Y307196D01*
X282855Y307153D01*
X282808Y307113D01*
X282753Y307072D01*
X282746Y307069D01*
X282728Y307054D01*
X282695Y307040D01*
X282648Y307014D01*
X282593Y306992D01*
X282531Y306963D01*
X282458Y306938D01*
X282378Y306916D01*
X282375D01*
X282367Y306912D01*
X282356Y306909D01*
X282338Y306905D01*
X282316Y306901D01*
X282291Y306898D01*
X282258Y306890D01*
X282222Y306887D01*
X282182Y306879D01*
X282138Y306876D01*
X282087Y306872D01*
X282036Y306865D01*
X281978Y306861D01*
X281920D01*
X281854Y306858D01*
X281785D01*
X281781D01*
X281767D01*
X281741D01*
X281712D01*
X281672Y306861D01*
X281628D01*
X281581Y306865D01*
X281530Y306869D01*
X281414Y306879D01*
X281294Y306898D01*
X281177Y306920D01*
X281122Y306934D01*
X281068Y306952D01*
X281064D01*
X281057Y306956D01*
X281042Y306963D01*
X281024Y306971D01*
X280999Y306978D01*
X280973Y306992D01*
X280911Y307021D01*
X280846Y307058D01*
X280773Y307105D01*
X280708Y307160D01*
X280646Y307225D01*
Y307229D01*
X280638Y307233D01*
X280631Y307243D01*
X280624Y307258D01*
X280613Y307276D01*
X280598Y307295D01*
X280573Y307349D01*
X280547Y307415D01*
X280522Y307491D01*
X280507Y307582D01*
X280500Y307680D01*
Y307717D01*
X280504Y307742D01*
X280507Y307771D01*
X280515Y307808D01*
X280522Y307848D01*
X280533Y307891D01*
X280547Y307935D01*
X280562Y307982D01*
X280584Y308030D01*
X280609Y308077D01*
X280638Y308124D01*
X280675Y308172D01*
X280715Y308215D01*
X280758Y308255D01*
X280762Y308259D01*
X280773Y308266D01*
X280791Y308277D01*
X280820Y308295D01*
X280853Y308314D01*
X280897Y308332D01*
X280948Y308357D01*
X281006Y308379D01*
X281071Y308401D01*
X281148Y308423D01*
X281232Y308445D01*
X281326Y308463D01*
X281428Y308481D01*
X281537Y308492D01*
X281658Y308499D01*
X281785Y308503D01*
X281789D01*
X281803D01*
X281829D01*
X281858D01*
X281898Y308499D01*
D02*
G37*
G36*
X281228Y280676D02*
X281224D01*
X281217D01*
X281206Y280672D01*
X281188Y280669D01*
X281148Y280658D01*
X281093Y280643D01*
X281039Y280621D01*
X280977Y280592D01*
X280922Y280556D01*
X280871Y280512D01*
X280868Y280505D01*
X280853Y280490D01*
X280835Y280461D01*
X280813Y280421D01*
X280791Y280378D01*
X280773Y280323D01*
X280758Y280261D01*
X280755Y280192D01*
Y280170D01*
X280758Y280155D01*
X280762Y280112D01*
X280777Y280061D01*
X280795Y279999D01*
X280824Y279937D01*
X280868Y279872D01*
X280893Y279842D01*
X280922Y279813D01*
X280926Y279810D01*
X280929Y279806D01*
X280940Y279799D01*
X280951Y279788D01*
X280991Y279762D01*
X281042Y279733D01*
X281104Y279708D01*
X281181Y279682D01*
X281272Y279664D01*
X281319Y279657D01*
X281370D01*
X281374D01*
X281381D01*
X281395D01*
X281414Y279661D01*
X281435D01*
X281461Y279664D01*
X281519Y279675D01*
X281588Y279693D01*
X281658Y279719D01*
X281723Y279755D01*
X281785Y279806D01*
X281789D01*
X281792Y279813D01*
X281810Y279832D01*
X281836Y279864D01*
X281865Y279908D01*
X281891Y279966D01*
X281916Y280032D01*
X281934Y280108D01*
X281941Y280152D01*
Y280221D01*
X281938Y280250D01*
X281934Y280287D01*
X281923Y280330D01*
X281912Y280374D01*
X281894Y280421D01*
X281872Y280469D01*
X281869Y280472D01*
X281861Y280487D01*
X281843Y280509D01*
X281825Y280538D01*
X281800Y280567D01*
X281767Y280596D01*
X281734Y280629D01*
X281694Y280654D01*
X281734Y280945D01*
X283030Y280701D01*
Y279449D01*
X282735D01*
Y280458D01*
X282054Y280592D01*
X282058Y280589D01*
X282062Y280581D01*
X282069Y280571D01*
X282080Y280552D01*
X282091Y280530D01*
X282105Y280505D01*
X282134Y280447D01*
X282164Y280374D01*
X282189Y280294D01*
X282207Y280206D01*
X282214Y280163D01*
Y280083D01*
X282211Y280061D01*
X282207Y280032D01*
X282204Y279999D01*
X282196Y279963D01*
X282185Y279923D01*
X282160Y279835D01*
X282142Y279788D01*
X282116Y279741D01*
X282091Y279693D01*
X282062Y279646D01*
X282025Y279602D01*
X281985Y279559D01*
X281981Y279555D01*
X281974Y279548D01*
X281963Y279537D01*
X281945Y279522D01*
X281920Y279504D01*
X281894Y279486D01*
X281861Y279464D01*
X281825Y279442D01*
X281785Y279424D01*
X281741Y279402D01*
X281690Y279384D01*
X281639Y279366D01*
X281585Y279351D01*
X281523Y279340D01*
X281461Y279333D01*
X281395Y279329D01*
X281392D01*
X281381D01*
X281363D01*
X281337Y279333D01*
X281308Y279337D01*
X281275Y279340D01*
X281235Y279347D01*
X281195Y279355D01*
X281101Y279377D01*
X281002Y279413D01*
X280951Y279435D01*
X280904Y279464D01*
X280853Y279493D01*
X280806Y279529D01*
X280802Y279533D01*
X280791Y279540D01*
X280777Y279555D01*
X280758Y279573D01*
X280737Y279599D01*
X280708Y279628D01*
X280682Y279664D01*
X280653Y279704D01*
X280624Y279748D01*
X280598Y279799D01*
X280573Y279853D01*
X280547Y279912D01*
X280529Y279974D01*
X280515Y280043D01*
X280504Y280116D01*
X280500Y280192D01*
Y280225D01*
X280504Y280250D01*
X280507Y280279D01*
X280511Y280312D01*
X280515Y280352D01*
X280525Y280392D01*
X280547Y280483D01*
X280580Y280574D01*
X280602Y280621D01*
X280627Y280669D01*
X280657Y280712D01*
X280689Y280756D01*
X280693Y280760D01*
X280697Y280767D01*
X280711Y280774D01*
X280726Y280789D01*
X280744Y280807D01*
X280766Y280825D01*
X280795Y280847D01*
X280828Y280865D01*
X280860Y280887D01*
X280900Y280909D01*
X280988Y280949D01*
X281090Y280982D01*
X281144Y280993D01*
X281203Y281000D01*
X281228Y280676D01*
D02*
G37*
G36*
X283063Y278812D02*
X281232Y278157D01*
X281228D01*
X281221Y278153D01*
X281210Y278150D01*
X281195Y278143D01*
X281173Y278139D01*
X281152Y278132D01*
X281097Y278114D01*
X281035Y278092D01*
X280966Y278070D01*
X280820Y278026D01*
X280824D01*
X280831Y278023D01*
X280842Y278019D01*
X280857Y278015D01*
X280897Y278004D01*
X280951Y277986D01*
X281013Y277968D01*
X281082Y277946D01*
X281155Y277921D01*
X281232Y277891D01*
X283063Y277207D01*
Y276869D01*
X280544Y277851D01*
Y278201D01*
X283063Y279176D01*
Y278812D01*
D02*
G37*
G36*
X281850Y291996D02*
X281883D01*
X281923Y291993D01*
X281963Y291985D01*
X282011Y291982D01*
X282062Y291971D01*
X282116Y291964D01*
X282233Y291934D01*
X282353Y291898D01*
X282473Y291847D01*
X282476Y291844D01*
X282487Y291840D01*
X282502Y291833D01*
X282524Y291818D01*
X282553Y291803D01*
X282582Y291785D01*
X282651Y291734D01*
X282731Y291672D01*
X282808Y291596D01*
X282884Y291509D01*
X282917Y291458D01*
X282950Y291407D01*
X282953Y291403D01*
X282957Y291392D01*
X282964Y291378D01*
X282975Y291356D01*
X282986Y291327D01*
X283001Y291294D01*
X283015Y291257D01*
X283030Y291214D01*
X283044Y291166D01*
X283055Y291115D01*
X283070Y291061D01*
X283081Y291003D01*
X283099Y290875D01*
X283106Y290810D01*
Y290693D01*
X283103Y290671D01*
Y290642D01*
X283095Y290573D01*
X283084Y290497D01*
X283066Y290417D01*
X283044Y290329D01*
X283015Y290246D01*
Y290242D01*
X283012Y290235D01*
X283008Y290224D01*
X283001Y290209D01*
X282979Y290169D01*
X282953Y290118D01*
X282917Y290064D01*
X282873Y290005D01*
X282826Y289951D01*
X282768Y289900D01*
X282760Y289892D01*
X282739Y289878D01*
X282706Y289856D01*
X282659Y289827D01*
X282600Y289798D01*
X282527Y289765D01*
X282447Y289732D01*
X282356Y289707D01*
X282276Y290009D01*
X282280D01*
X282284Y290013D01*
X282295Y290016D01*
X282309Y290020D01*
X282342Y290031D01*
X282385Y290045D01*
X282436Y290067D01*
X282484Y290093D01*
X282535Y290118D01*
X282578Y290151D01*
X282582Y290155D01*
X282597Y290165D01*
X282615Y290187D01*
X282640Y290213D01*
X282669Y290246D01*
X282699Y290289D01*
X282728Y290336D01*
X282753Y290391D01*
X282757Y290398D01*
X282764Y290417D01*
X282775Y290449D01*
X282790Y290493D01*
X282801Y290544D01*
X282811Y290602D01*
X282819Y290668D01*
X282822Y290737D01*
Y290777D01*
X282819Y290795D01*
Y290817D01*
X282815Y290872D01*
X282804Y290933D01*
X282793Y291003D01*
X282775Y291068D01*
X282750Y291134D01*
X282746Y291141D01*
X282739Y291163D01*
X282720Y291192D01*
X282702Y291228D01*
X282673Y291272D01*
X282644Y291319D01*
X282608Y291363D01*
X282568Y291403D01*
X282564Y291407D01*
X282549Y291421D01*
X282524Y291439D01*
X282495Y291461D01*
X282458Y291487D01*
X282415Y291512D01*
X282367Y291538D01*
X282316Y291563D01*
X282313D01*
X282305Y291567D01*
X282295Y291570D01*
X282276Y291578D01*
X282255Y291585D01*
X282229Y291592D01*
X282200Y291603D01*
X282167Y291611D01*
X282091Y291629D01*
X282003Y291643D01*
X281912Y291654D01*
X281810Y291658D01*
X281807D01*
X281796D01*
X281778D01*
X281756Y291654D01*
X281727D01*
X281690Y291651D01*
X281654Y291647D01*
X281614Y291643D01*
X281523Y291629D01*
X281428Y291611D01*
X281334Y291581D01*
X281243Y291545D01*
X281239D01*
X281232Y291538D01*
X281221Y291534D01*
X281206Y291523D01*
X281166Y291498D01*
X281115Y291458D01*
X281061Y291410D01*
X281006Y291352D01*
X280955Y291283D01*
X280908Y291207D01*
Y291203D01*
X280904Y291196D01*
X280897Y291185D01*
X280890Y291166D01*
X280882Y291148D01*
X280875Y291123D01*
X280853Y291065D01*
X280835Y290992D01*
X280817Y290912D01*
X280802Y290824D01*
X280799Y290733D01*
Y290697D01*
X280802Y290675D01*
Y290653D01*
X280809Y290599D01*
X280817Y290533D01*
X280831Y290464D01*
X280853Y290388D01*
X280879Y290311D01*
Y290307D01*
X280882Y290300D01*
X280886Y290293D01*
X280893Y290278D01*
X280911Y290238D01*
X280933Y290195D01*
X280959Y290144D01*
X280988Y290089D01*
X281020Y290038D01*
X281057Y289994D01*
X281530D01*
Y290737D01*
X281829D01*
Y289667D01*
X280893D01*
X280890Y289670D01*
X280886Y289678D01*
X280875Y289692D01*
X280860Y289710D01*
X280846Y289732D01*
X280828Y289758D01*
X280806Y289791D01*
X280784Y289823D01*
X280737Y289900D01*
X280686Y289987D01*
X280638Y290078D01*
X280598Y290176D01*
Y290180D01*
X280595Y290187D01*
X280591Y290202D01*
X280584Y290220D01*
X280576Y290246D01*
X280566Y290275D01*
X280558Y290307D01*
X280551Y290340D01*
X280533Y290420D01*
X280515Y290511D01*
X280504Y290610D01*
X280500Y290711D01*
Y290748D01*
X280504Y290773D01*
Y290806D01*
X280507Y290846D01*
X280515Y290890D01*
X280518Y290937D01*
X280540Y291043D01*
X280566Y291156D01*
X280606Y291272D01*
X280627Y291330D01*
X280657Y291389D01*
X280660Y291392D01*
X280664Y291403D01*
X280675Y291418D01*
X280686Y291439D01*
X280704Y291465D01*
X280722Y291490D01*
X280773Y291560D01*
X280838Y291632D01*
X280919Y291709D01*
X281010Y291782D01*
X281115Y291847D01*
X281119D01*
X281130Y291854D01*
X281144Y291862D01*
X281170Y291873D01*
X281195Y291883D01*
X281232Y291894D01*
X281268Y291909D01*
X281312Y291924D01*
X281359Y291938D01*
X281414Y291953D01*
X281468Y291964D01*
X281526Y291974D01*
X281654Y291993D01*
X281789Y292000D01*
X281792D01*
X281807D01*
X281825D01*
X281850Y291996D01*
D02*
G37*
G36*
X283063Y288837D02*
X281082Y287515D01*
X283063D01*
Y287195D01*
X280544D01*
Y287541D01*
X282520Y288859D01*
X280544D01*
Y289179D01*
X283063D01*
Y288837D01*
D02*
G37*
G36*
Y285666D02*
X283059Y285601D01*
X283055Y285528D01*
X283048Y285455D01*
X283037Y285383D01*
X283026Y285321D01*
Y285317D01*
X283022Y285310D01*
Y285299D01*
X283015Y285284D01*
X283004Y285244D01*
X282986Y285193D01*
X282961Y285135D01*
X282928Y285073D01*
X282892Y285011D01*
X282844Y284953D01*
X282840Y284949D01*
X282837Y284946D01*
X282826Y284935D01*
X282815Y284920D01*
X282779Y284884D01*
X282728Y284840D01*
X282666Y284793D01*
X282593Y284742D01*
X282509Y284695D01*
X282415Y284654D01*
X282411D01*
X282404Y284651D01*
X282389Y284644D01*
X282367Y284640D01*
X282342Y284629D01*
X282313Y284622D01*
X282280Y284614D01*
X282240Y284604D01*
X282200Y284593D01*
X282153Y284585D01*
X282051Y284567D01*
X281938Y284556D01*
X281814Y284553D01*
X281810D01*
X281803D01*
X281785D01*
X281767D01*
X281741Y284556D01*
X281712D01*
X281643Y284560D01*
X281563Y284571D01*
X281479Y284582D01*
X281392Y284600D01*
X281304Y284622D01*
X281301D01*
X281294Y284625D01*
X281283Y284629D01*
X281268Y284633D01*
X281228Y284647D01*
X281177Y284669D01*
X281119Y284691D01*
X281061Y284720D01*
X280999Y284756D01*
X280940Y284793D01*
X280933Y284796D01*
X280915Y284811D01*
X280890Y284833D01*
X280857Y284862D01*
X280820Y284895D01*
X280784Y284935D01*
X280744Y284975D01*
X280711Y285022D01*
X280708Y285029D01*
X280697Y285044D01*
X280682Y285069D01*
X280664Y285106D01*
X280642Y285150D01*
X280624Y285201D01*
X280602Y285259D01*
X280584Y285324D01*
Y285332D01*
X280580Y285342D01*
X280576Y285353D01*
X280573Y285390D01*
X280566Y285441D01*
X280558Y285499D01*
X280551Y285568D01*
X280547Y285645D01*
X280544Y285728D01*
Y286635D01*
X283063D01*
Y285666D01*
D02*
G37*
G36*
Y300532D02*
X283059Y300466D01*
X283055Y300393D01*
X283048Y300321D01*
X283037Y300248D01*
X283026Y300186D01*
Y300182D01*
X283022Y300175D01*
Y300164D01*
X283015Y300150D01*
X283004Y300110D01*
X282986Y300059D01*
X282961Y300000D01*
X282928Y299938D01*
X282892Y299877D01*
X282844Y299818D01*
X282840Y299815D01*
X282837Y299811D01*
X282826Y299800D01*
X282815Y299786D01*
X282779Y299749D01*
X282728Y299706D01*
X282666Y299658D01*
X282593Y299607D01*
X282509Y299560D01*
X282415Y299520D01*
X282411D01*
X282404Y299516D01*
X282389Y299509D01*
X282367Y299505D01*
X282342Y299494D01*
X282313Y299487D01*
X282280Y299480D01*
X282240Y299469D01*
X282200Y299458D01*
X282153Y299451D01*
X282051Y299432D01*
X281938Y299422D01*
X281814Y299418D01*
X281810D01*
X281803D01*
X281785D01*
X281767D01*
X281741Y299422D01*
X281712D01*
X281643Y299425D01*
X281563Y299436D01*
X281479Y299447D01*
X281392Y299465D01*
X281304Y299487D01*
X281301D01*
X281294Y299491D01*
X281283Y299494D01*
X281268Y299498D01*
X281228Y299513D01*
X281177Y299534D01*
X281119Y299556D01*
X281061Y299585D01*
X280999Y299622D01*
X280940Y299658D01*
X280933Y299662D01*
X280915Y299676D01*
X280890Y299698D01*
X280857Y299727D01*
X280820Y299760D01*
X280784Y299800D01*
X280744Y299840D01*
X280711Y299887D01*
X280708Y299895D01*
X280697Y299909D01*
X280682Y299935D01*
X280664Y299971D01*
X280642Y300015D01*
X280624Y300066D01*
X280602Y300124D01*
X280584Y300190D01*
Y300197D01*
X280580Y300208D01*
X280576Y300219D01*
X280573Y300255D01*
X280566Y300306D01*
X280558Y300364D01*
X280551Y300433D01*
X280547Y300510D01*
X280544Y300594D01*
Y301500D01*
X283063D01*
Y300532D01*
D02*
G37*
G36*
X281829Y299058D02*
X281872D01*
X281923Y299050D01*
X281985Y299043D01*
X282054Y299032D01*
X282127Y299018D01*
X282204Y299003D01*
X282284Y298981D01*
X282364Y298952D01*
X282447Y298919D01*
X282527Y298883D01*
X282608Y298835D01*
X282680Y298785D01*
X282750Y298726D01*
X282753Y298723D01*
X282764Y298712D01*
X282782Y298690D01*
X282804Y298664D01*
X282833Y298632D01*
X282862Y298592D01*
X282895Y298544D01*
X282928Y298490D01*
X282961Y298431D01*
X282993Y298366D01*
X283022Y298293D01*
X283052Y298217D01*
X283073Y298133D01*
X283092Y298046D01*
X283103Y297955D01*
X283106Y297856D01*
Y297824D01*
X283103Y297798D01*
Y297765D01*
X283099Y297733D01*
X283092Y297689D01*
X283084Y297645D01*
X283066Y297551D01*
X283037Y297441D01*
X282993Y297336D01*
X282968Y297281D01*
X282939Y297227D01*
X282935Y297223D01*
X282931Y297216D01*
X282921Y297201D01*
X282910Y297179D01*
X282892Y297158D01*
X282870Y297128D01*
X282819Y297066D01*
X282753Y297001D01*
X282673Y296928D01*
X282578Y296859D01*
X282473Y296801D01*
X282469D01*
X282458Y296794D01*
X282444Y296786D01*
X282422Y296779D01*
X282393Y296764D01*
X282360Y296753D01*
X282320Y296739D01*
X282276Y296724D01*
X282229Y296713D01*
X282178Y296699D01*
X282120Y296684D01*
X282062Y296673D01*
X281934Y296659D01*
X281796Y296652D01*
X281792D01*
X281778D01*
X281759D01*
X281730Y296655D01*
X281698D01*
X281658Y296659D01*
X281614Y296666D01*
X281567Y296670D01*
X281461Y296688D01*
X281345Y296717D01*
X281228Y296757D01*
X281170Y296779D01*
X281112Y296808D01*
X281108D01*
X281097Y296815D01*
X281082Y296823D01*
X281061Y296837D01*
X281035Y296852D01*
X281010Y296870D01*
X280940Y296921D01*
X280868Y296983D01*
X280791Y297056D01*
X280718Y297143D01*
X280653Y297245D01*
Y297249D01*
X280646Y297256D01*
X280638Y297274D01*
X280627Y297296D01*
X280616Y297321D01*
X280606Y297350D01*
X280591Y297387D01*
X280576Y297427D01*
X280562Y297470D01*
X280547Y297518D01*
X280525Y297623D01*
X280507Y297736D01*
X280500Y297856D01*
Y297893D01*
X280504Y297915D01*
Y297947D01*
X280511Y297984D01*
X280515Y298024D01*
X280522Y298071D01*
X280544Y298169D01*
X280573Y298275D01*
X280616Y298384D01*
X280642Y298439D01*
X280671Y298493D01*
X280675Y298497D01*
X280678Y298504D01*
X280689Y298519D01*
X280704Y298541D01*
X280718Y298563D01*
X280740Y298588D01*
X280795Y298650D01*
X280860Y298719D01*
X280940Y298792D01*
X281031Y298857D01*
X281137Y298919D01*
X281141D01*
X281152Y298926D01*
X281166Y298934D01*
X281188Y298941D01*
X281217Y298952D01*
X281250Y298963D01*
X281286Y298977D01*
X281326Y298988D01*
X281374Y299003D01*
X281421Y299018D01*
X281530Y299039D01*
X281643Y299054D01*
X281767Y299061D01*
X281770D01*
X281774D01*
X281796D01*
X281829Y299058D01*
D02*
G37*
G36*
X474199Y260093D02*
X473677D01*
X471662Y263112D01*
Y260093D01*
X471174D01*
Y263933D01*
X471701D01*
X473710Y260920D01*
Y263933D01*
X474199D01*
Y260093D01*
D02*
G37*
G36*
X476630Y263994D02*
X476680D01*
X476741Y263989D01*
X476807Y263978D01*
X476879Y263972D01*
X477040Y263939D01*
X477212Y263900D01*
X477390Y263839D01*
X477479Y263806D01*
X477568Y263761D01*
X477573Y263756D01*
X477590Y263750D01*
X477612Y263734D01*
X477645Y263717D01*
X477684Y263689D01*
X477723Y263661D01*
X477828Y263584D01*
X477939Y263484D01*
X478056Y263362D01*
X478167Y263223D01*
X478267Y263062D01*
Y263056D01*
X478278Y263040D01*
X478289Y263018D01*
X478306Y262979D01*
X478322Y262940D01*
X478339Y262884D01*
X478361Y262829D01*
X478383Y262762D01*
X478406Y262690D01*
X478428Y262607D01*
X478444Y262524D01*
X478461Y262435D01*
X478489Y262241D01*
X478500Y262035D01*
Y262030D01*
Y262007D01*
Y261980D01*
X478494Y261941D01*
Y261891D01*
X478489Y261830D01*
X478478Y261769D01*
X478472Y261697D01*
X478456Y261619D01*
X478444Y261536D01*
X478400Y261358D01*
X478345Y261175D01*
X478267Y260992D01*
X478261Y260986D01*
X478256Y260970D01*
X478245Y260947D01*
X478223Y260914D01*
X478200Y260870D01*
X478172Y260825D01*
X478095Y260720D01*
X478000Y260598D01*
X477884Y260481D01*
X477751Y260365D01*
X477673Y260315D01*
X477595Y260265D01*
X477590Y260259D01*
X477573Y260254D01*
X477551Y260243D01*
X477518Y260226D01*
X477473Y260209D01*
X477423Y260187D01*
X477368Y260165D01*
X477301Y260143D01*
X477229Y260121D01*
X477151Y260104D01*
X477068Y260082D01*
X476979Y260065D01*
X476785Y260037D01*
X476685Y260026D01*
X476508D01*
X476474Y260032D01*
X476430D01*
X476324Y260043D01*
X476208Y260059D01*
X476086Y260087D01*
X475952Y260121D01*
X475825Y260165D01*
X475819D01*
X475808Y260171D01*
X475792Y260176D01*
X475769Y260187D01*
X475708Y260220D01*
X475631Y260259D01*
X475547Y260315D01*
X475459Y260381D01*
X475375Y260454D01*
X475298Y260542D01*
X475286Y260553D01*
X475264Y260587D01*
X475231Y260637D01*
X475187Y260709D01*
X475142Y260798D01*
X475092Y260909D01*
X475042Y261031D01*
X475003Y261170D01*
X475464Y261292D01*
Y261286D01*
X475470Y261280D01*
X475475Y261264D01*
X475481Y261242D01*
X475497Y261192D01*
X475520Y261125D01*
X475553Y261047D01*
X475592Y260975D01*
X475631Y260897D01*
X475681Y260831D01*
X475686Y260825D01*
X475703Y260803D01*
X475736Y260775D01*
X475775Y260737D01*
X475825Y260692D01*
X475891Y260648D01*
X475964Y260603D01*
X476047Y260564D01*
X476058Y260559D01*
X476086Y260548D01*
X476136Y260531D01*
X476202Y260509D01*
X476280Y260492D01*
X476369Y260476D01*
X476469Y260465D01*
X476574Y260459D01*
X476635D01*
X476663Y260465D01*
X476696D01*
X476780Y260470D01*
X476874Y260487D01*
X476979Y260504D01*
X477079Y260531D01*
X477179Y260570D01*
X477190Y260576D01*
X477223Y260587D01*
X477268Y260614D01*
X477323Y260642D01*
X477390Y260687D01*
X477462Y260731D01*
X477529Y260787D01*
X477590Y260848D01*
X477595Y260853D01*
X477618Y260875D01*
X477645Y260914D01*
X477679Y260959D01*
X477717Y261014D01*
X477756Y261081D01*
X477795Y261153D01*
X477834Y261230D01*
Y261236D01*
X477840Y261247D01*
X477845Y261264D01*
X477856Y261292D01*
X477867Y261325D01*
X477878Y261364D01*
X477895Y261408D01*
X477906Y261458D01*
X477934Y261575D01*
X477956Y261708D01*
X477973Y261847D01*
X477978Y262002D01*
Y262007D01*
Y262024D01*
Y262052D01*
X477973Y262085D01*
Y262130D01*
X477967Y262185D01*
X477962Y262241D01*
X477956Y262302D01*
X477934Y262440D01*
X477906Y262585D01*
X477862Y262729D01*
X477806Y262868D01*
Y262873D01*
X477795Y262884D01*
X477790Y262901D01*
X477773Y262923D01*
X477734Y262984D01*
X477673Y263062D01*
X477601Y263145D01*
X477512Y263229D01*
X477407Y263306D01*
X477290Y263378D01*
X477284D01*
X477273Y263384D01*
X477257Y263395D01*
X477229Y263406D01*
X477201Y263417D01*
X477162Y263428D01*
X477074Y263462D01*
X476963Y263489D01*
X476840Y263517D01*
X476707Y263539D01*
X476569Y263545D01*
X476513D01*
X476480Y263539D01*
X476446D01*
X476363Y263528D01*
X476263Y263517D01*
X476158Y263495D01*
X476041Y263462D01*
X475925Y263423D01*
X475919D01*
X475908Y263417D01*
X475897Y263412D01*
X475875Y263401D01*
X475814Y263373D01*
X475747Y263339D01*
X475669Y263301D01*
X475586Y263256D01*
X475508Y263206D01*
X475442Y263151D01*
Y262429D01*
X476574D01*
Y261974D01*
X474942D01*
Y263401D01*
X474948Y263406D01*
X474959Y263412D01*
X474981Y263428D01*
X475009Y263451D01*
X475042Y263473D01*
X475081Y263500D01*
X475131Y263534D01*
X475181Y263567D01*
X475298Y263639D01*
X475431Y263717D01*
X475570Y263789D01*
X475719Y263850D01*
X475725D01*
X475736Y263856D01*
X475758Y263861D01*
X475786Y263872D01*
X475825Y263883D01*
X475869Y263900D01*
X475919Y263911D01*
X475969Y263922D01*
X476091Y263950D01*
X476230Y263978D01*
X476380Y263994D01*
X476535Y264000D01*
X476591D01*
X476630Y263994D01*
D02*
G37*
G36*
X470319Y260093D02*
X468843D01*
X468743Y260098D01*
X468632Y260104D01*
X468521Y260115D01*
X468410Y260132D01*
X468316Y260148D01*
X468310D01*
X468299Y260154D01*
X468282D01*
X468260Y260165D01*
X468199Y260182D01*
X468121Y260209D01*
X468033Y260248D01*
X467938Y260298D01*
X467844Y260354D01*
X467755Y260426D01*
X467750Y260431D01*
X467744Y260437D01*
X467727Y260454D01*
X467705Y260470D01*
X467650Y260526D01*
X467583Y260603D01*
X467511Y260698D01*
X467433Y260809D01*
X467361Y260936D01*
X467300Y261081D01*
Y261086D01*
X467295Y261097D01*
X467283Y261120D01*
X467278Y261153D01*
X467261Y261192D01*
X467250Y261236D01*
X467239Y261286D01*
X467222Y261347D01*
X467206Y261408D01*
X467195Y261480D01*
X467167Y261636D01*
X467150Y261808D01*
X467145Y261996D01*
Y262002D01*
Y262013D01*
Y262041D01*
Y262069D01*
X467150Y262107D01*
Y262152D01*
X467156Y262257D01*
X467172Y262379D01*
X467189Y262507D01*
X467217Y262640D01*
X467250Y262773D01*
Y262779D01*
X467256Y262790D01*
X467261Y262807D01*
X467267Y262829D01*
X467289Y262890D01*
X467322Y262968D01*
X467356Y263056D01*
X467400Y263145D01*
X467455Y263240D01*
X467511Y263328D01*
X467517Y263339D01*
X467539Y263367D01*
X467572Y263406D01*
X467616Y263456D01*
X467666Y263512D01*
X467727Y263567D01*
X467789Y263628D01*
X467861Y263678D01*
X467872Y263684D01*
X467894Y263700D01*
X467933Y263722D01*
X467988Y263750D01*
X468055Y263784D01*
X468133Y263811D01*
X468221Y263845D01*
X468321Y263872D01*
X468332D01*
X468349Y263878D01*
X468366Y263883D01*
X468421Y263889D01*
X468499Y263900D01*
X468588Y263911D01*
X468693Y263922D01*
X468810Y263928D01*
X468937Y263933D01*
X470319D01*
Y260093D01*
D02*
G37*
%LPC*%
G36*
X307813Y416152D02*
X307687D01*
X307657Y416144D01*
X307568Y416137D01*
X307457Y416115D01*
X307339Y416078D01*
X307213Y416018D01*
X307080Y415944D01*
X306962Y415841D01*
X306947Y415826D01*
X306910Y415782D01*
X306865Y415715D01*
X306799Y415612D01*
X306740Y415493D01*
X306680Y415338D01*
X306629Y415160D01*
X306592Y414960D01*
X308708D01*
Y414968D01*
Y414983D01*
Y415012D01*
X308701Y415057D01*
X308693Y415101D01*
X308686Y415153D01*
X308664Y415278D01*
X308627Y415419D01*
X308582Y415567D01*
X308516Y415708D01*
X308427Y415834D01*
Y415841D01*
X308412Y415848D01*
X308382Y415885D01*
X308323Y415937D01*
X308249Y415996D01*
X308146Y416048D01*
X308027Y416100D01*
X307887Y416137D01*
X307813Y416152D01*
D02*
G37*
G36*
X286552Y414775D02*
X283814D01*
X283807Y414768D01*
X283763Y414746D01*
X283748Y414738D01*
X283726Y414723D01*
X283689Y414709D01*
X283659Y414694D01*
Y413998D01*
X286552D01*
Y414775D01*
D02*
G37*
G36*
Y413732D02*
X283659D01*
Y412962D01*
X286552D01*
Y413732D01*
D02*
G37*
G36*
X331241Y408653D02*
X329517D01*
Y408638D01*
X329532Y408608D01*
X329546Y408549D01*
X329569Y408475D01*
X329598Y408386D01*
X329635Y408290D01*
X329680Y408172D01*
X329731Y408053D01*
X329850Y407794D01*
X329990Y407528D01*
X330064Y407395D01*
X330153Y407269D01*
X330242Y407150D01*
X330338Y407047D01*
X330346Y407054D01*
X330360Y407076D01*
X330390Y407106D01*
X330427Y407150D01*
X330479Y407210D01*
X330531Y407284D01*
X330590Y407365D01*
X330656Y407461D01*
X330723Y407565D01*
X330797Y407683D01*
X330871Y407816D01*
X330952Y407964D01*
X331026Y408120D01*
X331100Y408283D01*
X331174Y408460D01*
X331241Y408653D01*
D02*
G37*
G36*
X343207Y410776D02*
X341845D01*
Y409844D01*
X343207D01*
Y410776D01*
D02*
G37*
G36*
X340461D02*
X339115D01*
Y409844D01*
X340461D01*
Y410776D01*
D02*
G37*
G36*
X334046Y409629D02*
X333032D01*
Y409245D01*
X334046D01*
Y409629D01*
D02*
G37*
G36*
X337213Y410577D02*
X336169D01*
Y410569D01*
X336155Y410540D01*
X336147Y410532D01*
X336132Y410510D01*
Y410503D01*
X336140Y410488D01*
X336155Y410458D01*
X336169Y410414D01*
X336192Y410369D01*
X336221Y410318D01*
X336280Y410192D01*
X336362Y410051D01*
X336451Y409903D01*
X336554Y409770D01*
X336673Y409644D01*
X336680Y409652D01*
X336687Y409659D01*
X336732Y409703D01*
X336791Y409770D01*
X336872Y409874D01*
X336917Y409933D01*
X336961Y410007D01*
X337006Y410081D01*
X337050Y410162D01*
X337094Y410258D01*
X337131Y410355D01*
X337176Y410466D01*
X337213Y410577D01*
D02*
G37*
G36*
X324522Y408423D02*
X321532D01*
X321540Y408416D01*
X321562Y408408D01*
X321599Y408386D01*
X321651Y408364D01*
X321717Y408334D01*
X321791Y408297D01*
X321873Y408260D01*
X321969Y408216D01*
X322072Y408172D01*
X322176Y408127D01*
X322413Y408038D01*
X322672Y407950D01*
X322931Y407876D01*
X322938D01*
X322968Y407883D01*
X323005Y407898D01*
X323057Y407913D01*
X323131Y407927D01*
X323212Y407950D01*
X323301Y407979D01*
X323404Y408009D01*
X323523Y408046D01*
X323641Y408090D01*
X323774Y408135D01*
X323915Y408179D01*
X324211Y408290D01*
X324522Y408423D01*
D02*
G37*
G36*
X292924Y408423D02*
X290711D01*
X290719Y408416D01*
X290726Y408386D01*
X290748Y408334D01*
X290785Y408268D01*
X290822Y408194D01*
X290867Y408105D01*
X290926Y408001D01*
X290985Y407898D01*
X291059Y407779D01*
X291133Y407661D01*
X291311Y407424D01*
X291510Y407195D01*
X291621Y407084D01*
X291740Y406980D01*
X291747Y406988D01*
X291769Y407002D01*
X291806Y407032D01*
X291851Y407076D01*
X291910Y407128D01*
X291984Y407187D01*
X292058Y407261D01*
X292147Y407350D01*
X292236Y407446D01*
X292332Y407557D01*
X292428Y407676D01*
X292524Y407802D01*
X292628Y407942D01*
X292731Y408090D01*
X292828Y408253D01*
X292924Y408423D01*
D02*
G37*
G36*
X340484Y407180D02*
X339115D01*
Y406233D01*
X340484D01*
Y407180D01*
D02*
G37*
G36*
X343236D02*
X341853D01*
Y406233D01*
X343236D01*
Y407180D01*
D02*
G37*
G36*
X319061Y410769D02*
X316382D01*
Y406329D01*
X319061D01*
Y410769D01*
D02*
G37*
%LPD*%
G36*
X317899Y410406D02*
Y410392D01*
Y410369D01*
Y410332D01*
Y410288D01*
Y410244D01*
Y410118D01*
Y409977D01*
X317891Y409814D01*
Y409644D01*
X317884Y409467D01*
X318765D01*
Y409185D01*
X317869D01*
Y409171D01*
Y409134D01*
X317862Y409067D01*
X317854Y408986D01*
Y408978D01*
Y408971D01*
Y408949D01*
X317847Y408919D01*
X317840Y408845D01*
X317825Y408756D01*
X317810Y408653D01*
X317795Y408542D01*
X317773Y408431D01*
X317743Y408327D01*
X317943Y408453D01*
X317951Y408445D01*
X317965Y408423D01*
X317988Y408386D01*
X318017Y408342D01*
X318062Y408283D01*
X318106Y408209D01*
X318165Y408127D01*
X318224Y408038D01*
X318284Y407942D01*
X318350Y407839D01*
X318498Y407617D01*
X318654Y407380D01*
X318809Y407136D01*
X318535Y406965D01*
X318528Y406973D01*
X318520Y406995D01*
X318498Y407032D01*
X318469Y407084D01*
X318432Y407143D01*
X318395Y407210D01*
X318343Y407291D01*
X318291Y407380D01*
X318173Y407580D01*
X318032Y407794D01*
X317884Y408024D01*
X317729Y408260D01*
Y408253D01*
X317721Y408231D01*
X317706Y408186D01*
X317684Y408135D01*
X317662Y408068D01*
X317625Y407987D01*
X317588Y407898D01*
X317536Y407802D01*
X317484Y407698D01*
X317418Y407580D01*
X317344Y407461D01*
X317262Y407343D01*
X317174Y407210D01*
X317070Y407084D01*
X316959Y406951D01*
X316833Y406817D01*
X316826Y406825D01*
X316811Y406840D01*
X316789Y406862D01*
X316759Y406891D01*
X316685Y406965D01*
X316596Y407047D01*
X316604Y407054D01*
X316633Y407084D01*
X316678Y407128D01*
X316737Y407195D01*
X316804Y407276D01*
X316885Y407365D01*
X316966Y407476D01*
X317055Y407602D01*
X317137Y407742D01*
X317225Y407890D01*
X317307Y408046D01*
X317381Y408223D01*
X317447Y408401D01*
X317499Y408593D01*
X317536Y408793D01*
X317558Y409000D01*
Y409008D01*
Y409015D01*
X317566Y409060D01*
Y409119D01*
Y409185D01*
X316678D01*
Y409467D01*
X317581D01*
Y409474D01*
Y409496D01*
Y409526D01*
X317588Y409570D01*
Y409622D01*
Y409689D01*
Y409829D01*
Y409837D01*
Y409844D01*
Y409866D01*
X317595Y409896D01*
Y409970D01*
Y410059D01*
Y410066D01*
Y410081D01*
Y410110D01*
Y410147D01*
Y410192D01*
Y410258D01*
Y410325D01*
Y410414D01*
X317899D01*
Y410406D01*
D02*
G37*
%LPC*%
G36*
X337006Y406581D02*
X333187D01*
Y406122D01*
X337006D01*
Y406581D01*
D02*
G37*
G36*
X286893Y402463D02*
X283215D01*
Y401146D01*
X286893D01*
Y402463D01*
D02*
G37*
G36*
X281581Y310276D02*
Y309424D01*
X282273Y309686D01*
X282276D01*
X282287Y309690D01*
X282305Y309697D01*
X282327Y309704D01*
X282353Y309715D01*
X282385Y309726D01*
X282422Y309737D01*
X282458Y309752D01*
X282542Y309781D01*
X282629Y309810D01*
X282717Y309839D01*
X282801Y309864D01*
X282797D01*
X282790Y309868D01*
X282775D01*
X282760Y309875D01*
X282735Y309879D01*
X282710Y309886D01*
X282648Y309901D01*
X282575Y309919D01*
X282495Y309944D01*
X282407Y309970D01*
X282316Y310003D01*
X281581Y310276D01*
D02*
G37*
G36*
X281785Y308186D02*
X281778D01*
X281759D01*
X281727D01*
X281683Y308183D01*
X281636D01*
X281577Y308179D01*
X281516Y308175D01*
X281450Y308168D01*
X281308Y308150D01*
X281239Y308139D01*
X281173Y308124D01*
X281112Y308110D01*
X281053Y308088D01*
X281002Y308066D01*
X280959Y308041D01*
X280955D01*
X280951Y308033D01*
X280926Y308015D01*
X280893Y307982D01*
X280857Y307942D01*
X280820Y307888D01*
X280788Y307826D01*
X280762Y307757D01*
X280758Y307720D01*
X280755Y307680D01*
Y307659D01*
X280758Y307644D01*
X280766Y307608D01*
X280780Y307557D01*
X280806Y307502D01*
X280842Y307440D01*
X280864Y307411D01*
X280893Y307382D01*
X280922Y307353D01*
X280959Y307324D01*
X280962D01*
X280970Y307316D01*
X280980Y307309D01*
X280999Y307302D01*
X281024Y307287D01*
X281057Y307276D01*
X281093Y307262D01*
X281137Y307247D01*
X281192Y307236D01*
X281250Y307222D01*
X281319Y307207D01*
X281392Y307196D01*
X281479Y307189D01*
X281570Y307182D01*
X281672Y307174D01*
X281785D01*
X281789D01*
X281792D01*
X281810D01*
X281843D01*
X281887Y307178D01*
X281934D01*
X281992Y307182D01*
X282054Y307185D01*
X282123Y307193D01*
X282262Y307211D01*
X282331Y307222D01*
X282396Y307236D01*
X282458Y307251D01*
X282517Y307273D01*
X282568Y307295D01*
X282611Y307320D01*
X282615D01*
X282618Y307327D01*
X282629Y307334D01*
X282644Y307345D01*
X282677Y307378D01*
X282717Y307418D01*
X282753Y307473D01*
X282786Y307535D01*
X282801Y307568D01*
X282811Y307604D01*
X282815Y307644D01*
X282819Y307684D01*
Y307706D01*
X282815Y307720D01*
X282808Y307760D01*
X282797Y307808D01*
X282775Y307862D01*
X282742Y307921D01*
X282720Y307950D01*
X282699Y307979D01*
X282669Y308004D01*
X282637Y308030D01*
X282633D01*
X282626Y308037D01*
X282611Y308044D01*
X282593Y308055D01*
X282564Y308066D01*
X282531Y308081D01*
X282491Y308092D01*
X282444Y308106D01*
X282389Y308121D01*
X282327Y308135D01*
X282258Y308150D01*
X282182Y308161D01*
X282094Y308172D01*
X282000Y308179D01*
X281898Y308183D01*
X281785Y308186D01*
D02*
G37*
G36*
X282764Y286300D02*
X280842D01*
Y285703D01*
X280846Y285677D01*
X280849Y285623D01*
X280853Y285561D01*
X280860Y285495D01*
X280871Y285430D01*
X280886Y285375D01*
X280890Y285368D01*
X280893Y285350D01*
X280904Y285324D01*
X280919Y285292D01*
X280940Y285255D01*
X280962Y285219D01*
X280988Y285182D01*
X281017Y285146D01*
X281024Y285142D01*
X281039Y285128D01*
X281064Y285106D01*
X281101Y285080D01*
X281148Y285051D01*
X281203Y285018D01*
X281264Y284989D01*
X281334Y284964D01*
X281337D01*
X281345Y284960D01*
X281355Y284957D01*
X281370Y284953D01*
X281388Y284949D01*
X281414Y284942D01*
X281439Y284935D01*
X281468Y284928D01*
X281541Y284917D01*
X281625Y284906D01*
X281719Y284898D01*
X281821Y284895D01*
X281825D01*
X281839D01*
X281858D01*
X281887Y284898D01*
X281920D01*
X281956Y284902D01*
X282000Y284906D01*
X282043Y284909D01*
X282142Y284928D01*
X282244Y284949D01*
X282338Y284982D01*
X282385Y285004D01*
X282426Y285026D01*
X282429D01*
X282436Y285033D01*
X282447Y285040D01*
X282462Y285048D01*
X282498Y285077D01*
X282542Y285113D01*
X282589Y285160D01*
X282637Y285215D01*
X282677Y285277D01*
X282710Y285342D01*
X282713Y285350D01*
X282717Y285368D01*
X282728Y285401D01*
X282739Y285448D01*
X282746Y285506D01*
X282757Y285579D01*
X282760Y285623D01*
Y285670D01*
X282764Y285717D01*
Y286300D01*
D02*
G37*
G36*
Y301165D02*
X280842D01*
Y300568D01*
X280846Y300543D01*
X280849Y300488D01*
X280853Y300426D01*
X280860Y300361D01*
X280871Y300295D01*
X280886Y300241D01*
X280890Y300233D01*
X280893Y300215D01*
X280904Y300190D01*
X280919Y300157D01*
X280940Y300120D01*
X280962Y300084D01*
X280988Y300048D01*
X281017Y300011D01*
X281024Y300008D01*
X281039Y299993D01*
X281064Y299971D01*
X281101Y299946D01*
X281148Y299917D01*
X281203Y299884D01*
X281264Y299855D01*
X281334Y299829D01*
X281337D01*
X281345Y299826D01*
X281355Y299822D01*
X281370Y299818D01*
X281388Y299815D01*
X281414Y299807D01*
X281439Y299800D01*
X281468Y299793D01*
X281541Y299782D01*
X281625Y299771D01*
X281719Y299764D01*
X281821Y299760D01*
X281825D01*
X281839D01*
X281858D01*
X281887Y299764D01*
X281920D01*
X281956Y299767D01*
X282000Y299771D01*
X282043Y299775D01*
X282142Y299793D01*
X282244Y299815D01*
X282338Y299847D01*
X282385Y299869D01*
X282426Y299891D01*
X282429D01*
X282436Y299898D01*
X282447Y299906D01*
X282462Y299913D01*
X282498Y299942D01*
X282542Y299978D01*
X282589Y300026D01*
X282637Y300080D01*
X282677Y300142D01*
X282710Y300208D01*
X282713Y300215D01*
X282717Y300233D01*
X282728Y300266D01*
X282739Y300313D01*
X282746Y300372D01*
X282757Y300444D01*
X282760Y300488D01*
Y300535D01*
X282764Y300583D01*
Y301165D01*
D02*
G37*
G36*
X281763Y298719D02*
X281759D01*
X281745D01*
X281719D01*
X281687Y298715D01*
X281650Y298712D01*
X281607Y298705D01*
X281556Y298697D01*
X281505Y298690D01*
X281388Y298661D01*
X281330Y298639D01*
X281268Y298617D01*
X281210Y298588D01*
X281152Y298555D01*
X281097Y298519D01*
X281046Y298475D01*
X281042Y298471D01*
X281035Y298464D01*
X281020Y298450D01*
X281006Y298431D01*
X280984Y298406D01*
X280962Y298377D01*
X280940Y298344D01*
X280915Y298308D01*
X280890Y298264D01*
X280868Y298217D01*
X280846Y298166D01*
X280824Y298111D01*
X280809Y298053D01*
X280795Y297995D01*
X280788Y297929D01*
X280784Y297860D01*
Y297842D01*
X280788Y297824D01*
Y297798D01*
X280791Y297765D01*
X280799Y297729D01*
X280806Y297685D01*
X280817Y297642D01*
X280831Y297591D01*
X280849Y297543D01*
X280868Y297489D01*
X280893Y297438D01*
X280926Y297387D01*
X280959Y297336D01*
X280999Y297285D01*
X281046Y297238D01*
X281050Y297234D01*
X281057Y297227D01*
X281075Y297216D01*
X281097Y297198D01*
X281122Y297179D01*
X281155Y297161D01*
X281195Y297139D01*
X281239Y297114D01*
X281290Y297092D01*
X281348Y297070D01*
X281410Y297052D01*
X281475Y297030D01*
X281548Y297016D01*
X281628Y297005D01*
X281712Y296997D01*
X281800Y296994D01*
X281803D01*
X281814D01*
X281829D01*
X281850D01*
X281876Y296997D01*
X281909D01*
X281941Y297001D01*
X281981Y297008D01*
X282065Y297019D01*
X282153Y297037D01*
X282247Y297063D01*
X282335Y297099D01*
X282338D01*
X282346Y297103D01*
X282356Y297110D01*
X282371Y297117D01*
X282415Y297143D01*
X282466Y297176D01*
X282524Y297219D01*
X282582Y297274D01*
X282640Y297336D01*
X282691Y297405D01*
Y297409D01*
X282699Y297412D01*
X282702Y297423D01*
X282713Y297441D01*
X282720Y297460D01*
X282731Y297481D01*
X282757Y297536D01*
X282779Y297602D01*
X282801Y297678D01*
X282815Y297765D01*
X282819Y297856D01*
Y297889D01*
X282815Y297915D01*
X282811Y297947D01*
X282804Y297980D01*
X282797Y298020D01*
X282790Y298064D01*
X282760Y298159D01*
X282739Y298209D01*
X282717Y298260D01*
X282688Y298315D01*
X282655Y298366D01*
X282618Y298417D01*
X282575Y298464D01*
X282571Y298468D01*
X282564Y298475D01*
X282549Y298486D01*
X282527Y298504D01*
X282502Y298522D01*
X282469Y298544D01*
X282429Y298566D01*
X282382Y298592D01*
X282331Y298614D01*
X282269Y298639D01*
X282204Y298661D01*
X282131Y298679D01*
X282051Y298697D01*
X281960Y298708D01*
X281865Y298715D01*
X281763Y298719D01*
D02*
G37*
G36*
X469809Y263478D02*
X468898D01*
X468860Y263473D01*
X468776Y263467D01*
X468682Y263462D01*
X468582Y263451D01*
X468482Y263434D01*
X468399Y263412D01*
X468388Y263406D01*
X468360Y263401D01*
X468321Y263384D01*
X468271Y263362D01*
X468216Y263328D01*
X468160Y263295D01*
X468105Y263256D01*
X468049Y263212D01*
X468044Y263201D01*
X468022Y263179D01*
X467988Y263140D01*
X467949Y263084D01*
X467905Y263012D01*
X467855Y262929D01*
X467811Y262835D01*
X467772Y262729D01*
Y262723D01*
X467766Y262712D01*
X467761Y262696D01*
X467755Y262673D01*
X467750Y262646D01*
X467738Y262607D01*
X467727Y262568D01*
X467716Y262524D01*
X467700Y262413D01*
X467683Y262285D01*
X467672Y262141D01*
X467666Y261985D01*
Y261980D01*
Y261958D01*
Y261930D01*
X467672Y261885D01*
Y261836D01*
X467677Y261780D01*
X467683Y261713D01*
X467689Y261647D01*
X467716Y261497D01*
X467750Y261342D01*
X467800Y261197D01*
X467833Y261125D01*
X467866Y261064D01*
Y261058D01*
X467877Y261047D01*
X467888Y261031D01*
X467900Y261009D01*
X467944Y260953D01*
X467999Y260886D01*
X468072Y260814D01*
X468155Y260742D01*
X468249Y260681D01*
X468349Y260631D01*
X468360Y260626D01*
X468388Y260620D01*
X468438Y260603D01*
X468510Y260587D01*
X468599Y260576D01*
X468710Y260559D01*
X468776Y260553D01*
X468849D01*
X468921Y260548D01*
X469809D01*
Y263478D01*
D02*
G37*
%LPD*%
D10*
X319333Y252562D02*
G03*
X319333Y252562I-17717J0D01*
G01*
X234609Y278673D02*
G03*
X234609Y266444I-9172J-6115D01*
G01*
X434310Y397800D02*
G03*
X434310Y397800I-1118J0D01*
G01*
X464890Y315269D02*
G03*
X464890Y303039I-9172J-6115D01*
G01*
X464890Y290988D02*
G03*
X464890Y278759I-9172J-6115D01*
G01*
X224343Y308611D02*
G03*
X224343Y296263I7203J-6174D01*
G01*
X265733Y324455D02*
G03*
X265733Y336803I-7203J6174D01*
G01*
X234609Y266444D02*
Y278673D01*
X191260Y284451D02*
Y323425D01*
Y284451D02*
X200260Y284451D01*
X200260Y323425D01*
X191260Y323425D02*
X200260Y323425D01*
X460778Y332310D02*
Y395302D01*
X433219Y336247D02*
Y391365D01*
X425345Y340184D02*
Y387428D01*
X374164Y340184D02*
X425345D01*
X374164D02*
Y387428D01*
X425345Y387428D01*
X456841Y336247D02*
Y359869D01*
X445030D02*
X456841D01*
X445030D02*
Y363806D01*
X456841D01*
Y367743D01*
X445030D02*
X456841D01*
X445030D02*
Y371680D01*
X456841D01*
Y375617D01*
X445030D02*
X456841D01*
X445030D02*
Y379554D01*
X456841D01*
Y383491D01*
X437156Y383491D02*
X456841Y383491D01*
X437156Y344121D02*
Y383491D01*
X430978Y332310D02*
X460778D01*
X430978Y395300D02*
X460778Y395300D01*
X423104Y332310D02*
X423647D01*
X415230D02*
X415773D01*
X407356D02*
X407899D01*
X399482D02*
X400025D01*
X391608D02*
X392151D01*
X383734D02*
X384277D01*
X375860D02*
X376403D01*
X366299D02*
Y340462D01*
Y332310D02*
X368529D01*
X366299Y347794D02*
Y348336D01*
Y355668D02*
Y356207D01*
Y363539D02*
Y364084D01*
Y371416D02*
Y371953D01*
Y379285D02*
Y379819D01*
Y395300D02*
X368529D01*
X366299Y387151D02*
Y395300D01*
X375860Y395300D02*
X376403Y395300D01*
X383734Y395300D02*
X384277Y395300D01*
X391608D02*
X392151D01*
X399482D02*
X400025Y395300D01*
X407356Y395300D02*
X407899Y395300D01*
X415230Y395300D02*
X415773D01*
X423104D02*
X423647D01*
X374443Y401078D02*
X413443D01*
X377197Y415643D02*
X377199Y415645D01*
X413443Y401078D02*
X413445Y408983D01*
X374445Y409115D02*
Y415645D01*
X374443Y401078D02*
X374445Y409115D01*
X413443Y415645D02*
X413445Y408983D01*
X374445Y415645D02*
X413443D01*
X467611Y277626D02*
Y316600D01*
Y277626D02*
X476611D01*
Y316600D01*
X467611D02*
X476611D01*
X464890Y303039D02*
Y315269D01*
X464890Y278759D02*
Y290988D01*
X422217Y277600D02*
Y316599D01*
X428878Y316600D01*
X428747Y277600D02*
X436784Y277598D01*
X422217Y277600D02*
X428747D01*
X428878Y316600D02*
X436784Y316598D01*
X422217Y280354D02*
X422219Y280352D01*
X436784Y277598D02*
Y316598D01*
X478000Y258500D02*
X478500Y258500D01*
X398500D02*
X478500D01*
X468407Y248500D02*
Y258500D01*
X398500Y248500D02*
X478500D01*
X398500D02*
Y258500D01*
X478500Y248500D02*
Y258500D01*
X346700Y259200D02*
X350300D01*
X345000Y257500D02*
X346700Y259200D01*
X345000Y252250D02*
Y257500D01*
X352000Y252250D02*
Y257500D01*
X350300Y259200D02*
X352000Y257500D01*
X345330Y249560D02*
X351810D01*
X345000Y237250D02*
X352000D01*
Y243750D01*
X345000Y237250D02*
Y243750D01*
X345450Y246360D02*
X348650Y249560D01*
X345450Y246360D02*
X351620D01*
X348580Y249400D02*
X351620Y246360D01*
X355117Y236000D02*
Y245000D01*
X404117D01*
X404117Y236000D02*
X404117Y245000D01*
X355117Y236000D02*
X404117D01*
X180786Y380177D02*
X214786D01*
X214786Y372757D01*
X180786Y365177D02*
X180786Y380177D01*
X214786Y365177D02*
Y372757D01*
X180786Y365177D02*
X214786Y365177D01*
X194804Y400566D02*
X194804Y399106D01*
X187914Y400566D02*
X194804Y400566D01*
X182115Y404236D02*
X182115Y410305D01*
X182115Y425380D02*
X182115Y419983D01*
X217312Y404210D02*
Y410330D01*
Y419958D02*
Y425380D01*
X204635Y398830D02*
Y400577D01*
X184875Y394573D02*
X185024Y394573D01*
X214403Y394573D02*
X215241D01*
X182115Y425380D02*
X217312D01*
X204635Y400577D02*
X211525Y400577D01*
X391501Y409500D02*
X391001Y410000D01*
X390001D01*
X389501Y409500D01*
Y409000D01*
X390001Y408500D01*
X391001D01*
X391501Y408000D01*
Y407500D01*
X391001Y407000D01*
X390001D01*
X389501Y407500D01*
X392500Y410000D02*
Y407000D01*
X393500Y408000D01*
X394500Y407000D01*
Y410000D01*
X397499Y407000D02*
X395499D01*
X397499Y409000D01*
Y409500D01*
X396999Y410000D01*
X395999D01*
X395499Y409500D01*
X446501Y411000D02*
Y414000D01*
X448000D01*
X448500Y413500D01*
Y412500D01*
X448000Y412000D01*
X446501D01*
X449500Y414000D02*
X451499D01*
Y413500D01*
X449500Y411500D01*
Y411000D01*
X357001Y247500D02*
Y250500D01*
X358500D01*
X359000Y250000D01*
Y249000D01*
X358500Y248500D01*
X357001D01*
X361499Y247500D02*
Y250500D01*
X360000Y249000D01*
X361999D01*
X256001Y319500D02*
X255501Y320000D01*
X254501D01*
X254001Y319500D01*
Y317500D01*
X254501Y317001D01*
X255501D01*
X256001Y317500D01*
X259000Y320000D02*
X257000D01*
Y317001D01*
X259000D01*
X257000Y318500D02*
X258000D01*
X261499Y317001D02*
Y320000D01*
X259999Y318500D01*
X261999D01*
X359001Y260501D02*
Y263499D01*
X360500D01*
X361000Y263000D01*
Y262000D01*
X360500Y261500D01*
X359001D01*
X362000Y263000D02*
X362500Y263499D01*
X363499D01*
X363999Y263000D01*
Y262500D01*
X363499Y262000D01*
X363000D01*
X363499D01*
X363999Y261500D01*
Y261000D01*
X363499Y260501D01*
X362500D01*
X362000Y261000D01*
X190001Y325500D02*
Y328500D01*
X191500D01*
X192000Y328000D01*
Y327000D01*
X191500Y326500D01*
X190001D01*
X194999Y325500D02*
X193000D01*
X194999Y327500D01*
Y328000D01*
X194499Y328500D01*
X193500D01*
X193000Y328000D01*
X342001Y316499D02*
X344000Y313500D01*
Y316499D02*
X342001Y313500D01*
X346999D02*
X345000D01*
X346999Y315500D01*
Y316000D01*
X346499Y316499D01*
X345500D01*
X345000Y316000D01*
X319001Y300999D02*
X321000Y298001D01*
Y300999D02*
X319001Y298001D01*
X322000D02*
X322999D01*
X322499D01*
Y300999D01*
X322000Y300500D01*
X193002Y415499D02*
Y413000D01*
X193502Y412500D01*
X194502D01*
X195001Y413000D01*
Y415499D01*
X198001Y415000D02*
X197501Y415499D01*
X196501D01*
X196001Y415000D01*
Y414500D01*
X196501Y414000D01*
X197501D01*
X198001Y413500D01*
Y413000D01*
X197501Y412500D01*
X196501D01*
X196001Y413000D01*
X199000Y415499D02*
Y412500D01*
X200500D01*
X200999Y413000D01*
Y413500D01*
X200500Y414000D01*
X199000D01*
X200500D01*
X200999Y414500D01*
Y415000D01*
X200500Y415499D01*
X199000D01*
X203998Y415000D02*
X203499Y415499D01*
X202499D01*
X201999Y415000D01*
Y413000D01*
X202499Y412500D01*
X203499D01*
X203998Y413000D01*
X204998Y412500D02*
X205998D01*
X205498D01*
Y415499D01*
X204998Y415000D01*
X395114Y364016D02*
Y361516D01*
X395614Y361017D01*
X396614D01*
X397114Y361516D01*
Y364016D01*
X398113D02*
X400113D01*
Y363516D01*
X398113Y361516D01*
Y361017D01*
X331501Y377999D02*
Y375500D01*
X332001Y375001D01*
X333000D01*
X333500Y375500D01*
Y377999D01*
X336499D02*
X335500Y377500D01*
X334500Y376500D01*
Y375500D01*
X335000Y375001D01*
X335999D01*
X336499Y375500D01*
Y376000D01*
X335999Y376500D01*
X334500D01*
X222501Y353500D02*
Y351000D01*
X223001Y350500D01*
X224000D01*
X224500Y351000D01*
Y353500D01*
X227499D02*
X225500D01*
Y352000D01*
X226500Y352500D01*
X226999D01*
X227499Y352000D01*
Y351000D01*
X226999Y350500D01*
X226000D01*
X225500Y351000D01*
X384501Y292499D02*
Y290000D01*
X385001Y289500D01*
X386000D01*
X386500Y290000D01*
Y292499D01*
X387500Y292000D02*
X388000Y292499D01*
X388999D01*
X389499Y292000D01*
Y291500D01*
X388999Y291000D01*
X388499D01*
X388999D01*
X389499Y290500D01*
Y290000D01*
X388999Y289500D01*
X388000D01*
X387500Y290000D01*
X295501Y378999D02*
Y376500D01*
X296001Y376000D01*
X297000D01*
X297500Y376500D01*
Y378999D01*
X300499Y376000D02*
X298500D01*
X300499Y378000D01*
Y378500D01*
X299999Y378999D01*
X299000D01*
X298500Y378500D01*
X241900Y313899D02*
Y311400D01*
X242400Y310900D01*
X243400D01*
X243899Y311400D01*
Y313899D01*
X244899Y310900D02*
X245899D01*
X245399D01*
Y313899D01*
X244899Y313399D01*
X409001Y247000D02*
X411000D01*
X410000D01*
Y244001D01*
X412000D02*
X412999D01*
X412500D01*
Y247000D01*
X412000Y246500D01*
X428000Y291500D02*
X427501Y292000D01*
X426501D01*
X426001Y291500D01*
Y291000D01*
X426501Y290500D01*
X427501D01*
X428000Y290000D01*
Y289500D01*
X427501Y289001D01*
X426501D01*
X426001Y289500D01*
X429000Y292000D02*
Y289001D01*
X430000Y290000D01*
X431000Y289001D01*
Y292000D01*
X431999Y289001D02*
X432999D01*
X432499D01*
Y292000D01*
X431999Y291500D01*
X298001Y312500D02*
X297501Y313000D01*
X296501D01*
X296002Y312500D01*
Y312000D01*
X296501Y311500D01*
X297501D01*
X298001Y311000D01*
Y310500D01*
X297501Y310000D01*
X296501D01*
X296002Y310500D01*
X300500Y310000D02*
X299500D01*
X299001Y310500D01*
Y311500D01*
X299500Y312000D01*
X300500D01*
X301000Y311500D01*
Y311000D01*
X299001D01*
X302000Y310000D02*
Y312000D01*
X303499D01*
X303999Y311500D01*
Y310000D01*
X304999D02*
X305998D01*
X305499D01*
Y313000D01*
X304999Y312500D01*
X192500Y369500D02*
X192000Y370000D01*
X191000D01*
X190501Y369500D01*
Y369000D01*
X191000Y368500D01*
X192000D01*
X192500Y368000D01*
Y367500D01*
X192000Y367001D01*
X191000D01*
X190501Y367500D01*
X193500Y367001D02*
X194499D01*
X194000D01*
Y370000D01*
X193500Y369500D01*
X331001Y275001D02*
Y277999D01*
X332501D01*
X333001Y277500D01*
Y276500D01*
X332501Y276000D01*
X331001D01*
X332001D02*
X333001Y275001D01*
X336000D02*
X334000D01*
X336000Y277000D01*
Y277500D01*
X335500Y277999D01*
X334500D01*
X334000Y277500D01*
X338499Y275001D02*
Y277999D01*
X336999Y276500D01*
X338999D01*
X353779Y275963D02*
Y278962D01*
X355279D01*
X355779Y278462D01*
Y277462D01*
X355279Y276962D01*
X353779D01*
X354779D02*
X355779Y275963D01*
X358778D02*
X356778D01*
X358778Y277962D01*
Y278462D01*
X358278Y278962D01*
X357278D01*
X356778Y278462D01*
X359777D02*
X360277Y278962D01*
X361277D01*
X361777Y278462D01*
Y277962D01*
X361277Y277462D01*
X360777D01*
X361277D01*
X361777Y276962D01*
Y276463D01*
X361277Y275963D01*
X360277D01*
X359777Y276463D01*
X326000Y243000D02*
Y245000D01*
X325500Y245499D01*
X324501D01*
X324001Y245000D01*
Y243000D01*
X324501Y242500D01*
X325500D01*
X325001Y243500D02*
X326000Y242500D01*
X325500D02*
X326000Y243000D01*
X327000Y245000D02*
X327500Y245499D01*
X328499D01*
X328999Y245000D01*
Y244500D01*
X328499Y244000D01*
X327999D01*
X328499D01*
X328999Y243500D01*
Y243000D01*
X328499Y242500D01*
X327500D01*
X327000Y243000D01*
X478001Y290500D02*
Y293499D01*
X479500D01*
X480000Y293000D01*
Y292000D01*
X479500Y291500D01*
X478001D01*
X482999Y293499D02*
X481999Y293000D01*
X481000Y292000D01*
Y291000D01*
X481500Y290500D01*
X482499D01*
X482999Y291000D01*
Y291500D01*
X482499Y292000D01*
X481000D01*
X364000Y252001D02*
X361000D01*
Y253500D01*
X361500Y254000D01*
X362500D01*
X363000Y253500D01*
Y252001D01*
X361000Y256999D02*
Y255000D01*
X362500D01*
X362000Y255999D01*
Y256499D01*
X362500Y256999D01*
X363500D01*
X364000Y256499D01*
Y255500D01*
X363500Y255000D01*
X220001Y384501D02*
Y387499D01*
X221500D01*
X222000Y387000D01*
Y386000D01*
X221500Y385500D01*
X220001D01*
X223000Y384501D02*
X223999D01*
X223499D01*
Y387499D01*
X223000Y387000D01*
X450002Y324999D02*
Y322001D01*
X452001D01*
X455000Y324999D02*
X453001D01*
Y322001D01*
X455000D01*
X453001Y323500D02*
X454001D01*
X456000Y324999D02*
Y322001D01*
X457499D01*
X457999Y322500D01*
Y324500D01*
X457499Y324999D01*
X456000D01*
X458999Y324500D02*
X459499Y324999D01*
X460498D01*
X460998Y324500D01*
Y324000D01*
X460498Y323500D01*
X459999D01*
X460498D01*
X460998Y323000D01*
Y322500D01*
X460498Y322001D01*
X459499D01*
X458999Y322500D01*
X449502Y271000D02*
Y268001D01*
X451501D01*
X454500Y271000D02*
X452501D01*
Y268001D01*
X454500D01*
X452501Y269500D02*
X453501D01*
X455500Y271000D02*
Y268001D01*
X456999D01*
X457499Y268500D01*
Y270500D01*
X456999Y271000D01*
X455500D01*
X460498Y268001D02*
X458499D01*
X460498Y270000D01*
Y270500D01*
X459998Y271000D01*
X458999D01*
X458499Y270500D01*
X220502Y259500D02*
Y256501D01*
X222501D01*
X225500Y259500D02*
X223501D01*
Y256501D01*
X225500D01*
X223501Y258000D02*
X224500D01*
X226500Y259500D02*
Y256501D01*
X227999D01*
X228499Y257000D01*
Y259000D01*
X227999Y259500D01*
X226500D01*
X229499Y256501D02*
X230498D01*
X229998D01*
Y259500D01*
X229499Y259000D01*
X353501Y256999D02*
Y254000D01*
X355000D01*
X355500Y254500D01*
Y256500D01*
X355000Y256999D01*
X353501D01*
X358499Y254000D02*
X356500D01*
X358499Y256000D01*
Y256500D01*
X357999Y256999D01*
X357000D01*
X356500Y256500D01*
X260001Y383500D02*
X259501Y383999D01*
X258501D01*
X258001Y383500D01*
Y381500D01*
X258501Y381000D01*
X259501D01*
X260001Y381500D01*
X263000Y383999D02*
X261000D01*
Y381000D01*
X263000D01*
X261000Y382500D02*
X262000D01*
X265999Y383999D02*
X263999D01*
Y382500D01*
X264999Y383000D01*
X265499D01*
X265999Y382500D01*
Y381500D01*
X265499Y381000D01*
X264499D01*
X263999Y381500D01*
X208501Y354000D02*
X208001Y354500D01*
X207001D01*
X206501Y354000D01*
Y352000D01*
X207001Y351501D01*
X208001D01*
X208501Y352000D01*
X211500Y354500D02*
X209500D01*
Y351501D01*
X211500D01*
X209500Y353000D02*
X210500D01*
X212499Y354000D02*
X212999Y354500D01*
X213999D01*
X214499Y354000D01*
Y353500D01*
X213999Y353000D01*
X213499D01*
X213999D01*
X214499Y352500D01*
Y352000D01*
X213999Y351501D01*
X212999D01*
X212499Y352000D01*
X267001Y261000D02*
X266501Y261500D01*
X265501D01*
X265001Y261000D01*
Y259000D01*
X265501Y258501D01*
X266501D01*
X267001Y259000D01*
X270000Y261500D02*
X268000D01*
Y258501D01*
X270000D01*
X268000Y260000D02*
X269000D01*
X272999Y258501D02*
X270999D01*
X272999Y260500D01*
Y261000D01*
X272499Y261500D01*
X271499D01*
X270999Y261000D01*
X230501Y315500D02*
X230001Y316000D01*
X229001D01*
X228501Y315500D01*
Y313500D01*
X229001Y313000D01*
X230001D01*
X230501Y313500D01*
X233500Y316000D02*
X231500D01*
Y313000D01*
X233500D01*
X231500Y314500D02*
X232500D01*
X234499Y313000D02*
X235499D01*
X234999D01*
Y316000D01*
X234499Y315500D01*
X294003Y252999D02*
Y250001D01*
X295503D01*
X296002Y250500D01*
Y251000D01*
X295503Y251500D01*
X294003D01*
X295503D01*
X296002Y252000D01*
Y252500D01*
X295503Y252999D01*
X294003D01*
X297002Y252000D02*
Y250500D01*
X297502Y250001D01*
X299002D01*
Y252000D01*
X300001D02*
X302000D01*
X300001Y250001D01*
X302000D01*
X303000Y252000D02*
X304999D01*
X303000Y250001D01*
X304999D01*
X307499D02*
X306499D01*
X305999Y250500D01*
Y251500D01*
X306499Y252000D01*
X307499D01*
X307998Y251500D01*
Y251000D01*
X305999D01*
X308998Y252000D02*
Y250001D01*
Y251000D01*
X309498Y251500D01*
X309998Y252000D01*
X310498D01*
X311997Y250001D02*
X312997D01*
X312497D01*
Y252999D01*
X311997Y252500D01*
D11*
X378337Y304423D02*
G03*
X378337Y304423I-1181J0D01*
G01*
D12*
X368593Y311116D02*
G03*
X368593Y311116I-492J0D01*
G01*
X343415Y250876D02*
G03*
X343415Y250876I-492J0D01*
G01*
D13*
X335200Y286614D02*
G03*
X353506Y286622I9153J-98D01*
G01*
X353506Y311615D02*
G03*
X335200Y311607I-9153J98D01*
G01*
X353507Y286622D02*
Y311615D01*
X335200Y311607D02*
X335200Y286614D01*
X349451Y274146D02*
X356651D01*
Y260760D02*
Y274146D01*
X349451Y260760D02*
X356651D01*
X349451D02*
Y274146D01*
X340799Y260857D02*
X347999D01*
X340799D02*
Y274243D01*
X347999D01*
Y260857D02*
Y274243D01*
D14*
X287313Y391840D02*
G03*
X287313Y391840I-591J0D01*
G01*
X294609Y388957D02*
G03*
X294609Y388957I-591J0D01*
G01*
X323079Y391840D02*
G03*
X323079Y391840I-591J0D01*
G01*
X330376Y388957D02*
G03*
X330376Y388957I-591J0D01*
G01*
D15*
X248501Y262861D02*
G03*
X248501Y242262I14419J-10300D01*
G01*
X240985Y385042D02*
G03*
X240985Y364443I14419J-10300D01*
G01*
X190035Y355133D02*
G03*
X190035Y334534I14419J-10300D01*
G01*
D16*
X279455Y252562D02*
G03*
X279455Y252562I-16535J0D01*
G01*
X240208Y302437D02*
G03*
X240208Y302437I-8661J0D01*
G01*
X267191Y330629D02*
G03*
X267191Y330629I-8661J0D01*
G01*
X271940Y374743D02*
G03*
X271940Y374743I-16535J0D01*
G01*
X220989Y344833D02*
G03*
X220989Y344833I-16535J0D01*
G01*
X320130Y312512D02*
G03*
X323280Y312512I1575J0D01*
G01*
X373219Y286707D02*
X394873D01*
X373219Y308361D02*
X394873D01*
Y286707D02*
Y308361D01*
X373219Y286707D02*
Y308361D01*
X284000Y275000D02*
Y314000D01*
X294000D01*
Y275000D02*
Y314000D01*
X284000Y275000D02*
X294000D01*
X330724Y241620D02*
X333874D01*
X330724D02*
Y245163D01*
X339385Y241620D02*
X342535Y241620D01*
X342535Y245163D01*
X246420Y253062D02*
X246672D01*
X262920Y236814D02*
Y269062D01*
X258920Y268562D02*
X262920Y264562D01*
X255920Y267562D02*
X262920Y260562D01*
X253420Y266062D02*
X262920Y256562D01*
X251420Y264062D02*
X262920Y252562D01*
X249420Y262062D02*
X262920Y248562D01*
X247920Y259562D02*
X262920Y244562D01*
X246920Y256562D02*
X262920Y240562D01*
X246672Y253062D02*
X262920Y236814D01*
X246420Y249062D02*
X258920Y236562D01*
X262920Y236062D02*
Y236814D01*
X231546Y310311D02*
Y310937D01*
X222859Y301624D02*
X231546Y310311D01*
Y293937D02*
Y310311D01*
X228015Y294968D02*
X231546Y298500D01*
X225546Y296437D02*
X231546Y302437D01*
X224078Y298905D02*
X231546Y306374D01*
X258529Y322129D02*
Y322755D01*
X267216Y331442D01*
X258529Y322755D02*
Y339129D01*
Y334566D02*
X262061Y338097D01*
X258529Y330629D02*
X264529Y336629D01*
X258529Y326692D02*
X265998Y334160D01*
X238905Y375242D02*
X239157D01*
X255405Y358995D02*
Y391243D01*
X251405Y390742D02*
X255405Y386742D01*
X248405Y389742D02*
X255405Y382743D01*
X245905Y388243D02*
X255405Y378743D01*
X243905Y386243D02*
X255405Y374743D01*
X241905Y384243D02*
X255405Y370743D01*
X240405Y381743D02*
X255405Y366742D01*
X239405Y378743D02*
X255405Y362742D01*
X239157Y375242D02*
X255405Y358995D01*
X238905Y371242D02*
X251405Y358742D01*
X255405Y358243D02*
Y358995D01*
X187954Y345333D02*
X188206D01*
X204454Y329085D02*
X204454Y361333D01*
X200454Y360833D02*
X204454Y356833D01*
X197454Y359833D02*
X204454Y352833D01*
X194954Y358333D02*
X204454Y348833D01*
X192954Y356333D02*
X204454Y344833D01*
X190954Y354333D02*
X204454Y340833D01*
X189454Y351833D02*
X204454Y336833D01*
X188454Y348833D02*
X204454Y332833D01*
X188206Y345333D02*
X204454Y329085D01*
X187954Y341333D02*
X200454Y328833D01*
X204454Y329085D02*
X204454Y328333D01*
D17*
X365797Y248074D02*
X393848D01*
X365797Y256139D02*
X393848D01*
X393848Y248074D01*
X365797D02*
X365797Y256139D01*
X416043Y416412D02*
X444094D01*
X416043Y408347D02*
X444094D01*
X416043Y416412D02*
X416043Y408347D01*
X444094D02*
X444094Y416412D01*
X365606Y257726D02*
X393658D01*
X365606Y265791D02*
X393658D01*
X393658Y257726D01*
X365606D02*
X365606Y265791D01*
X218174Y364874D02*
X226076D01*
X218174Y383132D02*
X226076D01*
X218174Y364874D02*
Y383132D01*
X226076D02*
X226076Y364874D01*
D18*
X340353Y300114D02*
X348353D01*
X340353Y298114D02*
Y300114D01*
Y298114D02*
X348353D01*
Y300114D01*
X340353Y301614D02*
X348353D01*
X340353Y296615D02*
X348353D01*
X344353Y293615D02*
Y296615D01*
Y301614D02*
Y304614D01*
X291056Y351472D02*
Y391442D01*
Y351472D02*
X305005D01*
Y391442D01*
X291056D02*
X305005D01*
X326823Y351472D02*
Y391442D01*
Y351472D02*
X340771D01*
Y391442D01*
X326823D02*
X340771D01*
X223072Y348399D02*
X249262D01*
X249262Y336813D01*
X223072D02*
X249262D01*
X223072D02*
X223072Y348399D01*
X241209Y284920D02*
X267400D01*
X241209Y296505D02*
X241209Y284920D01*
X241209Y296505D02*
X267400D01*
X267400Y284920D02*
X267400Y296505D01*
X314200Y311012D02*
Y312760D01*
Y289138D02*
Y304886D01*
Y281264D02*
Y283312D01*
X329160Y281264D02*
Y283312D01*
Y289138D02*
Y304886D01*
Y310912D02*
Y312760D01*
X314200Y312760D02*
X329160Y312760D01*
X314200Y281264D02*
X329160D01*
M02*
