G04*
G04 #@! TF.GenerationSoftware,Altium Limited,Altium Designer,23.3.1 (30)*
G04*
G04 Layer_Color=16711935*
%FSLAX25Y25*%
%MOIN*%
G70*
G04*
G04 #@! TF.SameCoordinates,0926E253-2B7E-4DA0-91A0-339D2320E812*
G04*
G04*
G04 #@! TF.FilePolarity,Positive*
G04*
G01*
G75*
%ADD17C,0.00394*%
D17*
X398540Y324145D02*
G03*
X398540Y324145I-1969J0D01*
G01*
X375778Y307770D02*
G03*
X375778Y307770I-1969J0D01*
G01*
X329259Y263291D02*
G03*
X329259Y263291I-1969J0D01*
G01*
X393028Y339893D02*
X393028Y320601D01*
X408382D02*
Y339893D01*
X393028Y320601D02*
X408382D01*
X393028Y339893D02*
X408382D01*
X382290Y377357D02*
X387408D01*
X382290Y365546D02*
X387408Y365546D01*
X387408Y377357D02*
X387408Y365546D01*
X382290Y365546D02*
Y377357D01*
X382322Y379362D02*
X387440D01*
X382322Y391173D02*
X387440D01*
X382322Y379362D02*
Y391173D01*
X387440Y379362D02*
Y391173D01*
X370266Y283754D02*
X397826D01*
X370266Y311313D02*
X397826D01*
Y283754D02*
Y311313D01*
X370266Y283754D02*
Y311313D01*
X330378Y246448D02*
Y266133D01*
X316204Y246448D02*
Y266133D01*
X330378D01*
X316204Y246448D02*
X330378D01*
X308378Y338243D02*
Y343361D01*
X296567Y338243D02*
Y343361D01*
Y338243D02*
X308378D01*
X296567Y343361D02*
X308378D01*
X322141Y337612D02*
X322141Y332493D01*
X310330D02*
X310330Y337612D01*
X310330Y332493D02*
X322141D01*
X310330Y337612D02*
X322141D01*
X330718Y246935D02*
X330718Y241817D01*
X342530D02*
Y246935D01*
X330718Y241817D02*
X342530D01*
X330718Y246935D02*
X342530D01*
M02*
