G04*
G04 #@! TF.GenerationSoftware,Altium Limited,Altium Designer,23.3.1 (30)*
G04*
G04 Layer_Color=255*
%FSLAX25Y25*%
%MOIN*%
G70*
G04*
G04 #@! TF.SameCoordinates,0926E253-2B7E-4DA0-91A0-339D2320E812*
G04*
G04*
G04 #@! TF.FilePolarity,Positive*
G04*
G01*
G75*
%ADD27R,0.05000X0.03500*%
G04:AMPARAMS|DCode=28|XSize=55mil|YSize=50mil|CornerRadius=0mil|HoleSize=0mil|Usage=FLASHONLY|Rotation=90.000|XOffset=0mil|YOffset=0mil|HoleType=Round|Shape=Octagon|*
%AMOCTAGOND28*
4,1,8,0.01250,0.02750,-0.01250,0.02750,-0.02500,0.01500,-0.02500,-0.01500,-0.01250,-0.02750,0.01250,-0.02750,0.02500,-0.01500,0.02500,0.01500,0.01250,0.02750,0.0*
%
%ADD28OCTAGOND28*%

%ADD29R,0.05000X0.05500*%
%ADD30R,0.01968X0.04724*%
%ADD75C,0.06000*%
%ADD76C,0.06693*%
%ADD77R,0.06693X0.06693*%
%ADD78C,0.05118*%
%ADD79C,0.05906*%
%ADD80R,0.05906X0.05906*%
%ADD81R,0.07087X0.07087*%
%ADD82C,0.07087*%
%ADD83R,0.04724X0.04724*%
%ADD84C,0.04724*%
%ADD85O,0.04724X0.09055*%
%ADD86O,0.04724X0.07874*%
%ADD87C,0.02953*%
%ADD88C,0.12598*%
%ADD90R,0.03500X0.05000*%
%ADD91O,0.08661X0.02362*%
%ADD92R,0.04724X0.01968*%
%ADD93O,0.07087X0.02165*%
%ADD94R,0.07087X0.02165*%
D27*
X290051Y330080D02*
D03*
X290051Y322600D02*
D03*
X412705Y284649D02*
D03*
Y292130D02*
D03*
X442007Y292130D02*
D03*
Y284650D02*
D03*
X442007Y308464D02*
D03*
X442007Y300984D02*
D03*
X420120Y338185D02*
D03*
X420120Y330705D02*
D03*
X364738Y391548D02*
D03*
X364738Y399029D02*
D03*
X355285Y308687D02*
D03*
Y316168D02*
D03*
Y292460D02*
D03*
Y299940D02*
D03*
X351014Y263736D02*
D03*
X351014Y256255D02*
D03*
X342656Y256278D02*
D03*
X342656Y263759D02*
D03*
X333798Y388318D02*
D03*
Y380838D02*
D03*
X333903Y366467D02*
D03*
Y373947D02*
D03*
X327969Y300752D02*
D03*
X327969Y293272D02*
D03*
X315391Y300752D02*
D03*
X315391Y293272D02*
D03*
X298885Y277959D02*
D03*
Y285440D02*
D03*
X314012Y346553D02*
D03*
X314012Y354033D02*
D03*
X298000Y366500D02*
D03*
X298000Y373980D02*
D03*
X297789Y388974D02*
D03*
Y381494D02*
D03*
X232074Y362780D02*
D03*
Y370260D02*
D03*
X174928Y374363D02*
D03*
Y381843D02*
D03*
X241933Y272532D02*
D03*
X241933Y265052D02*
D03*
X412705Y308464D02*
D03*
X412705Y300984D02*
D03*
D28*
X290051Y352435D02*
D03*
D29*
Y338935D02*
D03*
D30*
X302473Y336302D02*
D03*
X306213Y345302D02*
D03*
X298733D02*
D03*
X316235Y330552D02*
D03*
X319976Y339552D02*
D03*
X312495Y339552D02*
D03*
D75*
X379823Y252062D02*
D03*
X389823D02*
D03*
X369823D02*
D03*
X301617Y242719D02*
D03*
Y262404D02*
D03*
X195760Y318951D02*
D03*
X195820Y308930D02*
D03*
Y288930D02*
D03*
Y298952D02*
D03*
X289000Y279500D02*
D03*
Y289500D02*
D03*
Y299500D02*
D03*
Y309500D02*
D03*
X430068Y412425D02*
D03*
X420068D02*
D03*
X440068D02*
D03*
X472111Y312126D02*
D03*
X472172Y302106D02*
D03*
Y282106D02*
D03*
Y292127D02*
D03*
X379633Y261713D02*
D03*
X389633D02*
D03*
X369633D02*
D03*
X399637Y240561D02*
D03*
X379637Y240561D02*
D03*
X389616D02*
D03*
X359617Y240500D02*
D03*
X369617Y240500D02*
D03*
X222174Y369003D02*
D03*
Y379003D02*
D03*
X207786Y373177D02*
D03*
X197786D02*
D03*
X187786D02*
D03*
D76*
X230437Y272558D02*
D03*
X460717Y309154D02*
D03*
X460717Y284874D02*
D03*
D77*
X220437Y272558D02*
D03*
X450717Y309154D02*
D03*
X450717Y284874D02*
D03*
D78*
X344353Y308563D02*
D03*
Y289666D02*
D03*
D79*
X423500Y253500D02*
D03*
X413500D02*
D03*
X403500D02*
D03*
X463500D02*
D03*
X453500D02*
D03*
X443500D02*
D03*
X433500D02*
D03*
D80*
X473500D02*
D03*
D81*
X269810Y252562D02*
D03*
X262294Y374743D02*
D03*
X211344Y344833D02*
D03*
D82*
X256030Y252562D02*
D03*
X248515Y374743D02*
D03*
X197564Y344833D02*
D03*
D83*
X234499Y302437D02*
D03*
X255577Y330629D02*
D03*
D84*
X228593Y302437D02*
D03*
X261482Y330629D02*
D03*
D85*
X217774Y398805D02*
D03*
X182341Y398805D02*
D03*
D86*
X182342Y415144D02*
D03*
X217775Y415144D02*
D03*
D87*
X188336Y400774D02*
D03*
X211092D02*
D03*
D88*
X492500Y240500D02*
D03*
X169000Y239000D02*
D03*
X491000Y412500D02*
D03*
X167500Y411000D02*
D03*
D90*
X400259Y272000D02*
D03*
X407740Y272000D02*
D03*
X305231Y250029D02*
D03*
X297750Y250029D02*
D03*
X471257Y268903D02*
D03*
X463777Y268903D02*
D03*
X420414Y295802D02*
D03*
X427895Y295802D02*
D03*
X426949Y322796D02*
D03*
X419468Y322796D02*
D03*
X420894Y345948D02*
D03*
X413413D02*
D03*
X394860Y349000D02*
D03*
X402340D02*
D03*
X379260Y349000D02*
D03*
X386740Y349000D02*
D03*
X419473Y403167D02*
D03*
X426954Y403167D02*
D03*
X434456Y403200D02*
D03*
X441937D02*
D03*
X390013Y408660D02*
D03*
X397493D02*
D03*
X411908Y382772D02*
D03*
X404428Y382772D02*
D03*
X404445Y374095D02*
D03*
X396965D02*
D03*
X373027Y374095D02*
D03*
X365547Y374095D02*
D03*
X373303Y384089D02*
D03*
X365823D02*
D03*
X373259Y325500D02*
D03*
X380740Y325500D02*
D03*
X339738Y318588D02*
D03*
X347218D02*
D03*
X347118Y299520D02*
D03*
X339638D02*
D03*
X339738Y281322D02*
D03*
X347218Y281322D02*
D03*
X343397Y247924D02*
D03*
X350877Y247924D02*
D03*
X335000Y241000D02*
D03*
X327520D02*
D03*
X311966Y240904D02*
D03*
X319446D02*
D03*
X327147Y271885D02*
D03*
X319666D02*
D03*
X320544Y322843D02*
D03*
X313064D02*
D03*
X298572Y328634D02*
D03*
X306052Y328634D02*
D03*
X298600Y353456D02*
D03*
X306080D02*
D03*
X234173Y288820D02*
D03*
X226693D02*
D03*
X211829Y288935D02*
D03*
X219310D02*
D03*
X204454Y385234D02*
D03*
X211934D02*
D03*
X185644Y385234D02*
D03*
X193124Y385234D02*
D03*
X261300Y344098D02*
D03*
X253820Y344098D02*
D03*
X380854Y269517D02*
D03*
X388334Y269517D02*
D03*
X366499Y269815D02*
D03*
X373979D02*
D03*
D91*
X391256Y322747D02*
D03*
Y327747D02*
D03*
Y332747D02*
D03*
Y337747D02*
D03*
X410154Y322747D02*
D03*
Y327747D02*
D03*
Y332747D02*
D03*
Y337747D02*
D03*
D92*
X389350Y371452D02*
D03*
X380349Y375192D02*
D03*
X380349Y367712D02*
D03*
X380381Y385268D02*
D03*
X389381Y381527D02*
D03*
Y389008D02*
D03*
D93*
X312956Y248791D02*
D03*
Y253791D02*
D03*
Y258791D02*
D03*
Y263791D02*
D03*
X333626Y248791D02*
D03*
Y253791D02*
D03*
Y258791D02*
D03*
D94*
Y263791D02*
D03*
M02*
