M48
;Layer_Color=9474304
;FILE_FORMAT=2:5
INCH,TZ
;TYPE=PLATED
T1F00S00C0.01200
T2F00S00C0.02362
T4F00S00C0.03000
T6F00S00C0.03543
T7F00S00C0.03600
T8F00S00C0.03937
;TYPE=NON_PLATED
T9F00S00C0.02953
T10F00S00C0.12598
%
T01
X326296Y248343
X339000Y271500
X355400Y287665
X362077Y286423
X361317Y291255
X361500Y294250
X361070Y308430
X377853Y300318
X384340Y300907
X383500Y297000
X380500Y295000
X392664Y296516
X390406Y299751
X390257Y302747
X406500Y305016
X406643Y308532
X429500Y306500
X434290Y307553
X434500Y295785
X432717Y279966
X436000Y264500
X463740Y262500
X395027Y275224
X391738Y275345
X386675Y275401
X322417Y306876
X309830Y306858
X273462Y302545
X270500Y302500
X267500
X248551Y294953
X248500Y290000
X243500Y287500
X253500
X241962Y277866
X228803Y297594
X223000Y330500
X220416Y330516
X217208Y330534
X214297Y330606
X226483Y342482
X230622Y342470
X235500Y342500
X240500
X245500
X238500Y362500
X280536Y364081
X280276Y369000
X292601Y374075
X282000Y387000
X303340Y388757
X304500Y320000
X301870Y319979
X217875Y390669
X215012Y390692
X212053Y390669
X204613Y390681
X200844Y390590
X196883Y390622
X193778Y390605
X187358Y390733
X184504Y390653
X181700Y390642
X198687Y401113
X202500Y401199
X317574Y386894
X315000Y379000
X315112Y373846
X328680Y371099
X328514Y366026
X328493Y361956
X351742Y374424
X351581Y379257
X338803Y388910
X372055Y400876
X384500Y408500
X403000
X417500Y385215
X437000Y397500
X384537Y381986
X388178Y342817
X379365Y342720
X364060Y338772
Y336303
X364104Y333606
X361400Y317782
X373300Y320063
X376500Y320000
X382938Y320052
X388628Y319740
X353348Y325610
X326863Y322363
X402500Y356000
T02
X344353Y289666
Y308563
X234499Y302437
X228593
X255577Y330629
X261482
T04
X472172Y282106
Y292127
Y302106
X472111Y312126
X389633Y261713
X389823Y252062
X379823
X379633Y261713
X369633
X369823Y252062
X369617Y240500
X359617Y240500
X379637Y240561
X389616
X399637Y240561
X301617Y242719
Y262404
X195820Y288930
Y298952
Y308930
X195760Y318951
X222174Y369003
Y379003
X420068Y412425
X430068
X440068
T06
X450717Y284874
X460717
X460717Y309154
X450717
X269810Y252562
X256030
X230437Y272558
X220437
X211344Y344833
X197564
X248515Y374743
X262294
T07
X289000Y309500
X207786Y373177
X197786
X187786
T08
X473500Y253500
X463500
X453500
X443500
X433500
X423500
X413500
X403500
X289000Y279500
Y289500
Y299500
T09
X188336Y400774
X211092
T10
X492500Y240500
X169000Y239000
X167500Y411000
X491000Y412500
M30
