G04*
G04 #@! TF.GenerationSoftware,Altium Limited,Altium Designer,23.3.1 (30)*
G04*
G04 Layer_Color=128*
%FSLAX25Y25*%
%MOIN*%
G70*
G04*
G04 #@! TF.SameCoordinates,0926E253-2B7E-4DA0-91A0-339D2320E812*
G04*
G04*
G04 #@! TF.FilePolarity,Positive*
G04*
G01*
G75*
%ADD71C,0.00500*%
D71*
X378323Y252062D02*
X381323D01*
X379823Y250562D02*
Y253562D01*
X388323Y252062D02*
X391323D01*
X389823Y250562D02*
Y253562D01*
X368323Y252062D02*
X371323D01*
X369823Y250562D02*
Y253562D01*
X300116Y242719D02*
X303116D01*
X301617Y241219D02*
Y244219D01*
X300116Y262404D02*
X303116D01*
X301617Y260904D02*
Y263904D01*
X228665Y272558D02*
X232209D01*
X230437Y270787D02*
Y274330D01*
X218665Y272558D02*
X222209D01*
X220437Y270787D02*
Y274330D01*
X194260Y318951D02*
X197260D01*
X195760Y317451D02*
Y320451D01*
X194320Y308930D02*
X197320D01*
X195820Y307430D02*
Y310430D01*
X194320Y288930D02*
X197320D01*
X195820Y287430D02*
Y290430D01*
X194320Y298952D02*
X197320D01*
X195820Y297452D02*
Y300452D01*
X343172Y308563D02*
X345534D01*
X344353Y307382D02*
Y309745D01*
X343172Y289666D02*
X345534D01*
X344353Y288485D02*
Y290847D01*
X287032Y279500D02*
X290968D01*
X289000Y277532D02*
Y281469D01*
X287032Y289500D02*
X290968D01*
X289000Y287531D02*
Y291469D01*
X287032Y299500D02*
X290968D01*
X289000Y297532D02*
Y301468D01*
X287200Y309500D02*
X290800D01*
X289000Y307700D02*
Y311300D01*
X428568Y412425D02*
X431568D01*
X430068Y410925D02*
Y413925D01*
X418568Y412425D02*
X421568D01*
X420068Y410925D02*
Y413925D01*
X438568Y412425D02*
X441568D01*
X440068Y410925D02*
Y413925D01*
X470611Y312126D02*
X473611D01*
X472111Y310626D02*
Y313626D01*
X470672Y302106D02*
X473672D01*
X472172Y300606D02*
Y303606D01*
X470672Y282106D02*
X473672D01*
X472172Y280606D02*
Y283606D01*
X470672Y292127D02*
X473672D01*
X472172Y290627D02*
Y293627D01*
X458946Y309154D02*
X462489D01*
X460717Y307383D02*
Y310926D01*
X448946Y309154D02*
X452489D01*
X450717Y307383D02*
Y310926D01*
X458946Y284874D02*
X462489D01*
X460717Y283102D02*
Y286645D01*
X448946Y284874D02*
X452489D01*
X450717Y283102D02*
Y286645D01*
X421531Y253500D02*
X425468D01*
X423500Y251532D02*
Y255469D01*
X411531Y253500D02*
X415469D01*
X413500Y251532D02*
Y255469D01*
X401532Y253500D02*
X405469D01*
X403500Y251532D02*
Y255469D01*
X461531Y253500D02*
X465469D01*
X463500Y251532D02*
Y255469D01*
X451532Y253500D02*
X455469D01*
X453500Y251532D02*
Y255469D01*
X441532Y253500D02*
X445469D01*
X443500Y251532D02*
Y255469D01*
X431531Y253500D02*
X435468D01*
X433500Y251532D02*
Y255469D01*
X471531Y253500D02*
X475468D01*
X473500Y251532D02*
Y255469D01*
X378133Y261713D02*
X381133D01*
X379633Y260213D02*
Y263213D01*
X388133Y261713D02*
X391133D01*
X389633Y260213D02*
Y263213D01*
X368133Y261713D02*
X371133D01*
X369633Y260213D02*
Y263213D01*
X398137Y240561D02*
X401137D01*
X399637Y239060D02*
Y242060D01*
X378137Y240561D02*
X381137D01*
X379637Y239060D02*
Y242060D01*
X388116Y240561D02*
X391116D01*
X389616Y239060D02*
Y242060D01*
X358117Y240500D02*
X361117D01*
X359617Y239000D02*
Y242000D01*
X368117Y240500D02*
X371117D01*
X369617Y239000D02*
Y242000D01*
X268038Y252562D02*
X271581D01*
X269810Y250790D02*
Y254334D01*
X254259Y252562D02*
X257802D01*
X256030Y250790D02*
Y254334D01*
X233318Y302437D02*
X235680D01*
X234499Y301256D02*
Y303618D01*
X227412Y302437D02*
X229775D01*
X228593Y301256D02*
Y303618D01*
X254396Y330629D02*
X256758D01*
X255577Y329448D02*
Y331810D01*
X260301Y330629D02*
X262663D01*
X261482Y329448D02*
Y331810D01*
X260523Y374743D02*
X264066D01*
X262294Y372971D02*
Y376514D01*
X246743Y374743D02*
X250287D01*
X248515Y372971D02*
Y376514D01*
X220674Y369003D02*
X223674D01*
X222174Y367503D02*
Y370503D01*
X220674Y379003D02*
X223674D01*
X222174Y377503D02*
Y380503D01*
X205986Y373177D02*
X209586D01*
X207786Y371377D02*
Y374977D01*
X195986Y373177D02*
X199586D01*
X197786Y371377D02*
Y374977D01*
X185986Y373177D02*
X189586D01*
X187786Y371377D02*
Y374977D01*
X209572Y344833D02*
X213116D01*
X211344Y343062D02*
Y346605D01*
X195793Y344833D02*
X199336D01*
X197564Y343062D02*
Y346605D01*
X216397Y398805D02*
X219153D01*
X217775Y397427D02*
Y400183D01*
X180964Y398805D02*
X183720D01*
X182342Y397427D02*
Y400183D01*
X180767Y415144D02*
X183916D01*
X182342Y413569D02*
Y416719D01*
X216200Y415144D02*
X219350D01*
X217775Y413569D02*
Y416719D01*
X186859Y400774D02*
X189812D01*
X188336Y399297D02*
Y402250D01*
X209615Y400774D02*
X212568D01*
X211092Y399297D02*
Y402250D01*
X486201Y240500D02*
X498799D01*
X492500Y234201D02*
Y246799D01*
X162701Y239000D02*
X175299D01*
X169000Y232701D02*
Y245299D01*
X484701Y412500D02*
X497299D01*
X491000Y406201D02*
Y418799D01*
X161201Y411000D02*
X173799D01*
X167500Y404701D02*
Y417299D01*
X432117Y279966D02*
X433317D01*
X432717Y279366D02*
Y280566D01*
X433900Y295785D02*
X435100D01*
X434500Y295185D02*
Y296385D01*
X186758Y390733D02*
X187958D01*
X187358Y390133D02*
Y391333D01*
X183905Y390653D02*
X185105D01*
X184504Y390053D02*
Y391253D01*
X181100Y390642D02*
X182300D01*
X181700Y390042D02*
Y391242D01*
X382338Y320052D02*
X383538D01*
X382938Y319452D02*
Y320652D01*
X388028Y319740D02*
X389228D01*
X388628Y319140D02*
Y320340D01*
X242900Y287500D02*
X244100D01*
X243500Y286900D02*
Y288100D01*
X247900Y290000D02*
X249100D01*
X248500Y289400D02*
Y290600D01*
X252900Y287500D02*
X254100D01*
X253500Y286900D02*
Y288100D01*
X237900Y362500D02*
X239100D01*
X238500Y361900D02*
Y363100D01*
X234900Y342500D02*
X236100D01*
X235500Y341900D02*
Y343100D01*
X402400Y408500D02*
X403600D01*
X403000Y407900D02*
Y409100D01*
X383900Y408500D02*
X385100D01*
X384500Y407900D02*
Y409100D01*
X247951Y294953D02*
X249151D01*
X248551Y294353D02*
Y295553D01*
X244900Y342500D02*
X246100D01*
X245500Y341900D02*
Y343100D01*
X239900Y342500D02*
X241100D01*
X240500Y341900D02*
Y343100D01*
X230022Y342470D02*
X231222D01*
X230622Y341870D02*
Y343070D01*
X225883Y342482D02*
X227083D01*
X226483Y341882D02*
Y343082D01*
X272862Y302545D02*
X274062D01*
X273462Y301945D02*
Y303145D01*
X266900Y302500D02*
X268100D01*
X267500Y301900D02*
Y303100D01*
X269900Y302500D02*
X271100D01*
X270500Y301900D02*
Y303100D01*
X222400Y330500D02*
X223600D01*
X223000Y329900D02*
Y331100D01*
X219816Y330516D02*
X221016D01*
X220416Y329916D02*
Y331116D01*
X216608Y330534D02*
X217808D01*
X217208Y329934D02*
Y331134D01*
X213697Y330606D02*
X214897D01*
X214297Y330006D02*
Y331206D01*
X228203Y297594D02*
X229403D01*
X228803Y296994D02*
Y298194D01*
X325696Y248343D02*
X326896D01*
X326296Y247743D02*
Y248943D01*
X338400Y271500D02*
X339600D01*
X339000Y270900D02*
Y272100D01*
X463140Y262500D02*
X464340D01*
X463740Y261900D02*
Y263100D01*
X435400Y264500D02*
X436600D01*
X436000Y263900D02*
Y265100D01*
X193178Y390605D02*
X194378D01*
X193778Y390005D02*
Y391205D01*
X196283Y390622D02*
X197483D01*
X196883Y390022D02*
Y391222D01*
X211453Y390669D02*
X212653D01*
X212053Y390069D02*
Y391269D01*
X204013Y390681D02*
X205213D01*
X204613Y390081D02*
Y391281D01*
X200244Y390590D02*
X201444D01*
X200844Y389990D02*
Y391190D01*
X217275Y390669D02*
X218475D01*
X217875Y390069D02*
Y391269D01*
X214412Y390692D02*
X215612D01*
X215012Y390092D02*
Y391293D01*
X338203Y388910D02*
X339403D01*
X338803Y388310D02*
Y389510D01*
X316974Y386894D02*
X318174D01*
X317574Y386295D02*
Y387494D01*
X328080Y371099D02*
X329280D01*
X328680Y370499D02*
Y371699D01*
X279936Y364081D02*
X281136D01*
X280536Y363481D02*
Y364681D01*
X201900Y401199D02*
X203100D01*
X202500Y400599D02*
Y401799D01*
X279676Y369000D02*
X280875D01*
X280276Y368400D02*
Y369600D01*
X198087Y401113D02*
X199286D01*
X198687Y400513D02*
Y401713D01*
X327914Y366026D02*
X329114D01*
X328514Y365426D02*
Y366626D01*
X327893Y361956D02*
X329093D01*
X328493Y361356D02*
Y362556D01*
X314400Y379000D02*
X315600D01*
X315000Y378400D02*
Y379600D01*
X314512Y373846D02*
X315712D01*
X315112Y373246D02*
Y374446D01*
X281400Y387000D02*
X282600D01*
X282000Y386400D02*
Y387600D01*
X241361Y277866D02*
X242562D01*
X241962Y277266D02*
Y278466D01*
X354800Y287665D02*
X356000D01*
X355400Y287065D02*
Y288265D01*
X363504Y333606D02*
X364704D01*
X364104Y333006D02*
Y334206D01*
X363460Y338772D02*
X364660D01*
X364060Y338172D02*
Y339372D01*
X363460Y336303D02*
X364660D01*
X364060Y335703D02*
Y336903D01*
X401900Y356000D02*
X403100D01*
X402500Y355400D02*
Y356600D01*
X302740Y388757D02*
X303940D01*
X303340Y388157D02*
Y389357D01*
X303900Y320000D02*
X305100D01*
X304500Y319400D02*
Y320600D01*
X301270Y319979D02*
X302470D01*
X301870Y319379D02*
Y320579D01*
X326263Y322363D02*
X327463D01*
X326863Y321763D02*
Y322963D01*
X391138Y275345D02*
X392338D01*
X391738Y274745D02*
Y275945D01*
X386075Y275401D02*
X387275D01*
X386675Y274801D02*
Y276002D01*
X361477Y286423D02*
X362677D01*
X362077Y285823D02*
Y287023D01*
X360900Y294250D02*
X362100D01*
X361500Y293650D02*
Y294849D01*
X392064Y296516D02*
X393264D01*
X392664Y295916D02*
Y297116D01*
X389807Y299751D02*
X391006D01*
X390406Y299151D02*
Y300351D01*
X389657Y302747D02*
X390857D01*
X390257Y302147D02*
Y303347D01*
X382900Y297000D02*
X384100D01*
X383500Y296400D02*
Y297600D01*
X383740Y300907D02*
X384940D01*
X384340Y300307D02*
Y301507D01*
X379900Y295000D02*
X381100D01*
X380500Y294400D02*
Y295600D01*
X377253Y300318D02*
X378452D01*
X377853Y299718D02*
Y300918D01*
X375900Y320000D02*
X377100D01*
X376500Y319400D02*
Y320600D01*
X372700Y320063D02*
X373900D01*
X373300Y319463D02*
Y320663D01*
X360800Y317782D02*
X362000D01*
X361400Y317182D02*
Y318382D01*
X352748Y325610D02*
X353948D01*
X353348Y325010D02*
Y326210D01*
X292001Y374075D02*
X293201D01*
X292601Y373475D02*
Y374675D01*
X394427Y275224D02*
X395627D01*
X395027Y274624D02*
Y275824D01*
X360717Y291255D02*
X361917D01*
X361317Y290655D02*
Y291855D01*
X405900Y305016D02*
X407100D01*
X406500Y304416D02*
Y305616D01*
X428900Y306500D02*
X430100D01*
X429500Y305900D02*
Y307100D01*
X406043Y308532D02*
X407243D01*
X406643Y307932D02*
Y309132D01*
X351142Y374424D02*
X352342D01*
X351742Y373824D02*
Y375024D01*
X350981Y379257D02*
X352181D01*
X351581Y378657D02*
Y379857D01*
X383937Y381986D02*
X385137D01*
X384537Y381386D02*
Y382586D01*
X436400Y397500D02*
X437600D01*
X437000Y396900D02*
Y398100D01*
X416900Y385215D02*
X418100D01*
X417500Y384615D02*
Y385815D01*
X387578Y342817D02*
X388778D01*
X388178Y342217D02*
Y343417D01*
X378765Y342720D02*
X379965D01*
X379365Y342120D02*
Y343320D01*
X433690Y307553D02*
X434890D01*
X434290Y306953D02*
Y308153D01*
X321817Y306876D02*
X323017D01*
X322417Y306276D02*
Y307476D01*
X309230Y306858D02*
X310431D01*
X309830Y306258D02*
Y307458D01*
X371455Y400876D02*
X372655D01*
X372055Y400276D02*
Y401476D01*
X360470Y308430D02*
X361670D01*
X361070Y307830D02*
Y309030D01*
M02*
